M48
;GenerationSoftware,Autodesk,EAGLE,9.7.0*%
;CreationDate,2026-02-06T00:05:44Z*%
FMAT,2
ICI,OFF
METRIC,TZ,000.000
T3C0.350
T2C0.900
T1C1.016
%
G90
M71
T1
X-17742Y-1270
X-17742Y-3810
X-17742Y-6350
X-17742Y-8890
X-30442Y16510
X-32982Y-8890
X-27902Y16510
X-17742Y-13970
X-32982Y13970
X-32982Y3810
X-32982Y11430
X-32982Y-16510
X-17742Y16510
X-32982Y8890
X-17742Y8890
X-17742Y11430
X-17742Y13970
X-17742Y-11430
X-17742Y-16510
X35560Y6350
X38100Y6350
X35560Y2540
X38100Y2540
X35560Y-1270
X38100Y-1270
X35560Y-5080
X6350Y10160
X3810Y10160
X1270Y10160
X-1270Y10160
X-3810Y10160
X-32982Y16510
X-32982Y-13970
X-32982Y-6350
X-32982Y-3810
X-32982Y-1270
X-32982Y1270
X38100Y-5080
X-32982Y6350
X-32982Y-11430
X-20282Y16510
X-17742Y6350
X-22822Y16510
X-17742Y3810
X-25362Y16510
X-17742Y1270
T2
X-8850Y-11430
X-3850Y-11430
T3
X-406Y-20777
X12090Y-20777
X24536Y-20574
X36424Y-19050
X45517Y-11582
X49124Y-254
X45974Y10973
X37008Y18669
X25248Y20726
X406Y20726
X-11989Y20726
X-24486Y20777
X-36322Y19101
X-45466Y11633
X-48920Y610
X-46126Y-10516
X-37490Y-18390
X-25502Y-20625
X-12878Y-20701
X-2667Y-838
X-76Y1372
X-25679Y-3429
X-23165Y-7010
X-5791Y7696
X-4801Y6629
X12751Y20574
M30