G04 EAGLE Gerber RS-274X export*
G75*
%MOMM*%
%FSLAX34Y34*%
%LPD*%
%INTop Copper*%
%IPPOS*%
%AMOC8*
5,1,8,0,0,1.08239X$1,22.5*%
G01*
G04 Define Apertures*
%ADD10R,1.200000X0.600000*%
%ADD11C,1.879600*%
%ADD12R,1.000000X0.850000*%
%ADD13R,0.850000X1.000000*%
%ADD14R,1.000000X1.100000*%
%ADD15R,1.930400X1.930400*%
%ADD16C,1.930400*%
%ADD17R,0.800000X1.200000*%
%ADD18C,0.406400*%
%ADD19C,0.756400*%
%ADD20C,0.152400*%
D10*
X-12500Y10111D03*
X-12500Y-8889D03*
X12500Y611D03*
X-266500Y10111D03*
X-266500Y-8889D03*
X-241500Y611D03*
X241500Y10111D03*
X241500Y-8889D03*
X266500Y611D03*
D11*
X63500Y101600D03*
X38100Y101600D03*
X12700Y101600D03*
X-12700Y101600D03*
X-38100Y101600D03*
X-329819Y165100D03*
X-329819Y-139700D03*
X-329819Y-63500D03*
X-329819Y-38100D03*
X-329819Y-12700D03*
X-329819Y12700D03*
X-329819Y38100D03*
X-329819Y63500D03*
X-329819Y-114300D03*
X-202819Y165100D03*
X-177419Y63500D03*
X-228219Y165100D03*
X-177419Y38100D03*
X-253619Y165100D03*
X-177419Y12700D03*
X-177419Y-12700D03*
X-177419Y-38100D03*
X-177419Y-63500D03*
X-177419Y-88900D03*
X-304419Y165100D03*
X-329819Y-88900D03*
X-279019Y165100D03*
X-177419Y-139700D03*
X-329819Y139700D03*
X-329819Y114300D03*
X-329819Y-165100D03*
X-177419Y165100D03*
X-329819Y88900D03*
X-177419Y88900D03*
X-177419Y114300D03*
X-177419Y139700D03*
X-177419Y-114300D03*
X-177419Y-165100D03*
D12*
X18836Y-225239D03*
X-16164Y-225239D03*
X18836Y-207739D03*
X-16164Y-207739D03*
X144500Y-225239D03*
X109500Y-225239D03*
X144500Y-207739D03*
X109500Y-207739D03*
X268960Y-223380D03*
X233960Y-223380D03*
X268960Y-205880D03*
X233960Y-205880D03*
D13*
G36*
X390204Y-202986D02*
X386612Y-195284D01*
X395674Y-191058D01*
X399266Y-198760D01*
X390204Y-202986D01*
G37*
G36*
X358484Y-217778D02*
X354892Y-210076D01*
X363954Y-205850D01*
X367546Y-213552D01*
X358484Y-217778D01*
G37*
G36*
X382808Y-187126D02*
X379216Y-179424D01*
X388278Y-175198D01*
X391870Y-182900D01*
X382808Y-187126D01*
G37*
G36*
X351088Y-201918D02*
X347496Y-194216D01*
X356558Y-189990D01*
X360150Y-197692D01*
X351088Y-201918D01*
G37*
G36*
X483706Y-111095D02*
X476346Y-106845D01*
X481346Y-98185D01*
X488706Y-102435D01*
X483706Y-111095D01*
G37*
G36*
X466206Y-141405D02*
X458846Y-137155D01*
X463846Y-128495D01*
X471206Y-132745D01*
X466206Y-141405D01*
G37*
G36*
X468550Y-102345D02*
X461190Y-98095D01*
X466190Y-89435D01*
X473550Y-93685D01*
X468550Y-102345D01*
G37*
G36*
X451050Y-132655D02*
X443690Y-128405D01*
X448690Y-119745D01*
X456050Y-123995D01*
X451050Y-132655D01*
G37*
X508876Y19907D03*
X508876Y-15093D03*
X491376Y19907D03*
X491376Y-15093D03*
G36*
X467992Y136341D02*
X461030Y131466D01*
X455294Y139657D01*
X462256Y144532D01*
X467992Y136341D01*
G37*
G36*
X488067Y107671D02*
X481105Y102796D01*
X475369Y110987D01*
X482331Y115862D01*
X488067Y107671D01*
G37*
G36*
X453657Y126303D02*
X446695Y121428D01*
X440959Y129619D01*
X447921Y134494D01*
X453657Y126303D01*
G37*
G36*
X473732Y97633D02*
X466770Y92758D01*
X461034Y100949D01*
X467996Y105824D01*
X473732Y97633D01*
G37*
G36*
X363735Y213914D02*
X360143Y206212D01*
X351081Y210438D01*
X354673Y218140D01*
X363735Y213914D01*
G37*
G36*
X395455Y199122D02*
X391863Y191420D01*
X382801Y195646D01*
X386393Y203348D01*
X395455Y199122D01*
G37*
G36*
X356339Y198054D02*
X352747Y190352D01*
X343685Y194578D01*
X347277Y202280D01*
X356339Y198054D01*
G37*
G36*
X388059Y183262D02*
X384467Y175560D01*
X375405Y179786D01*
X378997Y187488D01*
X388059Y183262D01*
G37*
D12*
X230150Y224650D03*
X265150Y224650D03*
X230150Y207150D03*
X265150Y207150D03*
X105690Y223380D03*
X140690Y223380D03*
X105690Y205880D03*
X140690Y205880D03*
X-17500Y224650D03*
X17500Y224650D03*
X-17500Y207150D03*
X17500Y207150D03*
X-141960Y224650D03*
X-106960Y224650D03*
X-141960Y207150D03*
X-106960Y207150D03*
X-267690Y225239D03*
X-232690Y225239D03*
X-267690Y207739D03*
X-232690Y207739D03*
D13*
G36*
X-389529Y202262D02*
X-386072Y194498D01*
X-395207Y190430D01*
X-398664Y198194D01*
X-389529Y202262D01*
G37*
G36*
X-357555Y216497D02*
X-354098Y208733D01*
X-363233Y204665D01*
X-366690Y212429D01*
X-357555Y216497D01*
G37*
G36*
X-382411Y186275D02*
X-378954Y178511D01*
X-388089Y174443D01*
X-391546Y182207D01*
X-382411Y186275D01*
G37*
G36*
X-350437Y200510D02*
X-346980Y192746D01*
X-356115Y188678D01*
X-359572Y196442D01*
X-350437Y200510D01*
G37*
G36*
X-483552Y112393D02*
X-476424Y107763D01*
X-481870Y99377D01*
X-488998Y104007D01*
X-483552Y112393D01*
G37*
G36*
X-464489Y141746D02*
X-457361Y137116D01*
X-462807Y128730D01*
X-469935Y133360D01*
X-464489Y141746D01*
G37*
G36*
X-468875Y102862D02*
X-461747Y98232D01*
X-467193Y89846D01*
X-474321Y94476D01*
X-468875Y102862D01*
G37*
G36*
X-449812Y132215D02*
X-442684Y127585D01*
X-448130Y119199D01*
X-455258Y123829D01*
X-449812Y132215D01*
G37*
X-509053Y-17874D03*
X-509053Y17126D03*
X-491553Y-17874D03*
X-491553Y17126D03*
G36*
X-468835Y-134904D02*
X-461707Y-130274D01*
X-456261Y-138660D01*
X-463389Y-143290D01*
X-468835Y-134904D01*
G37*
G36*
X-487898Y-105551D02*
X-480770Y-100921D01*
X-475324Y-109307D01*
X-482452Y-113937D01*
X-487898Y-105551D01*
G37*
G36*
X-454158Y-125373D02*
X-447030Y-120743D01*
X-441584Y-129129D01*
X-448712Y-133759D01*
X-454158Y-125373D01*
G37*
G36*
X-473221Y-96020D02*
X-466093Y-91390D01*
X-460647Y-99776D01*
X-467775Y-104406D01*
X-473221Y-96020D01*
G37*
G36*
X-365487Y-212964D02*
X-362165Y-205141D01*
X-352961Y-209048D01*
X-356283Y-216871D01*
X-365487Y-212964D01*
G37*
G36*
X-397705Y-199289D02*
X-394383Y-191466D01*
X-385179Y-195373D01*
X-388501Y-203196D01*
X-397705Y-199289D01*
G37*
G36*
X-358649Y-196855D02*
X-355327Y-189032D01*
X-346123Y-192939D01*
X-349445Y-200762D01*
X-358649Y-196855D01*
G37*
G36*
X-390867Y-183180D02*
X-387545Y-175357D01*
X-378341Y-179264D01*
X-381663Y-187087D01*
X-390867Y-183180D01*
G37*
D12*
X-231420Y-224650D03*
X-266420Y-224650D03*
X-231420Y-207150D03*
X-266420Y-207150D03*
X-106960Y-224650D03*
X-141960Y-224650D03*
X-106960Y-207150D03*
X-141960Y-207150D03*
D14*
X215900Y8500D03*
X215900Y-8500D03*
X-38100Y8500D03*
X-38100Y-8500D03*
X-292100Y8500D03*
X-292100Y-8500D03*
D15*
X-38500Y-114300D03*
D16*
X-88500Y-114300D03*
D17*
X-72500Y-152400D03*
X-54500Y-152400D03*
D11*
X355600Y63500D03*
X381000Y63500D03*
X355600Y25400D03*
X381000Y25400D03*
X355600Y-12700D03*
X381000Y-12700D03*
X355600Y-50800D03*
X381000Y-50800D03*
D18*
X-4097Y-207739D02*
X-16164Y-207739D01*
X-4097Y-207739D02*
X-4064Y-207772D01*
D19*
X-4064Y-207772D03*
D18*
X109500Y-207739D02*
X120871Y-207739D01*
X120904Y-207772D01*
D19*
X120904Y-207772D03*
D18*
X233960Y-205880D02*
X244208Y-205880D01*
X244348Y-205740D01*
X245364Y-205740D01*
D19*
X245364Y-205740D03*
D18*
X353823Y-195954D02*
X357244Y-192532D01*
X362204Y-192532D01*
X364236Y-190500D01*
D19*
X364236Y-190500D03*
D18*
X449870Y-126200D02*
X455168Y-120903D01*
X455168Y-115824D01*
D19*
X455168Y-115824D03*
D18*
X491376Y-15093D02*
X491376Y-2680D01*
X491236Y-2540D01*
D19*
X491236Y-2540D03*
D18*
X467383Y99291D02*
X459740Y106934D01*
X459740Y109728D01*
D19*
X459740Y109728D03*
D18*
X381732Y181524D02*
X375752Y181524D01*
X370332Y186944D01*
X370078Y186690D01*
D19*
X370078Y186690D03*
D18*
X265150Y207150D02*
X254622Y207150D01*
X254508Y207264D01*
X252476Y207264D01*
D19*
X252476Y207264D03*
D18*
X140690Y205880D02*
X127648Y205880D01*
X127508Y205740D01*
D19*
X127508Y205740D03*
D18*
X17500Y207150D02*
X17106Y206756D01*
X4572Y206756D01*
X4064Y207264D01*
D19*
X4064Y207264D03*
D18*
X-106960Y207150D02*
X-118758Y207150D01*
X-118872Y207264D01*
X-119888Y207264D01*
D19*
X-119888Y207264D03*
D18*
X-232690Y207739D02*
X-244823Y207739D01*
X-244856Y207772D01*
D19*
X-244856Y207772D03*
D18*
X-353276Y194594D02*
X-357370Y190500D01*
X-363220Y190500D01*
X-363220Y191008D01*
D19*
X-363220Y191008D03*
D18*
X-448971Y125707D02*
X-454660Y120019D01*
X-454660Y116332D01*
D19*
X-454660Y116332D03*
D18*
X-491553Y17126D02*
X-489204Y14777D01*
X-489204Y6096D01*
D19*
X-489204Y6096D03*
D18*
X-466934Y-97898D02*
X-466934Y-98978D01*
X-461264Y-104648D01*
X-461264Y-105156D01*
D19*
X-461264Y-105156D03*
D18*
X-384604Y-181222D02*
X-381930Y-183896D01*
X-374904Y-183896D01*
D19*
X-374904Y-183896D03*
D18*
X-266420Y-207150D02*
X-265518Y-206248D01*
X-255016Y-206248D01*
D19*
X-255016Y-206248D03*
D18*
X-141960Y-207150D02*
X-129146Y-207150D01*
X-129032Y-207264D01*
X-128778Y-207010D01*
D19*
X-128778Y-207010D03*
D18*
X216408Y-9144D02*
X224028Y-9144D01*
X230886Y-16002D01*
X249936Y-16002D01*
X265938Y0D01*
X216408Y-9144D02*
X215900Y-8500D01*
X265938Y0D02*
X266500Y611D01*
X-284226Y-9144D02*
X-291846Y-9144D01*
X-284226Y-9144D02*
X-277368Y-16002D01*
X-257556Y-16002D01*
X-241554Y0D01*
X-291846Y-9144D02*
X-292100Y-8500D01*
X-241554Y0D02*
X-241500Y611D01*
X-38100Y-8382D02*
X-26670Y-8382D01*
X-38100Y-8382D02*
X-38100Y-8500D01*
X-762Y13716D02*
X12192Y762D01*
X12500Y611D01*
X-256794Y-17526D02*
X-256794Y-34290D01*
X-256794Y-17526D02*
X-257556Y-16002D01*
X268224Y0D02*
X305562Y0D01*
X342900Y-37338D01*
X368046Y-37338D01*
X381000Y-50292D01*
X268224Y0D02*
X266500Y611D01*
X381000Y-50292D02*
X381000Y-50800D01*
D19*
X-26670Y-8382D03*
X-762Y13716D03*
X-256794Y-34290D03*
D18*
X-267462Y9144D02*
X-291846Y9144D01*
X-267462Y9144D02*
X-266700Y9906D01*
X-291846Y9144D02*
X-292100Y8500D01*
X-266700Y9906D02*
X-266500Y10111D01*
X-231648Y-221742D02*
X-231648Y-224028D01*
X-231648Y-221742D02*
X-240030Y-213360D01*
X-240030Y-201168D01*
X-204216Y-165354D01*
X-177546Y-165354D01*
X-231648Y-224028D02*
X-231420Y-224650D01*
X-177546Y-165354D02*
X-177419Y-165100D01*
X-107442Y-220980D02*
X-107442Y-224028D01*
X-107442Y-220980D02*
X-121158Y-207264D01*
X-121158Y-204216D01*
X-159258Y-166116D01*
X-176022Y-166116D01*
X-107442Y-224028D02*
X-106960Y-224650D01*
X-176022Y-166116D02*
X-177419Y-165100D01*
X-235458Y9144D02*
X-265176Y9144D01*
X-235458Y9144D02*
X-231648Y5334D01*
X-231648Y-70104D01*
X-265176Y9144D02*
X-266500Y10111D01*
X18288Y-221742D02*
X18288Y-224790D01*
X18288Y-221742D02*
X3810Y-207264D01*
X3810Y-199644D02*
X3810Y-156210D01*
X3810Y-199644D02*
X3810Y-207264D01*
X3810Y-156210D02*
X-38100Y-114300D01*
X18288Y-224790D02*
X18836Y-225239D01*
X-38100Y-114300D02*
X-38500Y-114300D01*
X144018Y-221742D02*
X144018Y-224790D01*
X144018Y-221742D02*
X128778Y-206502D01*
X128778Y-204978D01*
X123444Y-199644D01*
X3810Y-199644D01*
X144018Y-224790D02*
X144500Y-225239D01*
X268224Y-223266D02*
X268224Y-219456D01*
X252984Y-204216D01*
X252984Y-202692D01*
X247650Y-197358D01*
X137160Y-197358D01*
X130302Y-204216D01*
X268224Y-223266D02*
X268960Y-223380D01*
X130302Y-204216D02*
X128778Y-204978D01*
X368046Y-197358D02*
X374904Y-197358D01*
X392430Y-197358D01*
X368046Y-197358D02*
X363474Y-201930D01*
X359664Y-201930D01*
X356616Y-204978D01*
X353568Y-204978D01*
X352044Y-206502D01*
X284226Y-206502D01*
X275082Y-197358D01*
X259080Y-197358D01*
X254508Y-201930D01*
X392430Y-197358D02*
X392939Y-197022D01*
X254508Y-201930D02*
X252984Y-202692D01*
X471678Y-105156D02*
X482346Y-105156D01*
X471678Y-105156D02*
X468630Y-108204D01*
X444246Y-108204D01*
X374904Y-177546D01*
X374904Y-197358D01*
X482346Y-105156D02*
X482526Y-104640D01*
X-118110Y-203454D02*
X-119634Y-203454D01*
X-118110Y-203454D02*
X-76962Y-162306D01*
X-67056Y-162306D01*
X-62484Y-157734D01*
X-62484Y-144018D01*
X-36576Y-118110D01*
X-119634Y-203454D02*
X-121158Y-204216D01*
X-36576Y-118110D02*
X-38500Y-114300D01*
X-505968Y-17526D02*
X-509016Y-17526D01*
X-505968Y-17526D02*
X-497586Y-9144D01*
X-485394Y-9144D01*
X-477012Y-17526D01*
X-477012Y-99822D01*
X-471678Y-105156D01*
X-471678Y-108204D01*
X-463296Y-116586D01*
X-463296Y-136398D01*
X-509053Y-17874D02*
X-509016Y-17526D01*
X-463296Y-136398D02*
X-462548Y-136782D01*
X-471678Y105918D02*
X-482346Y105918D01*
X-471678Y105918D02*
X-470916Y106680D01*
X-464820Y106680D01*
X-457200Y99060D01*
X-457200Y19812D01*
X-484632Y-7620D01*
X-482711Y105885D02*
X-482346Y105918D01*
X-484632Y-7620D02*
X-485394Y-9144D01*
X-391668Y195834D02*
X-386334Y195834D01*
X-374904Y184404D01*
X-374904Y176784D01*
X-451866Y99822D01*
X-455676Y99822D01*
X-391668Y195834D02*
X-392368Y196346D01*
X-455676Y99822D02*
X-457200Y99060D01*
X-364236Y-210312D02*
X-359664Y-210312D01*
X-364236Y-210312D02*
X-384810Y-189738D01*
X-388620Y-189738D01*
X-390906Y-187452D01*
X-392430Y-187452D01*
X-437388Y-142494D01*
X-437388Y-124968D01*
X-445770Y-116586D01*
X-463296Y-116586D01*
X-359664Y-210312D02*
X-359224Y-211006D01*
X-267462Y222504D02*
X-267462Y224790D01*
X-267462Y222504D02*
X-259080Y214122D01*
X-259080Y201930D01*
X-277368Y183642D01*
X-373380Y183642D01*
X-267690Y225239D02*
X-267462Y224790D01*
X-373380Y183642D02*
X-374904Y184404D01*
X-38100Y9144D02*
X-13716Y9144D01*
X-12954Y9906D01*
X-38100Y9144D02*
X-38100Y8500D01*
X-12954Y9906D02*
X-12500Y10111D01*
X-38862Y10668D02*
X-38862Y57150D01*
X-48006Y66294D01*
X-38862Y10668D02*
X-38100Y8500D01*
X216408Y9144D02*
X240030Y9144D01*
X240792Y9906D01*
X216408Y9144D02*
X215900Y8500D01*
X240792Y9906D02*
X241500Y10111D01*
X-141732Y221742D02*
X-141732Y224028D01*
X-141732Y221742D02*
X-127254Y207264D01*
X-127254Y204216D01*
X-121920Y198882D01*
X-11430Y198882D01*
X-8382Y201930D01*
X-8382Y215646D01*
X-16764Y224028D01*
X-141732Y224028D02*
X-141960Y224650D01*
X-17500Y224650D02*
X-16764Y224028D01*
X105918Y223266D02*
X105918Y220218D01*
X114300Y211836D01*
X114300Y199644D01*
X112014Y197358D01*
X-3048Y197358D01*
X-6858Y201168D01*
X105690Y223380D02*
X105918Y223266D01*
X-6858Y201168D02*
X-8382Y201930D01*
X230886Y220980D02*
X230886Y224028D01*
X230886Y220980D02*
X239268Y212598D01*
X239268Y201930D01*
X234696Y197358D01*
X117348Y197358D01*
X115824Y198882D01*
X230150Y224650D02*
X230886Y224028D01*
X115824Y198882D02*
X114300Y199644D01*
X358140Y201930D02*
X358140Y211836D01*
X358140Y201930D02*
X360426Y199644D01*
X360426Y192024D01*
X356997Y188595D02*
X354330Y185928D01*
X356997Y188595D02*
X360426Y192024D01*
X354330Y185928D02*
X256032Y185928D01*
X240792Y201168D01*
X357408Y212176D02*
X358140Y211836D01*
X240792Y201168D02*
X239268Y201930D01*
X461010Y137922D02*
X461010Y128016D01*
X450342Y117348D01*
X428244Y117348D01*
X356997Y188595D01*
X461010Y137922D02*
X461643Y137999D01*
X505968Y19812D02*
X508254Y19812D01*
X505968Y19812D02*
X496824Y10668D01*
X486156Y10668D01*
X454533Y42291D02*
X451104Y45720D01*
X454533Y42291D02*
X486156Y10668D01*
X451104Y45720D02*
X451104Y115824D01*
X508254Y19812D02*
X508876Y19907D01*
X451104Y115824D02*
X450342Y117348D01*
X304800Y9144D02*
X243078Y9144D01*
X304800Y9144D02*
X339852Y-25908D01*
X386334Y-25908D01*
X454533Y42291D01*
X243078Y9144D02*
X241500Y10111D01*
X146304Y76962D02*
X-57912Y76962D01*
X146304Y76962D02*
X214122Y9144D01*
X215900Y8500D01*
X-249174Y201168D02*
X-257556Y201168D01*
X-249174Y201168D02*
X-246888Y198882D01*
X-133350Y198882D01*
X-128778Y203454D01*
X-257556Y201168D02*
X-259080Y201930D01*
X-128778Y203454D02*
X-127254Y204216D01*
X443484Y-83820D02*
X443484Y-106680D01*
X443484Y-83820D02*
X387096Y-27432D01*
X443484Y-106680D02*
X444246Y-108204D01*
X387096Y-27432D02*
X386334Y-25908D01*
D19*
X-231648Y-70104D03*
X-57912Y76962D03*
X-48006Y66294D03*
D20*
X-266700Y-8382D02*
X-278130Y-8382D01*
X-286512Y0D01*
X-297942Y0D01*
X-329184Y-31242D01*
X-329184Y-38100D01*
X-266500Y-8889D02*
X-266700Y-8382D01*
X-329184Y-38100D02*
X-329819Y-38100D01*
X-18288Y-9144D02*
X-12954Y-9144D01*
X-18288Y-9144D02*
X-85344Y-76200D01*
X-316992Y-76200D01*
X-329184Y-64008D01*
X-12954Y-9144D02*
X-12500Y-8889D01*
X-329184Y-64008D02*
X-329819Y-63500D01*
X230124Y-8382D02*
X240792Y-8382D01*
X230124Y-8382D02*
X221742Y0D01*
X165354Y0D01*
X92964Y72390D01*
X-53340Y72390D01*
X240792Y-8382D02*
X241500Y-8889D01*
X-329184Y-12192D02*
X-329819Y-12700D01*
X-329184Y-12192D02*
X-267208Y49784D01*
X-98241Y49784D01*
X-96671Y48214D01*
X-77516Y48214D01*
X-53340Y72390D01*
X-173736Y85344D02*
X-176784Y88392D01*
X-177419Y88900D01*
X-173736Y86106D02*
X22860Y86106D01*
X38100Y101346D01*
X-173736Y86106D02*
X-177419Y88900D01*
X38100Y101346D02*
X38100Y101600D01*
X12700Y101600D02*
X12192Y101346D01*
X-1524Y114300D02*
X-177419Y114300D01*
X-1524Y114300D02*
X11430Y101346D01*
X12700Y101600D01*
X-16764Y-220218D02*
X-16764Y-224790D01*
X-16764Y-220218D02*
X-54102Y-182880D01*
X-54102Y-152400D01*
X-16764Y-224790D02*
X-16164Y-225239D01*
X-54102Y-152400D02*
X-54500Y-152400D01*
X19050Y-208026D02*
X92202Y-208026D01*
X108966Y-224790D01*
X19050Y-208026D02*
X18836Y-207739D01*
X108966Y-224790D02*
X109500Y-225239D01*
X144780Y-208026D02*
X218694Y-208026D01*
X233934Y-223266D01*
X144780Y-208026D02*
X144500Y-207739D01*
X233934Y-223266D02*
X233960Y-223380D01*
X273558Y-211074D02*
X361188Y-211074D01*
X273558Y-211074D02*
X268986Y-206502D01*
X361188Y-211074D02*
X361219Y-211814D01*
X268986Y-206502D02*
X268960Y-205880D01*
X385572Y-180594D02*
X419862Y-180594D01*
X464820Y-135636D01*
X385572Y-180594D02*
X385543Y-181162D01*
X464820Y-135636D02*
X465026Y-134950D01*
X482346Y28956D02*
X482346Y108966D01*
X482346Y28956D02*
X490728Y20574D01*
X482346Y108966D02*
X481718Y109329D01*
X490728Y20574D02*
X491376Y19907D01*
X447294Y128016D02*
X447294Y139446D01*
X389382Y197358D01*
X447294Y128016D02*
X447308Y127961D01*
X389382Y197358D02*
X389128Y197384D01*
X349758Y196596D02*
X292608Y196596D01*
X265176Y224028D01*
X349758Y196596D02*
X350012Y196316D01*
X265176Y224028D02*
X265150Y224650D01*
X230124Y207264D02*
X156972Y207264D01*
X140970Y223266D01*
X230124Y207264D02*
X230150Y207150D01*
X140970Y223266D02*
X140690Y223380D01*
X467868Y-55626D02*
X467868Y-95250D01*
X467868Y-55626D02*
X508254Y-15240D01*
X467868Y-95250D02*
X467370Y-95890D01*
X508254Y-15240D02*
X508876Y-15093D01*
X105156Y206502D02*
X35052Y206502D01*
X17526Y224028D01*
X105156Y206502D02*
X105690Y205880D01*
X17526Y224028D02*
X17500Y224650D01*
X-17526Y207264D02*
X-89916Y207264D01*
X-106680Y224028D01*
X-17526Y207264D02*
X-17500Y207150D01*
X-106680Y224028D02*
X-106960Y224650D01*
X-142494Y207264D02*
X-214884Y207264D01*
X-232410Y224790D01*
X-142494Y207264D02*
X-141960Y207150D01*
X-232410Y224790D02*
X-232690Y225239D01*
X-270510Y210312D02*
X-359664Y210312D01*
X-270510Y210312D02*
X-268224Y208026D01*
X-359664Y210312D02*
X-360394Y210581D01*
X-268224Y208026D02*
X-267690Y207739D01*
X-429768Y135636D02*
X-463296Y135636D01*
X-429768Y135636D02*
X-385572Y179832D01*
X-463296Y135636D02*
X-463648Y135238D01*
X-385572Y179832D02*
X-385250Y180359D01*
X-509016Y48768D02*
X-509016Y17526D01*
X-509016Y48768D02*
X-468630Y89154D01*
X-468630Y96012D01*
X-509016Y17526D02*
X-509053Y17126D01*
X-468630Y96012D02*
X-468034Y96354D01*
X-482346Y-27432D02*
X-482346Y-106680D01*
X-482346Y-27432D02*
X-491490Y-18288D01*
X-482346Y-106680D02*
X-481611Y-107429D01*
X-491490Y-18288D02*
X-491553Y-17874D01*
X-447294Y-127254D02*
X-447294Y-140970D01*
X-391668Y-196596D01*
X-447294Y-127254D02*
X-447871Y-127251D01*
X-391668Y-196596D02*
X-391442Y-197331D01*
X-352044Y-195072D02*
X-295656Y-195072D01*
X-266700Y-224028D01*
X-352044Y-195072D02*
X-352386Y-194897D01*
X-266700Y-224028D02*
X-266420Y-224650D01*
X-230886Y-207264D02*
X-159258Y-207264D01*
X-142494Y-224028D01*
X-230886Y-207264D02*
X-231420Y-207150D01*
X-142494Y-224028D02*
X-141960Y-224650D01*
X-72500Y-152400D02*
X-249174Y-152400D01*
X-326136Y-75438D01*
X-334518Y-75438D01*
X-342138Y-67818D01*
X-342138Y152400D01*
X-329946Y164592D01*
X-329819Y165100D01*
X265938Y64008D02*
X355092Y64008D01*
X265938Y64008D02*
X153162Y176784D01*
X-216408Y176784D01*
X-227838Y165354D01*
X355092Y64008D02*
X355600Y63500D01*
X-227838Y165354D02*
X-228219Y165100D01*
X299466Y25908D02*
X355092Y25908D01*
X299466Y25908D02*
X172212Y153162D01*
X-191262Y153162D01*
X-202692Y164592D01*
X355092Y25908D02*
X355600Y25400D01*
X-202692Y164592D02*
X-202819Y165100D01*
X332994Y-12192D02*
X355092Y-12192D01*
X332994Y-12192D02*
X194310Y126492D01*
X-182118Y126492D01*
X-189738Y118872D01*
X-189738Y76200D01*
X-177546Y64008D01*
X355092Y-12192D02*
X355600Y-12700D01*
X-177419Y63500D02*
X-177546Y64008D01*
X41148Y-50292D02*
X355092Y-50292D01*
X41148Y-50292D02*
X-9144Y0D01*
X-87630Y0D01*
X-125730Y38100D01*
X-177419Y38100D01*
X355092Y-50292D02*
X355600Y-50800D01*
M02*
