G04 EAGLE Gerber RS-274X export*
G75*
%MOMM*%
%FSLAX34Y34*%
%LPD*%
%INBottom Copper*%
%IPPOS*%
%AMOC8*
5,1,8,0,0,1.08239X$1,22.5*%
G01*
G04 Define Apertures*
%ADD10C,1.879600*%
%ADD11R,1.930400X1.930400*%
%ADD12C,1.930400*%
%ADD13R,1.200000X1.400000*%
%ADD14R,1.400000X1.200000*%
%ADD15R,0.800000X1.200000*%
%ADD16R,1.200000X0.800000*%
%ADD17C,0.756400*%
%ADD18C,0.406400*%
%ADD19C,0.152400*%
G36*
X284176Y-229489D02*
X284176Y-229489D01*
X-286500Y-229489D01*
X-286546Y-229488D01*
X-314026Y-227825D01*
X-314117Y-227814D01*
X-341196Y-222852D01*
X-341285Y-222830D01*
X-367568Y-214640D01*
X-367655Y-214607D01*
X-392759Y-203308D01*
X-392840Y-203266D01*
X-416400Y-189024D01*
X-416476Y-188971D01*
X-438147Y-171993D01*
X-438216Y-171932D01*
X-457682Y-152466D01*
X-457743Y-152397D01*
X-474721Y-130726D01*
X-474774Y-130650D01*
X-489016Y-107090D01*
X-489058Y-107009D01*
X-500357Y-81905D01*
X-500390Y-81818D01*
X-508580Y-55535D01*
X-508602Y-55446D01*
X-513564Y-28367D01*
X-513575Y-28276D01*
X-515238Y-796D01*
X-515239Y-750D01*
X-515239Y750D01*
X-515238Y796D01*
X-513575Y28276D01*
X-513564Y28367D01*
X-508602Y55446D01*
X-508580Y55535D01*
X-500390Y81818D01*
X-500357Y81905D01*
X-489058Y107009D01*
X-489016Y107090D01*
X-474774Y130650D01*
X-474721Y130726D01*
X-457743Y152397D01*
X-457682Y152466D01*
X-438216Y171932D01*
X-438147Y171993D01*
X-416476Y188971D01*
X-416400Y189024D01*
X-392840Y203266D01*
X-392759Y203308D01*
X-367655Y214607D01*
X-367568Y214640D01*
X-341285Y222830D01*
X-341196Y222852D01*
X-314117Y227814D01*
X-314026Y227825D01*
X-286546Y229488D01*
X-286500Y229489D01*
X286500Y229489D01*
X286546Y229488D01*
X314026Y227825D01*
X314117Y227814D01*
X341196Y222852D01*
X341285Y222830D01*
X367568Y214640D01*
X367655Y214607D01*
X392759Y203308D01*
X392840Y203266D01*
X416400Y189024D01*
X416476Y188971D01*
X438147Y171993D01*
X438216Y171932D01*
X457682Y152466D01*
X457743Y152397D01*
X474721Y130726D01*
X474774Y130650D01*
X489016Y107090D01*
X489058Y107009D01*
X500357Y81905D01*
X500390Y81818D01*
X508580Y55535D01*
X508602Y55446D01*
X513564Y28367D01*
X513575Y28276D01*
X515237Y800D01*
X515239Y759D01*
X515239Y717D01*
X515239Y673D01*
X515238Y632D01*
X513735Y-26963D01*
X513724Y-27055D01*
X508893Y-54269D01*
X508871Y-54359D01*
X500781Y-80788D01*
X500749Y-80875D01*
X489520Y-106131D01*
X489478Y-106213D01*
X475276Y-129924D01*
X475223Y-130001D01*
X458256Y-151819D01*
X458195Y-151889D01*
X438712Y-171494D01*
X438643Y-171555D01*
X416930Y-188659D01*
X416854Y-188711D01*
X393232Y-203061D01*
X393150Y-203104D01*
X367965Y-214490D01*
X367878Y-214523D01*
X341500Y-222777D01*
X341410Y-222800D01*
X314227Y-227801D01*
X314135Y-227812D01*
X286546Y-229488D01*
X286500Y-229489D01*
X284176Y-229489D01*
G37*
%LPC*%
G36*
X-306592Y154178D02*
X-302246Y154178D01*
X-298232Y155841D01*
X-295160Y158913D01*
X-293497Y162927D01*
X-293497Y167273D01*
X-295160Y171287D01*
X-298232Y174359D01*
X-302246Y176022D01*
X-306592Y176022D01*
X-310606Y174359D01*
X-313678Y171287D01*
X-315341Y167273D01*
X-315341Y162927D01*
X-313678Y158913D01*
X-310606Y155841D01*
X-306592Y154178D01*
G37*
G36*
X-281192Y154178D02*
X-276846Y154178D01*
X-272832Y155841D01*
X-269760Y158913D01*
X-268097Y162927D01*
X-268097Y167273D01*
X-269760Y171287D01*
X-272832Y174359D01*
X-276846Y176022D01*
X-281192Y176022D01*
X-285206Y174359D01*
X-288278Y171287D01*
X-289941Y167273D01*
X-289941Y162927D01*
X-288278Y158913D01*
X-285206Y155841D01*
X-281192Y154178D01*
G37*
G36*
X-179592Y154178D02*
X-175246Y154178D01*
X-171232Y155841D01*
X-168160Y158913D01*
X-166497Y162927D01*
X-166497Y167273D01*
X-168160Y171287D01*
X-171232Y174359D01*
X-175246Y176022D01*
X-179592Y176022D01*
X-183606Y174359D01*
X-186678Y171287D01*
X-188341Y167273D01*
X-188341Y162927D01*
X-186678Y158913D01*
X-183606Y155841D01*
X-179592Y154178D01*
G37*
G36*
X-204992Y154178D02*
X-200646Y154178D01*
X-196632Y155841D01*
X-193560Y158913D01*
X-191897Y162927D01*
X-191897Y167273D01*
X-193560Y171287D01*
X-196632Y174359D01*
X-200646Y176022D01*
X-204992Y176022D01*
X-209006Y174359D01*
X-212078Y171287D01*
X-213741Y167273D01*
X-213741Y162927D01*
X-212078Y158913D01*
X-209006Y155841D01*
X-204992Y154178D01*
G37*
G36*
X-230392Y154178D02*
X-226046Y154178D01*
X-222032Y155841D01*
X-218960Y158913D01*
X-217297Y162927D01*
X-217297Y167273D01*
X-218960Y171287D01*
X-222032Y174359D01*
X-226046Y176022D01*
X-230392Y176022D01*
X-234406Y174359D01*
X-237478Y171287D01*
X-239141Y167273D01*
X-239141Y162927D01*
X-237478Y158913D01*
X-234406Y155841D01*
X-230392Y154178D01*
G37*
G36*
X-255792Y154178D02*
X-251446Y154178D01*
X-247432Y155841D01*
X-244360Y158913D01*
X-242697Y162927D01*
X-242697Y167273D01*
X-244360Y171287D01*
X-247432Y174359D01*
X-251446Y176022D01*
X-255792Y176022D01*
X-259806Y174359D01*
X-262878Y171287D01*
X-264541Y167273D01*
X-264541Y162927D01*
X-262878Y158913D01*
X-259806Y155841D01*
X-255792Y154178D01*
G37*
G36*
X-331992Y154178D02*
X-327646Y154178D01*
X-323632Y155841D01*
X-320560Y158913D01*
X-318897Y162927D01*
X-318897Y167273D01*
X-320560Y171287D01*
X-323632Y174359D01*
X-327646Y176022D01*
X-331992Y176022D01*
X-336006Y174359D01*
X-339078Y171287D01*
X-340741Y167273D01*
X-340741Y162927D01*
X-339078Y158913D01*
X-336006Y155841D01*
X-331992Y154178D01*
G37*
G36*
X-331992Y128778D02*
X-327646Y128778D01*
X-323632Y130441D01*
X-320560Y133513D01*
X-318897Y137527D01*
X-318897Y141873D01*
X-320560Y145887D01*
X-323632Y148959D01*
X-327646Y150622D01*
X-331992Y150622D01*
X-336006Y148959D01*
X-339078Y145887D01*
X-340741Y141873D01*
X-340741Y137527D01*
X-339078Y133513D01*
X-336006Y130441D01*
X-331992Y128778D01*
G37*
G36*
X-179592Y128778D02*
X-175246Y128778D01*
X-171232Y130441D01*
X-168160Y133513D01*
X-166497Y137527D01*
X-166497Y141873D01*
X-168160Y145887D01*
X-171232Y148959D01*
X-175246Y150622D01*
X-179592Y150622D01*
X-183606Y148959D01*
X-186678Y145887D01*
X-188341Y141873D01*
X-188341Y137527D01*
X-186678Y133513D01*
X-183606Y130441D01*
X-179592Y128778D01*
G37*
G36*
X-179592Y103378D02*
X-175246Y103378D01*
X-171232Y105041D01*
X-168160Y108113D01*
X-166497Y112127D01*
X-166497Y116473D01*
X-168160Y120487D01*
X-171232Y123559D01*
X-175246Y125222D01*
X-179592Y125222D01*
X-183606Y123559D01*
X-186678Y120487D01*
X-188341Y116473D01*
X-188341Y112127D01*
X-186678Y108113D01*
X-183606Y105041D01*
X-179592Y103378D01*
G37*
G36*
X-331992Y103378D02*
X-327646Y103378D01*
X-323632Y105041D01*
X-320560Y108113D01*
X-318897Y112127D01*
X-318897Y116473D01*
X-320560Y120487D01*
X-323632Y123559D01*
X-327646Y125222D01*
X-331992Y125222D01*
X-336006Y123559D01*
X-339078Y120487D01*
X-340741Y116473D01*
X-340741Y112127D01*
X-339078Y108113D01*
X-336006Y105041D01*
X-331992Y103378D01*
G37*
G36*
X-50204Y60988D02*
X-45808Y60988D01*
X-42700Y64096D01*
X-42700Y68492D01*
X-45808Y71600D01*
X-47967Y71600D01*
X-48253Y71656D01*
X-48506Y71823D01*
X-52383Y75700D01*
X-52546Y75941D01*
X-52606Y76239D01*
X-52606Y79209D01*
X-52550Y79495D01*
X-52383Y79748D01*
X-41467Y90664D01*
X-41231Y90824D01*
X-40935Y90887D01*
X-40637Y90829D01*
X-40273Y90678D01*
X-35927Y90678D01*
X-31913Y92341D01*
X-28841Y95413D01*
X-27178Y99427D01*
X-27178Y103773D01*
X-28841Y107787D01*
X-31913Y110859D01*
X-35927Y112522D01*
X-40273Y112522D01*
X-40947Y112242D01*
X-41203Y112185D01*
X-41502Y112231D01*
X-41760Y112391D01*
X-41936Y112638D01*
X-42001Y112934D01*
X-41945Y113232D01*
X-41778Y113485D01*
X-41186Y114077D01*
X-40945Y114240D01*
X-40647Y114300D01*
X-17066Y114300D01*
X-16808Y114255D01*
X-16549Y114098D01*
X-16371Y113852D01*
X-16304Y113556D01*
X-16357Y113258D01*
X-16523Y113004D01*
X-16774Y112834D01*
X-19462Y111721D01*
X-22821Y108362D01*
X-24638Y103975D01*
X-24638Y102362D01*
X-762Y102362D01*
X-762Y103975D01*
X-1617Y106039D01*
X-1674Y106294D01*
X-1628Y106594D01*
X-1469Y106852D01*
X-1221Y107027D01*
X-925Y107092D01*
X-627Y107037D01*
X-374Y106869D01*
X1695Y104800D01*
X1855Y104564D01*
X1918Y104268D01*
X1860Y103970D01*
X1778Y103773D01*
X1778Y99427D01*
X3441Y95413D01*
X6513Y92341D01*
X10527Y90678D01*
X14873Y90678D01*
X18887Y92341D01*
X21959Y95413D01*
X23622Y99427D01*
X23622Y103773D01*
X21959Y107787D01*
X18887Y110859D01*
X14873Y112522D01*
X10527Y112522D01*
X6513Y110859D01*
X4846Y109192D01*
X4616Y109034D01*
X4320Y108969D01*
X4021Y109025D01*
X3769Y109192D01*
X-5911Y118872D01*
X-42857Y118872D01*
X-60922Y100807D01*
X-61163Y100644D01*
X-61461Y100584D01*
X-67914Y100584D01*
X-68189Y100635D01*
X-68444Y100799D01*
X-68616Y101049D01*
X-68676Y101346D01*
X-68676Y102531D01*
X-69569Y103424D01*
X-82831Y103424D01*
X-83724Y102531D01*
X-83724Y93269D01*
X-82831Y92376D01*
X-69569Y92376D01*
X-68676Y93269D01*
X-68676Y95250D01*
X-68625Y95525D01*
X-68461Y95780D01*
X-68211Y95952D01*
X-67914Y96012D01*
X-59251Y96012D01*
X-49985Y105278D01*
X-49771Y105428D01*
X-49477Y105500D01*
X-49177Y105452D01*
X-48921Y105291D01*
X-48747Y105042D01*
X-48684Y104745D01*
X-48742Y104447D01*
X-49022Y103773D01*
X-49022Y99427D01*
X-47383Y95471D01*
X-47325Y95192D01*
X-47381Y94893D01*
X-47548Y94641D01*
X-59659Y82530D01*
X-59890Y82372D01*
X-60186Y82307D01*
X-60484Y82362D01*
X-60737Y82530D01*
X-61011Y82804D01*
X-67914Y82804D01*
X-68189Y82855D01*
X-68444Y83019D01*
X-68616Y83269D01*
X-68676Y83566D01*
X-68676Y84531D01*
X-69569Y85424D01*
X-82831Y85424D01*
X-83724Y84531D01*
X-83724Y84328D01*
X-83775Y84053D01*
X-83939Y83798D01*
X-84189Y83626D01*
X-84486Y83566D01*
X-92490Y83566D01*
X-92765Y83617D01*
X-93020Y83781D01*
X-93192Y84031D01*
X-93252Y84328D01*
X-93252Y84531D01*
X-94145Y85424D01*
X-107407Y85424D01*
X-108300Y84531D01*
X-108300Y75269D01*
X-107407Y74376D01*
X-94145Y74376D01*
X-93252Y75269D01*
X-93252Y75692D01*
X-93201Y75967D01*
X-93037Y76222D01*
X-92787Y76394D01*
X-92490Y76454D01*
X-84486Y76454D01*
X-84211Y76403D01*
X-83956Y76239D01*
X-83784Y75989D01*
X-83724Y75692D01*
X-83724Y75269D01*
X-82831Y74376D01*
X-69569Y74376D01*
X-68476Y75469D01*
X-68234Y75632D01*
X-67937Y75692D01*
X-64273Y75692D01*
X-63987Y75636D01*
X-63734Y75469D01*
X-63441Y75176D01*
X-63278Y74935D01*
X-63250Y74796D01*
X-62257Y73803D01*
X-62114Y73605D01*
X-61958Y73292D01*
X-61811Y73243D01*
X-61513Y73059D01*
X-60110Y71656D01*
X-58713Y71656D01*
X-58427Y71600D01*
X-58174Y71433D01*
X-53535Y66794D01*
X-53372Y66553D01*
X-53312Y66255D01*
X-53312Y64096D01*
X-50204Y60988D01*
G37*
G36*
X35927Y90678D02*
X40273Y90678D01*
X44287Y92341D01*
X47359Y95413D01*
X49022Y99427D01*
X49022Y103773D01*
X47359Y107787D01*
X44287Y110859D01*
X40273Y112522D01*
X35927Y112522D01*
X31913Y110859D01*
X28841Y107787D01*
X27178Y103773D01*
X27178Y99427D01*
X28841Y95413D01*
X31913Y92341D01*
X35927Y90678D01*
G37*
G36*
X61327Y90678D02*
X65673Y90678D01*
X69687Y92341D01*
X72759Y95413D01*
X74422Y99427D01*
X74422Y103773D01*
X72759Y107787D01*
X69687Y110859D01*
X65673Y112522D01*
X61327Y112522D01*
X57313Y110859D01*
X54241Y107787D01*
X52578Y103773D01*
X52578Y99427D01*
X54241Y95413D01*
X57313Y92341D01*
X61327Y90678D01*
G37*
G36*
X-179592Y77978D02*
X-175246Y77978D01*
X-171232Y79641D01*
X-168160Y82713D01*
X-166497Y86727D01*
X-166497Y89796D01*
X-166441Y90082D01*
X-166274Y90335D01*
X-160820Y95789D01*
X-160579Y95952D01*
X-160281Y96012D01*
X-109062Y96012D01*
X-108787Y95961D01*
X-108532Y95797D01*
X-108360Y95547D01*
X-108300Y95250D01*
X-108300Y93269D01*
X-107407Y92376D01*
X-94145Y92376D01*
X-93252Y93269D01*
X-93252Y102531D01*
X-94145Y103424D01*
X-107407Y103424D01*
X-108300Y102531D01*
X-108300Y101346D01*
X-108351Y101071D01*
X-108515Y100816D01*
X-108765Y100644D01*
X-109062Y100584D01*
X-162491Y100584D01*
X-167535Y95540D01*
X-167766Y95382D01*
X-168062Y95317D01*
X-168360Y95372D01*
X-168613Y95540D01*
X-171232Y98159D01*
X-175246Y99822D01*
X-179592Y99822D01*
X-183606Y98159D01*
X-186678Y95087D01*
X-188341Y91073D01*
X-188341Y86727D01*
X-186678Y82713D01*
X-183606Y79641D01*
X-179592Y77978D01*
G37*
G36*
X-11938Y89662D02*
X-10325Y89662D01*
X-5938Y91479D01*
X-2579Y94838D01*
X-762Y99225D01*
X-762Y100838D01*
X-11938Y100838D01*
X-11938Y89662D01*
G37*
G36*
X-15075Y89662D02*
X-13462Y89662D01*
X-13462Y100838D01*
X-24638Y100838D01*
X-24638Y99225D01*
X-22821Y94838D01*
X-19462Y91479D01*
X-15075Y89662D01*
G37*
G36*
X-331992Y77978D02*
X-327646Y77978D01*
X-323632Y79641D01*
X-320560Y82713D01*
X-318897Y86727D01*
X-318897Y91073D01*
X-320560Y95087D01*
X-323632Y98159D01*
X-327646Y99822D01*
X-331992Y99822D01*
X-336006Y98159D01*
X-339078Y95087D01*
X-340741Y91073D01*
X-340741Y86727D01*
X-339078Y82713D01*
X-336006Y79641D01*
X-331992Y77978D01*
G37*
G36*
X369062Y64262D02*
X380238Y64262D01*
X380238Y75438D01*
X378625Y75438D01*
X374238Y73621D01*
X370879Y70262D01*
X369062Y65875D01*
X369062Y64262D01*
G37*
G36*
X381762Y64262D02*
X392938Y64262D01*
X392938Y65875D01*
X391121Y70262D01*
X387762Y73621D01*
X383375Y75438D01*
X381762Y75438D01*
X381762Y64262D01*
G37*
G36*
X-331992Y52578D02*
X-327646Y52578D01*
X-323632Y54241D01*
X-320560Y57313D01*
X-318897Y61327D01*
X-318897Y65673D01*
X-320560Y69687D01*
X-323632Y72759D01*
X-327646Y74422D01*
X-331992Y74422D01*
X-336006Y72759D01*
X-339078Y69687D01*
X-340741Y65673D01*
X-340741Y61327D01*
X-339078Y57313D01*
X-336006Y54241D01*
X-331992Y52578D01*
G37*
G36*
X353427Y52578D02*
X357773Y52578D01*
X361787Y54241D01*
X364859Y57313D01*
X366522Y61327D01*
X366522Y65673D01*
X364859Y69687D01*
X361787Y72759D01*
X357773Y74422D01*
X353427Y74422D01*
X349413Y72759D01*
X346341Y69687D01*
X344678Y65673D01*
X344678Y61327D01*
X346341Y57313D01*
X349413Y54241D01*
X353427Y52578D01*
G37*
G36*
X-179592Y52578D02*
X-175246Y52578D01*
X-171232Y54241D01*
X-168160Y57313D01*
X-166497Y61327D01*
X-166497Y65673D01*
X-168160Y69687D01*
X-171232Y72759D01*
X-175246Y74422D01*
X-179592Y74422D01*
X-183606Y72759D01*
X-186678Y69687D01*
X-188341Y65673D01*
X-188341Y61327D01*
X-186678Y57313D01*
X-183606Y54241D01*
X-179592Y52578D01*
G37*
G36*
X381762Y51562D02*
X383375Y51562D01*
X387762Y53379D01*
X391121Y56738D01*
X392938Y61125D01*
X392938Y62738D01*
X381762Y62738D01*
X381762Y51562D01*
G37*
G36*
X378625Y51562D02*
X380238Y51562D01*
X380238Y62738D01*
X369062Y62738D01*
X369062Y61125D01*
X370879Y56738D01*
X374238Y53379D01*
X378625Y51562D01*
G37*
G36*
X-179592Y-49022D02*
X-175246Y-49022D01*
X-171232Y-47359D01*
X-168160Y-44287D01*
X-166497Y-40273D01*
X-166497Y-36576D01*
X-166446Y-36301D01*
X-166282Y-36046D01*
X-166032Y-35874D01*
X-165735Y-35814D01*
X-117925Y-35814D01*
X-52758Y29353D01*
X-52517Y29516D01*
X-52219Y29576D01*
X-46469Y29576D01*
X-45576Y30469D01*
X-45576Y45731D01*
X-45788Y45943D01*
X-45941Y46163D01*
X-46011Y46458D01*
X-45960Y46757D01*
X-45796Y47012D01*
X-45546Y47184D01*
X-45249Y47244D01*
X-30951Y47244D01*
X-30688Y47197D01*
X-30430Y47038D01*
X-30254Y46790D01*
X-30189Y46494D01*
X-30245Y46196D01*
X-30412Y45943D01*
X-30624Y45731D01*
X-30624Y30469D01*
X-29731Y29576D01*
X-16469Y29576D01*
X-15576Y30469D01*
X-15576Y35052D01*
X-15525Y35327D01*
X-15361Y35582D01*
X-15111Y35754D01*
X-14814Y35814D01*
X-2586Y35814D01*
X-2311Y35763D01*
X-2056Y35599D01*
X-1884Y35349D01*
X-1824Y35052D01*
X-1824Y31469D01*
X-931Y30576D01*
X8331Y30576D01*
X9224Y31469D01*
X9224Y44731D01*
X8331Y45624D01*
X-931Y45624D01*
X-1824Y44731D01*
X-1824Y41148D01*
X-1875Y40873D01*
X-2039Y40618D01*
X-2289Y40446D01*
X-2586Y40386D01*
X-14814Y40386D01*
X-15089Y40437D01*
X-15344Y40601D01*
X-15516Y40851D01*
X-15576Y41148D01*
X-15576Y45731D01*
X-15788Y45943D01*
X-15941Y46163D01*
X-16011Y46458D01*
X-15960Y46757D01*
X-15796Y47012D01*
X-15546Y47184D01*
X-15249Y47244D01*
X15412Y47244D01*
X15676Y47197D01*
X15934Y47038D01*
X16109Y46790D01*
X16174Y46494D01*
X16119Y46196D01*
X15951Y45943D01*
X15160Y45152D01*
X15160Y38862D01*
X28240Y38862D01*
X28240Y43649D01*
X28287Y43913D01*
X28446Y44171D01*
X28694Y44346D01*
X28990Y44411D01*
X29288Y44356D01*
X29541Y44188D01*
X37915Y35814D01*
X192614Y35814D01*
X192889Y35763D01*
X193144Y35599D01*
X193316Y35349D01*
X193376Y35052D01*
X193376Y30469D01*
X194269Y29576D01*
X207531Y29576D01*
X208424Y30469D01*
X208424Y45731D01*
X207531Y46624D01*
X194269Y46624D01*
X193376Y45731D01*
X193376Y41148D01*
X193325Y40873D01*
X193161Y40618D01*
X192911Y40446D01*
X192614Y40386D01*
X40125Y40386D01*
X39839Y40442D01*
X39586Y40609D01*
X28379Y51816D01*
X-135059Y51816D01*
X-136621Y50254D01*
X-167535Y19340D01*
X-167766Y19182D01*
X-168062Y19117D01*
X-168360Y19172D01*
X-168613Y19340D01*
X-171232Y21959D01*
X-175246Y23622D01*
X-179592Y23622D01*
X-183606Y21959D01*
X-186678Y18887D01*
X-188341Y14873D01*
X-188341Y10527D01*
X-186678Y6513D01*
X-183606Y3441D01*
X-179592Y1778D01*
X-175246Y1778D01*
X-171232Y3441D01*
X-168160Y6513D01*
X-166497Y10527D01*
X-166497Y13596D01*
X-166441Y13882D01*
X-166274Y14135D01*
X-133388Y47021D01*
X-133147Y47184D01*
X-132849Y47244D01*
X-60951Y47244D01*
X-60688Y47197D01*
X-60430Y47038D01*
X-60254Y46790D01*
X-60189Y46494D01*
X-60245Y46196D01*
X-60412Y45943D01*
X-60624Y45731D01*
X-60624Y30469D01*
X-59905Y29750D01*
X-59747Y29519D01*
X-59682Y29223D01*
X-59737Y28925D01*
X-59905Y28672D01*
X-102391Y-13814D01*
X-102575Y-13950D01*
X-102866Y-14035D01*
X-103168Y-13999D01*
X-103431Y-13849D01*
X-103615Y-13608D01*
X-103691Y-13315D01*
X-103646Y-13015D01*
X-100588Y-4613D01*
X-100588Y4613D01*
X-103744Y13283D01*
X-109674Y20350D01*
X-117664Y24963D01*
X-126750Y26566D01*
X-135836Y24963D01*
X-143826Y20350D01*
X-149757Y13283D01*
X-152912Y4613D01*
X-152912Y-4613D01*
X-149757Y-13283D01*
X-143826Y-20350D01*
X-135836Y-24963D01*
X-126750Y-26566D01*
X-117664Y-24963D01*
X-112920Y-22225D01*
X-112575Y-22123D01*
X-112276Y-22169D01*
X-112018Y-22329D01*
X-111842Y-22576D01*
X-111777Y-22872D01*
X-111833Y-23170D01*
X-112000Y-23423D01*
X-119596Y-31019D01*
X-119837Y-31182D01*
X-120135Y-31242D01*
X-168515Y-31242D01*
X-168801Y-31186D01*
X-169054Y-31019D01*
X-171232Y-28841D01*
X-175246Y-27178D01*
X-179592Y-27178D01*
X-183606Y-28841D01*
X-186678Y-31913D01*
X-188341Y-35927D01*
X-188341Y-40273D01*
X-186678Y-44287D01*
X-183606Y-47359D01*
X-179592Y-49022D01*
G37*
G36*
X-331992Y27178D02*
X-327646Y27178D01*
X-323632Y28841D01*
X-320560Y31913D01*
X-318897Y35927D01*
X-318897Y40273D01*
X-320560Y44287D01*
X-323632Y47359D01*
X-327646Y49022D01*
X-331992Y49022D01*
X-336006Y47359D01*
X-339078Y44287D01*
X-340741Y40273D01*
X-340741Y35927D01*
X-339078Y31913D01*
X-336006Y28841D01*
X-331992Y27178D01*
G37*
G36*
X-179592Y27178D02*
X-175246Y27178D01*
X-171232Y28841D01*
X-168160Y31913D01*
X-166497Y35927D01*
X-166497Y40273D01*
X-168160Y44287D01*
X-171232Y47359D01*
X-175246Y49022D01*
X-179592Y49022D01*
X-183606Y47359D01*
X-186678Y44287D01*
X-188341Y40273D01*
X-188341Y35927D01*
X-186678Y31913D01*
X-183606Y28841D01*
X-179592Y27178D01*
G37*
G36*
X269160Y38862D02*
X274938Y38862D01*
X274938Y46640D01*
X270648Y46640D01*
X269160Y45152D01*
X269160Y38862D01*
G37*
G36*
X276462Y38862D02*
X282240Y38862D01*
X282240Y45152D01*
X280752Y46640D01*
X276462Y46640D01*
X276462Y38862D01*
G37*
G36*
X224269Y29576D02*
X237531Y29576D01*
X238424Y30469D01*
X238424Y35052D01*
X238475Y35327D01*
X238639Y35582D01*
X238889Y35754D01*
X239186Y35814D01*
X251414Y35814D01*
X251689Y35763D01*
X251944Y35599D01*
X252116Y35349D01*
X252176Y35052D01*
X252176Y31469D01*
X253069Y30576D01*
X262331Y30576D01*
X263224Y31469D01*
X263224Y44731D01*
X262331Y45624D01*
X253069Y45624D01*
X252176Y44731D01*
X252176Y41148D01*
X252125Y40873D01*
X251961Y40618D01*
X251711Y40446D01*
X251414Y40386D01*
X239186Y40386D01*
X238911Y40437D01*
X238656Y40601D01*
X238484Y40851D01*
X238424Y41148D01*
X238424Y45731D01*
X237531Y46624D01*
X224269Y46624D01*
X223376Y45731D01*
X223376Y30469D01*
X224269Y29576D01*
G37*
G36*
X276462Y29560D02*
X280752Y29560D01*
X282240Y31048D01*
X282240Y37338D01*
X276462Y37338D01*
X276462Y29560D01*
G37*
G36*
X270648Y29560D02*
X274938Y29560D01*
X274938Y37338D01*
X269160Y37338D01*
X269160Y31048D01*
X270648Y29560D01*
G37*
G36*
X22462Y29560D02*
X26752Y29560D01*
X28240Y31048D01*
X28240Y37338D01*
X22462Y37338D01*
X22462Y29560D01*
G37*
G36*
X16648Y29560D02*
X20938Y29560D01*
X20938Y37338D01*
X15160Y37338D01*
X15160Y31048D01*
X16648Y29560D01*
G37*
G36*
X369062Y26162D02*
X380238Y26162D01*
X380238Y37338D01*
X378625Y37338D01*
X374238Y35521D01*
X370879Y32162D01*
X369062Y27775D01*
X369062Y26162D01*
G37*
G36*
X381762Y26162D02*
X392938Y26162D01*
X392938Y27775D01*
X391121Y32162D01*
X387762Y35521D01*
X383375Y37338D01*
X381762Y37338D01*
X381762Y26162D01*
G37*
G36*
X353427Y14478D02*
X357773Y14478D01*
X361787Y16141D01*
X364859Y19213D01*
X366522Y23227D01*
X366522Y27573D01*
X364859Y31587D01*
X361787Y34659D01*
X357773Y36322D01*
X353427Y36322D01*
X349413Y34659D01*
X346341Y31587D01*
X344678Y27573D01*
X344678Y23227D01*
X346341Y19213D01*
X349413Y16141D01*
X353427Y14478D01*
G37*
G36*
X-392938Y22462D02*
X-385160Y22462D01*
X-385160Y26752D01*
X-386648Y28240D01*
X-392938Y28240D01*
X-392938Y22462D01*
G37*
G36*
X-402240Y22462D02*
X-394462Y22462D01*
X-394462Y28240D01*
X-400752Y28240D01*
X-402240Y26752D01*
X-402240Y22462D01*
G37*
G36*
X117921Y-25624D02*
X127007Y-27226D01*
X136093Y-25624D01*
X144083Y-21011D01*
X150013Y-13944D01*
X153169Y-5274D01*
X153169Y3952D01*
X150013Y12622D01*
X144083Y19690D01*
X136093Y24303D01*
X127007Y25905D01*
X117921Y24303D01*
X109931Y19690D01*
X104000Y12622D01*
X100845Y3952D01*
X100845Y-5274D01*
X104000Y-13944D01*
X109931Y-21011D01*
X117921Y-25624D01*
G37*
G36*
X381762Y13462D02*
X383375Y13462D01*
X387762Y15279D01*
X391121Y18638D01*
X392938Y23025D01*
X392938Y24638D01*
X381762Y24638D01*
X381762Y13462D01*
G37*
G36*
X378625Y13462D02*
X380238Y13462D01*
X380238Y24638D01*
X369062Y24638D01*
X369062Y23025D01*
X370879Y18638D01*
X374238Y15279D01*
X378625Y13462D01*
G37*
G36*
X-331992Y1778D02*
X-327646Y1778D01*
X-323632Y3441D01*
X-320560Y6513D01*
X-318897Y10527D01*
X-318897Y14873D01*
X-320560Y18887D01*
X-323632Y21959D01*
X-327646Y23622D01*
X-331992Y23622D01*
X-336006Y21959D01*
X-339078Y18887D01*
X-340741Y14873D01*
X-340741Y10527D01*
X-339078Y6513D01*
X-336006Y3441D01*
X-331992Y1778D01*
G37*
G36*
X-392938Y15160D02*
X-386648Y15160D01*
X-385160Y16648D01*
X-385160Y20938D01*
X-392938Y20938D01*
X-392938Y15160D01*
G37*
G36*
X-400752Y15160D02*
X-394462Y15160D01*
X-394462Y20938D01*
X-402240Y20938D01*
X-402240Y16648D01*
X-400752Y15160D01*
G37*
G36*
X-401331Y-30624D02*
X-386069Y-30624D01*
X-385176Y-29731D01*
X-385176Y-16469D01*
X-386069Y-15576D01*
X-390144Y-15576D01*
X-390419Y-15525D01*
X-390674Y-15361D01*
X-390846Y-15111D01*
X-390906Y-14814D01*
X-390906Y-2586D01*
X-390855Y-2311D01*
X-390691Y-2056D01*
X-390441Y-1884D01*
X-390144Y-1824D01*
X-387069Y-1824D01*
X-386176Y-931D01*
X-386176Y8331D01*
X-387069Y9224D01*
X-400331Y9224D01*
X-401224Y8331D01*
X-401224Y-931D01*
X-400331Y-1824D01*
X-396240Y-1824D01*
X-395965Y-1875D01*
X-395710Y-2039D01*
X-395538Y-2289D01*
X-395478Y-2586D01*
X-395478Y-14814D01*
X-395529Y-15089D01*
X-395693Y-15344D01*
X-395943Y-15516D01*
X-396240Y-15576D01*
X-401331Y-15576D01*
X-402224Y-16469D01*
X-402224Y-29731D01*
X-401331Y-30624D01*
G37*
G36*
X369062Y-11938D02*
X380238Y-11938D01*
X380238Y-762D01*
X378625Y-762D01*
X374238Y-2579D01*
X370879Y-5938D01*
X369062Y-10325D01*
X369062Y-11938D01*
G37*
G36*
X381762Y-11938D02*
X392938Y-11938D01*
X392938Y-10325D01*
X391121Y-5938D01*
X387762Y-2579D01*
X383375Y-762D01*
X381762Y-762D01*
X381762Y-11938D01*
G37*
G36*
X353427Y-23622D02*
X357773Y-23622D01*
X361787Y-21959D01*
X364859Y-18887D01*
X366522Y-14873D01*
X366522Y-10527D01*
X364859Y-6513D01*
X361787Y-3441D01*
X357773Y-1778D01*
X353427Y-1778D01*
X349413Y-3441D01*
X346341Y-6513D01*
X344678Y-10527D01*
X344678Y-14873D01*
X346341Y-18887D01*
X349413Y-21959D01*
X353427Y-23622D01*
G37*
G36*
X-401331Y-60624D02*
X-386069Y-60624D01*
X-385176Y-59731D01*
X-385176Y-55626D01*
X-385125Y-55351D01*
X-384961Y-55096D01*
X-384711Y-54924D01*
X-384414Y-54864D01*
X-362527Y-54864D01*
X-341435Y-33772D01*
X-341221Y-33621D01*
X-340926Y-33549D01*
X-340627Y-33598D01*
X-340370Y-33759D01*
X-340197Y-34008D01*
X-340134Y-34305D01*
X-340192Y-34602D01*
X-340741Y-35927D01*
X-340741Y-40273D01*
X-339078Y-44287D01*
X-336006Y-47359D01*
X-331992Y-49022D01*
X-327646Y-49022D01*
X-323632Y-47359D01*
X-320560Y-44287D01*
X-318897Y-40273D01*
X-318897Y-35927D01*
X-320560Y-31913D01*
X-323739Y-28734D01*
X-323736Y-28730D01*
X-323894Y-28513D01*
X-323964Y-28218D01*
X-323913Y-27919D01*
X-323750Y-27664D01*
X-323500Y-27492D01*
X-323202Y-27432D01*
X-195649Y-27432D01*
X-187430Y-19213D01*
X-187199Y-19055D01*
X-186903Y-18990D01*
X-186605Y-19045D01*
X-186352Y-19213D01*
X-183606Y-21959D01*
X-179592Y-23622D01*
X-175246Y-23622D01*
X-171232Y-21959D01*
X-168160Y-18887D01*
X-166497Y-14873D01*
X-166497Y-10527D01*
X-168160Y-6513D01*
X-171232Y-3441D01*
X-175246Y-1778D01*
X-179592Y-1778D01*
X-183606Y-3441D01*
X-186678Y-6513D01*
X-188341Y-10527D01*
X-188341Y-13342D01*
X-188397Y-13628D01*
X-188564Y-13881D01*
X-197320Y-22637D01*
X-197561Y-22800D01*
X-197859Y-22860D01*
X-322693Y-22860D01*
X-322957Y-22813D01*
X-323215Y-22654D01*
X-323390Y-22406D01*
X-323455Y-22110D01*
X-323400Y-21812D01*
X-323232Y-21559D01*
X-320560Y-18887D01*
X-318897Y-14873D01*
X-318897Y-10527D01*
X-320560Y-6513D01*
X-323632Y-3441D01*
X-327646Y-1778D01*
X-331992Y-1778D01*
X-336006Y-3441D01*
X-339078Y-6513D01*
X-340741Y-10527D01*
X-340741Y-14873D01*
X-339078Y-18887D01*
X-336406Y-21559D01*
X-336253Y-21779D01*
X-336183Y-22074D01*
X-336234Y-22373D01*
X-336397Y-22628D01*
X-336647Y-22800D01*
X-336945Y-22860D01*
X-336989Y-22860D01*
X-364198Y-50069D01*
X-364439Y-50232D01*
X-364737Y-50292D01*
X-384414Y-50292D01*
X-384689Y-50241D01*
X-384944Y-50077D01*
X-385116Y-49827D01*
X-385176Y-49530D01*
X-385176Y-46469D01*
X-386069Y-45576D01*
X-401331Y-45576D01*
X-402224Y-46469D01*
X-402224Y-59731D01*
X-401331Y-60624D01*
G37*
G36*
X381762Y-24638D02*
X383375Y-24638D01*
X387762Y-22821D01*
X391121Y-19462D01*
X392938Y-15075D01*
X392938Y-13462D01*
X381762Y-13462D01*
X381762Y-24638D01*
G37*
G36*
X378625Y-24638D02*
X380238Y-24638D01*
X380238Y-13462D01*
X369062Y-13462D01*
X369062Y-15075D01*
X370879Y-19462D01*
X374238Y-22821D01*
X378625Y-24638D01*
G37*
G36*
X369062Y-50038D02*
X380238Y-50038D01*
X380238Y-38862D01*
X378625Y-38862D01*
X374238Y-40679D01*
X370879Y-44038D01*
X369062Y-48425D01*
X369062Y-50038D01*
G37*
G36*
X381762Y-50038D02*
X392938Y-50038D01*
X392938Y-48425D01*
X391121Y-44038D01*
X387762Y-40679D01*
X383375Y-38862D01*
X381762Y-38862D01*
X381762Y-50038D01*
G37*
G36*
X353427Y-61722D02*
X357773Y-61722D01*
X361787Y-60059D01*
X364859Y-56987D01*
X366522Y-52973D01*
X366522Y-48627D01*
X364859Y-44613D01*
X361787Y-41541D01*
X357773Y-39878D01*
X353427Y-39878D01*
X349413Y-41541D01*
X346341Y-44613D01*
X344678Y-48627D01*
X344678Y-52973D01*
X346341Y-56987D01*
X349413Y-60059D01*
X353427Y-61722D01*
G37*
G36*
X381762Y-62738D02*
X383375Y-62738D01*
X387762Y-60921D01*
X391121Y-57562D01*
X392938Y-53175D01*
X392938Y-51562D01*
X381762Y-51562D01*
X381762Y-62738D01*
G37*
G36*
X378625Y-62738D02*
X380238Y-62738D01*
X380238Y-51562D01*
X369062Y-51562D01*
X369062Y-53175D01*
X370879Y-57562D01*
X374238Y-60921D01*
X378625Y-62738D01*
G37*
G36*
X-179592Y-74422D02*
X-175246Y-74422D01*
X-171232Y-72759D01*
X-168160Y-69687D01*
X-166497Y-65673D01*
X-166497Y-61327D01*
X-168160Y-57313D01*
X-171232Y-54241D01*
X-175246Y-52578D01*
X-179592Y-52578D01*
X-183606Y-54241D01*
X-186678Y-57313D01*
X-188341Y-61327D01*
X-188341Y-65673D01*
X-186678Y-69687D01*
X-183606Y-72759D01*
X-179592Y-74422D01*
G37*
G36*
X-331992Y-74422D02*
X-327646Y-74422D01*
X-323632Y-72759D01*
X-320560Y-69687D01*
X-318897Y-65673D01*
X-318897Y-61327D01*
X-320560Y-57313D01*
X-323632Y-54241D01*
X-327646Y-52578D01*
X-331992Y-52578D01*
X-336006Y-54241D01*
X-339078Y-57313D01*
X-340741Y-61327D01*
X-340741Y-65673D01*
X-339078Y-69687D01*
X-336006Y-72759D01*
X-331992Y-74422D01*
G37*
G36*
X-179592Y-176022D02*
X-175246Y-176022D01*
X-171232Y-174359D01*
X-168160Y-171287D01*
X-166497Y-167273D01*
X-166497Y-162927D01*
X-168160Y-158913D01*
X-171232Y-155841D01*
X-175246Y-154178D01*
X-179591Y-154178D01*
X-179866Y-154292D01*
X-180146Y-154350D01*
X-180444Y-154294D01*
X-180697Y-154127D01*
X-182874Y-151949D01*
X-183025Y-151735D01*
X-183097Y-151440D01*
X-183049Y-151141D01*
X-182887Y-150884D01*
X-182638Y-150711D01*
X-182342Y-150648D01*
X-182044Y-150706D01*
X-179794Y-151638D01*
X-178181Y-151638D01*
X-178181Y-140462D01*
X-189357Y-140462D01*
X-189357Y-142075D01*
X-188425Y-144325D01*
X-188368Y-144580D01*
X-188414Y-144880D01*
X-188573Y-145138D01*
X-188821Y-145313D01*
X-189117Y-145378D01*
X-189415Y-145323D01*
X-189668Y-145155D01*
X-227869Y-106954D01*
X-228032Y-106713D01*
X-228092Y-106415D01*
X-228092Y-74367D01*
X-228036Y-74081D01*
X-227869Y-73829D01*
X-226342Y-72302D01*
X-226342Y-67906D01*
X-229450Y-64798D01*
X-233846Y-64798D01*
X-236954Y-67906D01*
X-236954Y-72302D01*
X-235427Y-73829D01*
X-235264Y-74070D01*
X-235204Y-74367D01*
X-235204Y-109677D01*
X-186830Y-158051D01*
X-186670Y-158287D01*
X-186607Y-158584D01*
X-186665Y-158881D01*
X-188341Y-162927D01*
X-188341Y-167273D01*
X-186678Y-171287D01*
X-183606Y-174359D01*
X-179592Y-176022D01*
G37*
G36*
X-179592Y-99822D02*
X-175246Y-99822D01*
X-171232Y-98159D01*
X-168160Y-95087D01*
X-166497Y-91073D01*
X-166497Y-86727D01*
X-168160Y-82713D01*
X-171232Y-79641D01*
X-175246Y-77978D01*
X-179592Y-77978D01*
X-183606Y-79641D01*
X-186678Y-82713D01*
X-188341Y-86727D01*
X-188341Y-91073D01*
X-186678Y-95087D01*
X-183606Y-98159D01*
X-179592Y-99822D01*
G37*
G36*
X-331992Y-99822D02*
X-327646Y-99822D01*
X-323632Y-98159D01*
X-320560Y-95087D01*
X-318897Y-91073D01*
X-318897Y-86727D01*
X-320560Y-82713D01*
X-323632Y-79641D01*
X-327646Y-77978D01*
X-331992Y-77978D01*
X-336006Y-79641D01*
X-339078Y-82713D01*
X-340741Y-86727D01*
X-340741Y-91073D01*
X-339078Y-95087D01*
X-336006Y-98159D01*
X-331992Y-99822D01*
G37*
G36*
X-100692Y-113538D02*
X-89262Y-113538D01*
X-89262Y-102108D01*
X-90925Y-102108D01*
X-95406Y-103964D01*
X-98836Y-107394D01*
X-100692Y-111875D01*
X-100692Y-113538D01*
G37*
G36*
X-87738Y-113538D02*
X-76308Y-113538D01*
X-76308Y-111875D01*
X-78164Y-107394D01*
X-81594Y-103964D01*
X-86075Y-102108D01*
X-87738Y-102108D01*
X-87738Y-113538D01*
G37*
G36*
X-48783Y-125476D02*
X-28217Y-125476D01*
X-27324Y-124583D01*
X-27324Y-104017D01*
X-28217Y-103124D01*
X-48783Y-103124D01*
X-49676Y-104017D01*
X-49676Y-124583D01*
X-48783Y-125476D01*
G37*
G36*
X-179592Y-125222D02*
X-175246Y-125222D01*
X-171232Y-123559D01*
X-168160Y-120487D01*
X-166497Y-116473D01*
X-166497Y-112127D01*
X-168160Y-108113D01*
X-171232Y-105041D01*
X-175246Y-103378D01*
X-179592Y-103378D01*
X-183606Y-105041D01*
X-186678Y-108113D01*
X-188341Y-112127D01*
X-188341Y-116473D01*
X-186678Y-120487D01*
X-183606Y-123559D01*
X-179592Y-125222D01*
G37*
G36*
X-331992Y-125222D02*
X-327646Y-125222D01*
X-323632Y-123559D01*
X-320560Y-120487D01*
X-318897Y-116473D01*
X-318897Y-112127D01*
X-320560Y-108113D01*
X-323632Y-105041D01*
X-327646Y-103378D01*
X-331992Y-103378D01*
X-336006Y-105041D01*
X-339078Y-108113D01*
X-340741Y-112127D01*
X-340741Y-116473D01*
X-339078Y-120487D01*
X-336006Y-123559D01*
X-331992Y-125222D01*
G37*
G36*
X-87738Y-126492D02*
X-86075Y-126492D01*
X-81594Y-124636D01*
X-78164Y-121206D01*
X-76308Y-116725D01*
X-76308Y-115062D01*
X-87738Y-115062D01*
X-87738Y-126492D01*
G37*
G36*
X-90925Y-126492D02*
X-89262Y-126492D01*
X-89262Y-115062D01*
X-100692Y-115062D01*
X-100692Y-116725D01*
X-98836Y-121206D01*
X-95406Y-124636D01*
X-90925Y-126492D01*
G37*
G36*
X-189357Y-138938D02*
X-178181Y-138938D01*
X-178181Y-127762D01*
X-179794Y-127762D01*
X-184181Y-129579D01*
X-187540Y-132938D01*
X-189357Y-137325D01*
X-189357Y-138938D01*
G37*
G36*
X-176657Y-138938D02*
X-165481Y-138938D01*
X-165481Y-137325D01*
X-167298Y-132938D01*
X-170657Y-129579D01*
X-175044Y-127762D01*
X-176657Y-127762D01*
X-176657Y-138938D01*
G37*
G36*
X-331992Y-150622D02*
X-327646Y-150622D01*
X-323632Y-148959D01*
X-320560Y-145887D01*
X-318897Y-141873D01*
X-318897Y-137527D01*
X-320560Y-133513D01*
X-323632Y-130441D01*
X-327646Y-128778D01*
X-331992Y-128778D01*
X-336006Y-130441D01*
X-339078Y-133513D01*
X-340741Y-137527D01*
X-340741Y-141873D01*
X-339078Y-145887D01*
X-336006Y-148959D01*
X-331992Y-150622D01*
G37*
G36*
X-176657Y-151638D02*
X-175044Y-151638D01*
X-170657Y-149821D01*
X-167298Y-146462D01*
X-165481Y-142075D01*
X-165481Y-140462D01*
X-176657Y-140462D01*
X-176657Y-151638D01*
G37*
G36*
X-331992Y-176022D02*
X-327646Y-176022D01*
X-323632Y-174359D01*
X-320560Y-171287D01*
X-318897Y-167273D01*
X-318897Y-162927D01*
X-320560Y-158913D01*
X-323632Y-155841D01*
X-327646Y-154178D01*
X-331992Y-154178D01*
X-336006Y-155841D01*
X-339078Y-158913D01*
X-340741Y-162927D01*
X-340741Y-167273D01*
X-339078Y-171287D01*
X-336006Y-174359D01*
X-331992Y-176022D01*
G37*
%LPD*%
D10*
X63500Y101600D03*
X38100Y101600D03*
X12700Y101600D03*
X-12700Y101600D03*
X-38100Y101600D03*
X-329819Y165100D03*
X-329819Y-139700D03*
X-329819Y-63500D03*
X-329819Y-38100D03*
X-329819Y-12700D03*
X-329819Y12700D03*
X-329819Y38100D03*
X-329819Y63500D03*
X-329819Y-114300D03*
X-202819Y165100D03*
X-177419Y63500D03*
X-228219Y165100D03*
X-177419Y38100D03*
X-253619Y165100D03*
X-177419Y12700D03*
X-177419Y-12700D03*
X-177419Y-38100D03*
X-177419Y-63500D03*
X-177419Y-88900D03*
X-304419Y165100D03*
X-329819Y-88900D03*
X-279019Y165100D03*
X-177419Y-139700D03*
X-329819Y139700D03*
X-329819Y114300D03*
X-329819Y-165100D03*
X-177419Y165100D03*
X-329819Y88900D03*
X-177419Y88900D03*
X-177419Y114300D03*
X-177419Y139700D03*
X-177419Y-114300D03*
X-177419Y-165100D03*
D11*
X-38500Y-114300D03*
D12*
X-88500Y-114300D03*
D13*
X-53100Y38100D03*
X-23100Y38100D03*
D14*
X-393700Y-53100D03*
X-393700Y-23100D03*
D13*
X200900Y38100D03*
X230900Y38100D03*
D15*
X3700Y38100D03*
X21700Y38100D03*
D16*
X-393700Y3700D03*
X-393700Y21700D03*
D15*
X257700Y38100D03*
X275700Y38100D03*
D10*
X355600Y63500D03*
X381000Y63500D03*
X355600Y25400D03*
X381000Y25400D03*
X355600Y-12700D03*
X381000Y-12700D03*
X355600Y-50800D03*
X381000Y-50800D03*
D16*
X-76200Y79900D03*
X-76200Y97900D03*
X-100776Y79900D03*
X-100776Y97900D03*
D17*
X-4064Y-207772D03*
X120904Y-207772D03*
X245364Y-205740D03*
X364236Y-190500D03*
X455168Y-115824D03*
X491236Y-2540D03*
X459740Y109728D03*
X370078Y186690D03*
X252476Y207264D03*
X127508Y205740D03*
X4064Y207264D03*
X-119888Y207264D03*
X-244856Y207772D03*
X-363220Y191008D03*
X-454660Y116332D03*
X-489204Y6096D03*
X-461264Y-105156D03*
X-374904Y-183896D03*
X-255016Y-206248D03*
X-128778Y-207010D03*
D18*
X-26670Y-8382D02*
X-25146Y-8382D01*
X-1905Y14859D02*
X21336Y38100D01*
X-1905Y14859D02*
X-25146Y-8382D01*
X21336Y38100D02*
X21700Y38100D01*
X-1905Y14859D02*
X-762Y13716D01*
X-190500Y-100584D02*
X-256794Y-34290D01*
X-190500Y-100584D02*
X-190500Y-126492D01*
X-177546Y-139446D01*
X-177419Y-139700D01*
D17*
X-26670Y-8382D03*
X-762Y13716D03*
X-256794Y-34290D03*
D18*
X-231648Y-70104D02*
X-231648Y-108204D01*
X-177546Y-162306D01*
X-177546Y-164592D01*
X-177419Y-165100D01*
X-57912Y76962D02*
X-57912Y79248D01*
X-38100Y99060D01*
X-38100Y101600D01*
X-57150Y75438D02*
X-48006Y66294D01*
X-57150Y75438D02*
X-57912Y76962D01*
D17*
X-231648Y-70104D03*
X-57912Y76962D03*
X-48006Y66294D03*
D18*
X-76200Y80010D02*
X-100584Y80010D01*
X-100776Y79900D01*
X-76200Y80010D02*
X-76200Y79900D01*
X-74676Y79248D02*
X-62484Y79248D01*
X-59436Y76200D01*
X-74676Y79248D02*
X-76200Y79900D01*
X-59436Y76200D02*
X-57912Y76962D01*
D19*
X-101346Y98298D02*
X-161544Y98298D01*
X-170688Y89154D01*
X-176784Y89154D01*
X-101346Y98298D02*
X-100776Y97900D01*
X-176784Y89154D02*
X-177419Y88900D01*
X-76200Y98298D02*
X-60198Y98298D01*
X-41910Y116586D01*
X-6858Y116586D01*
X7620Y102108D01*
X12192Y102108D01*
X-76200Y98298D02*
X-76200Y97900D01*
X12192Y102108D02*
X12700Y101600D01*
X-53340Y38100D02*
X-53340Y32004D01*
X-118872Y-33528D01*
X-167640Y-33528D01*
X-172212Y-38100D01*
X-177419Y-38100D01*
X-53340Y38100D02*
X-53100Y38100D01*
X-363474Y-52578D02*
X-393192Y-52578D01*
X-363474Y-52578D02*
X-336042Y-25146D01*
X-333756Y-25146D01*
X-332994Y-24384D01*
X-326136Y-24384D01*
X-325374Y-25146D01*
X-196596Y-25146D01*
X-184404Y-12954D01*
X-177546Y-12954D01*
X-393192Y-52578D02*
X-393700Y-53100D01*
X-177546Y-12954D02*
X-177419Y-12700D01*
X38862Y38100D02*
X200900Y38100D01*
X38862Y38100D02*
X27432Y49530D01*
X-134112Y49530D01*
X-170688Y12954D01*
X-176784Y12954D01*
X-177419Y12700D01*
X230900Y38100D02*
X257700Y38100D01*
X-393192Y3048D02*
X-393192Y-22860D01*
X-393192Y3048D02*
X-393700Y3700D01*
X-393192Y-22860D02*
X-393700Y-23100D01*
X-23100Y38100D02*
X3700Y38100D01*
M02*
