G04 EAGLE Gerber RS-274X export*
G75*
%MOMM*%
%FSLAX34Y34*%
%LPD*%
%INSoldermask Bottom*%
%IPPOS*%
%AMOC8*
5,1,8,0,0,1.08239X$1,22.5*%
G01*
G04 Define Apertures*
%ADD10C,2.082800*%
%ADD11R,2.133600X2.133600*%
%ADD12C,2.133600*%
%ADD13R,1.403200X1.603200*%
%ADD14R,1.603200X1.403200*%
%ADD15R,1.003200X1.403200*%
%ADD16R,1.403200X1.003200*%
%ADD17C,0.959600*%
D10*
X63500Y101600D03*
X38100Y101600D03*
X12700Y101600D03*
X-12700Y101600D03*
X-38100Y101600D03*
X-329819Y165100D03*
X-329819Y-139700D03*
X-329819Y-63500D03*
X-329819Y-38100D03*
X-329819Y-12700D03*
X-329819Y12700D03*
X-329819Y38100D03*
X-329819Y63500D03*
X-329819Y-114300D03*
X-202819Y165100D03*
X-177419Y63500D03*
X-228219Y165100D03*
X-177419Y38100D03*
X-253619Y165100D03*
X-177419Y12700D03*
X-177419Y-12700D03*
X-177419Y-38100D03*
X-177419Y-63500D03*
X-177419Y-88900D03*
X-304419Y165100D03*
X-329819Y-88900D03*
X-279019Y165100D03*
X-177419Y-139700D03*
X-329819Y139700D03*
X-329819Y114300D03*
X-329819Y-165100D03*
X-177419Y165100D03*
X-329819Y88900D03*
X-177419Y88900D03*
X-177419Y114300D03*
X-177419Y139700D03*
X-177419Y-114300D03*
X-177419Y-165100D03*
D11*
X-38500Y-114300D03*
D12*
X-88500Y-114300D03*
D13*
X-53100Y38100D03*
X-23100Y38100D03*
D14*
X-393700Y-53100D03*
X-393700Y-23100D03*
D13*
X200900Y38100D03*
X230900Y38100D03*
D15*
X3700Y38100D03*
X21700Y38100D03*
D16*
X-393700Y3700D03*
X-393700Y21700D03*
D15*
X257700Y38100D03*
X275700Y38100D03*
D10*
X355600Y63500D03*
X381000Y63500D03*
X355600Y25400D03*
X381000Y25400D03*
X355600Y-12700D03*
X381000Y-12700D03*
X355600Y-50800D03*
X381000Y-50800D03*
D16*
X-76200Y79900D03*
X-76200Y97900D03*
X-100776Y79900D03*
X-100776Y97900D03*
D17*
X-4064Y-207772D03*
X120904Y-207772D03*
X245364Y-205740D03*
X364236Y-190500D03*
X455168Y-115824D03*
X491236Y-2540D03*
X459740Y109728D03*
X370078Y186690D03*
X252476Y207264D03*
X127508Y205740D03*
X4064Y207264D03*
X-119888Y207264D03*
X-244856Y207772D03*
X-363220Y191008D03*
X-454660Y116332D03*
X-489204Y6096D03*
X-461264Y-105156D03*
X-374904Y-183896D03*
X-255016Y-206248D03*
X-128778Y-207010D03*
M02*
