G04 EAGLE Gerber RS-274X export*
G75*
%MOMM*%
%FSLAX34Y34*%
%LPD*%
%INSoldermask Top*%
%IPPOS*%
%AMOC8*
5,1,8,0,0,1.08239X$1,22.5*%
G01*
G04 Define Apertures*
%ADD10R,1.403200X0.803200*%
%ADD11C,2.082800*%
%ADD12R,1.203200X1.053200*%
%ADD13R,1.053200X1.203200*%
%ADD14R,1.203200X1.303200*%
%ADD15R,2.133600X2.133600*%
%ADD16C,2.133600*%
%ADD17R,1.003200X1.403200*%
%ADD18C,0.959600*%
D10*
X-12500Y10111D03*
X-12500Y-8889D03*
X12500Y611D03*
X-266500Y10111D03*
X-266500Y-8889D03*
X-241500Y611D03*
X241500Y10111D03*
X241500Y-8889D03*
X266500Y611D03*
D11*
X63500Y101600D03*
X38100Y101600D03*
X12700Y101600D03*
X-12700Y101600D03*
X-38100Y101600D03*
X-329819Y165100D03*
X-329819Y-139700D03*
X-329819Y-63500D03*
X-329819Y-38100D03*
X-329819Y-12700D03*
X-329819Y12700D03*
X-329819Y38100D03*
X-329819Y63500D03*
X-329819Y-114300D03*
X-202819Y165100D03*
X-177419Y63500D03*
X-228219Y165100D03*
X-177419Y38100D03*
X-253619Y165100D03*
X-177419Y12700D03*
X-177419Y-12700D03*
X-177419Y-38100D03*
X-177419Y-63500D03*
X-177419Y-88900D03*
X-304419Y165100D03*
X-329819Y-88900D03*
X-279019Y165100D03*
X-177419Y-139700D03*
X-329819Y139700D03*
X-329819Y114300D03*
X-329819Y-165100D03*
X-177419Y165100D03*
X-329819Y88900D03*
X-177419Y88900D03*
X-177419Y114300D03*
X-177419Y139700D03*
X-177419Y-114300D03*
X-177419Y-165100D03*
D12*
X18836Y-225239D03*
X-16164Y-225239D03*
X18836Y-207739D03*
X-16164Y-207739D03*
X144500Y-225239D03*
X109500Y-225239D03*
X144500Y-207739D03*
X109500Y-207739D03*
X268960Y-223380D03*
X233960Y-223380D03*
X268960Y-205880D03*
X233960Y-205880D03*
D13*
G36*
X389713Y-204337D02*
X385262Y-194792D01*
X396165Y-189707D01*
X400616Y-199252D01*
X389713Y-204337D01*
G37*
G36*
X357993Y-219129D02*
X353542Y-209584D01*
X364445Y-204499D01*
X368896Y-214044D01*
X357993Y-219129D01*
G37*
G36*
X382317Y-188477D02*
X377866Y-178932D01*
X388769Y-173847D01*
X393220Y-183392D01*
X382317Y-188477D01*
G37*
G36*
X350597Y-203269D02*
X346146Y-193724D01*
X357049Y-188639D01*
X361500Y-198184D01*
X350597Y-203269D01*
G37*
G36*
X484078Y-112483D02*
X474958Y-107217D01*
X480974Y-96797D01*
X490094Y-102063D01*
X484078Y-112483D01*
G37*
G36*
X466578Y-142793D02*
X457458Y-137527D01*
X463474Y-127107D01*
X472594Y-132373D01*
X466578Y-142793D01*
G37*
G36*
X468922Y-103733D02*
X459802Y-98467D01*
X465818Y-88047D01*
X474938Y-93313D01*
X468922Y-103733D01*
G37*
G36*
X451422Y-134043D02*
X442302Y-128777D01*
X448318Y-118357D01*
X457438Y-123623D01*
X451422Y-134043D01*
G37*
X508876Y19907D03*
X508876Y-15093D03*
X491376Y19907D03*
X491376Y-15093D03*
G36*
X469407Y136092D02*
X460780Y130051D01*
X453879Y139906D01*
X462506Y145947D01*
X469407Y136092D01*
G37*
G36*
X489482Y107422D02*
X480855Y101381D01*
X473954Y111236D01*
X482581Y117277D01*
X489482Y107422D01*
G37*
G36*
X455072Y126054D02*
X446445Y120013D01*
X439544Y129868D01*
X448171Y135909D01*
X455072Y126054D01*
G37*
G36*
X475147Y97384D02*
X466520Y91343D01*
X459619Y101198D01*
X468246Y107239D01*
X475147Y97384D01*
G37*
G36*
X365085Y214406D02*
X360634Y204861D01*
X349731Y209946D01*
X354182Y219491D01*
X365085Y214406D01*
G37*
G36*
X396805Y199614D02*
X392354Y190069D01*
X381451Y195154D01*
X385902Y204699D01*
X396805Y199614D01*
G37*
G36*
X357689Y198546D02*
X353238Y189001D01*
X342335Y194086D01*
X346786Y203631D01*
X357689Y198546D01*
G37*
G36*
X389409Y183754D02*
X384958Y174209D01*
X374055Y179294D01*
X378506Y188839D01*
X389409Y183754D01*
G37*
D12*
X230150Y224650D03*
X265150Y224650D03*
X230150Y207150D03*
X265150Y207150D03*
X105690Y223380D03*
X140690Y223380D03*
X105690Y205880D03*
X140690Y205880D03*
X-17500Y224650D03*
X17500Y224650D03*
X-17500Y207150D03*
X17500Y207150D03*
X-141960Y224650D03*
X-106960Y224650D03*
X-141960Y207150D03*
X-106960Y207150D03*
X-267690Y225239D03*
X-232690Y225239D03*
X-267690Y207739D03*
X-232690Y207739D03*
D13*
G36*
X-389014Y203603D02*
X-384731Y193983D01*
X-395722Y189089D01*
X-400005Y198709D01*
X-389014Y203603D01*
G37*
G36*
X-357040Y217838D02*
X-352757Y208218D01*
X-363748Y203324D01*
X-368031Y212944D01*
X-357040Y217838D01*
G37*
G36*
X-381896Y187616D02*
X-377613Y177996D01*
X-388604Y173102D01*
X-392887Y182722D01*
X-381896Y187616D01*
G37*
G36*
X-349922Y201851D02*
X-345639Y192231D01*
X-356630Y187337D01*
X-360913Y196957D01*
X-349922Y201851D01*
G37*
G36*
X-483850Y113798D02*
X-475019Y108062D01*
X-481572Y97972D01*
X-490403Y103708D01*
X-483850Y113798D01*
G37*
G36*
X-464787Y143151D02*
X-455956Y137415D01*
X-462509Y127325D01*
X-471340Y133061D01*
X-464787Y143151D01*
G37*
G36*
X-469173Y104267D02*
X-460342Y98531D01*
X-466895Y88441D01*
X-475726Y94177D01*
X-469173Y104267D01*
G37*
G36*
X-450110Y133620D02*
X-441279Y127884D01*
X-447832Y117794D01*
X-456663Y123530D01*
X-450110Y133620D01*
G37*
X-509053Y-17874D03*
X-509053Y17126D03*
X-491553Y-17874D03*
X-491553Y17126D03*
G36*
X-470240Y-134605D02*
X-461409Y-128869D01*
X-454856Y-138959D01*
X-463687Y-144695D01*
X-470240Y-134605D01*
G37*
G36*
X-489303Y-105252D02*
X-480472Y-99516D01*
X-473919Y-109606D01*
X-482750Y-115342D01*
X-489303Y-105252D01*
G37*
G36*
X-455563Y-125074D02*
X-446732Y-119338D01*
X-440179Y-129428D01*
X-449010Y-135164D01*
X-455563Y-125074D01*
G37*
G36*
X-474626Y-95721D02*
X-465795Y-89985D01*
X-459242Y-100075D01*
X-468073Y-105811D01*
X-474626Y-95721D01*
G37*
G36*
X-366819Y-213502D02*
X-362704Y-203808D01*
X-351629Y-208510D01*
X-355744Y-218204D01*
X-366819Y-213502D01*
G37*
G36*
X-399037Y-199827D02*
X-394922Y-190133D01*
X-383847Y-194835D01*
X-387962Y-204529D01*
X-399037Y-199827D01*
G37*
G36*
X-359981Y-197393D02*
X-355866Y-187699D01*
X-344791Y-192401D01*
X-348906Y-202095D01*
X-359981Y-197393D01*
G37*
G36*
X-392199Y-183718D02*
X-388084Y-174024D01*
X-377009Y-178726D01*
X-381124Y-188420D01*
X-392199Y-183718D01*
G37*
D12*
X-231420Y-224650D03*
X-266420Y-224650D03*
X-231420Y-207150D03*
X-266420Y-207150D03*
X-106960Y-224650D03*
X-141960Y-224650D03*
X-106960Y-207150D03*
X-141960Y-207150D03*
D14*
X215900Y8500D03*
X215900Y-8500D03*
X-38100Y8500D03*
X-38100Y-8500D03*
X-292100Y8500D03*
X-292100Y-8500D03*
D15*
X-38500Y-114300D03*
D16*
X-88500Y-114300D03*
D17*
X-72500Y-152400D03*
X-54500Y-152400D03*
D11*
X355600Y63500D03*
X381000Y63500D03*
X355600Y25400D03*
X381000Y25400D03*
X355600Y-12700D03*
X381000Y-12700D03*
X355600Y-50800D03*
X381000Y-50800D03*
D18*
X-4064Y-207772D03*
X120904Y-207772D03*
X245364Y-205740D03*
X364236Y-190500D03*
X455168Y-115824D03*
X491236Y-2540D03*
X459740Y109728D03*
X370078Y186690D03*
X252476Y207264D03*
X127508Y205740D03*
X4064Y207264D03*
X-119888Y207264D03*
X-244856Y207772D03*
X-363220Y191008D03*
X-454660Y116332D03*
X-489204Y6096D03*
X-461264Y-105156D03*
X-374904Y-183896D03*
X-255016Y-206248D03*
X-128778Y-207010D03*
M02*
