G04 EAGLE Gerber RS-274X export*
G75*
%MOMM*%
%FSLAX34Y34*%
%LPD*%
%INSolderpaste Top*%
%IPPOS*%
%AMOC8*
5,1,8,0,0,1.08239X$1,22.5*%
G01*
G04 Define Apertures*
%ADD10R,1.200000X0.600000*%
%ADD11R,1.000000X0.850000*%
%ADD12R,0.850000X1.000000*%
%ADD13R,1.000000X1.100000*%
%ADD14R,0.800000X1.200000*%
D10*
X-12500Y10111D03*
X-12500Y-8889D03*
X12500Y611D03*
X-266500Y10111D03*
X-266500Y-8889D03*
X-241500Y611D03*
X241500Y10111D03*
X241500Y-8889D03*
X266500Y611D03*
D11*
X18836Y-225239D03*
X-16164Y-225239D03*
X18836Y-207739D03*
X-16164Y-207739D03*
X144500Y-225239D03*
X109500Y-225239D03*
X144500Y-207739D03*
X109500Y-207739D03*
X268960Y-223380D03*
X233960Y-223380D03*
X268960Y-205880D03*
X233960Y-205880D03*
D12*
G36*
X390204Y-202986D02*
X386612Y-195284D01*
X395674Y-191058D01*
X399266Y-198760D01*
X390204Y-202986D01*
G37*
G36*
X358484Y-217778D02*
X354892Y-210076D01*
X363954Y-205850D01*
X367546Y-213552D01*
X358484Y-217778D01*
G37*
G36*
X382808Y-187126D02*
X379216Y-179424D01*
X388278Y-175198D01*
X391870Y-182900D01*
X382808Y-187126D01*
G37*
G36*
X351088Y-201918D02*
X347496Y-194216D01*
X356558Y-189990D01*
X360150Y-197692D01*
X351088Y-201918D01*
G37*
G36*
X483706Y-111095D02*
X476346Y-106845D01*
X481346Y-98185D01*
X488706Y-102435D01*
X483706Y-111095D01*
G37*
G36*
X466206Y-141405D02*
X458846Y-137155D01*
X463846Y-128495D01*
X471206Y-132745D01*
X466206Y-141405D01*
G37*
G36*
X468550Y-102345D02*
X461190Y-98095D01*
X466190Y-89435D01*
X473550Y-93685D01*
X468550Y-102345D01*
G37*
G36*
X451050Y-132655D02*
X443690Y-128405D01*
X448690Y-119745D01*
X456050Y-123995D01*
X451050Y-132655D01*
G37*
X508876Y19907D03*
X508876Y-15093D03*
X491376Y19907D03*
X491376Y-15093D03*
G36*
X467992Y136341D02*
X461030Y131466D01*
X455294Y139657D01*
X462256Y144532D01*
X467992Y136341D01*
G37*
G36*
X488067Y107671D02*
X481105Y102796D01*
X475369Y110987D01*
X482331Y115862D01*
X488067Y107671D01*
G37*
G36*
X453657Y126303D02*
X446695Y121428D01*
X440959Y129619D01*
X447921Y134494D01*
X453657Y126303D01*
G37*
G36*
X473732Y97633D02*
X466770Y92758D01*
X461034Y100949D01*
X467996Y105824D01*
X473732Y97633D01*
G37*
G36*
X363735Y213914D02*
X360143Y206212D01*
X351081Y210438D01*
X354673Y218140D01*
X363735Y213914D01*
G37*
G36*
X395455Y199122D02*
X391863Y191420D01*
X382801Y195646D01*
X386393Y203348D01*
X395455Y199122D01*
G37*
G36*
X356339Y198054D02*
X352747Y190352D01*
X343685Y194578D01*
X347277Y202280D01*
X356339Y198054D01*
G37*
G36*
X388059Y183262D02*
X384467Y175560D01*
X375405Y179786D01*
X378997Y187488D01*
X388059Y183262D01*
G37*
D11*
X230150Y224650D03*
X265150Y224650D03*
X230150Y207150D03*
X265150Y207150D03*
X105690Y223380D03*
X140690Y223380D03*
X105690Y205880D03*
X140690Y205880D03*
X-17500Y224650D03*
X17500Y224650D03*
X-17500Y207150D03*
X17500Y207150D03*
X-141960Y224650D03*
X-106960Y224650D03*
X-141960Y207150D03*
X-106960Y207150D03*
X-267690Y225239D03*
X-232690Y225239D03*
X-267690Y207739D03*
X-232690Y207739D03*
D12*
G36*
X-389529Y202262D02*
X-386072Y194498D01*
X-395207Y190430D01*
X-398664Y198194D01*
X-389529Y202262D01*
G37*
G36*
X-357555Y216497D02*
X-354098Y208733D01*
X-363233Y204665D01*
X-366690Y212429D01*
X-357555Y216497D01*
G37*
G36*
X-382411Y186275D02*
X-378954Y178511D01*
X-388089Y174443D01*
X-391546Y182207D01*
X-382411Y186275D01*
G37*
G36*
X-350437Y200510D02*
X-346980Y192746D01*
X-356115Y188678D01*
X-359572Y196442D01*
X-350437Y200510D01*
G37*
G36*
X-483552Y112393D02*
X-476424Y107763D01*
X-481870Y99377D01*
X-488998Y104007D01*
X-483552Y112393D01*
G37*
G36*
X-464489Y141746D02*
X-457361Y137116D01*
X-462807Y128730D01*
X-469935Y133360D01*
X-464489Y141746D01*
G37*
G36*
X-468875Y102862D02*
X-461747Y98232D01*
X-467193Y89846D01*
X-474321Y94476D01*
X-468875Y102862D01*
G37*
G36*
X-449812Y132215D02*
X-442684Y127585D01*
X-448130Y119199D01*
X-455258Y123829D01*
X-449812Y132215D01*
G37*
X-509053Y-17874D03*
X-509053Y17126D03*
X-491553Y-17874D03*
X-491553Y17126D03*
G36*
X-468835Y-134904D02*
X-461707Y-130274D01*
X-456261Y-138660D01*
X-463389Y-143290D01*
X-468835Y-134904D01*
G37*
G36*
X-487898Y-105551D02*
X-480770Y-100921D01*
X-475324Y-109307D01*
X-482452Y-113937D01*
X-487898Y-105551D01*
G37*
G36*
X-454158Y-125373D02*
X-447030Y-120743D01*
X-441584Y-129129D01*
X-448712Y-133759D01*
X-454158Y-125373D01*
G37*
G36*
X-473221Y-96020D02*
X-466093Y-91390D01*
X-460647Y-99776D01*
X-467775Y-104406D01*
X-473221Y-96020D01*
G37*
G36*
X-365487Y-212964D02*
X-362165Y-205141D01*
X-352961Y-209048D01*
X-356283Y-216871D01*
X-365487Y-212964D01*
G37*
G36*
X-397705Y-199289D02*
X-394383Y-191466D01*
X-385179Y-195373D01*
X-388501Y-203196D01*
X-397705Y-199289D01*
G37*
G36*
X-358649Y-196855D02*
X-355327Y-189032D01*
X-346123Y-192939D01*
X-349445Y-200762D01*
X-358649Y-196855D01*
G37*
G36*
X-390867Y-183180D02*
X-387545Y-175357D01*
X-378341Y-179264D01*
X-381663Y-187087D01*
X-390867Y-183180D01*
G37*
D11*
X-231420Y-224650D03*
X-266420Y-224650D03*
X-231420Y-207150D03*
X-266420Y-207150D03*
X-106960Y-224650D03*
X-141960Y-224650D03*
X-106960Y-207150D03*
X-141960Y-207150D03*
D13*
X215900Y8500D03*
X215900Y-8500D03*
X-38100Y8500D03*
X-38100Y-8500D03*
X-292100Y8500D03*
X-292100Y-8500D03*
D14*
X-72500Y-152400D03*
X-54500Y-152400D03*
M02*
