M48
;GenerationSoftware,Autodesk,EAGLE,9.7.0*%
;CreationDate,2026-04-01T18:23:16Z*%
FMAT,2
ICI,OFF
METRIC,TZ,000.000
T7C0.350
T6C0.483
T5C0.813
T4C0.900
T3C1.000
T2C1.397
T1C5.000
%
G90
M71
T1
X64770Y36830
X0Y133350
X-64770Y29210
T2
X-49917Y77062
X-53271Y11870
X-57151Y15148
X-58549Y64503
X-55672Y68689
X-52795Y72876
X-49391Y8591
X-45511Y5312
X55128Y11613
X58136Y15707
X61143Y19802
X39727Y89394
X36621Y93413
X33514Y97433
X57117Y67327
X54096Y71410
T3
X8890Y14605
X8890Y17145
X8890Y19685
X8890Y22225
X8890Y24765
X-6350Y24765
X-6350Y22225
X-6350Y19685
X-6350Y17145
X-6350Y14605
X-6350Y12065
X-6350Y9525
X-6350Y6985
X-6350Y4445
X-6350Y1905
X-6350Y-635
X-3810Y19701
X-3810Y17129
X-1207Y19701
X-1207Y17129
X1397Y19701
X1397Y17129
X4000Y19701
X4000Y17129
X6604Y19701
X6604Y17129
X2170Y-7495
X370Y-8255
X8890Y-8255
X1270Y24765
X-6350Y-5715
X-3810Y24765
X-1270Y24765
X6350Y24765
X-6350Y-8255
X-3810Y-5715
X8890Y-5715
X8890Y12065
X8890Y-3175
X8890Y-635
X8890Y1905
X-6350Y-3175
X3810Y24765
X8890Y4445
X8890Y6985
X8890Y9525
T4
X46990Y19090
X46990Y24090
T5
X6295Y84060
X6295Y86092
X34050Y59635
X32018Y59635
X20080Y59635
X18048Y59635
T6
X-26060Y27661
X-40615Y30709
T7
X24155Y53492
X-10135Y69190
X-24689Y30023
X-2743Y16078
M30