G04 EAGLE Gerber RS-274X export*
G75*
%MOMM*%
%FSLAX34Y34*%
%LPD*%
%INTop Copper*%
%IPPOS*%
%AMOC8*
5,1,8,0,0,1.08239X$1,22.5*%
G01*
G04 Define Apertures*
%ADD10C,1.508000*%
%ADD11P,1.63224X8X202.5*%
%ADD12R,1.508000X1.508000*%
%ADD13C,1.778000*%
%ADD14R,0.800000X1.200000*%
%ADD15R,0.762000X2.032000*%
%ADD16R,3.810000X3.048000*%
%ADD17R,3.302000X2.032000*%
%ADD18R,1.200000X0.800000*%
%ADD19R,0.900000X0.800000*%
%ADD20R,1.400000X1.200000*%
%ADD21C,2.095500*%
%ADD22R,0.800000X0.900000*%
%ADD23R,1.200000X1.400000*%
%ADD24R,1.930400X1.930400*%
%ADD25C,1.930400*%
%ADD26R,3.000000X1.600000*%
%ADD27R,5.715000X4.826000*%
%ADD28P,1.42962X8X292.5*%
%ADD29C,1.320800*%
%ADD30R,1.981200X0.533400*%
%ADD31P,1.42962X8X22.5*%
%ADD32R,1.600000X3.000000*%
%ADD33R,4.826000X5.715000*%
%ADD34C,0.635000*%
%ADD35C,0.254000*%
%ADD36C,0.889000*%
%ADD37C,0.152400*%
%ADD38C,0.756400*%
%ADD39C,0.254000*%
D10*
X88900Y-57150D03*
X88900Y-31750D03*
X88900Y-6350D03*
X88900Y19050D03*
D11*
X-63500Y-31750D03*
D10*
X38100Y247650D03*
X88900Y44450D03*
X88900Y69850D03*
X88900Y95250D03*
X88900Y120650D03*
X88900Y146050D03*
X88900Y171450D03*
X88900Y196850D03*
X88900Y222250D03*
X88900Y247650D03*
X-63500Y247650D03*
X-63500Y222250D03*
X-63500Y196850D03*
X-63500Y171450D03*
X-63500Y146050D03*
X-63500Y120650D03*
X-63500Y95250D03*
X-63500Y69850D03*
X-63500Y44450D03*
X-63500Y19050D03*
X-63500Y-6350D03*
X-38100Y197010D03*
X-38100Y171290D03*
X-12065Y197010D03*
X-12065Y171290D03*
X13970Y197010D03*
X13970Y171290D03*
X40005Y197010D03*
X40005Y171290D03*
X66040Y197010D03*
X66040Y171290D03*
X21700Y-74950D03*
X3700Y-82550D03*
D12*
X88900Y-82550D03*
X12700Y247650D03*
X-63500Y-57150D03*
D10*
X-38100Y247650D03*
X-12700Y247650D03*
X63500Y247650D03*
D13*
X-63500Y-82550D03*
D10*
X-38100Y-57150D03*
D14*
X-372000Y457200D03*
X-390000Y457200D03*
D15*
X-415230Y621270D03*
X-402530Y621270D03*
X-389830Y621270D03*
X-377130Y621270D03*
D16*
X-396180Y599680D03*
D15*
X-377130Y561580D03*
D17*
X-402530Y561580D03*
D18*
X-215900Y676800D03*
X-215900Y694800D03*
D19*
X-111600Y695300D03*
X-111600Y676300D03*
X-90600Y685800D03*
D18*
X-304800Y676800D03*
X-304800Y694800D03*
D20*
X-406400Y696200D03*
X-406400Y726200D03*
D21*
X-490539Y764690D02*
X-507809Y776559D01*
X-536582Y734694D02*
X-519313Y722825D01*
X-548086Y680959D02*
X-565356Y692828D01*
X-594129Y650963D02*
X-576860Y639094D01*
D14*
X-397400Y317500D03*
X-415400Y317500D03*
D15*
X-359470Y191530D03*
X-372170Y191530D03*
X-384870Y191530D03*
X-397570Y191530D03*
D16*
X-378520Y213120D03*
D15*
X-397570Y251220D03*
D17*
X-372170Y251220D03*
D14*
X-263000Y317500D03*
X-245000Y317500D03*
D22*
X-244500Y403700D03*
X-263500Y403700D03*
X-254000Y382700D03*
D14*
X-245000Y254000D03*
X-263000Y254000D03*
D23*
X-264400Y177800D03*
X-294400Y177800D03*
D21*
X-564749Y159487D02*
X-578275Y143482D01*
X-539474Y110693D02*
X-525948Y126698D01*
X-487148Y93909D02*
X-500673Y77904D01*
X-461872Y45114D02*
X-448347Y61120D01*
X542840Y122336D02*
X559729Y109930D01*
X589803Y150871D02*
X572915Y163277D01*
X602989Y204218D02*
X619877Y191813D01*
D14*
G36*
X537388Y181798D02*
X543649Y186778D01*
X551118Y177388D01*
X544857Y172408D01*
X537388Y181798D01*
G37*
G36*
X523302Y170592D02*
X529563Y175572D01*
X537032Y166182D01*
X530771Y161202D01*
X523302Y170592D01*
G37*
D24*
X469900Y190900D03*
D25*
X469900Y240900D03*
D23*
X251700Y863600D03*
X281700Y863600D03*
D14*
X181500Y863600D03*
X199500Y863600D03*
D26*
X200900Y784800D03*
X200900Y739200D03*
D27*
X269880Y762000D03*
D28*
X62950Y840600D03*
D29*
X62950Y860920D03*
D21*
X388981Y887533D02*
X405561Y900348D01*
X374496Y940542D02*
X357916Y927727D01*
X326850Y967921D02*
X343430Y980736D01*
D30*
X229362Y476250D03*
X229362Y463550D03*
X229362Y450850D03*
X229362Y438150D03*
X278638Y438150D03*
X278638Y450850D03*
X278638Y463550D03*
X278638Y476250D03*
D23*
X429500Y609600D03*
X459500Y609600D03*
D14*
X410100Y698500D03*
X428100Y698500D03*
D21*
X562750Y667033D02*
X579595Y679497D01*
X549378Y720333D02*
X532533Y707869D01*
D31*
X340500Y596350D03*
D29*
X320180Y596350D03*
D31*
X200800Y596350D03*
D29*
X180480Y596350D03*
D32*
X454600Y497600D03*
X409000Y497600D03*
D33*
X431800Y428620D03*
D34*
X281178Y863346D02*
X279654Y863346D01*
X201168Y784860D01*
X281178Y863346D02*
X281700Y863600D01*
X201168Y784860D02*
X200900Y784800D01*
X145542Y840486D02*
X63246Y840486D01*
X145542Y840486D02*
X198882Y787146D01*
X63246Y840486D02*
X62950Y840600D01*
X198882Y787146D02*
X200900Y784800D01*
X334518Y915924D02*
X334518Y973836D01*
X334518Y915924D02*
X284226Y865632D01*
X334518Y973836D02*
X335140Y974329D01*
X284226Y865632D02*
X281700Y863600D01*
X229362Y567690D02*
X229362Y476250D01*
X229362Y567690D02*
X201168Y595884D01*
X200800Y596350D01*
X459486Y596646D02*
X459486Y502920D01*
X459486Y596646D02*
X459486Y609600D01*
X459486Y502920D02*
X454914Y498348D01*
X459486Y609600D02*
X459500Y609600D01*
X454914Y498348D02*
X454600Y497600D01*
X459486Y596646D02*
X340614Y596646D01*
X340500Y596350D01*
X540258Y692658D02*
X540258Y713994D01*
X540258Y692658D02*
X460248Y612648D01*
X540258Y713994D02*
X540956Y714101D01*
X460248Y612648D02*
X459500Y609600D01*
X201930Y768096D02*
X201930Y781812D01*
X201930Y768096D02*
X220980Y749046D01*
X220980Y617220D01*
X202692Y598932D01*
X201930Y781812D02*
X200900Y784800D01*
X202692Y598932D02*
X200800Y596350D01*
X-406908Y715518D02*
X-406908Y726186D01*
X-406908Y715518D02*
X-418338Y704088D01*
X-418338Y683514D01*
X-368046Y633222D01*
X-368046Y586740D01*
X-377952Y576834D01*
X-387096Y576834D01*
X-402336Y561594D01*
X-406908Y726186D02*
X-406400Y726200D01*
X-402336Y561594D02*
X-402530Y561580D01*
X-522732Y644652D02*
X-585216Y644652D01*
X-522732Y644652D02*
X-441198Y563118D01*
X-405384Y563118D01*
X-585216Y644652D02*
X-585495Y645028D01*
X-405384Y563118D02*
X-402530Y561580D01*
X-299466Y178308D02*
X-294894Y178308D01*
X-314706Y193548D02*
X-371856Y250698D01*
X-314706Y193548D02*
X-299466Y178308D01*
X-294894Y178308D02*
X-294400Y177800D01*
X-371856Y250698D02*
X-372170Y251220D01*
X-314706Y193548D02*
X-454914Y53340D01*
X-455109Y53117D01*
X-400812Y337566D02*
X-400812Y558546D01*
X-400812Y337566D02*
X-372618Y309372D01*
X-372618Y254508D01*
X-400812Y558546D02*
X-402530Y561580D01*
X-372618Y254508D02*
X-372170Y251220D01*
X-63500Y-57150D02*
X-55626Y-57150D01*
X-42672Y-70104D01*
X9144Y-70104D01*
X16764Y-62484D01*
X52578Y-62484D02*
X68580Y-62484D01*
X52578Y-62484D02*
X16764Y-62484D01*
X68580Y-62484D02*
X88392Y-82296D01*
X88900Y-82550D01*
X20574Y247650D02*
X12700Y247650D01*
X20574Y247650D02*
X33528Y234696D01*
X52578Y234696D02*
X214122Y234696D01*
X52578Y234696D02*
X33528Y234696D01*
X292100Y240900D02*
X469900Y240900D01*
X292100Y240900D02*
X214122Y234696D01*
X569468Y198120D02*
X611124Y198120D01*
X569468Y198120D02*
X527558Y240030D01*
X472694Y240030D01*
X611124Y198120D02*
X611433Y198015D01*
X472694Y240030D02*
X469900Y240900D01*
X52578Y234696D02*
X52578Y-62484D01*
X-292608Y173736D02*
X-292608Y175260D01*
X-292608Y173736D02*
X-64770Y-54102D01*
X-292608Y175260D02*
X-294400Y177800D01*
X-64770Y-54102D02*
X-63500Y-57150D01*
X221742Y475488D02*
X226314Y475488D01*
X221742Y475488D02*
X214122Y467868D01*
X214122Y234696D01*
X226314Y475488D02*
X229362Y476250D01*
D35*
X-389382Y457200D02*
X-389382Y405384D01*
X-260604Y276606D01*
X-389382Y457200D02*
X-390000Y457200D01*
D36*
X-260604Y276606D03*
D35*
X-372618Y457200D02*
X-372618Y557022D01*
X-376428Y560832D01*
X-372618Y457200D02*
X-372000Y457200D01*
X-376428Y560832D02*
X-377130Y561580D01*
X-415290Y621792D02*
X-490728Y621792D01*
X-556260Y687324D01*
X-415290Y621792D02*
X-415230Y621270D01*
X-556260Y687324D02*
X-556721Y686894D01*
D37*
X-296418Y685800D02*
X-90600Y685800D01*
X-296418Y685800D02*
X-304800Y677418D01*
X-304800Y676800D01*
X-215646Y694944D02*
X-112014Y694944D01*
X-111600Y695300D01*
X-215646Y694944D02*
X-215900Y694800D01*
X-108204Y691896D02*
X-101346Y691896D01*
X-108204Y691896D02*
X-111252Y694944D01*
X-111600Y695300D01*
X-419862Y729234D02*
X-527304Y729234D01*
X-419862Y729234D02*
X-414528Y734568D01*
X-256032Y734568D01*
X-216408Y694944D01*
X-527304Y729234D02*
X-527948Y728759D01*
X-216408Y694944D02*
X-215900Y694800D01*
D38*
X-101346Y691896D03*
D37*
X229362Y463550D02*
X229362Y451104D01*
X278892Y451104D02*
X278892Y463296D01*
X278892Y451104D02*
X278638Y450850D01*
X278892Y463296D02*
X278638Y463550D01*
X278130Y451104D02*
X229362Y451104D01*
X229362Y450850D01*
X278130Y451104D02*
X278638Y450850D01*
X241554Y472440D02*
X241554Y534924D01*
X241554Y472440D02*
X233172Y464058D01*
X229362Y464058D01*
X229362Y463550D01*
X-263652Y403098D02*
X-263652Y317754D01*
X-263652Y403098D02*
X-263500Y403700D01*
X-263652Y317754D02*
X-263000Y317500D01*
X-215646Y676656D02*
X-112014Y676656D01*
X-111600Y676300D01*
X-215646Y676656D02*
X-215900Y676800D01*
X-262890Y628650D02*
X-262890Y403860D01*
X-262890Y628650D02*
X-215646Y675894D01*
X-262890Y403860D02*
X-263500Y403700D01*
X-215646Y675894D02*
X-215900Y676800D01*
X-32004Y596646D02*
X179832Y596646D01*
X-32004Y596646D02*
X-111252Y675894D01*
X179832Y596646D02*
X180480Y596350D01*
X-111252Y675894D02*
X-111600Y676300D01*
D38*
X241554Y534924D03*
D37*
X-304800Y694944D02*
X-405384Y694944D01*
X-406146Y695706D01*
X-304800Y694944D02*
X-304800Y694800D01*
X-406146Y695706D02*
X-406400Y696200D01*
X65532Y863346D02*
X181356Y863346D01*
X65532Y863346D02*
X63246Y861060D01*
X181356Y863346D02*
X181500Y863600D01*
X63246Y861060D02*
X62950Y860920D01*
X150876Y739902D02*
X200406Y739902D01*
X53721Y837057D02*
X53340Y837438D01*
X53721Y837057D02*
X150876Y739902D01*
X53340Y837438D02*
X53340Y851154D01*
X62484Y860298D01*
X200406Y739902D02*
X200900Y739200D01*
X62484Y860298D02*
X62950Y860920D01*
X53340Y836676D02*
X-433578Y836676D01*
X-499110Y771144D01*
X53340Y836676D02*
X53721Y837057D01*
X-499110Y771144D02*
X-499174Y770625D01*
D35*
X-415290Y316992D02*
X-406146Y307848D01*
X-406146Y307086D01*
X-415290Y316992D02*
X-415400Y317500D01*
D36*
X-406146Y307086D03*
D35*
X-397002Y316992D02*
X-397002Y251460D01*
X-397002Y316992D02*
X-397400Y317500D01*
X-397002Y251460D02*
X-397570Y251220D01*
X-359664Y191262D02*
X-359664Y185928D01*
X-459486Y86106D01*
X-493776Y86106D01*
X-359664Y191262D02*
X-359470Y191530D01*
X-493776Y86106D02*
X-493910Y85906D01*
D37*
X-253746Y262890D02*
X-253746Y382524D01*
X-253746Y262890D02*
X-245364Y254508D01*
X-253746Y382524D02*
X-254000Y382700D01*
X-245364Y254508D02*
X-245000Y254000D01*
X-244602Y317754D02*
X-244602Y403098D01*
X-244500Y403700D01*
X-244602Y317754D02*
X-245000Y317500D01*
X-86868Y160782D02*
X-27432Y160782D01*
X-236601Y310515D02*
X-243840Y317754D01*
X-236601Y310515D02*
X-86868Y160782D01*
X-243840Y317754D02*
X-245000Y317500D01*
X-236601Y310515D02*
X-246888Y300228D01*
D38*
X-27432Y160782D03*
X-246888Y300228D03*
D37*
X-263652Y253746D02*
X-263652Y178308D01*
X-263652Y253746D02*
X-263000Y254000D01*
X-263652Y178308D02*
X-264400Y177800D01*
X409956Y685800D02*
X409956Y697992D01*
X409956Y685800D02*
X320802Y596646D01*
X409956Y697992D02*
X410100Y698500D01*
X320802Y596646D02*
X320180Y596350D01*
X262128Y438150D02*
X229362Y438150D01*
X262128Y438150D02*
X269748Y445770D01*
X356616Y445770D01*
X408432Y497586D01*
X409000Y497600D01*
X320802Y585978D02*
X320802Y595884D01*
X320802Y585978D02*
X408432Y498348D01*
X320802Y595884D02*
X320180Y596350D01*
X408432Y498348D02*
X409000Y497600D01*
X580644Y157734D02*
X581359Y157074D01*
X558546Y179070D02*
X544830Y179070D01*
X558546Y179070D02*
X579882Y157734D01*
X544830Y179070D02*
X544253Y179593D01*
X579882Y157734D02*
X581359Y157074D01*
X529590Y167640D02*
X161544Y167640D01*
X89154Y95250D01*
X529590Y167640D02*
X530167Y168387D01*
X89154Y95250D02*
X88900Y95250D01*
X199644Y864108D02*
X251460Y864108D01*
X199644Y864108D02*
X199500Y863600D01*
X251460Y864108D02*
X251700Y863600D01*
X397002Y888492D02*
X397002Y893826D01*
X397002Y888492D02*
X270510Y762000D01*
X397002Y893826D02*
X397271Y893940D01*
X270510Y762000D02*
X269880Y762000D01*
X428244Y697992D02*
X428244Y610362D01*
X429006Y609600D01*
X428244Y697992D02*
X428100Y698500D01*
X429006Y609600D02*
X429500Y609600D01*
X570738Y567690D02*
X570738Y672846D01*
X570738Y567690D02*
X432054Y429006D01*
X570738Y672846D02*
X571173Y673265D01*
X432054Y429006D02*
X431800Y428620D01*
D39*
X-1824Y1491542D02*
X-15729Y1473328D01*
X-29490Y1455391D01*
X-43109Y1437728D01*
X-56585Y1420334D01*
X-69918Y1403206D01*
X-83109Y1386341D01*
X-96159Y1369735D01*
X-109067Y1353383D01*
X-121834Y1337284D01*
X-134460Y1321432D01*
X-146945Y1305825D01*
X-159291Y1290459D01*
X-171497Y1275329D01*
X-183564Y1260433D01*
X-195491Y1245767D01*
X-207280Y1231328D01*
X-218930Y1217111D01*
X-230442Y1203113D01*
X-241817Y1189330D01*
X-253054Y1175759D01*
X-264155Y1162396D01*
X-275118Y1149238D01*
X-285945Y1136281D01*
X-296637Y1123521D01*
X-307192Y1110955D01*
X-317612Y1098579D01*
X-327898Y1086389D01*
X-338048Y1074382D01*
X-348065Y1062554D01*
X-357947Y1050902D01*
X-367696Y1039421D01*
X-377311Y1028109D01*
X-386794Y1016962D01*
X-396144Y1005976D01*
X-405361Y995147D01*
X-414447Y984472D01*
X-432224Y963570D01*
X-449478Y943239D01*
X-466210Y923451D01*
X-482425Y904177D01*
X-498124Y885388D01*
X-513310Y867055D01*
X-527986Y849150D01*
X-542155Y831642D01*
X-555819Y814503D01*
X-568981Y797705D01*
X-581645Y781218D01*
X-593811Y765013D01*
X-605485Y749061D01*
X-616667Y733333D01*
X-627361Y717805D01*
X-637569Y702466D01*
X-647296Y687310D01*
X-656543Y672331D01*
X-665314Y657523D01*
X-673612Y642879D01*
X-681441Y628395D01*
X-688802Y614063D01*
X-695700Y599877D01*
X-702136Y585832D01*
X-708115Y571921D01*
X-713639Y558138D01*
X-718712Y544477D01*
X-723336Y530933D01*
X-727514Y517498D01*
X-731250Y504167D01*
X-734546Y490933D01*
X-737406Y477791D01*
X-739833Y464735D01*
X-741829Y451758D01*
X-743399Y438854D01*
X-744543Y426017D01*
X-745267Y413242D01*
X-745573Y400521D01*
X-745464Y387849D01*
X-744942Y375220D01*
X-744012Y362627D01*
X-742676Y350065D01*
X-740937Y337527D01*
X-738798Y325008D01*
X-736263Y312501D01*
X-733333Y300000D01*
X-730014Y287502D01*
X-726310Y275016D01*
X-722228Y262555D01*
X-717773Y250130D01*
X-712953Y237754D01*
X-707772Y225439D01*
X-702237Y213198D01*
X-696354Y201042D01*
X-690130Y188983D01*
X-683569Y177035D01*
X-676679Y165208D01*
X-669466Y153516D01*
X-661935Y141970D01*
X-654093Y130583D01*
X-645946Y119366D01*
X-637500Y108333D01*
X-628761Y97496D01*
X-619735Y86865D01*
X-610428Y76455D01*
X-600846Y66276D01*
X-590996Y56342D01*
X-580884Y46663D01*
X-570515Y37254D01*
X-559896Y28125D01*
X-549033Y19289D01*
X-537931Y10758D01*
X-526598Y2545D01*
X-515039Y-5339D01*
X-503260Y-12880D01*
X-491268Y-20068D01*
X-479068Y-26890D01*
X-466667Y-33333D01*
X-454070Y-39390D01*
X-441284Y-45068D01*
X-428315Y-50380D01*
X-415169Y-55339D01*
X-401852Y-59955D01*
X-388371Y-64242D01*
X-374730Y-68211D01*
X-360938Y-71875D01*
X-346998Y-75246D01*
X-332918Y-78337D01*
X-318704Y-81158D01*
X-304362Y-83724D01*
X-289898Y-86045D01*
X-275317Y-88135D01*
X-260627Y-90004D01*
X-245833Y-91667D01*
X-230942Y-93134D01*
X-215959Y-94417D01*
X-185742Y-96484D01*
X-155233Y-97966D01*
X-124479Y-98958D01*
X-93530Y-99561D01*
X-62435Y-99870D01*
X0Y-100000D01*
X62435Y-99870D01*
X93530Y-99561D01*
X124479Y-98958D01*
X155233Y-97966D01*
X185742Y-96484D01*
X215959Y-94417D01*
X230942Y-93134D01*
X245833Y-91667D01*
X260627Y-90004D01*
X275317Y-88135D01*
X289898Y-86045D01*
X304362Y-83724D01*
X318704Y-81158D01*
X332918Y-78337D01*
X346998Y-75246D01*
X360938Y-71875D01*
X374730Y-68211D01*
X388371Y-64242D01*
X401852Y-59955D01*
X415169Y-55339D01*
X428315Y-50380D01*
X441284Y-45068D01*
X454070Y-39390D01*
X466667Y-33333D01*
X479068Y-26890D01*
X491268Y-20068D01*
X503260Y-12880D01*
X515039Y-5339D01*
X526598Y2545D01*
X537931Y10758D01*
X549033Y19289D01*
X559896Y28125D01*
X570515Y37254D01*
X580884Y46663D01*
X590996Y56342D01*
X600846Y66276D01*
X610428Y76455D01*
X619735Y86865D01*
X628761Y97496D01*
X637500Y108333D01*
X645946Y119366D01*
X654093Y130583D01*
X661935Y141970D01*
X669466Y153516D01*
X676679Y165208D01*
X683569Y177035D01*
X690130Y188983D01*
X696354Y201042D01*
X702237Y213198D01*
X707772Y225439D01*
X712953Y237754D01*
X717773Y250130D01*
X722228Y262555D01*
X726310Y275016D01*
X730014Y287502D01*
X733333Y300000D01*
X736263Y312501D01*
X738798Y325008D01*
X740937Y337527D01*
X742676Y350065D01*
X744012Y362627D01*
X744942Y375220D01*
X745464Y387849D01*
X745573Y400521D01*
X745267Y413242D01*
X744543Y426017D01*
X743399Y438854D01*
X741829Y451758D01*
X739833Y464735D01*
X737406Y477791D01*
X734546Y490933D01*
X731250Y504167D01*
X727514Y517498D01*
X723336Y530933D01*
X718712Y544477D01*
X713639Y558138D01*
X708115Y571921D01*
X702136Y585832D01*
X695700Y599877D01*
X688802Y614063D01*
X681441Y628395D01*
X673612Y642879D01*
X665314Y657523D01*
X656543Y672331D01*
X647296Y687310D01*
X637569Y702466D01*
X627361Y717805D01*
X616667Y733333D01*
X605484Y749061D01*
X593811Y765013D01*
X581642Y781218D01*
X568974Y797705D01*
X555805Y814503D01*
X542131Y831642D01*
X527948Y849150D01*
X513253Y867055D01*
X498042Y885388D01*
X482313Y904177D01*
X466062Y923451D01*
X449285Y943239D01*
X431980Y963570D01*
X414142Y984472D01*
X405022Y995147D01*
X395768Y1005976D01*
X386379Y1016962D01*
X376855Y1028109D01*
X367196Y1039421D01*
X357400Y1050902D01*
X347468Y1062554D01*
X337399Y1074382D01*
X327193Y1086389D01*
X316849Y1098579D01*
X306367Y1110955D01*
X295746Y1123521D01*
X284987Y1136281D01*
X274087Y1149238D01*
X263048Y1162396D01*
X251869Y1175759D01*
X240549Y1189330D01*
X229088Y1203113D01*
X217486Y1217111D01*
X205741Y1231328D01*
X193854Y1245767D01*
X181824Y1260433D01*
X169652Y1275329D01*
X157335Y1290459D01*
X144874Y1305825D01*
X132269Y1321432D01*
X119519Y1337284D01*
X106623Y1353383D01*
X93582Y1369735D01*
X80395Y1386341D01*
X67061Y1403206D01*
X53580Y1420334D01*
X39951Y1437728D01*
X26175Y1455391D01*
X12250Y1473328D01*
X-1824Y1491542D01*
M02*
