G04 EAGLE Gerber RS-274X export*
G75*
%MOMM*%
%FSLAX34Y34*%
%LPD*%
%INSoldermask Bottom*%
%IPPOS*%
%AMOC8*
5,1,8,0,0,1.08239X$1,22.5*%
G01*
G04 Define Apertures*
%ADD10C,5.203200*%
%ADD11C,1.711200*%
%ADD12P,1.85219X8X202.5*%
%ADD13R,1.711200X1.711200*%
%ADD14C,1.981200*%
%ADD15C,2.298700*%
%ADD16R,2.133600X2.133600*%
%ADD17C,2.133600*%
%ADD18P,1.64956X8X292.5*%
%ADD19C,1.524000*%
%ADD20P,1.64956X8X22.5*%
D10*
X647700Y368300D03*
X0Y1333500D03*
X-647700Y292100D03*
D11*
X88900Y-57150D03*
X88900Y-31750D03*
X88900Y-6350D03*
X88900Y19050D03*
D12*
X-63500Y-31750D03*
D11*
X38100Y247650D03*
X88900Y44450D03*
X88900Y69850D03*
X88900Y95250D03*
X88900Y120650D03*
X88900Y146050D03*
X88900Y171450D03*
X88900Y196850D03*
X88900Y222250D03*
X88900Y247650D03*
X-63500Y247650D03*
X-63500Y222250D03*
X-63500Y196850D03*
X-63500Y171450D03*
X-63500Y146050D03*
X-63500Y120650D03*
X-63500Y95250D03*
X-63500Y69850D03*
X-63500Y44450D03*
X-63500Y19050D03*
X-63500Y-6350D03*
X-38100Y197010D03*
X-38100Y171290D03*
X-12065Y197010D03*
X-12065Y171290D03*
X13970Y197010D03*
X13970Y171290D03*
X40005Y197010D03*
X40005Y171290D03*
X66040Y197010D03*
X66040Y171290D03*
X21700Y-74950D03*
X3700Y-82550D03*
D13*
X88900Y-82550D03*
X12700Y247650D03*
X-63500Y-57150D03*
D11*
X-38100Y247650D03*
X-12700Y247650D03*
X63500Y247650D03*
D14*
X-63500Y-82550D03*
D11*
X-38100Y-57150D03*
D15*
X-490539Y764690D02*
X-507809Y776559D01*
X-536582Y734694D02*
X-519313Y722825D01*
X-548086Y680959D02*
X-565356Y692828D01*
X-594129Y650963D02*
X-576860Y639094D01*
X-564749Y159487D02*
X-578275Y143482D01*
X-539474Y110693D02*
X-525948Y126698D01*
X-487148Y93909D02*
X-500673Y77904D01*
X-461872Y45114D02*
X-448347Y61120D01*
X542840Y122336D02*
X559729Y109930D01*
X589803Y150871D02*
X572915Y163277D01*
X602989Y204218D02*
X619877Y191813D01*
D16*
X469900Y190900D03*
D17*
X469900Y240900D03*
D18*
X62950Y840600D03*
D19*
X62950Y860920D03*
D15*
X388981Y887533D02*
X405561Y900348D01*
X374496Y940542D02*
X357916Y927727D01*
X326850Y967921D02*
X343430Y980736D01*
X562750Y667033D02*
X579595Y679497D01*
X549378Y720333D02*
X532533Y707869D01*
D20*
X340500Y596350D03*
D19*
X320180Y596350D03*
D20*
X200800Y596350D03*
D19*
X180480Y596350D03*
M02*
