G04 EAGLE Gerber RS-274X export*
G75*
%MOMM*%
%FSLAX34Y34*%
%LPD*%
%INSilkscreen Bottom*%
%IPPOS*%
%AMOC8*
5,1,8,0,0,1.08239X$1,22.5*%
G01*
G04 Define Apertures*
%ADD10C,0.152400*%
G36*
X41279Y267383D02*
X41131Y269012D01*
X41396Y269060D01*
X41644Y269123D01*
X41875Y269203D01*
X42089Y269299D01*
X42285Y269410D01*
X42465Y269538D01*
X42627Y269682D01*
X42773Y269842D01*
X42901Y270018D01*
X43012Y270210D01*
X43106Y270419D01*
X43183Y270643D01*
X43243Y270883D01*
X43286Y271140D01*
X43312Y271412D01*
X43320Y271701D01*
X43311Y271991D01*
X43284Y272265D01*
X43238Y272522D01*
X43173Y272764D01*
X43091Y272990D01*
X42990Y273200D01*
X42871Y273393D01*
X42733Y273571D01*
X42578Y273730D01*
X42404Y273868D01*
X42213Y273985D01*
X42004Y274080D01*
X41777Y274154D01*
X41533Y274207D01*
X41271Y274239D01*
X40990Y274250D01*
X40746Y274238D01*
X40514Y274201D01*
X40297Y274141D01*
X40094Y274056D01*
X39904Y273947D01*
X39728Y273814D01*
X39566Y273656D01*
X39418Y273475D01*
X39286Y273270D01*
X39171Y273044D01*
X39074Y272797D01*
X38995Y272528D01*
X38933Y272237D01*
X38889Y271925D01*
X38862Y271592D01*
X38853Y271237D01*
X38853Y270344D01*
X37487Y270344D01*
X37487Y271202D01*
X37478Y271517D01*
X37452Y271814D01*
X37408Y272092D01*
X37346Y272353D01*
X37266Y272595D01*
X37169Y272819D01*
X37054Y273024D01*
X36922Y273212D01*
X36774Y273379D01*
X36613Y273524D01*
X36437Y273647D01*
X36249Y273747D01*
X36047Y273825D01*
X35831Y273881D01*
X35602Y273915D01*
X35359Y273926D01*
X35118Y273917D01*
X34890Y273889D01*
X34675Y273844D01*
X34473Y273780D01*
X34284Y273698D01*
X34108Y273598D01*
X33945Y273480D01*
X33795Y273343D01*
X33661Y273189D01*
X33544Y273017D01*
X33446Y272827D01*
X33365Y272620D01*
X33302Y272395D01*
X33257Y272152D01*
X33231Y271892D01*
X33222Y271614D01*
X33230Y271359D01*
X33255Y271117D01*
X33297Y270888D01*
X33355Y270671D01*
X33430Y270466D01*
X33522Y270274D01*
X33631Y270095D01*
X33756Y269928D01*
X33896Y269775D01*
X34050Y269639D01*
X34218Y269520D01*
X34400Y269418D01*
X34595Y269333D01*
X34804Y269265D01*
X35026Y269213D01*
X35262Y269179D01*
X35140Y267593D01*
X34771Y267651D01*
X34424Y267738D01*
X34097Y267852D01*
X33791Y267995D01*
X33506Y268166D01*
X33241Y268366D01*
X32998Y268594D01*
X32775Y268850D01*
X32576Y269130D01*
X32403Y269430D01*
X32257Y269748D01*
X32138Y270086D01*
X32045Y270444D01*
X31978Y270820D01*
X31939Y271216D01*
X31925Y271631D01*
X31939Y272082D01*
X31979Y272508D01*
X32047Y272907D01*
X32141Y273281D01*
X32262Y273629D01*
X32411Y273951D01*
X32586Y274247D01*
X32788Y274517D01*
X33014Y274758D01*
X33262Y274967D01*
X33531Y275144D01*
X33820Y275289D01*
X34132Y275401D01*
X34464Y275482D01*
X34817Y275530D01*
X35192Y275546D01*
X35481Y275536D01*
X35756Y275505D01*
X36017Y275453D01*
X36264Y275381D01*
X36497Y275288D01*
X36717Y275174D01*
X36923Y275040D01*
X37115Y274885D01*
X37292Y274710D01*
X37455Y274517D01*
X37603Y274305D01*
X37736Y274074D01*
X37853Y273824D01*
X37956Y273555D01*
X38044Y273268D01*
X38118Y272962D01*
X38153Y272962D01*
X38200Y273299D01*
X38266Y273616D01*
X38353Y273914D01*
X38459Y274193D01*
X38585Y274453D01*
X38731Y274693D01*
X38896Y274915D01*
X39081Y275117D01*
X39282Y275298D01*
X39496Y275454D01*
X39722Y275587D01*
X39961Y275695D01*
X40213Y275779D01*
X40477Y275840D01*
X40754Y275876D01*
X41043Y275888D01*
X41458Y275871D01*
X41849Y275820D01*
X42216Y275735D01*
X42558Y275616D01*
X42877Y275463D01*
X43171Y275277D01*
X43442Y275056D01*
X43688Y274802D01*
X43908Y274516D01*
X44098Y274201D01*
X44259Y273857D01*
X44391Y273483D01*
X44493Y273081D01*
X44567Y272650D01*
X44611Y272190D01*
X44625Y271701D01*
X44612Y271244D01*
X44572Y270811D01*
X44506Y270402D01*
X44414Y270016D01*
X44295Y269654D01*
X44150Y269316D01*
X43978Y269001D01*
X43780Y268710D01*
X43556Y268445D01*
X43307Y268208D01*
X43032Y268000D01*
X42732Y267820D01*
X42407Y267668D01*
X42056Y267545D01*
X41681Y267450D01*
X41279Y267383D01*
G37*
G36*
X41279Y282321D02*
X41131Y283950D01*
X41396Y283997D01*
X41644Y284061D01*
X41875Y284140D01*
X42089Y284236D01*
X42285Y284348D01*
X42465Y284476D01*
X42627Y284620D01*
X42773Y284780D01*
X42901Y284956D01*
X43012Y285148D01*
X43106Y285356D01*
X43183Y285580D01*
X43243Y285821D01*
X43286Y286077D01*
X43312Y286350D01*
X43320Y286639D01*
X43311Y286928D01*
X43284Y287202D01*
X43238Y287460D01*
X43173Y287702D01*
X43091Y287927D01*
X42990Y288137D01*
X42871Y288331D01*
X42733Y288509D01*
X42578Y288668D01*
X42404Y288806D01*
X42213Y288922D01*
X42004Y289018D01*
X41777Y289092D01*
X41533Y289145D01*
X41271Y289177D01*
X40990Y289187D01*
X40746Y289175D01*
X40514Y289139D01*
X40297Y289078D01*
X40094Y288994D01*
X39904Y288885D01*
X39728Y288751D01*
X39566Y288594D01*
X39418Y288412D01*
X39286Y288208D01*
X39171Y287982D01*
X39074Y287734D01*
X38995Y287465D01*
X38933Y287175D01*
X38889Y286863D01*
X38862Y286529D01*
X38853Y286174D01*
X38853Y285281D01*
X37487Y285281D01*
X37487Y286139D01*
X37478Y286454D01*
X37452Y286751D01*
X37408Y287030D01*
X37346Y287290D01*
X37266Y287532D01*
X37169Y287756D01*
X37054Y287962D01*
X36922Y288149D01*
X36774Y288317D01*
X36613Y288462D01*
X36437Y288584D01*
X36249Y288685D01*
X36047Y288763D01*
X35831Y288819D01*
X35602Y288852D01*
X35359Y288863D01*
X35118Y288854D01*
X34890Y288827D01*
X34675Y288781D01*
X34473Y288718D01*
X34284Y288636D01*
X34108Y288536D01*
X33945Y288417D01*
X33795Y288281D01*
X33661Y288126D01*
X33544Y287954D01*
X33446Y287765D01*
X33365Y287557D01*
X33302Y287332D01*
X33257Y287089D01*
X33231Y286829D01*
X33222Y286551D01*
X33230Y286297D01*
X33255Y286055D01*
X33297Y285825D01*
X33355Y285608D01*
X33430Y285404D01*
X33522Y285212D01*
X33631Y285032D01*
X33756Y284865D01*
X33896Y284713D01*
X34050Y284577D01*
X34218Y284458D01*
X34400Y284356D01*
X34595Y284271D01*
X34804Y284202D01*
X35026Y284151D01*
X35262Y284116D01*
X35140Y282531D01*
X34771Y282589D01*
X34424Y282675D01*
X34097Y282790D01*
X33791Y282933D01*
X33506Y283104D01*
X33241Y283304D01*
X32998Y283531D01*
X32775Y283788D01*
X32576Y284068D01*
X32403Y284367D01*
X32257Y284686D01*
X32138Y285024D01*
X32045Y285381D01*
X31978Y285758D01*
X31939Y286153D01*
X31925Y286569D01*
X31939Y287020D01*
X31979Y287445D01*
X32047Y287845D01*
X32141Y288218D01*
X32262Y288566D01*
X32411Y288888D01*
X32586Y289184D01*
X32788Y289455D01*
X33014Y289696D01*
X33262Y289905D01*
X33531Y290082D01*
X33820Y290226D01*
X34132Y290339D01*
X34464Y290419D01*
X34817Y290468D01*
X35192Y290484D01*
X35481Y290473D01*
X35756Y290442D01*
X36017Y290391D01*
X36264Y290318D01*
X36497Y290225D01*
X36717Y290112D01*
X36923Y289977D01*
X37115Y289822D01*
X37292Y289648D01*
X37455Y289454D01*
X37603Y289242D01*
X37736Y289011D01*
X37853Y288761D01*
X37956Y288493D01*
X38044Y288206D01*
X38118Y287900D01*
X38153Y287900D01*
X38200Y288236D01*
X38266Y288553D01*
X38353Y288852D01*
X38459Y289130D01*
X38585Y289390D01*
X38731Y289631D01*
X38896Y289852D01*
X39081Y290054D01*
X39282Y290235D01*
X39496Y290392D01*
X39722Y290524D01*
X39961Y290633D01*
X40213Y290717D01*
X40477Y290777D01*
X40754Y290813D01*
X41043Y290825D01*
X41458Y290808D01*
X41849Y290757D01*
X42216Y290672D01*
X42558Y290554D01*
X42877Y290401D01*
X43171Y290214D01*
X43442Y289994D01*
X43688Y289739D01*
X43908Y289453D01*
X44098Y289138D01*
X44259Y288794D01*
X44391Y288421D01*
X44493Y288019D01*
X44567Y287588D01*
X44611Y287128D01*
X44625Y286639D01*
X44612Y286182D01*
X44572Y285749D01*
X44506Y285339D01*
X44414Y284954D01*
X44295Y284592D01*
X44150Y284253D01*
X43978Y283939D01*
X43780Y283648D01*
X43556Y283383D01*
X43307Y283146D01*
X43032Y282938D01*
X42732Y282757D01*
X42407Y282606D01*
X42056Y282482D01*
X41681Y282387D01*
X41279Y282321D01*
G37*
G36*
X32109Y291685D02*
X32109Y293446D01*
X40798Y296861D01*
X42979Y297597D01*
X40798Y298333D01*
X32109Y301731D01*
X32109Y303492D01*
X44450Y298455D01*
X44450Y296721D01*
X32109Y291685D01*
G37*
G36*
X44450Y278307D02*
X42532Y278307D01*
X42532Y280015D01*
X44450Y280015D01*
X44450Y278307D01*
G37*
G36*
X-90071Y241125D02*
X-90528Y241138D01*
X-90961Y241178D01*
X-91371Y241244D01*
X-91756Y241336D01*
X-92118Y241455D01*
X-92457Y241600D01*
X-92771Y241772D01*
X-93062Y241970D01*
X-93327Y242194D01*
X-93564Y242443D01*
X-93772Y242718D01*
X-93952Y243018D01*
X-94104Y243343D01*
X-94228Y243694D01*
X-94323Y244069D01*
X-94389Y244471D01*
X-92760Y244619D01*
X-92713Y244354D01*
X-92649Y244106D01*
X-92570Y243875D01*
X-92474Y243662D01*
X-92362Y243465D01*
X-92234Y243285D01*
X-92090Y243123D01*
X-91930Y242977D01*
X-91754Y242849D01*
X-91562Y242738D01*
X-91354Y242644D01*
X-91129Y242567D01*
X-90889Y242507D01*
X-90633Y242464D01*
X-90360Y242438D01*
X-90071Y242430D01*
X-89782Y242439D01*
X-89508Y242467D01*
X-89250Y242512D01*
X-89008Y242577D01*
X-88783Y242659D01*
X-88573Y242760D01*
X-88379Y242879D01*
X-88201Y243017D01*
X-88042Y243172D01*
X-87904Y243346D01*
X-87788Y243537D01*
X-87692Y243746D01*
X-87618Y243973D01*
X-87565Y244217D01*
X-87533Y244479D01*
X-87523Y244760D01*
X-87535Y245005D01*
X-87571Y245236D01*
X-87632Y245453D01*
X-87716Y245656D01*
X-87825Y245846D01*
X-87959Y246022D01*
X-88116Y246184D01*
X-88298Y246332D01*
X-88502Y246464D01*
X-88728Y246579D01*
X-88976Y246676D01*
X-89245Y246755D01*
X-89535Y246817D01*
X-89847Y246861D01*
X-90181Y246888D01*
X-90536Y246897D01*
X-91429Y246897D01*
X-91429Y248263D01*
X-90571Y248263D01*
X-90256Y248272D01*
X-89959Y248298D01*
X-89680Y248342D01*
X-89420Y248404D01*
X-89178Y248484D01*
X-88954Y248581D01*
X-88748Y248696D01*
X-88560Y248828D01*
X-88393Y248976D01*
X-88248Y249138D01*
X-88125Y249313D01*
X-88025Y249501D01*
X-87947Y249703D01*
X-87891Y249919D01*
X-87858Y250149D01*
X-87847Y250391D01*
X-87856Y250632D01*
X-87883Y250860D01*
X-87929Y251075D01*
X-87992Y251277D01*
X-88074Y251466D01*
X-88174Y251642D01*
X-88293Y251805D01*
X-88429Y251955D01*
X-88584Y252089D01*
X-88756Y252206D01*
X-88945Y252304D01*
X-89153Y252385D01*
X-89378Y252448D01*
X-89621Y252493D01*
X-89881Y252519D01*
X-90159Y252528D01*
X-90413Y252520D01*
X-90655Y252495D01*
X-90885Y252453D01*
X-91102Y252395D01*
X-91306Y252320D01*
X-91498Y252228D01*
X-91678Y252119D01*
X-91845Y251994D01*
X-91997Y251854D01*
X-92133Y251700D01*
X-92252Y251532D01*
X-92354Y251350D01*
X-92439Y251155D01*
X-92508Y250946D01*
X-92559Y250724D01*
X-92594Y250488D01*
X-94179Y250610D01*
X-94121Y250979D01*
X-94035Y251326D01*
X-93920Y251653D01*
X-93777Y251959D01*
X-93606Y252244D01*
X-93406Y252509D01*
X-93178Y252752D01*
X-92922Y252975D01*
X-92642Y253174D01*
X-92343Y253347D01*
X-92024Y253493D01*
X-91686Y253612D01*
X-91329Y253705D01*
X-90952Y253772D01*
X-90557Y253811D01*
X-90141Y253825D01*
X-89690Y253811D01*
X-89265Y253771D01*
X-88865Y253703D01*
X-88491Y253609D01*
X-88144Y253488D01*
X-87822Y253339D01*
X-87526Y253164D01*
X-87255Y252962D01*
X-87014Y252736D01*
X-86805Y252488D01*
X-86628Y252220D01*
X-86484Y251930D01*
X-86371Y251618D01*
X-86291Y251286D01*
X-86242Y250933D01*
X-86226Y250558D01*
X-86237Y250269D01*
X-86268Y249994D01*
X-86319Y249733D01*
X-86392Y249486D01*
X-86485Y249253D01*
X-86598Y249033D01*
X-86733Y248827D01*
X-86888Y248635D01*
X-87062Y248458D01*
X-87256Y248295D01*
X-87468Y248147D01*
X-87699Y248015D01*
X-87949Y247897D01*
X-88217Y247794D01*
X-88504Y247706D01*
X-88810Y247632D01*
X-88810Y247597D01*
X-88474Y247550D01*
X-88156Y247484D01*
X-87858Y247397D01*
X-87580Y247291D01*
X-87320Y247165D01*
X-87079Y247019D01*
X-86858Y246854D01*
X-86655Y246669D01*
X-86475Y246468D01*
X-86318Y246254D01*
X-86186Y246028D01*
X-86077Y245789D01*
X-85993Y245537D01*
X-85933Y245273D01*
X-85897Y244996D01*
X-85885Y244707D01*
X-85902Y244292D01*
X-85953Y243901D01*
X-86037Y243535D01*
X-86156Y243192D01*
X-86309Y242873D01*
X-86496Y242579D01*
X-86716Y242308D01*
X-86971Y242062D01*
X-87257Y241842D01*
X-87572Y241652D01*
X-87916Y241491D01*
X-88289Y241359D01*
X-88691Y241257D01*
X-89122Y241183D01*
X-89582Y241140D01*
X-90071Y241125D01*
G37*
G36*
X-95941Y241300D02*
X-103675Y241300D01*
X-103675Y242640D01*
X-100531Y242640D01*
X-100531Y252134D01*
X-103316Y250146D01*
X-103316Y251635D01*
X-100399Y253641D01*
X-98945Y253641D01*
X-98945Y242640D01*
X-95941Y242640D01*
X-95941Y241300D01*
G37*
G36*
X-87356Y215900D02*
X-88845Y215900D01*
X-88845Y218694D01*
X-94661Y218694D01*
X-94661Y219920D01*
X-89012Y228241D01*
X-87356Y228241D01*
X-87356Y219938D01*
X-85622Y219938D01*
X-85622Y218694D01*
X-87356Y218694D01*
X-87356Y215900D01*
G37*
%LPC*%
G36*
X-88845Y219938D02*
X-88845Y226463D01*
X-89090Y225999D01*
X-89432Y225421D01*
X-92594Y220761D01*
X-93067Y220113D01*
X-93207Y219938D01*
X-88845Y219938D01*
G37*
%LPD*%
G36*
X-95941Y215900D02*
X-103675Y215900D01*
X-103675Y217240D01*
X-100531Y217240D01*
X-100531Y226734D01*
X-103316Y224746D01*
X-103316Y226235D01*
X-100399Y228241D01*
X-98945Y228241D01*
X-98945Y217240D01*
X-95941Y217240D01*
X-95941Y215900D01*
G37*
G36*
X-90229Y190325D02*
X-90650Y190337D01*
X-91050Y190372D01*
X-91429Y190431D01*
X-91788Y190513D01*
X-92126Y190619D01*
X-92443Y190749D01*
X-92739Y190902D01*
X-93014Y191078D01*
X-93267Y191277D01*
X-93495Y191497D01*
X-93699Y191738D01*
X-93879Y192000D01*
X-94034Y192283D01*
X-94165Y192587D01*
X-94272Y192913D01*
X-94354Y193259D01*
X-92760Y193443D01*
X-92692Y193221D01*
X-92611Y193014D01*
X-92518Y192821D01*
X-92413Y192642D01*
X-92295Y192478D01*
X-92165Y192327D01*
X-92023Y192192D01*
X-91869Y192070D01*
X-91702Y191963D01*
X-91524Y191870D01*
X-91333Y191791D01*
X-91129Y191727D01*
X-90914Y191677D01*
X-90686Y191641D01*
X-90446Y191619D01*
X-90194Y191612D01*
X-89885Y191624D01*
X-89593Y191660D01*
X-89319Y191720D01*
X-89062Y191804D01*
X-88822Y191912D01*
X-88599Y192043D01*
X-88394Y192199D01*
X-88206Y192379D01*
X-88037Y192579D01*
X-87892Y192798D01*
X-87768Y193034D01*
X-87667Y193289D01*
X-87589Y193561D01*
X-87532Y193851D01*
X-87499Y194159D01*
X-87488Y194485D01*
X-87499Y194769D01*
X-87533Y195040D01*
X-87589Y195296D01*
X-87668Y195538D01*
X-87770Y195767D01*
X-87894Y195981D01*
X-88041Y196182D01*
X-88210Y196368D01*
X-88399Y196537D01*
X-88603Y196682D01*
X-88823Y196806D01*
X-89059Y196907D01*
X-89310Y196985D01*
X-89577Y197042D01*
X-89860Y197075D01*
X-90159Y197086D01*
X-90473Y197074D01*
X-90776Y197036D01*
X-91069Y196973D01*
X-91350Y196885D01*
X-91626Y196767D01*
X-91902Y196613D01*
X-92178Y196425D01*
X-92454Y196202D01*
X-93995Y196202D01*
X-93583Y202841D01*
X-86568Y202841D01*
X-86568Y201501D01*
X-92147Y201501D01*
X-92384Y197586D01*
X-92120Y197770D01*
X-91840Y197931D01*
X-91545Y198066D01*
X-91234Y198177D01*
X-90908Y198263D01*
X-90566Y198325D01*
X-90208Y198362D01*
X-89835Y198374D01*
X-89391Y198357D01*
X-88970Y198307D01*
X-88573Y198224D01*
X-88198Y198107D01*
X-87847Y197957D01*
X-87518Y197773D01*
X-87213Y197556D01*
X-86931Y197305D01*
X-86678Y197028D01*
X-86458Y196731D01*
X-86272Y196413D01*
X-86120Y196075D01*
X-86002Y195717D01*
X-85917Y195338D01*
X-85867Y194939D01*
X-85850Y194520D01*
X-85868Y194045D01*
X-85922Y193596D01*
X-86013Y193172D01*
X-86140Y192775D01*
X-86303Y192404D01*
X-86502Y192058D01*
X-86738Y191739D01*
X-87010Y191446D01*
X-87314Y191183D01*
X-87647Y190955D01*
X-88007Y190763D01*
X-88395Y190605D01*
X-88812Y190483D01*
X-89256Y190395D01*
X-89728Y190342D01*
X-90229Y190325D01*
G37*
G36*
X-95941Y190500D02*
X-103675Y190500D01*
X-103675Y191840D01*
X-100531Y191840D01*
X-100531Y201334D01*
X-103316Y199346D01*
X-103316Y200835D01*
X-100399Y202841D01*
X-98945Y202841D01*
X-98945Y191840D01*
X-95941Y191840D01*
X-95941Y190500D01*
G37*
G36*
X-89870Y166195D02*
X-90127Y166201D01*
X-90376Y166219D01*
X-90851Y166292D01*
X-91295Y166413D01*
X-91709Y166582D01*
X-92092Y166800D01*
X-92445Y167067D01*
X-92767Y167382D01*
X-93058Y167745D01*
X-93317Y168155D01*
X-93541Y168608D01*
X-93730Y169106D01*
X-93886Y169648D01*
X-94006Y170234D01*
X-94093Y170864D01*
X-94144Y171538D01*
X-94162Y172256D01*
X-94144Y173034D01*
X-94090Y173765D01*
X-94000Y174451D01*
X-93875Y175089D01*
X-93713Y175681D01*
X-93516Y176227D01*
X-93283Y176726D01*
X-93014Y177178D01*
X-92712Y177580D01*
X-92380Y177929D01*
X-92017Y178224D01*
X-91624Y178466D01*
X-91200Y178653D01*
X-90977Y178727D01*
X-90746Y178787D01*
X-90508Y178834D01*
X-90262Y178868D01*
X-90008Y178888D01*
X-89747Y178895D01*
X-89406Y178885D01*
X-89081Y178855D01*
X-88772Y178806D01*
X-88479Y178738D01*
X-88203Y178649D01*
X-87942Y178541D01*
X-87698Y178414D01*
X-87470Y178266D01*
X-87258Y178099D01*
X-87062Y177913D01*
X-86883Y177707D01*
X-86719Y177481D01*
X-86572Y177235D01*
X-86440Y176970D01*
X-86325Y176685D01*
X-86226Y176381D01*
X-87733Y176110D01*
X-87866Y176463D01*
X-88034Y176769D01*
X-88236Y177028D01*
X-88473Y177239D01*
X-88744Y177404D01*
X-89050Y177522D01*
X-89390Y177592D01*
X-89765Y177616D01*
X-90092Y177596D01*
X-90401Y177537D01*
X-90691Y177439D01*
X-90961Y177302D01*
X-91213Y177125D01*
X-91446Y176909D01*
X-91659Y176654D01*
X-91854Y176359D01*
X-92027Y176027D01*
X-92177Y175660D01*
X-92305Y175258D01*
X-92409Y174821D01*
X-92490Y174348D01*
X-92548Y173841D01*
X-92582Y173298D01*
X-92594Y172720D01*
X-92357Y173095D01*
X-92077Y173422D01*
X-91753Y173701D01*
X-91385Y173933D01*
X-90981Y174115D01*
X-90549Y174245D01*
X-90322Y174291D01*
X-90088Y174323D01*
X-89847Y174343D01*
X-89598Y174349D01*
X-89182Y174332D01*
X-88788Y174282D01*
X-88417Y174199D01*
X-88067Y174082D01*
X-87739Y173932D01*
X-87433Y173748D01*
X-87149Y173531D01*
X-86888Y173280D01*
X-86653Y173002D01*
X-86449Y172700D01*
X-86276Y172376D01*
X-86135Y172028D01*
X-86026Y171657D01*
X-85947Y171264D01*
X-85900Y170847D01*
X-85885Y170408D01*
X-85901Y169932D01*
X-85951Y169483D01*
X-86034Y169059D01*
X-86150Y168660D01*
X-86299Y168288D01*
X-86481Y167941D01*
X-86696Y167620D01*
X-86945Y167325D01*
X-87222Y167060D01*
X-87525Y166830D01*
X-87853Y166636D01*
X-88206Y166477D01*
X-88584Y166354D01*
X-88987Y166265D01*
X-89416Y166213D01*
X-89870Y166195D01*
G37*
%LPC*%
G36*
X-89922Y167465D02*
X-89645Y167477D01*
X-89384Y167513D01*
X-89137Y167573D01*
X-88906Y167656D01*
X-88691Y167764D01*
X-88490Y167896D01*
X-88305Y168052D01*
X-88136Y168231D01*
X-87984Y168432D01*
X-87852Y168650D01*
X-87741Y168887D01*
X-87650Y169141D01*
X-87579Y169413D01*
X-87528Y169703D01*
X-87498Y170012D01*
X-87488Y170338D01*
X-87498Y170663D01*
X-87529Y170969D01*
X-87580Y171256D01*
X-87652Y171524D01*
X-87744Y171773D01*
X-87857Y172003D01*
X-87990Y172213D01*
X-88144Y172405D01*
X-88317Y172575D01*
X-88505Y172723D01*
X-88710Y172848D01*
X-88931Y172950D01*
X-89167Y173029D01*
X-89420Y173086D01*
X-89690Y173120D01*
X-89975Y173132D01*
X-90244Y173122D01*
X-90500Y173091D01*
X-90743Y173041D01*
X-90972Y172971D01*
X-91189Y172880D01*
X-91391Y172769D01*
X-91581Y172639D01*
X-91757Y172488D01*
X-91916Y172319D01*
X-92054Y172136D01*
X-92171Y171937D01*
X-92266Y171723D01*
X-92341Y171493D01*
X-92394Y171249D01*
X-92426Y170989D01*
X-92436Y170714D01*
X-92425Y170365D01*
X-92392Y170033D01*
X-92337Y169716D01*
X-92260Y169416D01*
X-92161Y169132D01*
X-92040Y168863D01*
X-91896Y168612D01*
X-91731Y168376D01*
X-91549Y168162D01*
X-91354Y167977D01*
X-91146Y167821D01*
X-90926Y167693D01*
X-90694Y167593D01*
X-90449Y167522D01*
X-90192Y167479D01*
X-89922Y167465D01*
G37*
%LPD*%
G36*
X-95941Y166370D02*
X-103675Y166370D01*
X-103675Y167710D01*
X-100531Y167710D01*
X-100531Y177204D01*
X-103316Y175216D01*
X-103316Y176705D01*
X-100399Y178711D01*
X-98945Y178711D01*
X-98945Y167710D01*
X-95941Y167710D01*
X-95941Y166370D01*
G37*
G36*
X-95941Y140970D02*
X-103675Y140970D01*
X-103675Y142310D01*
X-100531Y142310D01*
X-100531Y151804D01*
X-103316Y149816D01*
X-103316Y151305D01*
X-100399Y153311D01*
X-98945Y153311D01*
X-98945Y142310D01*
X-95941Y142310D01*
X-95941Y140970D01*
G37*
G36*
X-90229Y140970D02*
X-91876Y140970D01*
X-91860Y141565D01*
X-91813Y142168D01*
X-91735Y142779D01*
X-91625Y143397D01*
X-91484Y144024D01*
X-91311Y144658D01*
X-91108Y145300D01*
X-90873Y145949D01*
X-90601Y146615D01*
X-90287Y147306D01*
X-89932Y148022D01*
X-89534Y148762D01*
X-89094Y149527D01*
X-88612Y150317D01*
X-88088Y151131D01*
X-87523Y151971D01*
X-94153Y151971D01*
X-94153Y153311D01*
X-85999Y153311D01*
X-85999Y152032D01*
X-86875Y150665D01*
X-87612Y149455D01*
X-88211Y148401D01*
X-88670Y147504D01*
X-89035Y146688D01*
X-89352Y145877D01*
X-89620Y145072D01*
X-89839Y144272D01*
X-90010Y143468D01*
X-90132Y142649D01*
X-90205Y141817D01*
X-90223Y141395D01*
X-90229Y140970D01*
G37*
G36*
X-113919Y116840D02*
X-118535Y116840D01*
X-118535Y129181D01*
X-114454Y129181D01*
X-114067Y129175D01*
X-113692Y129156D01*
X-113328Y129126D01*
X-112975Y129083D01*
X-112634Y129027D01*
X-112303Y128960D01*
X-111984Y128880D01*
X-111676Y128788D01*
X-111379Y128683D01*
X-111094Y128567D01*
X-110819Y128438D01*
X-110556Y128296D01*
X-110304Y128143D01*
X-110063Y127977D01*
X-109833Y127799D01*
X-109615Y127609D01*
X-109408Y127407D01*
X-109215Y127195D01*
X-109036Y126972D01*
X-108869Y126740D01*
X-108716Y126496D01*
X-108576Y126243D01*
X-108450Y125979D01*
X-108337Y125705D01*
X-108237Y125420D01*
X-108151Y125125D01*
X-108077Y124820D01*
X-108017Y124504D01*
X-107971Y124178D01*
X-107938Y123841D01*
X-107918Y123495D01*
X-107911Y123137D01*
X-107923Y122668D01*
X-107958Y122213D01*
X-108016Y121772D01*
X-108097Y121347D01*
X-108202Y120937D01*
X-108330Y120542D01*
X-108481Y120161D01*
X-108655Y119796D01*
X-108851Y119448D01*
X-109067Y119122D01*
X-109301Y118816D01*
X-109555Y118531D01*
X-109829Y118268D01*
X-110122Y118025D01*
X-110434Y117803D01*
X-110766Y117602D01*
X-111114Y117423D01*
X-111476Y117269D01*
X-111850Y117138D01*
X-112238Y117030D01*
X-112638Y116947D01*
X-113052Y116888D01*
X-113479Y116852D01*
X-113919Y116840D01*
G37*
%LPC*%
G36*
X-114112Y118180D02*
X-113778Y118189D01*
X-113454Y118217D01*
X-113140Y118264D01*
X-112837Y118329D01*
X-112543Y118413D01*
X-112260Y118515D01*
X-111988Y118636D01*
X-111725Y118776D01*
X-111476Y118933D01*
X-111241Y119106D01*
X-111021Y119296D01*
X-110816Y119503D01*
X-110625Y119725D01*
X-110450Y119965D01*
X-110290Y120220D01*
X-110144Y120492D01*
X-110015Y120779D01*
X-109903Y121078D01*
X-109808Y121390D01*
X-109731Y121714D01*
X-109670Y122051D01*
X-109627Y122401D01*
X-109601Y122763D01*
X-109593Y123137D01*
X-109612Y123694D01*
X-109671Y124217D01*
X-109769Y124705D01*
X-109907Y125160D01*
X-110084Y125580D01*
X-110300Y125966D01*
X-110555Y126318D01*
X-110849Y126636D01*
X-111181Y126919D01*
X-111548Y127163D01*
X-111950Y127370D01*
X-112388Y127540D01*
X-112860Y127671D01*
X-113368Y127765D01*
X-113911Y127822D01*
X-114489Y127841D01*
X-116862Y127841D01*
X-116862Y118180D01*
X-114112Y118180D01*
G37*
%LPD*%
G36*
X-90103Y116665D02*
X-90365Y116671D01*
X-90618Y116690D01*
X-90864Y116722D01*
X-91101Y116766D01*
X-91550Y116893D01*
X-91966Y117070D01*
X-92349Y117298D01*
X-92699Y117576D01*
X-93016Y117905D01*
X-93300Y118285D01*
X-93550Y118714D01*
X-93767Y119188D01*
X-93951Y119710D01*
X-94101Y120278D01*
X-94218Y120892D01*
X-94302Y121553D01*
X-94352Y122261D01*
X-94368Y123015D01*
X-94352Y123785D01*
X-94303Y124505D01*
X-94222Y125175D01*
X-94109Y125796D01*
X-93963Y126366D01*
X-93785Y126887D01*
X-93574Y127358D01*
X-93330Y127779D01*
X-93052Y128151D01*
X-92736Y128473D01*
X-92383Y128745D01*
X-91991Y128968D01*
X-91563Y129142D01*
X-91334Y129210D01*
X-91096Y129266D01*
X-90849Y129309D01*
X-90592Y129340D01*
X-90326Y129359D01*
X-90050Y129365D01*
X-89782Y129358D01*
X-89523Y129340D01*
X-89273Y129308D01*
X-89031Y129265D01*
X-88799Y129208D01*
X-88575Y129139D01*
X-88155Y128964D01*
X-87771Y128739D01*
X-87422Y128463D01*
X-87109Y128138D01*
X-86832Y127762D01*
X-86588Y127337D01*
X-86378Y126864D01*
X-86199Y126343D01*
X-86053Y125774D01*
X-85940Y125156D01*
X-85859Y124491D01*
X-85810Y123777D01*
X-85794Y123015D01*
X-85811Y122265D01*
X-85862Y121560D01*
X-85947Y120902D01*
X-86066Y120289D01*
X-86220Y119721D01*
X-86407Y119200D01*
X-86629Y118724D01*
X-86884Y118294D01*
X-87173Y117912D01*
X-87494Y117581D01*
X-87848Y117301D01*
X-88234Y117072D01*
X-88653Y116894D01*
X-89104Y116767D01*
X-89341Y116722D01*
X-89587Y116690D01*
X-89841Y116671D01*
X-90103Y116665D01*
G37*
%LPC*%
G36*
X-90085Y117952D02*
X-89749Y117972D01*
X-89436Y118030D01*
X-89146Y118127D01*
X-88879Y118263D01*
X-88635Y118438D01*
X-88415Y118652D01*
X-88218Y118905D01*
X-88045Y119196D01*
X-87893Y119528D01*
X-87761Y119901D01*
X-87650Y120316D01*
X-87559Y120773D01*
X-87488Y121271D01*
X-87437Y121810D01*
X-87407Y122392D01*
X-87397Y123015D01*
X-87406Y123660D01*
X-87435Y124258D01*
X-87483Y124811D01*
X-87551Y125318D01*
X-87638Y125779D01*
X-87744Y126194D01*
X-87869Y126563D01*
X-88014Y126886D01*
X-88181Y127167D01*
X-88373Y127411D01*
X-88590Y127617D01*
X-88832Y127786D01*
X-89099Y127917D01*
X-89391Y128011D01*
X-89708Y128067D01*
X-90050Y128086D01*
X-90401Y128067D01*
X-90726Y128012D01*
X-91026Y127920D01*
X-91300Y127790D01*
X-91548Y127624D01*
X-91771Y127421D01*
X-91968Y127181D01*
X-92139Y126904D01*
X-92288Y126584D01*
X-92417Y126217D01*
X-92526Y125802D01*
X-92616Y125340D01*
X-92685Y124830D01*
X-92735Y124273D01*
X-92764Y123668D01*
X-92774Y123015D01*
X-92764Y122380D01*
X-92734Y121789D01*
X-92684Y121242D01*
X-92613Y120740D01*
X-92523Y120281D01*
X-92412Y119867D01*
X-92281Y119496D01*
X-92131Y119170D01*
X-91958Y118884D01*
X-91761Y118637D01*
X-91541Y118428D01*
X-91297Y118257D01*
X-91030Y118124D01*
X-90739Y118028D01*
X-90424Y117971D01*
X-90085Y117952D01*
G37*
%LPD*%
G36*
X-141920Y116665D02*
X-142402Y116680D01*
X-142856Y116723D01*
X-143284Y116797D01*
X-143684Y116899D01*
X-144058Y117031D01*
X-144404Y117192D01*
X-144724Y117382D01*
X-145017Y117602D01*
X-145278Y117849D01*
X-145505Y118120D01*
X-145697Y118416D01*
X-145854Y118736D01*
X-145976Y119081D01*
X-146063Y119451D01*
X-146116Y119846D01*
X-146133Y120265D01*
X-146122Y120561D01*
X-146090Y120845D01*
X-146036Y121117D01*
X-145960Y121377D01*
X-145863Y121625D01*
X-145744Y121861D01*
X-145604Y122085D01*
X-145441Y122297D01*
X-145262Y122492D01*
X-145071Y122668D01*
X-144868Y122823D01*
X-144653Y122958D01*
X-144426Y123073D01*
X-144187Y123167D01*
X-143935Y123241D01*
X-143672Y123295D01*
X-143672Y123330D01*
X-143917Y123398D01*
X-144149Y123483D01*
X-144368Y123585D01*
X-144573Y123705D01*
X-144765Y123841D01*
X-144944Y123995D01*
X-145110Y124166D01*
X-145262Y124355D01*
X-145398Y124556D01*
X-145517Y124766D01*
X-145617Y124984D01*
X-145699Y125211D01*
X-145762Y125446D01*
X-145808Y125690D01*
X-145835Y125942D01*
X-145844Y126203D01*
X-145828Y126547D01*
X-145778Y126875D01*
X-145696Y127185D01*
X-145580Y127479D01*
X-145432Y127757D01*
X-145251Y128018D01*
X-145036Y128262D01*
X-144789Y128489D01*
X-144514Y128694D01*
X-144216Y128872D01*
X-143896Y129023D01*
X-143553Y129146D01*
X-143187Y129242D01*
X-142799Y129310D01*
X-142389Y129351D01*
X-141955Y129365D01*
X-141512Y129351D01*
X-141092Y129311D01*
X-140697Y129244D01*
X-140325Y129150D01*
X-139978Y129029D01*
X-139654Y128882D01*
X-139354Y128708D01*
X-139078Y128506D01*
X-138831Y128282D01*
X-138617Y128039D01*
X-138435Y127778D01*
X-138287Y127497D01*
X-138171Y127197D01*
X-138089Y126879D01*
X-138039Y126542D01*
X-138023Y126185D01*
X-138032Y125925D01*
X-138060Y125672D01*
X-138105Y125429D01*
X-138170Y125193D01*
X-138252Y124967D01*
X-138353Y124748D01*
X-138472Y124539D01*
X-138610Y124337D01*
X-138763Y124149D01*
X-138930Y123980D01*
X-138948Y123965D01*
X-139110Y123829D01*
X-139304Y123696D01*
X-139511Y123581D01*
X-139731Y123485D01*
X-139965Y123407D01*
X-140212Y123348D01*
X-140212Y123313D01*
X-139925Y123255D01*
X-139654Y123178D01*
X-139400Y123081D01*
X-139161Y122966D01*
X-138940Y122831D01*
X-138734Y122676D01*
X-138546Y122503D01*
X-138407Y122347D01*
X-138373Y122310D01*
X-138219Y122101D01*
X-138086Y121879D01*
X-137973Y121645D01*
X-137881Y121398D01*
X-137809Y121138D01*
X-137757Y120865D01*
X-137727Y120580D01*
X-137716Y120282D01*
X-137733Y119867D01*
X-137784Y119475D01*
X-137869Y119107D01*
X-137988Y118763D01*
X-138141Y118441D01*
X-138327Y118144D01*
X-138548Y117870D01*
X-138802Y117620D01*
X-139089Y117396D01*
X-139405Y117202D01*
X-139750Y117038D01*
X-140125Y116903D01*
X-140529Y116799D01*
X-140964Y116725D01*
X-141427Y116680D01*
X-141920Y116665D01*
G37*
%LPC*%
G36*
X-141903Y117847D02*
X-141591Y117857D01*
X-141300Y117886D01*
X-141030Y117934D01*
X-140780Y118002D01*
X-140550Y118088D01*
X-140341Y118195D01*
X-140153Y118320D01*
X-139985Y118465D01*
X-139837Y118631D01*
X-139709Y118819D01*
X-139600Y119031D01*
X-139512Y119265D01*
X-139443Y119522D01*
X-139394Y119802D01*
X-139364Y120105D01*
X-139354Y120431D01*
X-139365Y120709D01*
X-139397Y120969D01*
X-139450Y121212D01*
X-139525Y121437D01*
X-139621Y121645D01*
X-139738Y121834D01*
X-139877Y122006D01*
X-140037Y122161D01*
X-140217Y122297D01*
X-140413Y122416D01*
X-140627Y122516D01*
X-140858Y122598D01*
X-141107Y122661D01*
X-141372Y122707D01*
X-141655Y122734D01*
X-141955Y122743D01*
X-142247Y122733D01*
X-142523Y122704D01*
X-142781Y122655D01*
X-143024Y122587D01*
X-143250Y122499D01*
X-143460Y122391D01*
X-143653Y122264D01*
X-143830Y122117D01*
X-143988Y121953D01*
X-144125Y121775D01*
X-144241Y121581D01*
X-144336Y121374D01*
X-144409Y121151D01*
X-144462Y120914D01*
X-144494Y120662D01*
X-144504Y120396D01*
X-144494Y120087D01*
X-144464Y119799D01*
X-144413Y119530D01*
X-144342Y119281D01*
X-144250Y119052D01*
X-144138Y118843D01*
X-144006Y118654D01*
X-143854Y118484D01*
X-143681Y118335D01*
X-143488Y118206D01*
X-143275Y118096D01*
X-143041Y118007D01*
X-142787Y117937D01*
X-142513Y117887D01*
X-142218Y117857D01*
X-141903Y117847D01*
G37*
G36*
X-141938Y123926D02*
X-141668Y123934D01*
X-141415Y123958D01*
X-141178Y123998D01*
X-140958Y124054D01*
X-140754Y124126D01*
X-140567Y124214D01*
X-140397Y124318D01*
X-140243Y124438D01*
X-140107Y124576D01*
X-139988Y124734D01*
X-139888Y124912D01*
X-139806Y125109D01*
X-139743Y125327D01*
X-139697Y125564D01*
X-139670Y125821D01*
X-139661Y126098D01*
X-139670Y126351D01*
X-139697Y126588D01*
X-139741Y126809D01*
X-139804Y127014D01*
X-139885Y127202D01*
X-139983Y127373D01*
X-140100Y127529D01*
X-140234Y127668D01*
X-140387Y127790D01*
X-140557Y127897D01*
X-140745Y127987D01*
X-140951Y128060D01*
X-141176Y128117D01*
X-141418Y128158D01*
X-141678Y128183D01*
X-141955Y128191D01*
X-142225Y128183D01*
X-142478Y128158D01*
X-142715Y128117D01*
X-142935Y128060D01*
X-143139Y127986D01*
X-143326Y127895D01*
X-143496Y127789D01*
X-143650Y127666D01*
X-143787Y127526D01*
X-143905Y127371D01*
X-144005Y127199D01*
X-144087Y127011D01*
X-144151Y126807D01*
X-144196Y126587D01*
X-144224Y126350D01*
X-144233Y126098D01*
X-144223Y125841D01*
X-144195Y125599D01*
X-144148Y125374D01*
X-144083Y125164D01*
X-143998Y124970D01*
X-143895Y124791D01*
X-143773Y124629D01*
X-143633Y124482D01*
X-143475Y124351D01*
X-143302Y124239D01*
X-143113Y124143D01*
X-142909Y124065D01*
X-142689Y124004D01*
X-142454Y123960D01*
X-142204Y123934D01*
X-141938Y123926D01*
G37*
%LPD*%
G36*
X-105269Y116840D02*
X-107003Y116840D01*
X-101967Y129181D01*
X-100066Y129181D01*
X-95109Y116840D01*
X-96817Y116840D01*
X-98227Y120449D01*
X-103850Y120449D01*
X-105269Y116840D01*
G37*
%LPC*%
G36*
X-98726Y121754D02*
X-100311Y125826D01*
X-100556Y126470D01*
X-100802Y127193D01*
X-101038Y127920D01*
X-101117Y127674D01*
X-101389Y126844D01*
X-101765Y125809D01*
X-103342Y121754D01*
X-98726Y121754D01*
G37*
%LPD*%
G36*
X-125932Y116665D02*
X-126481Y116677D01*
X-127000Y116714D01*
X-127490Y116775D01*
X-127950Y116861D01*
X-128381Y116971D01*
X-128782Y117106D01*
X-129153Y117265D01*
X-129494Y117449D01*
X-129806Y117657D01*
X-130089Y117890D01*
X-130342Y118147D01*
X-130565Y118429D01*
X-130758Y118735D01*
X-130922Y119065D01*
X-131056Y119421D01*
X-131161Y119800D01*
X-129540Y120124D01*
X-129460Y119856D01*
X-129361Y119605D01*
X-129242Y119373D01*
X-129102Y119160D01*
X-128944Y118965D01*
X-128765Y118789D01*
X-128567Y118631D01*
X-128349Y118491D01*
X-128111Y118369D01*
X-127853Y118263D01*
X-127574Y118173D01*
X-127274Y118100D01*
X-126954Y118043D01*
X-126613Y118002D01*
X-126252Y117978D01*
X-125871Y117970D01*
X-125477Y117979D01*
X-125107Y118005D01*
X-124759Y118048D01*
X-124435Y118109D01*
X-124134Y118187D01*
X-123856Y118283D01*
X-123602Y118396D01*
X-123370Y118526D01*
X-123164Y118673D01*
X-122985Y118837D01*
X-122834Y119016D01*
X-122710Y119212D01*
X-122614Y119425D01*
X-122545Y119653D01*
X-122504Y119898D01*
X-122490Y120159D01*
X-122507Y120447D01*
X-122559Y120707D01*
X-122645Y120938D01*
X-122766Y121140D01*
X-122918Y121321D01*
X-123097Y121484D01*
X-123305Y121631D01*
X-123541Y121762D01*
X-123802Y121880D01*
X-124088Y121988D01*
X-124398Y122086D01*
X-124732Y122174D01*
X-126265Y122533D01*
X-126952Y122695D01*
X-127551Y122857D01*
X-128062Y123019D01*
X-128485Y123181D01*
X-128844Y123348D01*
X-129163Y123524D01*
X-129442Y123709D01*
X-129681Y123904D01*
X-129887Y124112D01*
X-130067Y124336D01*
X-130222Y124578D01*
X-130351Y124837D01*
X-130452Y125114D01*
X-130525Y125410D01*
X-130568Y125727D01*
X-130583Y126063D01*
X-130564Y126448D01*
X-130507Y126810D01*
X-130412Y127149D01*
X-130279Y127466D01*
X-130109Y127760D01*
X-129900Y128032D01*
X-129654Y128280D01*
X-129370Y128506D01*
X-129050Y128708D01*
X-128698Y128882D01*
X-128313Y129029D01*
X-127895Y129150D01*
X-127444Y129244D01*
X-126961Y129311D01*
X-126445Y129351D01*
X-125897Y129365D01*
X-125387Y129355D01*
X-124908Y129324D01*
X-124459Y129274D01*
X-124042Y129204D01*
X-123656Y129113D01*
X-123300Y129003D01*
X-122976Y128872D01*
X-122682Y128721D01*
X-122415Y128546D01*
X-122168Y128342D01*
X-121942Y128111D01*
X-121737Y127851D01*
X-121552Y127562D01*
X-121388Y127245D01*
X-121246Y126900D01*
X-121123Y126527D01*
X-122770Y126238D01*
X-122846Y126475D01*
X-122936Y126695D01*
X-123043Y126898D01*
X-123164Y127084D01*
X-123301Y127254D01*
X-123453Y127406D01*
X-123621Y127542D01*
X-123804Y127661D01*
X-124003Y127765D01*
X-124221Y127855D01*
X-124458Y127931D01*
X-124712Y127993D01*
X-124985Y128041D01*
X-125277Y128076D01*
X-125586Y128097D01*
X-125914Y128103D01*
X-126273Y128096D01*
X-126611Y128073D01*
X-126926Y128035D01*
X-127219Y127981D01*
X-127491Y127912D01*
X-127741Y127828D01*
X-127968Y127728D01*
X-128174Y127613D01*
X-128357Y127483D01*
X-128515Y127338D01*
X-128649Y127177D01*
X-128759Y127002D01*
X-128844Y126812D01*
X-128905Y126606D01*
X-128941Y126386D01*
X-128954Y126150D01*
X-128935Y125878D01*
X-128878Y125630D01*
X-128784Y125407D01*
X-128651Y125209D01*
X-128484Y125030D01*
X-128282Y124865D01*
X-128048Y124714D01*
X-127780Y124578D01*
X-127425Y124442D01*
X-126928Y124290D01*
X-126290Y124124D01*
X-125511Y123943D01*
X-124377Y123676D01*
X-123824Y123527D01*
X-123296Y123352D01*
X-122795Y123147D01*
X-122328Y122910D01*
X-122110Y122776D01*
X-121906Y122627D01*
X-121718Y122465D01*
X-121544Y122288D01*
X-121386Y122096D01*
X-121247Y121887D01*
X-121126Y121662D01*
X-121023Y121421D01*
X-120940Y121160D01*
X-120881Y120878D01*
X-120846Y120573D01*
X-120834Y120247D01*
X-120855Y119832D01*
X-120918Y119441D01*
X-121022Y119075D01*
X-121168Y118732D01*
X-121356Y118413D01*
X-121586Y118119D01*
X-121857Y117848D01*
X-122170Y117602D01*
X-122521Y117382D01*
X-122906Y117192D01*
X-123325Y117031D01*
X-123778Y116899D01*
X-124266Y116797D01*
X-124787Y116723D01*
X-125342Y116680D01*
X-125932Y116665D01*
G37*
G36*
X-147781Y116840D02*
X-155515Y116840D01*
X-155515Y118180D01*
X-152371Y118180D01*
X-152371Y127674D01*
X-155156Y125686D01*
X-155156Y127175D01*
X-152240Y129181D01*
X-150786Y129181D01*
X-150786Y118180D01*
X-147781Y118180D01*
X-147781Y116840D01*
G37*
G36*
X-135525Y116665D02*
X-136944Y116665D01*
X-133344Y129838D01*
X-131960Y129838D01*
X-135525Y116665D01*
G37*
G36*
X-90115Y88725D02*
X-90377Y88731D01*
X-90630Y88750D01*
X-90876Y88782D01*
X-91113Y88826D01*
X-91562Y88953D01*
X-91978Y89130D01*
X-92361Y89358D01*
X-92711Y89636D01*
X-93028Y89965D01*
X-93312Y90345D01*
X-93562Y90774D01*
X-93779Y91248D01*
X-93963Y91770D01*
X-94113Y92338D01*
X-94230Y92952D01*
X-94313Y93613D01*
X-94363Y94321D01*
X-94380Y95075D01*
X-94364Y95845D01*
X-94315Y96565D01*
X-94234Y97235D01*
X-94121Y97856D01*
X-93975Y98426D01*
X-93796Y98947D01*
X-93585Y99418D01*
X-93342Y99839D01*
X-93064Y100211D01*
X-92748Y100533D01*
X-92394Y100805D01*
X-92003Y101028D01*
X-91574Y101202D01*
X-91346Y101270D01*
X-91108Y101326D01*
X-90861Y101369D01*
X-90604Y101400D01*
X-90338Y101419D01*
X-90062Y101425D01*
X-89794Y101418D01*
X-89535Y101400D01*
X-89284Y101368D01*
X-89043Y101325D01*
X-88811Y101268D01*
X-88587Y101199D01*
X-88167Y101024D01*
X-87782Y100799D01*
X-87434Y100523D01*
X-87121Y100198D01*
X-86843Y99822D01*
X-86600Y99397D01*
X-86389Y98924D01*
X-86211Y98403D01*
X-86065Y97834D01*
X-85951Y97216D01*
X-85870Y96551D01*
X-85822Y95837D01*
X-85805Y95075D01*
X-85822Y94325D01*
X-85874Y93620D01*
X-85959Y92962D01*
X-86078Y92349D01*
X-86231Y91781D01*
X-86419Y91260D01*
X-86640Y90784D01*
X-86896Y90354D01*
X-87185Y89972D01*
X-87506Y89641D01*
X-87860Y89361D01*
X-88246Y89132D01*
X-88664Y88954D01*
X-89115Y88827D01*
X-89353Y88782D01*
X-89599Y88750D01*
X-89853Y88731D01*
X-90115Y88725D01*
G37*
%LPC*%
G36*
X-90097Y90012D02*
X-89761Y90032D01*
X-89447Y90090D01*
X-89157Y90187D01*
X-88891Y90323D01*
X-88647Y90498D01*
X-88427Y90712D01*
X-88230Y90965D01*
X-88056Y91256D01*
X-87904Y91588D01*
X-87773Y91961D01*
X-87661Y92376D01*
X-87570Y92833D01*
X-87499Y93331D01*
X-87449Y93870D01*
X-87418Y94452D01*
X-87408Y95075D01*
X-87418Y95720D01*
X-87447Y96318D01*
X-87495Y96871D01*
X-87563Y97378D01*
X-87649Y97839D01*
X-87756Y98254D01*
X-87881Y98623D01*
X-88026Y98946D01*
X-88193Y99227D01*
X-88385Y99471D01*
X-88602Y99677D01*
X-88844Y99846D01*
X-89111Y99977D01*
X-89403Y100071D01*
X-89720Y100127D01*
X-90062Y100146D01*
X-90413Y100127D01*
X-90738Y100072D01*
X-91037Y99980D01*
X-91311Y99850D01*
X-91560Y99684D01*
X-91782Y99481D01*
X-91979Y99241D01*
X-92151Y98964D01*
X-92300Y98644D01*
X-92429Y98277D01*
X-92538Y97862D01*
X-92627Y97400D01*
X-92697Y96890D01*
X-92746Y96333D01*
X-92776Y95728D01*
X-92786Y95075D01*
X-92776Y94440D01*
X-92746Y93849D01*
X-92695Y93302D01*
X-92625Y92800D01*
X-92535Y92341D01*
X-92424Y91927D01*
X-92293Y91556D01*
X-92142Y91230D01*
X-91969Y90944D01*
X-91773Y90697D01*
X-91553Y90488D01*
X-91309Y90317D01*
X-91042Y90184D01*
X-90750Y90088D01*
X-90436Y90031D01*
X-90097Y90012D01*
G37*
%LPD*%
G36*
X-140265Y88725D02*
X-140617Y88734D01*
X-140952Y88763D01*
X-141268Y88810D01*
X-141567Y88877D01*
X-141847Y88963D01*
X-142110Y89067D01*
X-142355Y89191D01*
X-142582Y89334D01*
X-142792Y89497D01*
X-142986Y89685D01*
X-143166Y89895D01*
X-143329Y90129D01*
X-143478Y90387D01*
X-143610Y90668D01*
X-143728Y90972D01*
X-143830Y91300D01*
X-142323Y91536D01*
X-142187Y91175D01*
X-142016Y90862D01*
X-141808Y90597D01*
X-141566Y90380D01*
X-141287Y90212D01*
X-140973Y90091D01*
X-140624Y90019D01*
X-140436Y90001D01*
X-140239Y89995D01*
X-139909Y90015D01*
X-139598Y90074D01*
X-139307Y90172D01*
X-139034Y90310D01*
X-138781Y90487D01*
X-138547Y90704D01*
X-138332Y90960D01*
X-138137Y91256D01*
X-137962Y91588D01*
X-137809Y91954D01*
X-137678Y92353D01*
X-137570Y92787D01*
X-137483Y93253D01*
X-137419Y93754D01*
X-137377Y94288D01*
X-137357Y94856D01*
X-137453Y94664D01*
X-137563Y94481D01*
X-137690Y94308D01*
X-137832Y94145D01*
X-137990Y93992D01*
X-138163Y93848D01*
X-138352Y93714D01*
X-138557Y93590D01*
X-138772Y93478D01*
X-138992Y93381D01*
X-139218Y93299D01*
X-139448Y93232D01*
X-139684Y93180D01*
X-139925Y93143D01*
X-140171Y93120D01*
X-140423Y93113D01*
X-140828Y93131D01*
X-141213Y93184D01*
X-141577Y93273D01*
X-141920Y93398D01*
X-142243Y93558D01*
X-142544Y93753D01*
X-142825Y93985D01*
X-143085Y94251D01*
X-143319Y94548D01*
X-143522Y94867D01*
X-143694Y95210D01*
X-143834Y95576D01*
X-143943Y95966D01*
X-144021Y96378D01*
X-144068Y96814D01*
X-144084Y97273D01*
X-144067Y97744D01*
X-144016Y98189D01*
X-143931Y98609D01*
X-143812Y99002D01*
X-143659Y99369D01*
X-143473Y99711D01*
X-143252Y100027D01*
X-142998Y100317D01*
X-142713Y100576D01*
X-142401Y100801D01*
X-142064Y100992D01*
X-141699Y101148D01*
X-141308Y101269D01*
X-140891Y101355D01*
X-140447Y101407D01*
X-139976Y101425D01*
X-139723Y101419D01*
X-139477Y101401D01*
X-139009Y101329D01*
X-138573Y101210D01*
X-138167Y101044D01*
X-137793Y100829D01*
X-137450Y100567D01*
X-137138Y100258D01*
X-136858Y99901D01*
X-136609Y99496D01*
X-136394Y99043D01*
X-136212Y98542D01*
X-136063Y97994D01*
X-135947Y97397D01*
X-135864Y96753D01*
X-135815Y96060D01*
X-135798Y95320D01*
X-135816Y94548D01*
X-135871Y93822D01*
X-135961Y93142D01*
X-136088Y92509D01*
X-136251Y91921D01*
X-136451Y91379D01*
X-136687Y90883D01*
X-136959Y90433D01*
X-137264Y90032D01*
X-137600Y89686D01*
X-137968Y89392D01*
X-138365Y89152D01*
X-138794Y88965D01*
X-139020Y88892D01*
X-139254Y88832D01*
X-139495Y88785D01*
X-139744Y88752D01*
X-140001Y88732D01*
X-140265Y88725D01*
G37*
%LPC*%
G36*
X-140046Y94357D02*
X-139710Y94376D01*
X-139387Y94434D01*
X-139075Y94531D01*
X-138776Y94668D01*
X-138498Y94839D01*
X-138252Y95043D01*
X-138036Y95279D01*
X-137852Y95548D01*
X-137704Y95842D01*
X-137599Y96156D01*
X-137536Y96490D01*
X-137515Y96844D01*
X-137525Y97207D01*
X-137557Y97552D01*
X-137611Y97879D01*
X-137686Y98187D01*
X-137782Y98478D01*
X-137899Y98750D01*
X-138038Y99004D01*
X-138198Y99239D01*
X-138376Y99452D01*
X-138569Y99636D01*
X-138776Y99792D01*
X-138997Y99919D01*
X-139233Y100018D01*
X-139484Y100089D01*
X-139749Y100132D01*
X-140028Y100146D01*
X-140306Y100134D01*
X-140568Y100098D01*
X-140815Y100037D01*
X-141047Y99952D01*
X-141264Y99843D01*
X-141465Y99710D01*
X-141652Y99553D01*
X-141824Y99371D01*
X-141978Y99169D01*
X-142111Y98949D01*
X-142224Y98713D01*
X-142317Y98459D01*
X-142388Y98188D01*
X-142440Y97900D01*
X-142471Y97595D01*
X-142481Y97273D01*
X-142471Y96945D01*
X-142440Y96634D01*
X-142388Y96341D01*
X-142317Y96066D01*
X-142224Y95808D01*
X-142111Y95568D01*
X-141978Y95345D01*
X-141824Y95140D01*
X-141652Y94957D01*
X-141467Y94798D01*
X-141266Y94663D01*
X-141051Y94553D01*
X-140822Y94467D01*
X-140578Y94406D01*
X-140319Y94369D01*
X-140046Y94357D01*
G37*
%LPD*%
G36*
X-123944Y88725D02*
X-124493Y88737D01*
X-125012Y88774D01*
X-125502Y88835D01*
X-125962Y88921D01*
X-126392Y89031D01*
X-126793Y89166D01*
X-127165Y89325D01*
X-127506Y89509D01*
X-127818Y89717D01*
X-128100Y89950D01*
X-128353Y90207D01*
X-128576Y90489D01*
X-128770Y90795D01*
X-128934Y91125D01*
X-129068Y91481D01*
X-129172Y91860D01*
X-127552Y92184D01*
X-127472Y91916D01*
X-127373Y91665D01*
X-127253Y91433D01*
X-127114Y91220D01*
X-126955Y91025D01*
X-126777Y90849D01*
X-126579Y90691D01*
X-126361Y90551D01*
X-126123Y90429D01*
X-125864Y90323D01*
X-125585Y90233D01*
X-125286Y90160D01*
X-124966Y90103D01*
X-124625Y90062D01*
X-124264Y90038D01*
X-123882Y90030D01*
X-123489Y90039D01*
X-123118Y90065D01*
X-122771Y90108D01*
X-122447Y90169D01*
X-122146Y90247D01*
X-121868Y90343D01*
X-121613Y90456D01*
X-121382Y90586D01*
X-121175Y90733D01*
X-120997Y90897D01*
X-120845Y91076D01*
X-120722Y91272D01*
X-120625Y91485D01*
X-120557Y91713D01*
X-120515Y91958D01*
X-120501Y92219D01*
X-120519Y92507D01*
X-120570Y92767D01*
X-120657Y92998D01*
X-120777Y93200D01*
X-120929Y93381D01*
X-121109Y93544D01*
X-121317Y93691D01*
X-121553Y93822D01*
X-121814Y93940D01*
X-122100Y94048D01*
X-122410Y94146D01*
X-122744Y94234D01*
X-124276Y94593D01*
X-124964Y94755D01*
X-125563Y94917D01*
X-126074Y95079D01*
X-126497Y95241D01*
X-126856Y95408D01*
X-127174Y95584D01*
X-127453Y95769D01*
X-127692Y95964D01*
X-127898Y96172D01*
X-128079Y96396D01*
X-128233Y96638D01*
X-128362Y96897D01*
X-128464Y97174D01*
X-128536Y97470D01*
X-128580Y97787D01*
X-128594Y98123D01*
X-128575Y98508D01*
X-128519Y98870D01*
X-128424Y99209D01*
X-128291Y99526D01*
X-128121Y99820D01*
X-127912Y100092D01*
X-127666Y100340D01*
X-127381Y100566D01*
X-127062Y100768D01*
X-126709Y100942D01*
X-126324Y101089D01*
X-125907Y101210D01*
X-125456Y101304D01*
X-124973Y101371D01*
X-124457Y101411D01*
X-123909Y101425D01*
X-123399Y101415D01*
X-122919Y101384D01*
X-122471Y101334D01*
X-122054Y101264D01*
X-121668Y101173D01*
X-121312Y101063D01*
X-120988Y100932D01*
X-120694Y100781D01*
X-120427Y100606D01*
X-120180Y100402D01*
X-119954Y100171D01*
X-119748Y99911D01*
X-119564Y99622D01*
X-119400Y99305D01*
X-119257Y98960D01*
X-119135Y98587D01*
X-120782Y98298D01*
X-120857Y98535D01*
X-120948Y98755D01*
X-121054Y98958D01*
X-121176Y99144D01*
X-121313Y99314D01*
X-121465Y99466D01*
X-121632Y99602D01*
X-121815Y99721D01*
X-122015Y99825D01*
X-122233Y99915D01*
X-122469Y99991D01*
X-122724Y100053D01*
X-122997Y100101D01*
X-123288Y100136D01*
X-123598Y100157D01*
X-123926Y100163D01*
X-124285Y100156D01*
X-124622Y100133D01*
X-124938Y100095D01*
X-125231Y100041D01*
X-125503Y99972D01*
X-125752Y99888D01*
X-125980Y99788D01*
X-126186Y99673D01*
X-126368Y99543D01*
X-126527Y99398D01*
X-126661Y99237D01*
X-126770Y99062D01*
X-126856Y98872D01*
X-126917Y98666D01*
X-126953Y98446D01*
X-126965Y98210D01*
X-126946Y97938D01*
X-126890Y97690D01*
X-126795Y97467D01*
X-126663Y97269D01*
X-126495Y97090D01*
X-126294Y96925D01*
X-126060Y96774D01*
X-125792Y96638D01*
X-125436Y96502D01*
X-124940Y96350D01*
X-124302Y96184D01*
X-123523Y96003D01*
X-122389Y95736D01*
X-121836Y95587D01*
X-121307Y95412D01*
X-120807Y95207D01*
X-120339Y94970D01*
X-120121Y94836D01*
X-119918Y94687D01*
X-119729Y94525D01*
X-119556Y94348D01*
X-119398Y94156D01*
X-119259Y93947D01*
X-119138Y93722D01*
X-119034Y93481D01*
X-118952Y93220D01*
X-118893Y92938D01*
X-118858Y92633D01*
X-118846Y92307D01*
X-118867Y91892D01*
X-118930Y91501D01*
X-119034Y91135D01*
X-119180Y90792D01*
X-119368Y90473D01*
X-119597Y90179D01*
X-119869Y89908D01*
X-120182Y89662D01*
X-120533Y89442D01*
X-120918Y89252D01*
X-121337Y89091D01*
X-121790Y88959D01*
X-122277Y88857D01*
X-122799Y88783D01*
X-123354Y88740D01*
X-123944Y88725D01*
G37*
G36*
X-111090Y88725D02*
X-111549Y88737D01*
X-111992Y88773D01*
X-112419Y88834D01*
X-112830Y88919D01*
X-113225Y89028D01*
X-113605Y89161D01*
X-113969Y89318D01*
X-114318Y89500D01*
X-114648Y89704D01*
X-114958Y89929D01*
X-115248Y90175D01*
X-115518Y90442D01*
X-115767Y90729D01*
X-115996Y91037D01*
X-116205Y91366D01*
X-116394Y91716D01*
X-116561Y92084D01*
X-116706Y92469D01*
X-116829Y92871D01*
X-116929Y93289D01*
X-117007Y93724D01*
X-117063Y94175D01*
X-117096Y94643D01*
X-117107Y95127D01*
X-117101Y95491D01*
X-117082Y95845D01*
X-117051Y96189D01*
X-117008Y96523D01*
X-116952Y96847D01*
X-116883Y97161D01*
X-116802Y97465D01*
X-116709Y97759D01*
X-116603Y98043D01*
X-116485Y98317D01*
X-116211Y98835D01*
X-115887Y99314D01*
X-115513Y99752D01*
X-115096Y100144D01*
X-114640Y100484D01*
X-114397Y100634D01*
X-114145Y100771D01*
X-113884Y100895D01*
X-113613Y101006D01*
X-113332Y101105D01*
X-113042Y101189D01*
X-112742Y101261D01*
X-112432Y101320D01*
X-112113Y101366D01*
X-111785Y101399D01*
X-111447Y101418D01*
X-111099Y101425D01*
X-110616Y101413D01*
X-110154Y101377D01*
X-109712Y101316D01*
X-109290Y101232D01*
X-108889Y101124D01*
X-108508Y100991D01*
X-108147Y100835D01*
X-107806Y100654D01*
X-107486Y100450D01*
X-107188Y100222D01*
X-106912Y99971D01*
X-106658Y99697D01*
X-106426Y99400D01*
X-106216Y99079D01*
X-106028Y98735D01*
X-105861Y98368D01*
X-107447Y97842D01*
X-107562Y98104D01*
X-107694Y98349D01*
X-107842Y98579D01*
X-108006Y98793D01*
X-108187Y98991D01*
X-108384Y99173D01*
X-108597Y99339D01*
X-108826Y99489D01*
X-109069Y99623D01*
X-109323Y99738D01*
X-109589Y99836D01*
X-109865Y99916D01*
X-110153Y99978D01*
X-110451Y100023D01*
X-110761Y100049D01*
X-111081Y100058D01*
X-111580Y100038D01*
X-112049Y99976D01*
X-112491Y99873D01*
X-112903Y99729D01*
X-113288Y99543D01*
X-113643Y99317D01*
X-113971Y99049D01*
X-114270Y98740D01*
X-114536Y98395D01*
X-114768Y98020D01*
X-114963Y97614D01*
X-115124Y97178D01*
X-115248Y96711D01*
X-115337Y96214D01*
X-115390Y95686D01*
X-115408Y95127D01*
X-115390Y94574D01*
X-115334Y94049D01*
X-115241Y93551D01*
X-115112Y93081D01*
X-114945Y92639D01*
X-114741Y92225D01*
X-114500Y91838D01*
X-114221Y91479D01*
X-113912Y91156D01*
X-113576Y90876D01*
X-113214Y90639D01*
X-112826Y90445D01*
X-112411Y90294D01*
X-111971Y90186D01*
X-111504Y90121D01*
X-111011Y90100D01*
X-110692Y90110D01*
X-110383Y90140D01*
X-110084Y90190D01*
X-109796Y90260D01*
X-109517Y90351D01*
X-109248Y90461D01*
X-108989Y90591D01*
X-108741Y90741D01*
X-108502Y90912D01*
X-108274Y91102D01*
X-108055Y91313D01*
X-107847Y91543D01*
X-107649Y91794D01*
X-107460Y92065D01*
X-107282Y92355D01*
X-107114Y92666D01*
X-105748Y91983D01*
X-105948Y91596D01*
X-106167Y91234D01*
X-106406Y90895D01*
X-106664Y90579D01*
X-106941Y90288D01*
X-107238Y90021D01*
X-107554Y89777D01*
X-107889Y89557D01*
X-108241Y89362D01*
X-108606Y89193D01*
X-108986Y89050D01*
X-109379Y88933D01*
X-109786Y88842D01*
X-110207Y88777D01*
X-110642Y88738D01*
X-111090Y88725D01*
G37*
G36*
X-145793Y88900D02*
X-153527Y88900D01*
X-153527Y90240D01*
X-150383Y90240D01*
X-150383Y99734D01*
X-153168Y97746D01*
X-153168Y99235D01*
X-150251Y101241D01*
X-148797Y101241D01*
X-148797Y90240D01*
X-145793Y90240D01*
X-145793Y88900D01*
G37*
G36*
X-95669Y88900D02*
X-103578Y88900D01*
X-103578Y101241D01*
X-101905Y101241D01*
X-101905Y90266D01*
X-95669Y90266D01*
X-95669Y88900D01*
G37*
G36*
X-133537Y88725D02*
X-134956Y88725D01*
X-131356Y101898D01*
X-129972Y101898D01*
X-133537Y88725D01*
G37*
G36*
X-90106Y63325D02*
X-90368Y63331D01*
X-90622Y63350D01*
X-90867Y63382D01*
X-91104Y63426D01*
X-91554Y63553D01*
X-91970Y63730D01*
X-92353Y63958D01*
X-92703Y64236D01*
X-93020Y64565D01*
X-93303Y64945D01*
X-93554Y65374D01*
X-93771Y65848D01*
X-93954Y66370D01*
X-94105Y66938D01*
X-94221Y67552D01*
X-94305Y68213D01*
X-94355Y68921D01*
X-94372Y69675D01*
X-94356Y70445D01*
X-94307Y71165D01*
X-94226Y71835D01*
X-94112Y72456D01*
X-93966Y73026D01*
X-93788Y73547D01*
X-93577Y74018D01*
X-93334Y74439D01*
X-93056Y74811D01*
X-92740Y75133D01*
X-92386Y75405D01*
X-91995Y75628D01*
X-91566Y75802D01*
X-91338Y75870D01*
X-91100Y75926D01*
X-90852Y75969D01*
X-90596Y76000D01*
X-90329Y76019D01*
X-90054Y76025D01*
X-89786Y76018D01*
X-89526Y76000D01*
X-89276Y75968D01*
X-89035Y75925D01*
X-88802Y75868D01*
X-88579Y75799D01*
X-88159Y75624D01*
X-87774Y75399D01*
X-87425Y75123D01*
X-87112Y74798D01*
X-86835Y74422D01*
X-86592Y73997D01*
X-86381Y73524D01*
X-86203Y73003D01*
X-86057Y72434D01*
X-85943Y71816D01*
X-85862Y71151D01*
X-85813Y70437D01*
X-85797Y69675D01*
X-85814Y68925D01*
X-85865Y68220D01*
X-85950Y67562D01*
X-86070Y66949D01*
X-86223Y66381D01*
X-86411Y65860D01*
X-86632Y65384D01*
X-86888Y64954D01*
X-87176Y64572D01*
X-87498Y64241D01*
X-87851Y63961D01*
X-88237Y63732D01*
X-88656Y63554D01*
X-89107Y63427D01*
X-89345Y63382D01*
X-89590Y63350D01*
X-89844Y63331D01*
X-90106Y63325D01*
G37*
%LPC*%
G36*
X-90089Y64612D02*
X-89752Y64632D01*
X-89439Y64690D01*
X-89149Y64787D01*
X-88882Y64923D01*
X-88639Y65098D01*
X-88419Y65312D01*
X-88222Y65565D01*
X-88048Y65856D01*
X-87896Y66188D01*
X-87765Y66561D01*
X-87653Y66976D01*
X-87562Y67433D01*
X-87491Y67931D01*
X-87440Y68470D01*
X-87410Y69052D01*
X-87400Y69675D01*
X-87410Y70320D01*
X-87439Y70918D01*
X-87487Y71471D01*
X-87554Y71978D01*
X-87641Y72439D01*
X-87747Y72854D01*
X-87873Y73223D01*
X-88017Y73546D01*
X-88184Y73827D01*
X-88376Y74071D01*
X-88593Y74277D01*
X-88835Y74446D01*
X-89102Y74577D01*
X-89394Y74671D01*
X-89712Y74727D01*
X-90054Y74746D01*
X-90404Y74727D01*
X-90730Y74672D01*
X-91029Y74580D01*
X-91303Y74450D01*
X-91551Y74284D01*
X-91774Y74081D01*
X-91971Y73841D01*
X-92143Y73564D01*
X-92292Y73244D01*
X-92421Y72877D01*
X-92530Y72462D01*
X-92619Y72000D01*
X-92688Y71490D01*
X-92738Y70933D01*
X-92768Y70328D01*
X-92778Y69675D01*
X-92768Y69040D01*
X-92737Y68449D01*
X-92687Y67902D01*
X-92617Y67400D01*
X-92526Y66941D01*
X-92416Y66527D01*
X-92285Y66156D01*
X-92134Y65830D01*
X-91961Y65544D01*
X-91765Y65297D01*
X-91545Y65088D01*
X-91301Y64917D01*
X-91033Y64784D01*
X-90742Y64688D01*
X-90427Y64631D01*
X-90089Y64612D01*
G37*
%LPD*%
G36*
X-95967Y63500D02*
X-104139Y63500D01*
X-104139Y64612D01*
X-103903Y65110D01*
X-103643Y65577D01*
X-103358Y66014D01*
X-103049Y66421D01*
X-102723Y66804D01*
X-102388Y67168D01*
X-102046Y67513D01*
X-101695Y67840D01*
X-100989Y68452D01*
X-100290Y69018D01*
X-99627Y69561D01*
X-99033Y70104D01*
X-98766Y70379D01*
X-98526Y70660D01*
X-98313Y70948D01*
X-98126Y71243D01*
X-97975Y71550D01*
X-97867Y71878D01*
X-97802Y72225D01*
X-97780Y72591D01*
X-97790Y72838D01*
X-97818Y73071D01*
X-97864Y73289D01*
X-97929Y73493D01*
X-98013Y73683D01*
X-98115Y73859D01*
X-98236Y74021D01*
X-98376Y74168D01*
X-98532Y74299D01*
X-98703Y74413D01*
X-98888Y74509D01*
X-99088Y74588D01*
X-99302Y74650D01*
X-99530Y74693D01*
X-99774Y74720D01*
X-100031Y74728D01*
X-100278Y74720D01*
X-100513Y74694D01*
X-100737Y74651D01*
X-100950Y74592D01*
X-101152Y74515D01*
X-101343Y74421D01*
X-101522Y74309D01*
X-101691Y74181D01*
X-101846Y74037D01*
X-101984Y73880D01*
X-102105Y73708D01*
X-102209Y73523D01*
X-102296Y73324D01*
X-102367Y73111D01*
X-102421Y72884D01*
X-102457Y72644D01*
X-104069Y72793D01*
X-104011Y73153D01*
X-103925Y73495D01*
X-103810Y73818D01*
X-103667Y74122D01*
X-103496Y74407D01*
X-103296Y74673D01*
X-103068Y74920D01*
X-102812Y75149D01*
X-102532Y75354D01*
X-102233Y75532D01*
X-101914Y75683D01*
X-101576Y75806D01*
X-101219Y75902D01*
X-100842Y75970D01*
X-100446Y76011D01*
X-100031Y76025D01*
X-99578Y76011D01*
X-99152Y75970D01*
X-98753Y75901D01*
X-98381Y75805D01*
X-98036Y75681D01*
X-97718Y75530D01*
X-97427Y75351D01*
X-97163Y75144D01*
X-96928Y74913D01*
X-96724Y74658D01*
X-96552Y74380D01*
X-96411Y74079D01*
X-96301Y73755D01*
X-96223Y73408D01*
X-96176Y73037D01*
X-96160Y72644D01*
X-96181Y72285D01*
X-96242Y71928D01*
X-96345Y71572D01*
X-96488Y71216D01*
X-96673Y70862D01*
X-96897Y70507D01*
X-97161Y70152D01*
X-97465Y69797D01*
X-97863Y69394D01*
X-98409Y68893D01*
X-99102Y68295D01*
X-99944Y67599D01*
X-100422Y67197D01*
X-100848Y66816D01*
X-101223Y66455D01*
X-101547Y66114D01*
X-101824Y65787D01*
X-102059Y65465D01*
X-102253Y65150D01*
X-102405Y64840D01*
X-95967Y64840D01*
X-95967Y63500D01*
G37*
G36*
X-95967Y38100D02*
X-104139Y38100D01*
X-104139Y39212D01*
X-103903Y39710D01*
X-103643Y40177D01*
X-103358Y40614D01*
X-103049Y41021D01*
X-102723Y41404D01*
X-102388Y41768D01*
X-102046Y42113D01*
X-101695Y42440D01*
X-100989Y43052D01*
X-100290Y43618D01*
X-99627Y44161D01*
X-99033Y44704D01*
X-98766Y44979D01*
X-98526Y45260D01*
X-98313Y45548D01*
X-98126Y45843D01*
X-97975Y46150D01*
X-97867Y46478D01*
X-97802Y46825D01*
X-97780Y47191D01*
X-97790Y47438D01*
X-97818Y47671D01*
X-97864Y47889D01*
X-97929Y48093D01*
X-98013Y48283D01*
X-98115Y48459D01*
X-98236Y48621D01*
X-98376Y48768D01*
X-98532Y48899D01*
X-98703Y49013D01*
X-98888Y49109D01*
X-99088Y49188D01*
X-99302Y49250D01*
X-99530Y49293D01*
X-99774Y49320D01*
X-100031Y49328D01*
X-100278Y49320D01*
X-100513Y49294D01*
X-100737Y49251D01*
X-100950Y49192D01*
X-101152Y49115D01*
X-101343Y49021D01*
X-101522Y48909D01*
X-101691Y48781D01*
X-101846Y48637D01*
X-101984Y48480D01*
X-102105Y48308D01*
X-102209Y48123D01*
X-102296Y47924D01*
X-102367Y47711D01*
X-102421Y47484D01*
X-102457Y47244D01*
X-104069Y47393D01*
X-104011Y47753D01*
X-103925Y48095D01*
X-103810Y48418D01*
X-103667Y48722D01*
X-103496Y49007D01*
X-103296Y49273D01*
X-103068Y49520D01*
X-102812Y49749D01*
X-102532Y49954D01*
X-102233Y50132D01*
X-101914Y50283D01*
X-101576Y50406D01*
X-101219Y50502D01*
X-100842Y50570D01*
X-100446Y50611D01*
X-100031Y50625D01*
X-99578Y50611D01*
X-99152Y50570D01*
X-98753Y50501D01*
X-98381Y50405D01*
X-98036Y50281D01*
X-97718Y50130D01*
X-97427Y49951D01*
X-97163Y49744D01*
X-96928Y49513D01*
X-96724Y49258D01*
X-96552Y48980D01*
X-96411Y48679D01*
X-96301Y48355D01*
X-96223Y48008D01*
X-96176Y47637D01*
X-96160Y47244D01*
X-96181Y46885D01*
X-96242Y46528D01*
X-96345Y46172D01*
X-96488Y45816D01*
X-96673Y45462D01*
X-96897Y45107D01*
X-97161Y44752D01*
X-97465Y44397D01*
X-97863Y43994D01*
X-98409Y43493D01*
X-99102Y42895D01*
X-99944Y42199D01*
X-100422Y41797D01*
X-100848Y41416D01*
X-101223Y41055D01*
X-101547Y40714D01*
X-101824Y40387D01*
X-102059Y40065D01*
X-102253Y39750D01*
X-102405Y39440D01*
X-95967Y39440D01*
X-95967Y38100D01*
G37*
G36*
X-85972Y38100D02*
X-93706Y38100D01*
X-93706Y39440D01*
X-90562Y39440D01*
X-90562Y48934D01*
X-93347Y46946D01*
X-93347Y48435D01*
X-90430Y50441D01*
X-88976Y50441D01*
X-88976Y39440D01*
X-85972Y39440D01*
X-85972Y38100D01*
G37*
G36*
X-95967Y13970D02*
X-104139Y13970D01*
X-104139Y15082D01*
X-103903Y15580D01*
X-103643Y16047D01*
X-103358Y16484D01*
X-103049Y16891D01*
X-102723Y17274D01*
X-102388Y17638D01*
X-102046Y17983D01*
X-101695Y18310D01*
X-100989Y18922D01*
X-100290Y19488D01*
X-99627Y20031D01*
X-99033Y20574D01*
X-98766Y20849D01*
X-98526Y21130D01*
X-98313Y21418D01*
X-98126Y21713D01*
X-97975Y22020D01*
X-97867Y22348D01*
X-97802Y22695D01*
X-97780Y23061D01*
X-97790Y23308D01*
X-97818Y23541D01*
X-97864Y23759D01*
X-97929Y23963D01*
X-98013Y24153D01*
X-98115Y24329D01*
X-98236Y24491D01*
X-98376Y24638D01*
X-98532Y24769D01*
X-98703Y24883D01*
X-98888Y24979D01*
X-99088Y25058D01*
X-99302Y25120D01*
X-99530Y25163D01*
X-99774Y25190D01*
X-100031Y25198D01*
X-100278Y25190D01*
X-100513Y25164D01*
X-100737Y25121D01*
X-100950Y25062D01*
X-101152Y24985D01*
X-101343Y24891D01*
X-101522Y24779D01*
X-101691Y24651D01*
X-101846Y24507D01*
X-101984Y24350D01*
X-102105Y24178D01*
X-102209Y23993D01*
X-102296Y23794D01*
X-102367Y23581D01*
X-102421Y23354D01*
X-102457Y23114D01*
X-104069Y23263D01*
X-104011Y23623D01*
X-103925Y23965D01*
X-103810Y24288D01*
X-103667Y24592D01*
X-103496Y24877D01*
X-103296Y25143D01*
X-103068Y25390D01*
X-102812Y25619D01*
X-102532Y25824D01*
X-102233Y26002D01*
X-101914Y26153D01*
X-101576Y26276D01*
X-101219Y26372D01*
X-100842Y26440D01*
X-100446Y26481D01*
X-100031Y26495D01*
X-99578Y26481D01*
X-99152Y26440D01*
X-98753Y26371D01*
X-98381Y26275D01*
X-98036Y26151D01*
X-97718Y26000D01*
X-97427Y25821D01*
X-97163Y25614D01*
X-96928Y25383D01*
X-96724Y25128D01*
X-96552Y24850D01*
X-96411Y24549D01*
X-96301Y24225D01*
X-96223Y23878D01*
X-96176Y23507D01*
X-96160Y23114D01*
X-96181Y22755D01*
X-96242Y22398D01*
X-96345Y22042D01*
X-96488Y21686D01*
X-96673Y21332D01*
X-96897Y20977D01*
X-97161Y20622D01*
X-97465Y20267D01*
X-97863Y19864D01*
X-98409Y19363D01*
X-99102Y18765D01*
X-99944Y18069D01*
X-100422Y17667D01*
X-100848Y17286D01*
X-101223Y16925D01*
X-101547Y16584D01*
X-101824Y16257D01*
X-102059Y15935D01*
X-102253Y15620D01*
X-102405Y15310D01*
X-95967Y15310D01*
X-95967Y13970D01*
G37*
G36*
X-85999Y13970D02*
X-94170Y13970D01*
X-94170Y15082D01*
X-93935Y15580D01*
X-93674Y16047D01*
X-93389Y16484D01*
X-93080Y16891D01*
X-92754Y17274D01*
X-92420Y17638D01*
X-92077Y17983D01*
X-91727Y18310D01*
X-91021Y18922D01*
X-90321Y19488D01*
X-89659Y20031D01*
X-89064Y20574D01*
X-88797Y20849D01*
X-88557Y21130D01*
X-88344Y21418D01*
X-88158Y21713D01*
X-88006Y22020D01*
X-87898Y22348D01*
X-87833Y22695D01*
X-87812Y23061D01*
X-87821Y23308D01*
X-87849Y23541D01*
X-87895Y23759D01*
X-87960Y23963D01*
X-88044Y24153D01*
X-88147Y24329D01*
X-88268Y24491D01*
X-88407Y24638D01*
X-88563Y24769D01*
X-88734Y24883D01*
X-88919Y24979D01*
X-89119Y25058D01*
X-89333Y25120D01*
X-89562Y25163D01*
X-89805Y25190D01*
X-90063Y25198D01*
X-90309Y25190D01*
X-90544Y25164D01*
X-90768Y25121D01*
X-90981Y25062D01*
X-91183Y24985D01*
X-91374Y24891D01*
X-91554Y24779D01*
X-91722Y24651D01*
X-91877Y24507D01*
X-92015Y24350D01*
X-92136Y24178D01*
X-92240Y23993D01*
X-92328Y23794D01*
X-92398Y23581D01*
X-92452Y23354D01*
X-92489Y23114D01*
X-94100Y23263D01*
X-94042Y23623D01*
X-93956Y23965D01*
X-93841Y24288D01*
X-93698Y24592D01*
X-93527Y24877D01*
X-93328Y25143D01*
X-93100Y25390D01*
X-92843Y25619D01*
X-92563Y25824D01*
X-92264Y26002D01*
X-91945Y26153D01*
X-91607Y26276D01*
X-91250Y26372D01*
X-90874Y26440D01*
X-90478Y26481D01*
X-90063Y26495D01*
X-89610Y26481D01*
X-89184Y26440D01*
X-88785Y26371D01*
X-88413Y26275D01*
X-88068Y26151D01*
X-87749Y26000D01*
X-87458Y25821D01*
X-87194Y25614D01*
X-86959Y25383D01*
X-86755Y25128D01*
X-86583Y24850D01*
X-86442Y24549D01*
X-86332Y24225D01*
X-86254Y23878D01*
X-86207Y23507D01*
X-86191Y23114D01*
X-86212Y22755D01*
X-86273Y22398D01*
X-86376Y22042D01*
X-86520Y21686D01*
X-86704Y21332D01*
X-86928Y20977D01*
X-87192Y20622D01*
X-87496Y20267D01*
X-87894Y19864D01*
X-88440Y19363D01*
X-89134Y18765D01*
X-89975Y18069D01*
X-90453Y17667D01*
X-90879Y17286D01*
X-91254Y16925D01*
X-91578Y16584D01*
X-91855Y16257D01*
X-92090Y15935D01*
X-92284Y15620D01*
X-92436Y15310D01*
X-85999Y15310D01*
X-85999Y13970D01*
G37*
G36*
X-90071Y-12875D02*
X-90528Y-12862D01*
X-90961Y-12822D01*
X-91371Y-12756D01*
X-91756Y-12664D01*
X-92118Y-12545D01*
X-92457Y-12400D01*
X-92771Y-12228D01*
X-93062Y-12030D01*
X-93327Y-11806D01*
X-93564Y-11557D01*
X-93772Y-11282D01*
X-93952Y-10982D01*
X-94104Y-10657D01*
X-94228Y-10306D01*
X-94323Y-9931D01*
X-94389Y-9529D01*
X-92760Y-9381D01*
X-92713Y-9646D01*
X-92649Y-9894D01*
X-92570Y-10125D01*
X-92474Y-10339D01*
X-92362Y-10535D01*
X-92234Y-10715D01*
X-92090Y-10877D01*
X-91930Y-11023D01*
X-91754Y-11151D01*
X-91562Y-11262D01*
X-91354Y-11356D01*
X-91129Y-11433D01*
X-90889Y-11493D01*
X-90633Y-11536D01*
X-90360Y-11562D01*
X-90071Y-11570D01*
X-89782Y-11561D01*
X-89508Y-11534D01*
X-89250Y-11488D01*
X-89008Y-11423D01*
X-88783Y-11341D01*
X-88573Y-11240D01*
X-88379Y-11121D01*
X-88201Y-10983D01*
X-88042Y-10828D01*
X-87904Y-10654D01*
X-87788Y-10463D01*
X-87692Y-10254D01*
X-87618Y-10027D01*
X-87565Y-9783D01*
X-87533Y-9521D01*
X-87523Y-9240D01*
X-87535Y-8996D01*
X-87571Y-8764D01*
X-87632Y-8547D01*
X-87716Y-8344D01*
X-87825Y-8154D01*
X-87959Y-7978D01*
X-88116Y-7816D01*
X-88298Y-7668D01*
X-88502Y-7536D01*
X-88728Y-7421D01*
X-88976Y-7324D01*
X-89245Y-7245D01*
X-89535Y-7183D01*
X-89847Y-7139D01*
X-90181Y-7112D01*
X-90536Y-7103D01*
X-91429Y-7103D01*
X-91429Y-5737D01*
X-90571Y-5737D01*
X-90256Y-5728D01*
X-89959Y-5702D01*
X-89680Y-5658D01*
X-89420Y-5596D01*
X-89178Y-5516D01*
X-88954Y-5419D01*
X-88748Y-5304D01*
X-88560Y-5172D01*
X-88393Y-5024D01*
X-88248Y-4863D01*
X-88125Y-4687D01*
X-88025Y-4499D01*
X-87947Y-4297D01*
X-87891Y-4081D01*
X-87858Y-3852D01*
X-87847Y-3609D01*
X-87856Y-3368D01*
X-87883Y-3140D01*
X-87929Y-2925D01*
X-87992Y-2723D01*
X-88074Y-2534D01*
X-88174Y-2358D01*
X-88293Y-2195D01*
X-88429Y-2045D01*
X-88584Y-1911D01*
X-88756Y-1794D01*
X-88945Y-1696D01*
X-89153Y-1615D01*
X-89378Y-1552D01*
X-89621Y-1507D01*
X-89881Y-1481D01*
X-90159Y-1472D01*
X-90413Y-1480D01*
X-90655Y-1505D01*
X-90885Y-1547D01*
X-91102Y-1605D01*
X-91306Y-1680D01*
X-91498Y-1772D01*
X-91678Y-1881D01*
X-91845Y-2006D01*
X-91997Y-2146D01*
X-92133Y-2300D01*
X-92252Y-2468D01*
X-92354Y-2650D01*
X-92439Y-2845D01*
X-92508Y-3054D01*
X-92559Y-3276D01*
X-92594Y-3512D01*
X-94179Y-3390D01*
X-94121Y-3021D01*
X-94035Y-2674D01*
X-93920Y-2347D01*
X-93777Y-2041D01*
X-93606Y-1756D01*
X-93406Y-1491D01*
X-93178Y-1248D01*
X-92922Y-1025D01*
X-92642Y-826D01*
X-92343Y-653D01*
X-92024Y-507D01*
X-91686Y-388D01*
X-91329Y-295D01*
X-90952Y-228D01*
X-90557Y-189D01*
X-90141Y-175D01*
X-89690Y-189D01*
X-89265Y-229D01*
X-88865Y-297D01*
X-88491Y-391D01*
X-88144Y-512D01*
X-87822Y-661D01*
X-87526Y-836D01*
X-87255Y-1038D01*
X-87014Y-1264D01*
X-86805Y-1512D01*
X-86628Y-1781D01*
X-86484Y-2070D01*
X-86371Y-2382D01*
X-86291Y-2714D01*
X-86242Y-3067D01*
X-86226Y-3442D01*
X-86237Y-3731D01*
X-86268Y-4006D01*
X-86319Y-4267D01*
X-86392Y-4514D01*
X-86485Y-4747D01*
X-86598Y-4967D01*
X-86733Y-5173D01*
X-86888Y-5365D01*
X-87062Y-5542D01*
X-87256Y-5705D01*
X-87468Y-5853D01*
X-87699Y-5986D01*
X-87949Y-6103D01*
X-88217Y-6206D01*
X-88504Y-6294D01*
X-88810Y-6368D01*
X-88810Y-6403D01*
X-88474Y-6450D01*
X-88156Y-6516D01*
X-87858Y-6603D01*
X-87580Y-6709D01*
X-87320Y-6835D01*
X-87079Y-6981D01*
X-86858Y-7146D01*
X-86655Y-7331D01*
X-86475Y-7532D01*
X-86318Y-7746D01*
X-86186Y-7972D01*
X-86077Y-8211D01*
X-85993Y-8463D01*
X-85933Y-8727D01*
X-85897Y-9004D01*
X-85885Y-9293D01*
X-85902Y-9708D01*
X-85953Y-10099D01*
X-86037Y-10466D01*
X-86156Y-10808D01*
X-86309Y-11127D01*
X-86496Y-11421D01*
X-86716Y-11692D01*
X-86971Y-11938D01*
X-87257Y-12158D01*
X-87572Y-12348D01*
X-87916Y-12509D01*
X-88289Y-12641D01*
X-88691Y-12743D01*
X-89122Y-12817D01*
X-89582Y-12861D01*
X-90071Y-12875D01*
G37*
G36*
X-95967Y-12700D02*
X-104139Y-12700D01*
X-104139Y-11588D01*
X-103903Y-11090D01*
X-103643Y-10623D01*
X-103358Y-10186D01*
X-103049Y-9779D01*
X-102723Y-9396D01*
X-102388Y-9032D01*
X-102046Y-8687D01*
X-101695Y-8360D01*
X-100989Y-7748D01*
X-100290Y-7182D01*
X-99627Y-6639D01*
X-99033Y-6096D01*
X-98766Y-5821D01*
X-98526Y-5540D01*
X-98313Y-5252D01*
X-98126Y-4957D01*
X-97975Y-4650D01*
X-97867Y-4322D01*
X-97802Y-3975D01*
X-97780Y-3609D01*
X-97790Y-3362D01*
X-97818Y-3129D01*
X-97864Y-2911D01*
X-97929Y-2707D01*
X-98013Y-2517D01*
X-98115Y-2341D01*
X-98236Y-2179D01*
X-98376Y-2032D01*
X-98532Y-1901D01*
X-98703Y-1787D01*
X-98888Y-1691D01*
X-99088Y-1612D01*
X-99302Y-1550D01*
X-99530Y-1507D01*
X-99774Y-1480D01*
X-100031Y-1472D01*
X-100278Y-1480D01*
X-100513Y-1506D01*
X-100737Y-1549D01*
X-100950Y-1608D01*
X-101152Y-1685D01*
X-101343Y-1779D01*
X-101522Y-1891D01*
X-101691Y-2019D01*
X-101846Y-2163D01*
X-101984Y-2320D01*
X-102105Y-2492D01*
X-102209Y-2677D01*
X-102296Y-2876D01*
X-102367Y-3089D01*
X-102421Y-3316D01*
X-102457Y-3556D01*
X-104069Y-3407D01*
X-104011Y-3047D01*
X-103925Y-2705D01*
X-103810Y-2382D01*
X-103667Y-2078D01*
X-103496Y-1793D01*
X-103296Y-1527D01*
X-103068Y-1280D01*
X-102812Y-1051D01*
X-102532Y-846D01*
X-102233Y-668D01*
X-101914Y-517D01*
X-101576Y-394D01*
X-101219Y-298D01*
X-100842Y-230D01*
X-100446Y-189D01*
X-100031Y-175D01*
X-99578Y-189D01*
X-99152Y-230D01*
X-98753Y-299D01*
X-98381Y-395D01*
X-98036Y-519D01*
X-97718Y-670D01*
X-97427Y-849D01*
X-97163Y-1056D01*
X-96928Y-1287D01*
X-96724Y-1542D01*
X-96552Y-1820D01*
X-96411Y-2121D01*
X-96301Y-2445D01*
X-96223Y-2792D01*
X-96176Y-3163D01*
X-96160Y-3556D01*
X-96181Y-3915D01*
X-96242Y-4272D01*
X-96345Y-4628D01*
X-96488Y-4984D01*
X-96673Y-5338D01*
X-96897Y-5693D01*
X-97161Y-6048D01*
X-97465Y-6403D01*
X-97863Y-6806D01*
X-98409Y-7307D01*
X-99102Y-7905D01*
X-99944Y-8601D01*
X-100422Y-9003D01*
X-100848Y-9384D01*
X-101223Y-9745D01*
X-101547Y-10086D01*
X-101824Y-10413D01*
X-102059Y-10735D01*
X-102253Y-11050D01*
X-102405Y-11360D01*
X-95967Y-11360D01*
X-95967Y-12700D01*
G37*
G36*
X-146888Y-40815D02*
X-147344Y-40802D01*
X-147778Y-40762D01*
X-148187Y-40696D01*
X-148573Y-40604D01*
X-148935Y-40485D01*
X-149273Y-40340D01*
X-149588Y-40168D01*
X-149879Y-39970D01*
X-150144Y-39746D01*
X-150380Y-39497D01*
X-150589Y-39222D01*
X-150769Y-38922D01*
X-150921Y-38597D01*
X-151044Y-38246D01*
X-151139Y-37871D01*
X-151206Y-37469D01*
X-149577Y-37321D01*
X-149529Y-37586D01*
X-149466Y-37834D01*
X-149386Y-38065D01*
X-149290Y-38279D01*
X-149179Y-38475D01*
X-149051Y-38655D01*
X-148907Y-38817D01*
X-148747Y-38963D01*
X-148571Y-39091D01*
X-148378Y-39202D01*
X-148170Y-39296D01*
X-147946Y-39373D01*
X-147705Y-39433D01*
X-147449Y-39476D01*
X-147176Y-39502D01*
X-146888Y-39510D01*
X-146598Y-39501D01*
X-146324Y-39474D01*
X-146066Y-39428D01*
X-145825Y-39363D01*
X-145599Y-39281D01*
X-145389Y-39180D01*
X-145195Y-39061D01*
X-145018Y-38923D01*
X-144859Y-38768D01*
X-144721Y-38594D01*
X-144604Y-38403D01*
X-144509Y-38194D01*
X-144434Y-37967D01*
X-144381Y-37723D01*
X-144350Y-37461D01*
X-144339Y-37180D01*
X-144351Y-36936D01*
X-144387Y-36704D01*
X-144448Y-36487D01*
X-144533Y-36284D01*
X-144642Y-36094D01*
X-144775Y-35918D01*
X-144932Y-35756D01*
X-145114Y-35608D01*
X-145319Y-35476D01*
X-145545Y-35361D01*
X-145792Y-35264D01*
X-146061Y-35185D01*
X-146352Y-35123D01*
X-146664Y-35079D01*
X-146997Y-35052D01*
X-147352Y-35043D01*
X-148245Y-35043D01*
X-148245Y-33677D01*
X-147387Y-33677D01*
X-147072Y-33668D01*
X-146775Y-33642D01*
X-146497Y-33598D01*
X-146236Y-33536D01*
X-145994Y-33456D01*
X-145770Y-33359D01*
X-145564Y-33244D01*
X-145377Y-33112D01*
X-145210Y-32964D01*
X-145065Y-32803D01*
X-144942Y-32627D01*
X-144841Y-32439D01*
X-144763Y-32237D01*
X-144708Y-32021D01*
X-144674Y-31792D01*
X-144663Y-31549D01*
X-144672Y-31308D01*
X-144699Y-31080D01*
X-144745Y-30865D01*
X-144809Y-30663D01*
X-144891Y-30474D01*
X-144991Y-30298D01*
X-145109Y-30135D01*
X-145245Y-29985D01*
X-145400Y-29851D01*
X-145572Y-29734D01*
X-145762Y-29636D01*
X-145969Y-29555D01*
X-146194Y-29492D01*
X-146437Y-29447D01*
X-146697Y-29421D01*
X-146975Y-29412D01*
X-147230Y-29420D01*
X-147472Y-29445D01*
X-147701Y-29487D01*
X-147918Y-29545D01*
X-148122Y-29620D01*
X-148315Y-29712D01*
X-148494Y-29821D01*
X-148661Y-29946D01*
X-148814Y-30086D01*
X-148950Y-30240D01*
X-149068Y-30408D01*
X-149170Y-30590D01*
X-149256Y-30785D01*
X-149324Y-30994D01*
X-149375Y-31216D01*
X-149410Y-31452D01*
X-150995Y-31330D01*
X-150938Y-30961D01*
X-150851Y-30614D01*
X-150737Y-30287D01*
X-150594Y-29981D01*
X-150422Y-29696D01*
X-150223Y-29431D01*
X-149995Y-29188D01*
X-149739Y-28965D01*
X-149459Y-28766D01*
X-149159Y-28593D01*
X-148841Y-28447D01*
X-148503Y-28328D01*
X-148145Y-28235D01*
X-147769Y-28168D01*
X-147373Y-28129D01*
X-146958Y-28115D01*
X-146507Y-28129D01*
X-146081Y-28169D01*
X-145682Y-28237D01*
X-145308Y-28331D01*
X-144960Y-28452D01*
X-144638Y-28601D01*
X-144342Y-28776D01*
X-144072Y-28978D01*
X-143831Y-29204D01*
X-143622Y-29452D01*
X-143445Y-29721D01*
X-143300Y-30010D01*
X-143187Y-30322D01*
X-143107Y-30654D01*
X-143059Y-31007D01*
X-143043Y-31382D01*
X-143053Y-31671D01*
X-143084Y-31946D01*
X-143136Y-32207D01*
X-143208Y-32454D01*
X-143301Y-32687D01*
X-143415Y-32907D01*
X-143549Y-33113D01*
X-143704Y-33305D01*
X-143879Y-33482D01*
X-144072Y-33645D01*
X-144284Y-33793D01*
X-144515Y-33926D01*
X-144765Y-34043D01*
X-145033Y-34146D01*
X-145321Y-34234D01*
X-145626Y-34308D01*
X-145626Y-34343D01*
X-145290Y-34390D01*
X-144973Y-34456D01*
X-144675Y-34543D01*
X-144396Y-34649D01*
X-144136Y-34775D01*
X-143896Y-34921D01*
X-143674Y-35086D01*
X-143472Y-35271D01*
X-143291Y-35472D01*
X-143135Y-35686D01*
X-143002Y-35912D01*
X-142894Y-36151D01*
X-142810Y-36403D01*
X-142749Y-36667D01*
X-142713Y-36944D01*
X-142701Y-37233D01*
X-142718Y-37648D01*
X-142769Y-38039D01*
X-142854Y-38406D01*
X-142973Y-38748D01*
X-143125Y-39067D01*
X-143312Y-39361D01*
X-143533Y-39632D01*
X-143787Y-39878D01*
X-144073Y-40098D01*
X-144388Y-40288D01*
X-144732Y-40449D01*
X-145105Y-40581D01*
X-145507Y-40683D01*
X-145939Y-40757D01*
X-146399Y-40801D01*
X-146888Y-40815D01*
G37*
G36*
X-131950Y-40815D02*
X-132407Y-40802D01*
X-132840Y-40762D01*
X-133249Y-40696D01*
X-133635Y-40604D01*
X-133997Y-40485D01*
X-134336Y-40340D01*
X-134650Y-40168D01*
X-134941Y-39970D01*
X-135206Y-39746D01*
X-135443Y-39497D01*
X-135651Y-39222D01*
X-135831Y-38922D01*
X-135983Y-38597D01*
X-136106Y-38246D01*
X-136201Y-37871D01*
X-136268Y-37469D01*
X-134639Y-37321D01*
X-134592Y-37586D01*
X-134528Y-37834D01*
X-134448Y-38065D01*
X-134353Y-38279D01*
X-134241Y-38475D01*
X-134113Y-38655D01*
X-133969Y-38817D01*
X-133809Y-38963D01*
X-133633Y-39091D01*
X-133441Y-39202D01*
X-133233Y-39296D01*
X-133008Y-39373D01*
X-132768Y-39433D01*
X-132511Y-39476D01*
X-132239Y-39502D01*
X-131950Y-39510D01*
X-131660Y-39501D01*
X-131387Y-39474D01*
X-131129Y-39428D01*
X-130887Y-39363D01*
X-130661Y-39281D01*
X-130452Y-39180D01*
X-130258Y-39061D01*
X-130080Y-38923D01*
X-129921Y-38768D01*
X-129783Y-38594D01*
X-129667Y-38403D01*
X-129571Y-38194D01*
X-129497Y-37967D01*
X-129444Y-37723D01*
X-129412Y-37461D01*
X-129401Y-37180D01*
X-129414Y-36936D01*
X-129450Y-36704D01*
X-129510Y-36487D01*
X-129595Y-36284D01*
X-129704Y-36094D01*
X-129837Y-35918D01*
X-129995Y-35756D01*
X-130177Y-35608D01*
X-130381Y-35476D01*
X-130607Y-35361D01*
X-130855Y-35264D01*
X-131124Y-35185D01*
X-131414Y-35123D01*
X-131726Y-35079D01*
X-132059Y-35052D01*
X-132414Y-35043D01*
X-133308Y-35043D01*
X-133308Y-33677D01*
X-132449Y-33677D01*
X-132134Y-33668D01*
X-131838Y-33642D01*
X-131559Y-33598D01*
X-131299Y-33536D01*
X-131057Y-33456D01*
X-130833Y-33359D01*
X-130627Y-33244D01*
X-130439Y-33112D01*
X-130272Y-32964D01*
X-130127Y-32803D01*
X-130004Y-32627D01*
X-129904Y-32439D01*
X-129826Y-32237D01*
X-129770Y-32021D01*
X-129737Y-31792D01*
X-129726Y-31549D01*
X-129735Y-31308D01*
X-129762Y-31080D01*
X-129807Y-30865D01*
X-129871Y-30663D01*
X-129953Y-30474D01*
X-130053Y-30298D01*
X-130171Y-30135D01*
X-130308Y-29985D01*
X-130462Y-29851D01*
X-130635Y-29734D01*
X-130824Y-29636D01*
X-131032Y-29555D01*
X-131257Y-29492D01*
X-131499Y-29447D01*
X-131760Y-29421D01*
X-132038Y-29412D01*
X-132292Y-29420D01*
X-132534Y-29445D01*
X-132763Y-29487D01*
X-132980Y-29545D01*
X-133185Y-29620D01*
X-133377Y-29712D01*
X-133557Y-29821D01*
X-133724Y-29946D01*
X-133876Y-30086D01*
X-134012Y-30240D01*
X-134131Y-30408D01*
X-134233Y-30590D01*
X-134318Y-30785D01*
X-134386Y-30994D01*
X-134438Y-31216D01*
X-134473Y-31452D01*
X-136058Y-31330D01*
X-136000Y-30961D01*
X-135914Y-30614D01*
X-135799Y-30287D01*
X-135656Y-29981D01*
X-135485Y-29696D01*
X-135285Y-29431D01*
X-135057Y-29188D01*
X-134801Y-28965D01*
X-134521Y-28766D01*
X-134222Y-28593D01*
X-133903Y-28447D01*
X-133565Y-28328D01*
X-133208Y-28235D01*
X-132831Y-28168D01*
X-132435Y-28129D01*
X-132020Y-28115D01*
X-131569Y-28129D01*
X-131144Y-28169D01*
X-130744Y-28237D01*
X-130370Y-28331D01*
X-130023Y-28452D01*
X-129701Y-28601D01*
X-129405Y-28776D01*
X-129134Y-28978D01*
X-128893Y-29204D01*
X-128684Y-29452D01*
X-128507Y-29721D01*
X-128362Y-30010D01*
X-128250Y-30322D01*
X-128170Y-30654D01*
X-128121Y-31007D01*
X-128105Y-31382D01*
X-128116Y-31671D01*
X-128147Y-31946D01*
X-128198Y-32207D01*
X-128271Y-32454D01*
X-128364Y-32687D01*
X-128477Y-32907D01*
X-128611Y-33113D01*
X-128766Y-33305D01*
X-128941Y-33482D01*
X-129135Y-33645D01*
X-129347Y-33793D01*
X-129578Y-33926D01*
X-129827Y-34043D01*
X-130096Y-34146D01*
X-130383Y-34234D01*
X-130689Y-34308D01*
X-130689Y-34343D01*
X-130353Y-34390D01*
X-130035Y-34456D01*
X-129737Y-34543D01*
X-129458Y-34649D01*
X-129199Y-34775D01*
X-128958Y-34921D01*
X-128737Y-35086D01*
X-128534Y-35271D01*
X-128354Y-35472D01*
X-128197Y-35686D01*
X-128065Y-35912D01*
X-127956Y-36151D01*
X-127872Y-36403D01*
X-127812Y-36667D01*
X-127776Y-36944D01*
X-127764Y-37233D01*
X-127781Y-37648D01*
X-127832Y-38039D01*
X-127916Y-38406D01*
X-128035Y-38748D01*
X-128188Y-39067D01*
X-128375Y-39361D01*
X-128595Y-39632D01*
X-128850Y-39878D01*
X-129136Y-40098D01*
X-129451Y-40288D01*
X-129795Y-40449D01*
X-130168Y-40581D01*
X-130570Y-40683D01*
X-131001Y-40757D01*
X-131461Y-40801D01*
X-131950Y-40815D01*
G37*
G36*
X-120133Y-40640D02*
X-121868Y-40640D01*
X-126904Y-28299D01*
X-125143Y-28299D01*
X-121727Y-36988D01*
X-120992Y-39169D01*
X-120256Y-36988D01*
X-116858Y-28299D01*
X-115097Y-28299D01*
X-120133Y-40640D01*
G37*
G36*
X-138574Y-40640D02*
X-140282Y-40640D01*
X-140282Y-38722D01*
X-138574Y-38722D01*
X-138574Y-40640D01*
G37*
D10*
X112070Y-82070D02*
X113510Y-82070D01*
X113510Y-86868D01*
X110631Y-86868D01*
X110545Y-86866D01*
X110459Y-86860D01*
X110373Y-86851D01*
X110288Y-86837D01*
X110204Y-86820D01*
X110120Y-86799D01*
X110038Y-86774D01*
X109957Y-86746D01*
X109877Y-86714D01*
X109798Y-86678D01*
X109722Y-86639D01*
X109647Y-86596D01*
X109574Y-86551D01*
X109503Y-86502D01*
X109435Y-86449D01*
X109368Y-86394D01*
X109305Y-86336D01*
X109244Y-86275D01*
X109186Y-86212D01*
X109131Y-86145D01*
X109079Y-86077D01*
X109029Y-86006D01*
X108984Y-85933D01*
X108941Y-85858D01*
X108902Y-85782D01*
X108866Y-85703D01*
X108834Y-85623D01*
X108806Y-85542D01*
X108781Y-85460D01*
X108760Y-85376D01*
X108743Y-85292D01*
X108729Y-85207D01*
X108720Y-85121D01*
X108714Y-85035D01*
X108712Y-84949D01*
X108712Y-80151D01*
X108714Y-80065D01*
X108720Y-79979D01*
X108729Y-79893D01*
X108743Y-79808D01*
X108760Y-79724D01*
X108781Y-79640D01*
X108806Y-79558D01*
X108834Y-79477D01*
X108866Y-79397D01*
X108902Y-79318D01*
X108941Y-79242D01*
X108984Y-79167D01*
X109029Y-79094D01*
X109078Y-79023D01*
X109131Y-78955D01*
X109186Y-78888D01*
X109244Y-78825D01*
X109305Y-78764D01*
X109368Y-78706D01*
X109435Y-78651D01*
X109503Y-78599D01*
X109574Y-78549D01*
X109647Y-78504D01*
X109722Y-78461D01*
X109798Y-78422D01*
X109877Y-78386D01*
X109957Y-78354D01*
X110038Y-78326D01*
X110120Y-78301D01*
X110204Y-78280D01*
X110288Y-78263D01*
X110373Y-78249D01*
X110459Y-78240D01*
X110545Y-78234D01*
X110631Y-78232D01*
X113510Y-78232D01*
X118466Y-78232D02*
X118466Y-86868D01*
X123263Y-86868D02*
X118466Y-78232D01*
X123263Y-78232D02*
X123263Y-86868D01*
X128219Y-86868D02*
X128219Y-78232D01*
X130618Y-78232D01*
X130715Y-78234D01*
X130811Y-78240D01*
X130907Y-78249D01*
X131003Y-78263D01*
X131098Y-78280D01*
X131192Y-78302D01*
X131285Y-78327D01*
X131378Y-78355D01*
X131469Y-78388D01*
X131558Y-78424D01*
X131646Y-78464D01*
X131733Y-78507D01*
X131818Y-78553D01*
X131900Y-78603D01*
X131981Y-78657D01*
X132059Y-78713D01*
X132135Y-78773D01*
X132209Y-78835D01*
X132280Y-78901D01*
X132348Y-78969D01*
X132414Y-79040D01*
X132476Y-79114D01*
X132536Y-79190D01*
X132592Y-79268D01*
X132646Y-79349D01*
X132696Y-79432D01*
X132742Y-79516D01*
X132785Y-79603D01*
X132825Y-79691D01*
X132861Y-79780D01*
X132894Y-79871D01*
X132922Y-79964D01*
X132947Y-80057D01*
X132969Y-80151D01*
X132986Y-80246D01*
X133000Y-80342D01*
X133009Y-80438D01*
X133015Y-80534D01*
X133017Y-80631D01*
X133017Y-84469D01*
X133015Y-84566D01*
X133009Y-84662D01*
X133000Y-84758D01*
X132986Y-84854D01*
X132969Y-84949D01*
X132947Y-85043D01*
X132922Y-85136D01*
X132894Y-85229D01*
X132861Y-85320D01*
X132825Y-85409D01*
X132785Y-85497D01*
X132742Y-85584D01*
X132696Y-85669D01*
X132646Y-85751D01*
X132592Y-85832D01*
X132536Y-85910D01*
X132476Y-85986D01*
X132414Y-86060D01*
X132348Y-86131D01*
X132280Y-86199D01*
X132209Y-86265D01*
X132135Y-86327D01*
X132059Y-86387D01*
X131981Y-86443D01*
X131900Y-86497D01*
X131818Y-86547D01*
X131733Y-86593D01*
X131646Y-86636D01*
X131558Y-86676D01*
X131469Y-86712D01*
X131378Y-86745D01*
X131285Y-86773D01*
X131192Y-86798D01*
X131098Y-86820D01*
X131003Y-86837D01*
X130907Y-86851D01*
X130811Y-86860D01*
X130715Y-86866D01*
X130618Y-86868D01*
X128219Y-86868D01*
X12220Y270820D02*
X12220Y272260D01*
X17018Y272260D01*
X17018Y269381D01*
X17016Y269295D01*
X17010Y269209D01*
X17001Y269123D01*
X16987Y269038D01*
X16970Y268954D01*
X16949Y268870D01*
X16924Y268788D01*
X16896Y268707D01*
X16864Y268627D01*
X16828Y268548D01*
X16789Y268472D01*
X16746Y268397D01*
X16701Y268324D01*
X16652Y268253D01*
X16599Y268185D01*
X16544Y268118D01*
X16486Y268055D01*
X16425Y267994D01*
X16362Y267936D01*
X16295Y267881D01*
X16227Y267829D01*
X16156Y267779D01*
X16083Y267734D01*
X16008Y267691D01*
X15932Y267652D01*
X15853Y267616D01*
X15773Y267584D01*
X15692Y267556D01*
X15610Y267531D01*
X15526Y267510D01*
X15442Y267493D01*
X15357Y267479D01*
X15271Y267470D01*
X15185Y267464D01*
X15099Y267462D01*
X10301Y267462D01*
X10215Y267464D01*
X10129Y267470D01*
X10043Y267479D01*
X9958Y267493D01*
X9874Y267510D01*
X9790Y267531D01*
X9708Y267556D01*
X9627Y267584D01*
X9547Y267616D01*
X9468Y267652D01*
X9392Y267691D01*
X9317Y267734D01*
X9244Y267779D01*
X9173Y267828D01*
X9105Y267881D01*
X9038Y267936D01*
X8975Y267994D01*
X8914Y268055D01*
X8856Y268118D01*
X8801Y268185D01*
X8749Y268253D01*
X8699Y268324D01*
X8654Y268397D01*
X8611Y268472D01*
X8572Y268548D01*
X8536Y268627D01*
X8504Y268707D01*
X8476Y268788D01*
X8451Y268870D01*
X8430Y268954D01*
X8413Y269038D01*
X8399Y269123D01*
X8390Y269209D01*
X8384Y269295D01*
X8382Y269381D01*
X8382Y272260D01*
X8382Y277216D02*
X17018Y277216D01*
X17018Y282013D02*
X8382Y277216D01*
X8382Y282013D02*
X17018Y282013D01*
X17018Y286969D02*
X8382Y286969D01*
X8382Y289368D01*
X8384Y289465D01*
X8390Y289561D01*
X8399Y289657D01*
X8413Y289753D01*
X8430Y289848D01*
X8452Y289942D01*
X8477Y290035D01*
X8505Y290128D01*
X8538Y290219D01*
X8574Y290308D01*
X8614Y290396D01*
X8657Y290483D01*
X8703Y290568D01*
X8753Y290650D01*
X8807Y290731D01*
X8863Y290809D01*
X8923Y290885D01*
X8985Y290959D01*
X9051Y291030D01*
X9119Y291098D01*
X9190Y291164D01*
X9264Y291226D01*
X9340Y291286D01*
X9418Y291342D01*
X9499Y291396D01*
X9582Y291446D01*
X9666Y291492D01*
X9753Y291535D01*
X9841Y291575D01*
X9930Y291611D01*
X10021Y291644D01*
X10114Y291672D01*
X10207Y291697D01*
X10301Y291719D01*
X10396Y291736D01*
X10492Y291750D01*
X10588Y291759D01*
X10684Y291765D01*
X10781Y291767D01*
X14619Y291767D01*
X14716Y291765D01*
X14812Y291759D01*
X14908Y291750D01*
X15004Y291736D01*
X15099Y291719D01*
X15193Y291697D01*
X15286Y291672D01*
X15379Y291644D01*
X15470Y291611D01*
X15559Y291575D01*
X15647Y291535D01*
X15734Y291492D01*
X15819Y291446D01*
X15901Y291396D01*
X15982Y291342D01*
X16060Y291286D01*
X16136Y291226D01*
X16210Y291164D01*
X16281Y291098D01*
X16349Y291030D01*
X16415Y290959D01*
X16477Y290885D01*
X16537Y290809D01*
X16593Y290731D01*
X16647Y290650D01*
X16697Y290568D01*
X16743Y290483D01*
X16786Y290396D01*
X16826Y290308D01*
X16862Y290219D01*
X16895Y290128D01*
X16923Y290035D01*
X16948Y289942D01*
X16970Y289848D01*
X16987Y289753D01*
X17001Y289657D01*
X17010Y289561D01*
X17016Y289465D01*
X17018Y289368D01*
X17018Y286969D01*
X-105359Y-56670D02*
X-106798Y-56670D01*
X-105359Y-56670D02*
X-105359Y-61468D01*
X-108238Y-61468D01*
X-108324Y-61466D01*
X-108410Y-61460D01*
X-108496Y-61451D01*
X-108581Y-61437D01*
X-108665Y-61420D01*
X-108749Y-61399D01*
X-108831Y-61374D01*
X-108912Y-61346D01*
X-108992Y-61314D01*
X-109071Y-61278D01*
X-109147Y-61239D01*
X-109222Y-61196D01*
X-109295Y-61151D01*
X-109366Y-61102D01*
X-109434Y-61049D01*
X-109501Y-60994D01*
X-109564Y-60936D01*
X-109625Y-60875D01*
X-109683Y-60812D01*
X-109738Y-60745D01*
X-109791Y-60677D01*
X-109840Y-60606D01*
X-109885Y-60533D01*
X-109928Y-60458D01*
X-109967Y-60382D01*
X-110003Y-60303D01*
X-110035Y-60223D01*
X-110063Y-60142D01*
X-110088Y-60060D01*
X-110109Y-59976D01*
X-110126Y-59892D01*
X-110140Y-59807D01*
X-110149Y-59721D01*
X-110155Y-59635D01*
X-110157Y-59549D01*
X-110157Y-54751D01*
X-110155Y-54665D01*
X-110149Y-54579D01*
X-110140Y-54493D01*
X-110126Y-54408D01*
X-110109Y-54324D01*
X-110088Y-54240D01*
X-110063Y-54158D01*
X-110035Y-54077D01*
X-110003Y-53997D01*
X-109967Y-53918D01*
X-109928Y-53842D01*
X-109885Y-53767D01*
X-109840Y-53694D01*
X-109791Y-53623D01*
X-109738Y-53555D01*
X-109683Y-53488D01*
X-109625Y-53425D01*
X-109564Y-53364D01*
X-109501Y-53306D01*
X-109435Y-53251D01*
X-109366Y-53199D01*
X-109295Y-53149D01*
X-109222Y-53104D01*
X-109147Y-53061D01*
X-109071Y-53022D01*
X-108992Y-52986D01*
X-108912Y-52954D01*
X-108831Y-52926D01*
X-108749Y-52901D01*
X-108665Y-52880D01*
X-108581Y-52863D01*
X-108496Y-52849D01*
X-108410Y-52840D01*
X-108324Y-52834D01*
X-108238Y-52832D01*
X-105359Y-52832D01*
X-100403Y-52832D02*
X-100403Y-61468D01*
X-95606Y-61468D02*
X-100403Y-52832D01*
X-95606Y-52832D02*
X-95606Y-61468D01*
X-90650Y-61468D02*
X-90650Y-52832D01*
X-88251Y-52832D01*
X-88154Y-52834D01*
X-88058Y-52840D01*
X-87962Y-52849D01*
X-87866Y-52863D01*
X-87771Y-52880D01*
X-87677Y-52902D01*
X-87584Y-52927D01*
X-87491Y-52955D01*
X-87400Y-52988D01*
X-87311Y-53024D01*
X-87223Y-53064D01*
X-87136Y-53107D01*
X-87051Y-53153D01*
X-86969Y-53203D01*
X-86888Y-53257D01*
X-86810Y-53313D01*
X-86734Y-53373D01*
X-86660Y-53435D01*
X-86589Y-53501D01*
X-86521Y-53569D01*
X-86455Y-53640D01*
X-86393Y-53714D01*
X-86333Y-53790D01*
X-86277Y-53868D01*
X-86223Y-53949D01*
X-86173Y-54032D01*
X-86127Y-54116D01*
X-86084Y-54203D01*
X-86044Y-54291D01*
X-86008Y-54380D01*
X-85975Y-54471D01*
X-85947Y-54564D01*
X-85922Y-54657D01*
X-85900Y-54751D01*
X-85883Y-54846D01*
X-85869Y-54942D01*
X-85860Y-55038D01*
X-85854Y-55134D01*
X-85852Y-55231D01*
X-85852Y-59069D01*
X-85854Y-59166D01*
X-85860Y-59262D01*
X-85869Y-59358D01*
X-85883Y-59454D01*
X-85900Y-59549D01*
X-85922Y-59643D01*
X-85947Y-59736D01*
X-85975Y-59829D01*
X-86008Y-59920D01*
X-86044Y-60009D01*
X-86084Y-60097D01*
X-86127Y-60184D01*
X-86173Y-60269D01*
X-86223Y-60351D01*
X-86277Y-60432D01*
X-86333Y-60510D01*
X-86393Y-60586D01*
X-86455Y-60660D01*
X-86521Y-60731D01*
X-86589Y-60799D01*
X-86660Y-60865D01*
X-86734Y-60927D01*
X-86810Y-60987D01*
X-86888Y-61043D01*
X-86969Y-61097D01*
X-87052Y-61147D01*
X-87136Y-61193D01*
X-87223Y-61236D01*
X-87311Y-61276D01*
X-87400Y-61312D01*
X-87491Y-61345D01*
X-87584Y-61373D01*
X-87677Y-61398D01*
X-87771Y-61420D01*
X-87866Y-61437D01*
X-87962Y-61451D01*
X-88058Y-61460D01*
X-88154Y-61466D01*
X-88251Y-61468D01*
X-90650Y-61468D01*
X-106065Y-78232D02*
X-103186Y-86868D01*
X-100307Y-78232D01*
X-95871Y-78232D02*
X-95871Y-86868D01*
X-96830Y-86868D02*
X-94911Y-86868D01*
X-94911Y-78232D02*
X-96830Y-78232D01*
X-90650Y-78232D02*
X-90650Y-86868D01*
X-85852Y-86868D02*
X-90650Y-78232D01*
X-85852Y-78232D02*
X-85852Y-86868D01*
M02*
