G04 EAGLE Gerber RS-274X export*
G75*
%MOMM*%
%FSLAX34Y34*%
%LPD*%
%INBoard Outline*%
%IPPOS*%
%AMOC8*
5,1,8,0,0,1.08239X$1,22.5*%
G01*
G04 Define Apertures*
%ADD10C,0.000000*%
%ADD11C,0.254000*%
D10*
X622700Y368300D02*
X622708Y368914D01*
X622730Y369527D01*
X622768Y370139D01*
X622820Y370750D01*
X622888Y371360D01*
X622971Y371968D01*
X623068Y372574D01*
X623180Y373177D01*
X623307Y373778D01*
X623449Y374375D01*
X623606Y374968D01*
X623776Y375557D01*
X623962Y376142D01*
X624161Y376722D01*
X624375Y377297D01*
X624603Y377867D01*
X624845Y378431D01*
X625100Y378989D01*
X625369Y379540D01*
X625652Y380085D01*
X625948Y380622D01*
X626257Y381153D01*
X626579Y381675D01*
X626913Y382189D01*
X627260Y382695D01*
X627620Y383192D01*
X627991Y383681D01*
X628375Y384160D01*
X628770Y384629D01*
X629176Y385089D01*
X629594Y385539D01*
X630022Y385978D01*
X630461Y386406D01*
X630911Y386824D01*
X631371Y387230D01*
X631840Y387625D01*
X632319Y388009D01*
X632808Y388380D01*
X633305Y388740D01*
X633811Y389087D01*
X634325Y389421D01*
X634847Y389743D01*
X635378Y390052D01*
X635915Y390348D01*
X636460Y390631D01*
X637011Y390900D01*
X637569Y391155D01*
X638133Y391397D01*
X638703Y391625D01*
X639278Y391839D01*
X639858Y392038D01*
X640443Y392224D01*
X641032Y392394D01*
X641625Y392551D01*
X642222Y392693D01*
X642823Y392820D01*
X643426Y392932D01*
X644032Y393029D01*
X644640Y393112D01*
X645250Y393180D01*
X645861Y393232D01*
X646473Y393270D01*
X647086Y393292D01*
X647700Y393300D01*
X648314Y393292D01*
X648927Y393270D01*
X649539Y393232D01*
X650150Y393180D01*
X650760Y393112D01*
X651368Y393029D01*
X651974Y392932D01*
X652577Y392820D01*
X653178Y392693D01*
X653775Y392551D01*
X654368Y392394D01*
X654957Y392224D01*
X655542Y392038D01*
X656122Y391839D01*
X656697Y391625D01*
X657267Y391397D01*
X657831Y391155D01*
X658389Y390900D01*
X658940Y390631D01*
X659485Y390348D01*
X660022Y390052D01*
X660553Y389743D01*
X661075Y389421D01*
X661589Y389087D01*
X662095Y388740D01*
X662592Y388380D01*
X663081Y388009D01*
X663560Y387625D01*
X664029Y387230D01*
X664489Y386824D01*
X664939Y386406D01*
X665378Y385978D01*
X665806Y385539D01*
X666224Y385089D01*
X666630Y384629D01*
X667025Y384160D01*
X667409Y383681D01*
X667780Y383192D01*
X668140Y382695D01*
X668487Y382189D01*
X668821Y381675D01*
X669143Y381153D01*
X669452Y380622D01*
X669748Y380085D01*
X670031Y379540D01*
X670300Y378989D01*
X670555Y378431D01*
X670797Y377867D01*
X671025Y377297D01*
X671239Y376722D01*
X671438Y376142D01*
X671624Y375557D01*
X671794Y374968D01*
X671951Y374375D01*
X672093Y373778D01*
X672220Y373177D01*
X672332Y372574D01*
X672429Y371968D01*
X672512Y371360D01*
X672580Y370750D01*
X672632Y370139D01*
X672670Y369527D01*
X672692Y368914D01*
X672700Y368300D01*
X672692Y367686D01*
X672670Y367073D01*
X672632Y366461D01*
X672580Y365850D01*
X672512Y365240D01*
X672429Y364632D01*
X672332Y364026D01*
X672220Y363423D01*
X672093Y362822D01*
X671951Y362225D01*
X671794Y361632D01*
X671624Y361043D01*
X671438Y360458D01*
X671239Y359878D01*
X671025Y359303D01*
X670797Y358733D01*
X670555Y358169D01*
X670300Y357611D01*
X670031Y357060D01*
X669748Y356515D01*
X669452Y355978D01*
X669143Y355447D01*
X668821Y354925D01*
X668487Y354411D01*
X668140Y353905D01*
X667780Y353408D01*
X667409Y352919D01*
X667025Y352440D01*
X666630Y351971D01*
X666224Y351511D01*
X665806Y351061D01*
X665378Y350622D01*
X664939Y350194D01*
X664489Y349776D01*
X664029Y349370D01*
X663560Y348975D01*
X663081Y348591D01*
X662592Y348220D01*
X662095Y347860D01*
X661589Y347513D01*
X661075Y347179D01*
X660553Y346857D01*
X660022Y346548D01*
X659485Y346252D01*
X658940Y345969D01*
X658389Y345700D01*
X657831Y345445D01*
X657267Y345203D01*
X656697Y344975D01*
X656122Y344761D01*
X655542Y344562D01*
X654957Y344376D01*
X654368Y344206D01*
X653775Y344049D01*
X653178Y343907D01*
X652577Y343780D01*
X651974Y343668D01*
X651368Y343571D01*
X650760Y343488D01*
X650150Y343420D01*
X649539Y343368D01*
X648927Y343330D01*
X648314Y343308D01*
X647700Y343300D01*
X647086Y343308D01*
X646473Y343330D01*
X645861Y343368D01*
X645250Y343420D01*
X644640Y343488D01*
X644032Y343571D01*
X643426Y343668D01*
X642823Y343780D01*
X642222Y343907D01*
X641625Y344049D01*
X641032Y344206D01*
X640443Y344376D01*
X639858Y344562D01*
X639278Y344761D01*
X638703Y344975D01*
X638133Y345203D01*
X637569Y345445D01*
X637011Y345700D01*
X636460Y345969D01*
X635915Y346252D01*
X635378Y346548D01*
X634847Y346857D01*
X634325Y347179D01*
X633811Y347513D01*
X633305Y347860D01*
X632808Y348220D01*
X632319Y348591D01*
X631840Y348975D01*
X631371Y349370D01*
X630911Y349776D01*
X630461Y350194D01*
X630022Y350622D01*
X629594Y351061D01*
X629176Y351511D01*
X628770Y351971D01*
X628375Y352440D01*
X627991Y352919D01*
X627620Y353408D01*
X627260Y353905D01*
X626913Y354411D01*
X626579Y354925D01*
X626257Y355447D01*
X625948Y355978D01*
X625652Y356515D01*
X625369Y357060D01*
X625100Y357611D01*
X624845Y358169D01*
X624603Y358733D01*
X624375Y359303D01*
X624161Y359878D01*
X623962Y360458D01*
X623776Y361043D01*
X623606Y361632D01*
X623449Y362225D01*
X623307Y362822D01*
X623180Y363423D01*
X623068Y364026D01*
X622971Y364632D01*
X622888Y365240D01*
X622820Y365850D01*
X622768Y366461D01*
X622730Y367073D01*
X622708Y367686D01*
X622700Y368300D01*
X-25000Y1333500D02*
X-24992Y1334114D01*
X-24970Y1334727D01*
X-24932Y1335339D01*
X-24880Y1335950D01*
X-24812Y1336560D01*
X-24729Y1337168D01*
X-24632Y1337774D01*
X-24520Y1338377D01*
X-24393Y1338978D01*
X-24251Y1339575D01*
X-24094Y1340168D01*
X-23924Y1340757D01*
X-23738Y1341342D01*
X-23539Y1341922D01*
X-23325Y1342497D01*
X-23097Y1343067D01*
X-22855Y1343631D01*
X-22600Y1344189D01*
X-22331Y1344740D01*
X-22048Y1345285D01*
X-21752Y1345822D01*
X-21443Y1346353D01*
X-21121Y1346875D01*
X-20787Y1347389D01*
X-20440Y1347895D01*
X-20080Y1348392D01*
X-19709Y1348881D01*
X-19325Y1349360D01*
X-18930Y1349829D01*
X-18524Y1350289D01*
X-18106Y1350739D01*
X-17678Y1351178D01*
X-17239Y1351606D01*
X-16789Y1352024D01*
X-16329Y1352430D01*
X-15860Y1352825D01*
X-15381Y1353209D01*
X-14892Y1353580D01*
X-14395Y1353940D01*
X-13889Y1354287D01*
X-13375Y1354621D01*
X-12853Y1354943D01*
X-12322Y1355252D01*
X-11785Y1355548D01*
X-11240Y1355831D01*
X-10689Y1356100D01*
X-10131Y1356355D01*
X-9567Y1356597D01*
X-8997Y1356825D01*
X-8422Y1357039D01*
X-7842Y1357238D01*
X-7257Y1357424D01*
X-6668Y1357594D01*
X-6075Y1357751D01*
X-5478Y1357893D01*
X-4877Y1358020D01*
X-4274Y1358132D01*
X-3668Y1358229D01*
X-3060Y1358312D01*
X-2450Y1358380D01*
X-1839Y1358432D01*
X-1227Y1358470D01*
X-614Y1358492D01*
X0Y1358500D01*
X614Y1358492D01*
X1227Y1358470D01*
X1839Y1358432D01*
X2450Y1358380D01*
X3060Y1358312D01*
X3668Y1358229D01*
X4274Y1358132D01*
X4877Y1358020D01*
X5478Y1357893D01*
X6075Y1357751D01*
X6668Y1357594D01*
X7257Y1357424D01*
X7842Y1357238D01*
X8422Y1357039D01*
X8997Y1356825D01*
X9567Y1356597D01*
X10131Y1356355D01*
X10689Y1356100D01*
X11240Y1355831D01*
X11785Y1355548D01*
X12322Y1355252D01*
X12853Y1354943D01*
X13375Y1354621D01*
X13889Y1354287D01*
X14395Y1353940D01*
X14892Y1353580D01*
X15381Y1353209D01*
X15860Y1352825D01*
X16329Y1352430D01*
X16789Y1352024D01*
X17239Y1351606D01*
X17678Y1351178D01*
X18106Y1350739D01*
X18524Y1350289D01*
X18930Y1349829D01*
X19325Y1349360D01*
X19709Y1348881D01*
X20080Y1348392D01*
X20440Y1347895D01*
X20787Y1347389D01*
X21121Y1346875D01*
X21443Y1346353D01*
X21752Y1345822D01*
X22048Y1345285D01*
X22331Y1344740D01*
X22600Y1344189D01*
X22855Y1343631D01*
X23097Y1343067D01*
X23325Y1342497D01*
X23539Y1341922D01*
X23738Y1341342D01*
X23924Y1340757D01*
X24094Y1340168D01*
X24251Y1339575D01*
X24393Y1338978D01*
X24520Y1338377D01*
X24632Y1337774D01*
X24729Y1337168D01*
X24812Y1336560D01*
X24880Y1335950D01*
X24932Y1335339D01*
X24970Y1334727D01*
X24992Y1334114D01*
X25000Y1333500D01*
X24992Y1332886D01*
X24970Y1332273D01*
X24932Y1331661D01*
X24880Y1331050D01*
X24812Y1330440D01*
X24729Y1329832D01*
X24632Y1329226D01*
X24520Y1328623D01*
X24393Y1328022D01*
X24251Y1327425D01*
X24094Y1326832D01*
X23924Y1326243D01*
X23738Y1325658D01*
X23539Y1325078D01*
X23325Y1324503D01*
X23097Y1323933D01*
X22855Y1323369D01*
X22600Y1322811D01*
X22331Y1322260D01*
X22048Y1321715D01*
X21752Y1321178D01*
X21443Y1320647D01*
X21121Y1320125D01*
X20787Y1319611D01*
X20440Y1319105D01*
X20080Y1318608D01*
X19709Y1318119D01*
X19325Y1317640D01*
X18930Y1317171D01*
X18524Y1316711D01*
X18106Y1316261D01*
X17678Y1315822D01*
X17239Y1315394D01*
X16789Y1314976D01*
X16329Y1314570D01*
X15860Y1314175D01*
X15381Y1313791D01*
X14892Y1313420D01*
X14395Y1313060D01*
X13889Y1312713D01*
X13375Y1312379D01*
X12853Y1312057D01*
X12322Y1311748D01*
X11785Y1311452D01*
X11240Y1311169D01*
X10689Y1310900D01*
X10131Y1310645D01*
X9567Y1310403D01*
X8997Y1310175D01*
X8422Y1309961D01*
X7842Y1309762D01*
X7257Y1309576D01*
X6668Y1309406D01*
X6075Y1309249D01*
X5478Y1309107D01*
X4877Y1308980D01*
X4274Y1308868D01*
X3668Y1308771D01*
X3060Y1308688D01*
X2450Y1308620D01*
X1839Y1308568D01*
X1227Y1308530D01*
X614Y1308508D01*
X0Y1308500D01*
X-614Y1308508D01*
X-1227Y1308530D01*
X-1839Y1308568D01*
X-2450Y1308620D01*
X-3060Y1308688D01*
X-3668Y1308771D01*
X-4274Y1308868D01*
X-4877Y1308980D01*
X-5478Y1309107D01*
X-6075Y1309249D01*
X-6668Y1309406D01*
X-7257Y1309576D01*
X-7842Y1309762D01*
X-8422Y1309961D01*
X-8997Y1310175D01*
X-9567Y1310403D01*
X-10131Y1310645D01*
X-10689Y1310900D01*
X-11240Y1311169D01*
X-11785Y1311452D01*
X-12322Y1311748D01*
X-12853Y1312057D01*
X-13375Y1312379D01*
X-13889Y1312713D01*
X-14395Y1313060D01*
X-14892Y1313420D01*
X-15381Y1313791D01*
X-15860Y1314175D01*
X-16329Y1314570D01*
X-16789Y1314976D01*
X-17239Y1315394D01*
X-17678Y1315822D01*
X-18106Y1316261D01*
X-18524Y1316711D01*
X-18930Y1317171D01*
X-19325Y1317640D01*
X-19709Y1318119D01*
X-20080Y1318608D01*
X-20440Y1319105D01*
X-20787Y1319611D01*
X-21121Y1320125D01*
X-21443Y1320647D01*
X-21752Y1321178D01*
X-22048Y1321715D01*
X-22331Y1322260D01*
X-22600Y1322811D01*
X-22855Y1323369D01*
X-23097Y1323933D01*
X-23325Y1324503D01*
X-23539Y1325078D01*
X-23738Y1325658D01*
X-23924Y1326243D01*
X-24094Y1326832D01*
X-24251Y1327425D01*
X-24393Y1328022D01*
X-24520Y1328623D01*
X-24632Y1329226D01*
X-24729Y1329832D01*
X-24812Y1330440D01*
X-24880Y1331050D01*
X-24932Y1331661D01*
X-24970Y1332273D01*
X-24992Y1332886D01*
X-25000Y1333500D01*
X-672700Y292100D02*
X-672692Y292714D01*
X-672670Y293327D01*
X-672632Y293939D01*
X-672580Y294550D01*
X-672512Y295160D01*
X-672429Y295768D01*
X-672332Y296374D01*
X-672220Y296977D01*
X-672093Y297578D01*
X-671951Y298175D01*
X-671794Y298768D01*
X-671624Y299357D01*
X-671438Y299942D01*
X-671239Y300522D01*
X-671025Y301097D01*
X-670797Y301667D01*
X-670555Y302231D01*
X-670300Y302789D01*
X-670031Y303340D01*
X-669748Y303885D01*
X-669452Y304422D01*
X-669143Y304953D01*
X-668821Y305475D01*
X-668487Y305989D01*
X-668140Y306495D01*
X-667780Y306992D01*
X-667409Y307481D01*
X-667025Y307960D01*
X-666630Y308429D01*
X-666224Y308889D01*
X-665806Y309339D01*
X-665378Y309778D01*
X-664939Y310206D01*
X-664489Y310624D01*
X-664029Y311030D01*
X-663560Y311425D01*
X-663081Y311809D01*
X-662592Y312180D01*
X-662095Y312540D01*
X-661589Y312887D01*
X-661075Y313221D01*
X-660553Y313543D01*
X-660022Y313852D01*
X-659485Y314148D01*
X-658940Y314431D01*
X-658389Y314700D01*
X-657831Y314955D01*
X-657267Y315197D01*
X-656697Y315425D01*
X-656122Y315639D01*
X-655542Y315838D01*
X-654957Y316024D01*
X-654368Y316194D01*
X-653775Y316351D01*
X-653178Y316493D01*
X-652577Y316620D01*
X-651974Y316732D01*
X-651368Y316829D01*
X-650760Y316912D01*
X-650150Y316980D01*
X-649539Y317032D01*
X-648927Y317070D01*
X-648314Y317092D01*
X-647700Y317100D01*
X-647086Y317092D01*
X-646473Y317070D01*
X-645861Y317032D01*
X-645250Y316980D01*
X-644640Y316912D01*
X-644032Y316829D01*
X-643426Y316732D01*
X-642823Y316620D01*
X-642222Y316493D01*
X-641625Y316351D01*
X-641032Y316194D01*
X-640443Y316024D01*
X-639858Y315838D01*
X-639278Y315639D01*
X-638703Y315425D01*
X-638133Y315197D01*
X-637569Y314955D01*
X-637011Y314700D01*
X-636460Y314431D01*
X-635915Y314148D01*
X-635378Y313852D01*
X-634847Y313543D01*
X-634325Y313221D01*
X-633811Y312887D01*
X-633305Y312540D01*
X-632808Y312180D01*
X-632319Y311809D01*
X-631840Y311425D01*
X-631371Y311030D01*
X-630911Y310624D01*
X-630461Y310206D01*
X-630022Y309778D01*
X-629594Y309339D01*
X-629176Y308889D01*
X-628770Y308429D01*
X-628375Y307960D01*
X-627991Y307481D01*
X-627620Y306992D01*
X-627260Y306495D01*
X-626913Y305989D01*
X-626579Y305475D01*
X-626257Y304953D01*
X-625948Y304422D01*
X-625652Y303885D01*
X-625369Y303340D01*
X-625100Y302789D01*
X-624845Y302231D01*
X-624603Y301667D01*
X-624375Y301097D01*
X-624161Y300522D01*
X-623962Y299942D01*
X-623776Y299357D01*
X-623606Y298768D01*
X-623449Y298175D01*
X-623307Y297578D01*
X-623180Y296977D01*
X-623068Y296374D01*
X-622971Y295768D01*
X-622888Y295160D01*
X-622820Y294550D01*
X-622768Y293939D01*
X-622730Y293327D01*
X-622708Y292714D01*
X-622700Y292100D01*
X-622708Y291486D01*
X-622730Y290873D01*
X-622768Y290261D01*
X-622820Y289650D01*
X-622888Y289040D01*
X-622971Y288432D01*
X-623068Y287826D01*
X-623180Y287223D01*
X-623307Y286622D01*
X-623449Y286025D01*
X-623606Y285432D01*
X-623776Y284843D01*
X-623962Y284258D01*
X-624161Y283678D01*
X-624375Y283103D01*
X-624603Y282533D01*
X-624845Y281969D01*
X-625100Y281411D01*
X-625369Y280860D01*
X-625652Y280315D01*
X-625948Y279778D01*
X-626257Y279247D01*
X-626579Y278725D01*
X-626913Y278211D01*
X-627260Y277705D01*
X-627620Y277208D01*
X-627991Y276719D01*
X-628375Y276240D01*
X-628770Y275771D01*
X-629176Y275311D01*
X-629594Y274861D01*
X-630022Y274422D01*
X-630461Y273994D01*
X-630911Y273576D01*
X-631371Y273170D01*
X-631840Y272775D01*
X-632319Y272391D01*
X-632808Y272020D01*
X-633305Y271660D01*
X-633811Y271313D01*
X-634325Y270979D01*
X-634847Y270657D01*
X-635378Y270348D01*
X-635915Y270052D01*
X-636460Y269769D01*
X-637011Y269500D01*
X-637569Y269245D01*
X-638133Y269003D01*
X-638703Y268775D01*
X-639278Y268561D01*
X-639858Y268362D01*
X-640443Y268176D01*
X-641032Y268006D01*
X-641625Y267849D01*
X-642222Y267707D01*
X-642823Y267580D01*
X-643426Y267468D01*
X-644032Y267371D01*
X-644640Y267288D01*
X-645250Y267220D01*
X-645861Y267168D01*
X-646473Y267130D01*
X-647086Y267108D01*
X-647700Y267100D01*
X-648314Y267108D01*
X-648927Y267130D01*
X-649539Y267168D01*
X-650150Y267220D01*
X-650760Y267288D01*
X-651368Y267371D01*
X-651974Y267468D01*
X-652577Y267580D01*
X-653178Y267707D01*
X-653775Y267849D01*
X-654368Y268006D01*
X-654957Y268176D01*
X-655542Y268362D01*
X-656122Y268561D01*
X-656697Y268775D01*
X-657267Y269003D01*
X-657831Y269245D01*
X-658389Y269500D01*
X-658940Y269769D01*
X-659485Y270052D01*
X-660022Y270348D01*
X-660553Y270657D01*
X-661075Y270979D01*
X-661589Y271313D01*
X-662095Y271660D01*
X-662592Y272020D01*
X-663081Y272391D01*
X-663560Y272775D01*
X-664029Y273170D01*
X-664489Y273576D01*
X-664939Y273994D01*
X-665378Y274422D01*
X-665806Y274861D01*
X-666224Y275311D01*
X-666630Y275771D01*
X-667025Y276240D01*
X-667409Y276719D01*
X-667780Y277208D01*
X-668140Y277705D01*
X-668487Y278211D01*
X-668821Y278725D01*
X-669143Y279247D01*
X-669452Y279778D01*
X-669748Y280315D01*
X-670031Y280860D01*
X-670300Y281411D01*
X-670555Y281969D01*
X-670797Y282533D01*
X-671025Y283103D01*
X-671239Y283678D01*
X-671438Y284258D01*
X-671624Y284843D01*
X-671794Y285432D01*
X-671951Y286025D01*
X-672093Y286622D01*
X-672220Y287223D01*
X-672332Y287826D01*
X-672429Y288432D01*
X-672512Y289040D01*
X-672580Y289650D01*
X-672632Y290261D01*
X-672670Y290873D01*
X-672692Y291486D01*
X-672700Y292100D01*
D11*
X-1824Y1491542D02*
X-15729Y1473328D01*
X-29490Y1455391D01*
X-43109Y1437728D01*
X-56585Y1420334D01*
X-69918Y1403206D01*
X-83109Y1386341D01*
X-96159Y1369735D01*
X-109067Y1353383D01*
X-121834Y1337284D01*
X-134460Y1321432D01*
X-146945Y1305825D01*
X-159291Y1290459D01*
X-171497Y1275329D01*
X-183564Y1260433D01*
X-195491Y1245767D01*
X-207280Y1231328D01*
X-218930Y1217111D01*
X-230442Y1203113D01*
X-241817Y1189330D01*
X-253054Y1175759D01*
X-264155Y1162396D01*
X-275118Y1149238D01*
X-285945Y1136281D01*
X-296637Y1123521D01*
X-307192Y1110955D01*
X-317612Y1098579D01*
X-327898Y1086389D01*
X-338048Y1074382D01*
X-348065Y1062554D01*
X-357947Y1050902D01*
X-367696Y1039421D01*
X-377311Y1028109D01*
X-386794Y1016962D01*
X-396144Y1005976D01*
X-405361Y995147D01*
X-414447Y984472D01*
X-432224Y963570D01*
X-449478Y943239D01*
X-466210Y923451D01*
X-482425Y904177D01*
X-498124Y885388D01*
X-513310Y867055D01*
X-527986Y849150D01*
X-542155Y831642D01*
X-555819Y814503D01*
X-568981Y797705D01*
X-581645Y781218D01*
X-593811Y765013D01*
X-605485Y749061D01*
X-616667Y733333D01*
X-627361Y717805D01*
X-637569Y702466D01*
X-647296Y687310D01*
X-656543Y672331D01*
X-665314Y657523D01*
X-673612Y642879D01*
X-681441Y628395D01*
X-688802Y614063D01*
X-695700Y599877D01*
X-702136Y585832D01*
X-708115Y571921D01*
X-713639Y558138D01*
X-718712Y544477D01*
X-723336Y530933D01*
X-727514Y517498D01*
X-731250Y504167D01*
X-734546Y490933D01*
X-737406Y477791D01*
X-739833Y464735D01*
X-741829Y451758D01*
X-743399Y438854D01*
X-744543Y426017D01*
X-745267Y413242D01*
X-745573Y400521D01*
X-745464Y387849D01*
X-744942Y375220D01*
X-744012Y362627D01*
X-742676Y350065D01*
X-740937Y337527D01*
X-738798Y325008D01*
X-736263Y312501D01*
X-733333Y300000D01*
X-730014Y287502D01*
X-726310Y275016D01*
X-722228Y262555D01*
X-717773Y250130D01*
X-712953Y237754D01*
X-707772Y225439D01*
X-702237Y213198D01*
X-696354Y201042D01*
X-690130Y188983D01*
X-683569Y177035D01*
X-676679Y165208D01*
X-669466Y153516D01*
X-661935Y141970D01*
X-654093Y130583D01*
X-645946Y119366D01*
X-637500Y108333D01*
X-628761Y97496D01*
X-619735Y86865D01*
X-610428Y76455D01*
X-600846Y66276D01*
X-590996Y56342D01*
X-580884Y46663D01*
X-570515Y37254D01*
X-559896Y28125D01*
X-549033Y19289D01*
X-537931Y10758D01*
X-526598Y2545D01*
X-515039Y-5339D01*
X-503260Y-12880D01*
X-491268Y-20068D01*
X-479068Y-26890D01*
X-466667Y-33333D01*
X-454070Y-39390D01*
X-441284Y-45068D01*
X-428315Y-50380D01*
X-415169Y-55339D01*
X-401852Y-59955D01*
X-388371Y-64242D01*
X-374730Y-68211D01*
X-360938Y-71875D01*
X-346998Y-75246D01*
X-332918Y-78337D01*
X-318704Y-81158D01*
X-304362Y-83724D01*
X-289898Y-86045D01*
X-275317Y-88135D01*
X-260627Y-90004D01*
X-245833Y-91667D01*
X-230942Y-93134D01*
X-215959Y-94417D01*
X-185742Y-96484D01*
X-155233Y-97966D01*
X-124479Y-98958D01*
X-93530Y-99561D01*
X-62435Y-99870D01*
X0Y-100000D01*
X62435Y-99870D01*
X93530Y-99561D01*
X124479Y-98958D01*
X155233Y-97966D01*
X185742Y-96484D01*
X215959Y-94417D01*
X230942Y-93134D01*
X245833Y-91667D01*
X260627Y-90004D01*
X275317Y-88135D01*
X289898Y-86045D01*
X304362Y-83724D01*
X318704Y-81158D01*
X332918Y-78337D01*
X346998Y-75246D01*
X360938Y-71875D01*
X374730Y-68211D01*
X388371Y-64242D01*
X401852Y-59955D01*
X415169Y-55339D01*
X428315Y-50380D01*
X441284Y-45068D01*
X454070Y-39390D01*
X466667Y-33333D01*
X479068Y-26890D01*
X491268Y-20068D01*
X503260Y-12880D01*
X515039Y-5339D01*
X526598Y2545D01*
X537931Y10758D01*
X549033Y19289D01*
X559896Y28125D01*
X570515Y37254D01*
X580884Y46663D01*
X590996Y56342D01*
X600846Y66276D01*
X610428Y76455D01*
X619735Y86865D01*
X628761Y97496D01*
X637500Y108333D01*
X645946Y119366D01*
X654093Y130583D01*
X661935Y141970D01*
X669466Y153516D01*
X676679Y165208D01*
X683569Y177035D01*
X690130Y188983D01*
X696354Y201042D01*
X702237Y213198D01*
X707772Y225439D01*
X712953Y237754D01*
X717773Y250130D01*
X722228Y262555D01*
X726310Y275016D01*
X730014Y287502D01*
X733333Y300000D01*
X736263Y312501D01*
X738798Y325008D01*
X740937Y337527D01*
X742676Y350065D01*
X744012Y362627D01*
X744942Y375220D01*
X745464Y387849D01*
X745573Y400521D01*
X745267Y413242D01*
X744543Y426017D01*
X743399Y438854D01*
X741829Y451758D01*
X739833Y464735D01*
X737406Y477791D01*
X734546Y490933D01*
X731250Y504167D01*
X727514Y517498D01*
X723336Y530933D01*
X718712Y544477D01*
X713639Y558138D01*
X708115Y571921D01*
X702136Y585832D01*
X695700Y599877D01*
X688802Y614063D01*
X681441Y628395D01*
X673612Y642879D01*
X665314Y657523D01*
X656543Y672331D01*
X647296Y687310D01*
X637569Y702466D01*
X627361Y717805D01*
X616667Y733333D01*
X605484Y749061D01*
X593811Y765013D01*
X581642Y781218D01*
X568974Y797705D01*
X555805Y814503D01*
X542131Y831642D01*
X527948Y849150D01*
X513253Y867055D01*
X498042Y885388D01*
X482313Y904177D01*
X466062Y923451D01*
X449285Y943239D01*
X431980Y963570D01*
X414142Y984472D01*
X405022Y995147D01*
X395768Y1005976D01*
X386379Y1016962D01*
X376855Y1028109D01*
X367196Y1039421D01*
X357400Y1050902D01*
X347468Y1062554D01*
X337399Y1074382D01*
X327193Y1086389D01*
X316849Y1098579D01*
X306367Y1110955D01*
X295746Y1123521D01*
X284987Y1136281D01*
X274087Y1149238D01*
X263048Y1162396D01*
X251869Y1175759D01*
X240549Y1189330D01*
X229088Y1203113D01*
X217486Y1217111D01*
X205741Y1231328D01*
X193854Y1245767D01*
X181824Y1260433D01*
X169652Y1275329D01*
X157335Y1290459D01*
X144874Y1305825D01*
X132269Y1321432D01*
X119519Y1337284D01*
X106623Y1353383D01*
X93582Y1369735D01*
X80395Y1386341D01*
X67061Y1403206D01*
X53580Y1420334D01*
X39951Y1437728D01*
X26175Y1455391D01*
X12250Y1473328D01*
X-1824Y1491542D01*
M02*
