G04 EAGLE Gerber RS-274X export*
G75*
%MOMM*%
%FSLAX34Y34*%
%LPD*%
%INBottom Copper*%
%IPPOS*%
%AMOC8*
5,1,8,0,0,1.08239X$1,22.5*%
G01*
G04 Define Apertures*
%ADD10C,1.508000*%
%ADD11P,1.63224X8X202.5*%
%ADD12R,1.508000X1.508000*%
%ADD13C,1.778000*%
%ADD14C,2.095500*%
%ADD15R,1.930400X1.930400*%
%ADD16C,1.930400*%
%ADD17P,1.42962X8X292.5*%
%ADD18C,1.320800*%
%ADD19P,1.42962X8X22.5*%
%ADD20C,0.635000*%
%ADD21C,0.254000*%
%ADD22C,0.889000*%
%ADD23C,0.152400*%
%ADD24C,0.756400*%
%ADD25C,0.254000*%
D10*
X88900Y-57150D03*
X88900Y-31750D03*
X88900Y-6350D03*
X88900Y19050D03*
D11*
X-63500Y-31750D03*
D10*
X38100Y247650D03*
X88900Y44450D03*
X88900Y69850D03*
X88900Y95250D03*
X88900Y120650D03*
X88900Y146050D03*
X88900Y171450D03*
X88900Y196850D03*
X88900Y222250D03*
X88900Y247650D03*
X-63500Y247650D03*
X-63500Y222250D03*
X-63500Y196850D03*
X-63500Y171450D03*
X-63500Y146050D03*
X-63500Y120650D03*
X-63500Y95250D03*
X-63500Y69850D03*
X-63500Y44450D03*
X-63500Y19050D03*
X-63500Y-6350D03*
X-38100Y197010D03*
X-38100Y171290D03*
X-12065Y197010D03*
X-12065Y171290D03*
X13970Y197010D03*
X13970Y171290D03*
X40005Y197010D03*
X40005Y171290D03*
X66040Y197010D03*
X66040Y171290D03*
X21700Y-74950D03*
X3700Y-82550D03*
D12*
X88900Y-82550D03*
X12700Y247650D03*
X-63500Y-57150D03*
D10*
X-38100Y247650D03*
X-12700Y247650D03*
X63500Y247650D03*
D13*
X-63500Y-82550D03*
D10*
X-38100Y-57150D03*
D14*
X-490539Y764690D02*
X-507809Y776559D01*
X-536582Y734694D02*
X-519313Y722825D01*
X-548086Y680959D02*
X-565356Y692828D01*
X-594129Y650963D02*
X-576860Y639094D01*
X-564749Y159487D02*
X-578275Y143482D01*
X-539474Y110693D02*
X-525948Y126698D01*
X-487148Y93909D02*
X-500673Y77904D01*
X-461872Y45114D02*
X-448347Y61120D01*
X542840Y122336D02*
X559729Y109930D01*
X589803Y150871D02*
X572915Y163277D01*
X602989Y204218D02*
X619877Y191813D01*
D15*
X469900Y190900D03*
D16*
X469900Y240900D03*
D17*
X62950Y840600D03*
D18*
X62950Y860920D03*
D14*
X388981Y887533D02*
X405561Y900348D01*
X374496Y940542D02*
X357916Y927727D01*
X326850Y967921D02*
X343430Y980736D01*
X562750Y667033D02*
X579595Y679497D01*
X549378Y720333D02*
X532533Y707869D01*
D19*
X340500Y596350D03*
D18*
X320180Y596350D03*
D19*
X200800Y596350D03*
D18*
X180480Y596350D03*
D20*
X201168Y596646D02*
X304038Y596646D01*
X315468Y608076D01*
X328422Y608076D01*
X339852Y596646D01*
X201168Y596646D02*
X200800Y596350D01*
X339852Y596646D02*
X340500Y596350D01*
D21*
X-64770Y80772D02*
X-260604Y276606D01*
X-64770Y80772D02*
X26670Y80772D01*
X88392Y19050D01*
X88900Y19050D01*
D22*
X-260604Y276606D03*
D23*
X89154Y5334D02*
X89154Y-6096D01*
X89154Y5334D02*
X99060Y15240D01*
X99060Y491490D01*
X-101346Y691896D01*
X89154Y-6096D02*
X88900Y-6350D01*
D24*
X-101346Y691896D03*
D23*
X180594Y595884D02*
X241554Y534924D01*
X180594Y595884D02*
X180480Y596350D01*
D24*
X241554Y534924D03*
D23*
X-571500Y624840D02*
X-571500Y151638D01*
X-571500Y624840D02*
X-499872Y696468D01*
X-499872Y770382D01*
X-571500Y151638D02*
X-571512Y151485D01*
X-499872Y770382D02*
X-499174Y770625D01*
D21*
X-406146Y307086D02*
X-188976Y307086D01*
X-64008Y182118D01*
X-34290Y182118D01*
X-22860Y170688D01*
X-22860Y166878D01*
X73914Y70104D01*
X88392Y70104D01*
X88900Y69850D01*
D22*
X-406146Y307086D03*
D23*
X-27432Y160782D02*
X88900Y44450D01*
X-428244Y118872D02*
X-532638Y118872D01*
X-428244Y118872D02*
X-246888Y300228D01*
X-532638Y118872D02*
X-532711Y118695D01*
D24*
X-27432Y160782D03*
X-246888Y300228D03*
D23*
X470408Y190500D02*
X477012Y190500D01*
X470408Y190500D02*
X320802Y190500D01*
X477012Y190500D02*
X550926Y116586D01*
X470408Y190500D02*
X469900Y190900D01*
X550926Y116586D02*
X551285Y116133D01*
X320802Y190500D02*
X320802Y595884D01*
X320180Y596350D01*
D25*
X-1824Y1491542D02*
X-15729Y1473328D01*
X-29490Y1455391D01*
X-43109Y1437728D01*
X-56585Y1420334D01*
X-69918Y1403206D01*
X-83109Y1386341D01*
X-96159Y1369735D01*
X-109067Y1353383D01*
X-121834Y1337284D01*
X-134460Y1321432D01*
X-146945Y1305825D01*
X-159291Y1290459D01*
X-171497Y1275329D01*
X-183564Y1260433D01*
X-195491Y1245767D01*
X-207280Y1231328D01*
X-218930Y1217111D01*
X-230442Y1203113D01*
X-241817Y1189330D01*
X-253054Y1175759D01*
X-264155Y1162396D01*
X-275118Y1149238D01*
X-285945Y1136281D01*
X-296637Y1123521D01*
X-307192Y1110955D01*
X-317612Y1098579D01*
X-327898Y1086389D01*
X-338048Y1074382D01*
X-348065Y1062554D01*
X-357947Y1050902D01*
X-367696Y1039421D01*
X-377311Y1028109D01*
X-386794Y1016962D01*
X-396144Y1005976D01*
X-405361Y995147D01*
X-414447Y984472D01*
X-432224Y963570D01*
X-449478Y943239D01*
X-466210Y923451D01*
X-482425Y904177D01*
X-498124Y885388D01*
X-513310Y867055D01*
X-527986Y849150D01*
X-542155Y831642D01*
X-555819Y814503D01*
X-568981Y797705D01*
X-581645Y781218D01*
X-593811Y765013D01*
X-605485Y749061D01*
X-616667Y733333D01*
X-627361Y717805D01*
X-637569Y702466D01*
X-647296Y687310D01*
X-656543Y672331D01*
X-665314Y657523D01*
X-673612Y642879D01*
X-681441Y628395D01*
X-688802Y614063D01*
X-695700Y599877D01*
X-702136Y585832D01*
X-708115Y571921D01*
X-713639Y558138D01*
X-718712Y544477D01*
X-723336Y530933D01*
X-727514Y517498D01*
X-731250Y504167D01*
X-734546Y490933D01*
X-737406Y477791D01*
X-739833Y464735D01*
X-741829Y451758D01*
X-743399Y438854D01*
X-744543Y426017D01*
X-745267Y413242D01*
X-745573Y400521D01*
X-745464Y387849D01*
X-744942Y375220D01*
X-744012Y362627D01*
X-742676Y350065D01*
X-740937Y337527D01*
X-738798Y325008D01*
X-736263Y312501D01*
X-733333Y300000D01*
X-730014Y287502D01*
X-726310Y275016D01*
X-722228Y262555D01*
X-717773Y250130D01*
X-712953Y237754D01*
X-707772Y225439D01*
X-702237Y213198D01*
X-696354Y201042D01*
X-690130Y188983D01*
X-683569Y177035D01*
X-676679Y165208D01*
X-669466Y153516D01*
X-661935Y141970D01*
X-654093Y130583D01*
X-645946Y119366D01*
X-637500Y108333D01*
X-628761Y97496D01*
X-619735Y86865D01*
X-610428Y76455D01*
X-600846Y66276D01*
X-590996Y56342D01*
X-580884Y46663D01*
X-570515Y37254D01*
X-559896Y28125D01*
X-549033Y19289D01*
X-537931Y10758D01*
X-526598Y2545D01*
X-515039Y-5339D01*
X-503260Y-12880D01*
X-491268Y-20068D01*
X-479068Y-26890D01*
X-466667Y-33333D01*
X-454070Y-39390D01*
X-441284Y-45068D01*
X-428315Y-50380D01*
X-415169Y-55339D01*
X-401852Y-59955D01*
X-388371Y-64242D01*
X-374730Y-68211D01*
X-360938Y-71875D01*
X-346998Y-75246D01*
X-332918Y-78337D01*
X-318704Y-81158D01*
X-304362Y-83724D01*
X-289898Y-86045D01*
X-275317Y-88135D01*
X-260627Y-90004D01*
X-245833Y-91667D01*
X-230942Y-93134D01*
X-215959Y-94417D01*
X-185742Y-96484D01*
X-155233Y-97966D01*
X-124479Y-98958D01*
X-93530Y-99561D01*
X-62435Y-99870D01*
X0Y-100000D01*
X62435Y-99870D01*
X93530Y-99561D01*
X124479Y-98958D01*
X155233Y-97966D01*
X185742Y-96484D01*
X215959Y-94417D01*
X230942Y-93134D01*
X245833Y-91667D01*
X260627Y-90004D01*
X275317Y-88135D01*
X289898Y-86045D01*
X304362Y-83724D01*
X318704Y-81158D01*
X332918Y-78337D01*
X346998Y-75246D01*
X360938Y-71875D01*
X374730Y-68211D01*
X388371Y-64242D01*
X401852Y-59955D01*
X415169Y-55339D01*
X428315Y-50380D01*
X441284Y-45068D01*
X454070Y-39390D01*
X466667Y-33333D01*
X479068Y-26890D01*
X491268Y-20068D01*
X503260Y-12880D01*
X515039Y-5339D01*
X526598Y2545D01*
X537931Y10758D01*
X549033Y19289D01*
X559896Y28125D01*
X570515Y37254D01*
X580884Y46663D01*
X590996Y56342D01*
X600846Y66276D01*
X610428Y76455D01*
X619735Y86865D01*
X628761Y97496D01*
X637500Y108333D01*
X645946Y119366D01*
X654093Y130583D01*
X661935Y141970D01*
X669466Y153516D01*
X676679Y165208D01*
X683569Y177035D01*
X690130Y188983D01*
X696354Y201042D01*
X702237Y213198D01*
X707772Y225439D01*
X712953Y237754D01*
X717773Y250130D01*
X722228Y262555D01*
X726310Y275016D01*
X730014Y287502D01*
X733333Y300000D01*
X736263Y312501D01*
X738798Y325008D01*
X740937Y337527D01*
X742676Y350065D01*
X744012Y362627D01*
X744942Y375220D01*
X745464Y387849D01*
X745573Y400521D01*
X745267Y413242D01*
X744543Y426017D01*
X743399Y438854D01*
X741829Y451758D01*
X739833Y464735D01*
X737406Y477791D01*
X734546Y490933D01*
X731250Y504167D01*
X727514Y517498D01*
X723336Y530933D01*
X718712Y544477D01*
X713639Y558138D01*
X708115Y571921D01*
X702136Y585832D01*
X695700Y599877D01*
X688802Y614063D01*
X681441Y628395D01*
X673612Y642879D01*
X665314Y657523D01*
X656543Y672331D01*
X647296Y687310D01*
X637569Y702466D01*
X627361Y717805D01*
X616667Y733333D01*
X605484Y749061D01*
X593811Y765013D01*
X581642Y781218D01*
X568974Y797705D01*
X555805Y814503D01*
X542131Y831642D01*
X527948Y849150D01*
X513253Y867055D01*
X498042Y885388D01*
X482313Y904177D01*
X466062Y923451D01*
X449285Y943239D01*
X431980Y963570D01*
X414142Y984472D01*
X405022Y995147D01*
X395768Y1005976D01*
X386379Y1016962D01*
X376855Y1028109D01*
X367196Y1039421D01*
X357400Y1050902D01*
X347468Y1062554D01*
X337399Y1074382D01*
X327193Y1086389D01*
X316849Y1098579D01*
X306367Y1110955D01*
X295746Y1123521D01*
X284987Y1136281D01*
X274087Y1149238D01*
X263048Y1162396D01*
X251869Y1175759D01*
X240549Y1189330D01*
X229088Y1203113D01*
X217486Y1217111D01*
X205741Y1231328D01*
X193854Y1245767D01*
X181824Y1260433D01*
X169652Y1275329D01*
X157335Y1290459D01*
X144874Y1305825D01*
X132269Y1321432D01*
X119519Y1337284D01*
X106623Y1353383D01*
X93582Y1369735D01*
X80395Y1386341D01*
X67061Y1403206D01*
X53580Y1420334D01*
X39951Y1437728D01*
X26175Y1455391D01*
X12250Y1473328D01*
X-1824Y1491542D01*
M02*
