G04 EAGLE Gerber RS-274X export*
G75*
%MOMM*%
%FSLAX34Y34*%
%LPD*%
%INSolderpaste Top*%
%IPPOS*%
%AMOC8*
5,1,8,0,0,1.08239X$1,22.5*%
G01*
G04 Define Apertures*
%ADD10R,0.800000X1.200000*%
%ADD11R,0.762000X2.032000*%
%ADD12R,3.810000X3.048000*%
%ADD13R,3.302000X2.032000*%
%ADD14R,1.200000X0.800000*%
%ADD15R,0.900000X0.800000*%
%ADD16R,1.400000X1.200000*%
%ADD17R,0.800000X0.900000*%
%ADD18R,1.200000X1.400000*%
%ADD19R,3.000000X1.600000*%
%ADD20R,5.715000X4.826000*%
%ADD21R,1.981200X0.533400*%
%ADD22R,1.600000X3.000000*%
%ADD23R,4.826000X5.715000*%
D10*
X-372000Y457200D03*
X-390000Y457200D03*
D11*
X-415230Y621270D03*
X-402530Y621270D03*
X-389830Y621270D03*
X-377130Y621270D03*
D12*
X-396180Y599680D03*
D11*
X-377130Y561580D03*
D13*
X-402530Y561580D03*
D14*
X-215900Y676800D03*
X-215900Y694800D03*
D15*
X-111600Y695300D03*
X-111600Y676300D03*
X-90600Y685800D03*
D14*
X-304800Y676800D03*
X-304800Y694800D03*
D16*
X-406400Y696200D03*
X-406400Y726200D03*
D10*
X-397400Y317500D03*
X-415400Y317500D03*
D11*
X-359470Y191530D03*
X-372170Y191530D03*
X-384870Y191530D03*
X-397570Y191530D03*
D12*
X-378520Y213120D03*
D11*
X-397570Y251220D03*
D13*
X-372170Y251220D03*
D10*
X-263000Y317500D03*
X-245000Y317500D03*
D17*
X-244500Y403700D03*
X-263500Y403700D03*
X-254000Y382700D03*
D10*
X-245000Y254000D03*
X-263000Y254000D03*
D18*
X-264400Y177800D03*
X-294400Y177800D03*
D10*
G36*
X537388Y181798D02*
X543649Y186778D01*
X551118Y177388D01*
X544857Y172408D01*
X537388Y181798D01*
G37*
G36*
X523302Y170592D02*
X529563Y175572D01*
X537032Y166182D01*
X530771Y161202D01*
X523302Y170592D01*
G37*
D18*
X251700Y863600D03*
X281700Y863600D03*
D10*
X181500Y863600D03*
X199500Y863600D03*
D19*
X200900Y784800D03*
X200900Y739200D03*
D20*
X269880Y762000D03*
D21*
X229362Y476250D03*
X229362Y463550D03*
X229362Y450850D03*
X229362Y438150D03*
X278638Y438150D03*
X278638Y450850D03*
X278638Y463550D03*
X278638Y476250D03*
D18*
X429500Y609600D03*
X459500Y609600D03*
D10*
X410100Y698500D03*
X428100Y698500D03*
D22*
X454600Y497600D03*
X409000Y497600D03*
D23*
X431800Y428620D03*
M02*
