G04 EAGLE Gerber RS-274X export*
G75*
%MOMM*%
%FSLAX34Y34*%
%LPD*%
%INBottom Copper*%
%IPPOS*%
%AMOC8*
5,1,8,0,0,1.08239X$1,22.5*%
G01*
G04 Define Apertures*
%ADD10C,2.095500*%
%ADD11C,1.270000*%
%ADD12C,4.318000*%
%ADD13R,1.930400X1.930400*%
%ADD14C,1.930400*%
%ADD15C,0.152400*%
%ADD16C,0.756400*%
%ADD17C,0.254000*%
G36*
X3272369Y494008D02*
X52906Y492780D01*
X52743Y492798D01*
X52466Y492920D01*
X52258Y493140D01*
X52152Y493425D01*
X52166Y493728D01*
X52297Y494001D01*
X52524Y494202D01*
X56619Y496566D01*
X62234Y502181D01*
X66205Y509059D01*
X68260Y516729D01*
X68260Y524671D01*
X66205Y532341D01*
X62234Y539219D01*
X56619Y544834D01*
X49741Y548805D01*
X42071Y550860D01*
X34129Y550860D01*
X26459Y548805D01*
X19581Y544834D01*
X13966Y539219D01*
X11582Y535089D01*
X11486Y534958D01*
X11241Y534779D01*
X10946Y534709D01*
X10647Y534760D01*
X10392Y534923D01*
X10220Y535173D01*
X10160Y535470D01*
X10160Y950430D01*
X10177Y950592D01*
X10299Y950869D01*
X10520Y951077D01*
X10805Y951183D01*
X11107Y951169D01*
X11381Y951038D01*
X11582Y950811D01*
X13966Y946681D01*
X19581Y941066D01*
X26459Y937095D01*
X34129Y935040D01*
X42071Y935040D01*
X49741Y937095D01*
X56619Y941066D01*
X62234Y946681D01*
X66205Y953559D01*
X68260Y961229D01*
X68260Y969171D01*
X66205Y976841D01*
X62234Y983719D01*
X57391Y988561D01*
X57239Y988780D01*
X57169Y989076D01*
X57219Y989375D01*
X57383Y989630D01*
X57633Y989802D01*
X57930Y989862D01*
X3270974Y991087D01*
X3271136Y991070D01*
X3271413Y990948D01*
X3271621Y990727D01*
X3271727Y990443D01*
X3271713Y990140D01*
X3271582Y989866D01*
X3271355Y989665D01*
X3270781Y989334D01*
X3265166Y983719D01*
X3261195Y976841D01*
X3259140Y969171D01*
X3259140Y961229D01*
X3261195Y953559D01*
X3265166Y946681D01*
X3270781Y941066D01*
X3277659Y937095D01*
X3285329Y935040D01*
X3293271Y935040D01*
X3300941Y937095D01*
X3307819Y941066D01*
X3313434Y946681D01*
X3317405Y953559D01*
X3319352Y960826D01*
X3319524Y961141D01*
X3319769Y961321D01*
X3320064Y961391D01*
X3320363Y961340D01*
X3320618Y961176D01*
X3320790Y960926D01*
X3320850Y960629D01*
X3320850Y525271D01*
X3320765Y524922D01*
X3320576Y524686D01*
X3320309Y524542D01*
X3320007Y524513D01*
X3319718Y524605D01*
X3319487Y524802D01*
X3319352Y525074D01*
X3317405Y532341D01*
X3313434Y539219D01*
X3307819Y544834D01*
X3300941Y548805D01*
X3293271Y550860D01*
X3285329Y550860D01*
X3277659Y548805D01*
X3270781Y544834D01*
X3265166Y539219D01*
X3261195Y532341D01*
X3259140Y524671D01*
X3259140Y516729D01*
X3261195Y509059D01*
X3265166Y502181D01*
X3270781Y496566D01*
X3272750Y495430D01*
X3272881Y495334D01*
X3273060Y495089D01*
X3273130Y494794D01*
X3273080Y494495D01*
X3272916Y494240D01*
X3272666Y494068D01*
X3272369Y494008D01*
G37*
%LPC*%
G36*
X1683073Y607314D02*
X2794439Y607314D01*
X3099237Y912112D01*
X3099462Y912268D01*
X3099758Y912335D01*
X3100057Y912282D01*
X3100311Y912117D01*
X3100480Y911865D01*
X3101326Y909824D01*
X3104702Y906448D01*
X3109113Y904621D01*
X3113887Y904621D01*
X3118298Y906448D01*
X3121674Y909824D01*
X3123502Y914235D01*
X3123502Y938982D01*
X3123548Y939245D01*
X3123708Y939503D01*
X3123955Y939679D01*
X3124251Y939744D01*
X3124549Y939688D01*
X3124802Y939521D01*
X3138493Y925830D01*
X3149537Y925830D01*
X3149811Y925779D01*
X3150067Y925615D01*
X3150238Y925365D01*
X3150299Y925068D01*
X3150299Y914235D01*
X3152126Y909824D01*
X3155502Y906448D01*
X3159913Y904621D01*
X3164687Y904621D01*
X3169098Y906448D01*
X3172474Y909824D01*
X3174302Y914235D01*
X3174302Y939965D01*
X3172474Y944376D01*
X3169098Y947752D01*
X3164687Y949579D01*
X3159913Y949579D01*
X3155502Y947752D01*
X3152126Y944376D01*
X3150299Y939965D01*
X3150299Y931164D01*
X3150247Y930889D01*
X3150084Y930634D01*
X3149834Y930462D01*
X3149537Y930402D01*
X3140703Y930402D01*
X3140417Y930458D01*
X3140164Y930625D01*
X3117527Y953262D01*
X2867221Y953262D01*
X2856765Y942806D01*
X2856540Y942650D01*
X2856244Y942583D01*
X2855946Y942636D01*
X2855692Y942802D01*
X2855522Y943053D01*
X2854974Y944376D01*
X2851598Y947752D01*
X2847187Y949579D01*
X2842413Y949579D01*
X2838002Y947752D01*
X2834626Y944376D01*
X2833929Y942694D01*
X2833781Y942464D01*
X2833533Y942289D01*
X2833237Y942224D01*
X2832939Y942279D01*
X2832686Y942447D01*
X2821871Y953262D01*
X2685865Y953262D01*
X2663228Y930625D01*
X2662987Y930462D01*
X2662689Y930402D01*
X2552764Y930402D01*
X2552489Y930453D01*
X2552233Y930617D01*
X2552062Y930867D01*
X2552002Y931164D01*
X2552002Y939965D01*
X2550174Y944376D01*
X2546798Y947752D01*
X2542387Y949579D01*
X2537613Y949579D01*
X2533202Y947752D01*
X2529826Y944376D01*
X2527999Y939965D01*
X2527999Y914235D01*
X2529826Y909824D01*
X2533202Y906448D01*
X2537613Y904621D01*
X2542387Y904621D01*
X2546798Y906448D01*
X2550174Y909824D01*
X2552002Y914235D01*
X2552002Y925068D01*
X2552053Y925343D01*
X2552216Y925598D01*
X2552466Y925770D01*
X2552764Y925830D01*
X2664899Y925830D01*
X2678082Y939013D01*
X2678301Y939166D01*
X2678596Y939236D01*
X2678895Y939185D01*
X2679151Y939021D01*
X2679322Y938771D01*
X2679383Y938474D01*
X2679383Y927862D01*
X2705418Y927862D01*
X2705418Y940167D01*
X2703436Y944951D01*
X2700998Y947389D01*
X2700845Y947609D01*
X2700775Y947904D01*
X2700826Y948203D01*
X2700989Y948458D01*
X2701239Y948630D01*
X2701537Y948690D01*
X2735500Y948690D01*
X2735764Y948643D01*
X2736022Y948484D01*
X2736197Y948236D01*
X2736262Y947940D01*
X2736207Y947642D01*
X2736039Y947389D01*
X2733026Y944376D01*
X2731199Y939965D01*
X2731199Y918139D01*
X2731143Y917853D01*
X2730975Y917600D01*
X2451392Y638017D01*
X2451151Y637854D01*
X2450853Y637794D01*
X1721859Y637794D01*
X1721595Y637841D01*
X1721337Y638000D01*
X1721162Y638248D01*
X1721097Y638544D01*
X1721152Y638842D01*
X1721320Y639095D01*
X1722740Y640515D01*
X1722976Y640676D01*
X1723273Y640739D01*
X1723571Y640681D01*
X1725634Y639826D01*
X1728766Y639826D01*
X1731660Y641025D01*
X1733875Y643240D01*
X1735074Y646134D01*
X1735074Y649266D01*
X1733875Y652160D01*
X1731660Y654375D01*
X1728766Y655574D01*
X1725634Y655574D01*
X1722740Y654375D01*
X1720525Y652160D01*
X1719326Y649266D01*
X1719326Y646134D01*
X1719883Y644789D01*
X1719941Y644510D01*
X1719885Y644212D01*
X1719718Y643959D01*
X1716824Y641065D01*
X1716583Y640902D01*
X1716285Y640842D01*
X1707917Y640842D01*
X1707654Y640889D01*
X1707396Y641048D01*
X1707220Y641296D01*
X1707155Y641592D01*
X1707211Y641890D01*
X1707378Y642143D01*
X1708475Y643240D01*
X1709674Y646134D01*
X1709674Y649266D01*
X1708475Y652160D01*
X1706260Y654375D01*
X1703366Y655574D01*
X1700234Y655574D01*
X1697340Y654375D01*
X1695125Y652160D01*
X1693926Y649266D01*
X1693926Y646134D01*
X1695125Y643240D01*
X1696222Y642143D01*
X1696375Y641923D01*
X1696444Y641628D01*
X1696394Y641329D01*
X1696230Y641074D01*
X1695980Y640902D01*
X1695683Y640842D01*
X1682517Y640842D01*
X1682254Y640889D01*
X1681996Y641048D01*
X1681820Y641296D01*
X1681755Y641592D01*
X1681811Y641890D01*
X1681978Y642143D01*
X1683075Y643240D01*
X1684274Y646134D01*
X1684274Y649266D01*
X1683075Y652160D01*
X1680860Y654375D01*
X1677966Y655574D01*
X1674834Y655574D01*
X1671940Y654375D01*
X1669725Y652160D01*
X1668526Y649266D01*
X1668526Y646134D01*
X1669725Y643240D01*
X1670822Y642143D01*
X1670975Y641923D01*
X1671044Y641628D01*
X1670994Y641329D01*
X1670830Y641074D01*
X1670580Y640902D01*
X1670283Y640842D01*
X1658554Y640842D01*
X1658291Y640889D01*
X1658033Y641048D01*
X1657857Y641296D01*
X1657792Y641592D01*
X1657848Y641890D01*
X1658015Y642143D01*
X1658537Y642664D01*
X1659890Y645932D01*
X1659890Y646938D01*
X1650238Y646938D01*
X1650238Y648462D01*
X1659890Y648462D01*
X1659890Y649468D01*
X1658537Y652736D01*
X1656036Y655237D01*
X1652768Y656590D01*
X1652263Y656590D01*
X1651999Y656637D01*
X1651741Y656796D01*
X1651566Y657044D01*
X1651501Y657340D01*
X1651556Y657638D01*
X1651724Y657891D01*
X1895056Y901223D01*
X1895297Y901386D01*
X1895595Y901446D01*
X2018723Y901446D01*
X2055782Y938505D01*
X2056001Y938658D01*
X2056296Y938728D01*
X2056595Y938677D01*
X2056851Y938513D01*
X2057022Y938263D01*
X2057083Y937966D01*
X2057083Y927862D01*
X2083118Y927862D01*
X2083118Y940167D01*
X2081136Y944951D01*
X2078698Y947389D01*
X2078545Y947609D01*
X2078475Y947904D01*
X2078526Y948203D01*
X2078689Y948458D01*
X2078939Y948630D01*
X2079237Y948690D01*
X2095761Y948690D01*
X2096047Y948634D01*
X2096300Y948467D01*
X2108675Y936092D01*
X2108838Y935850D01*
X2108899Y935553D01*
X2108899Y914235D01*
X2110726Y909824D01*
X2114102Y906448D01*
X2118513Y904621D01*
X2123287Y904621D01*
X2127698Y906448D01*
X2131074Y909824D01*
X2132902Y914235D01*
X2132902Y939965D01*
X2131074Y944376D01*
X2127698Y947752D01*
X2123287Y949579D01*
X2118513Y949579D01*
X2114102Y947752D01*
X2110726Y944376D01*
X2110029Y942694D01*
X2109881Y942464D01*
X2109633Y942289D01*
X2109337Y942224D01*
X2109039Y942279D01*
X2108786Y942447D01*
X2100796Y950437D01*
X2100643Y950657D01*
X2100573Y950952D01*
X2100624Y951251D01*
X2100787Y951506D01*
X2101037Y951678D01*
X2101335Y951738D01*
X2194821Y951738D01*
X2195107Y951682D01*
X2195360Y951515D01*
X2210275Y936600D01*
X2210438Y936358D01*
X2210499Y936061D01*
X2210499Y914235D01*
X2212326Y909824D01*
X2215702Y906448D01*
X2220113Y904621D01*
X2224887Y904621D01*
X2229298Y906448D01*
X2232674Y909824D01*
X2234502Y914235D01*
X2234502Y939965D01*
X2232674Y944376D01*
X2229298Y947752D01*
X2224887Y949579D01*
X2220113Y949579D01*
X2215702Y947752D01*
X2212326Y944376D01*
X2211778Y943053D01*
X2211630Y942823D01*
X2211382Y942648D01*
X2211086Y942583D01*
X2210788Y942638D01*
X2210535Y942806D01*
X2197031Y956310D01*
X2062549Y956310D01*
X2036864Y930625D01*
X2036623Y930462D01*
X2036325Y930402D01*
X1930464Y930402D01*
X1930189Y930453D01*
X1929933Y930617D01*
X1929762Y930867D01*
X1929702Y931164D01*
X1929702Y939965D01*
X1927874Y944376D01*
X1924498Y947752D01*
X1920087Y949579D01*
X1915313Y949579D01*
X1910902Y947752D01*
X1907526Y944376D01*
X1905699Y939965D01*
X1905699Y931164D01*
X1905647Y930889D01*
X1905484Y930634D01*
X1905234Y930462D01*
X1904937Y930402D01*
X1897119Y930402D01*
X1896833Y930458D01*
X1896580Y930625D01*
X1873943Y953262D01*
X1609921Y953262D01*
X1599465Y942806D01*
X1599240Y942650D01*
X1598944Y942583D01*
X1598646Y942636D01*
X1598392Y942802D01*
X1598222Y943053D01*
X1597674Y944376D01*
X1594298Y947752D01*
X1589887Y949579D01*
X1585113Y949579D01*
X1580702Y947752D01*
X1577326Y944376D01*
X1575499Y939965D01*
X1575499Y914235D01*
X1577326Y909824D01*
X1580702Y906448D01*
X1585113Y904621D01*
X1589887Y904621D01*
X1594298Y906448D01*
X1597674Y909824D01*
X1599502Y914235D01*
X1599502Y936061D01*
X1599557Y936347D01*
X1599725Y936600D01*
X1611592Y948467D01*
X1611833Y948630D01*
X1612131Y948690D01*
X1756163Y948690D01*
X1756427Y948643D01*
X1756685Y948484D01*
X1756860Y948236D01*
X1756925Y947940D01*
X1756870Y947642D01*
X1756702Y947389D01*
X1754264Y944951D01*
X1752283Y940167D01*
X1752283Y927862D01*
X1778318Y927862D01*
X1778318Y940167D01*
X1776336Y944951D01*
X1773898Y947389D01*
X1773745Y947609D01*
X1773675Y947904D01*
X1773726Y948203D01*
X1773889Y948458D01*
X1774139Y948630D01*
X1774437Y948690D01*
X1808400Y948690D01*
X1808664Y948643D01*
X1808922Y948484D01*
X1809097Y948236D01*
X1809162Y947940D01*
X1809107Y947642D01*
X1808939Y947389D01*
X1805926Y944376D01*
X1804099Y939965D01*
X1804099Y919155D01*
X1804043Y918869D01*
X1803875Y918616D01*
X1779308Y894049D01*
X1779067Y893886D01*
X1778769Y893826D01*
X1538293Y893826D01*
X1291875Y647408D01*
X1291655Y647255D01*
X1291360Y647185D01*
X1291061Y647236D01*
X1290806Y647399D01*
X1290634Y647649D01*
X1290574Y647947D01*
X1290574Y649266D01*
X1289375Y652160D01*
X1287160Y654375D01*
X1284266Y655574D01*
X1281134Y655574D01*
X1278240Y654375D01*
X1276025Y652160D01*
X1274826Y649266D01*
X1274826Y646134D01*
X1276025Y643240D01*
X1278240Y641025D01*
X1281134Y639826D01*
X1282453Y639826D01*
X1282717Y639779D01*
X1282975Y639620D01*
X1283150Y639372D01*
X1283215Y639076D01*
X1283160Y638778D01*
X1282992Y638525D01*
X1274101Y629633D01*
X1273865Y629473D01*
X1273568Y629410D01*
X1273270Y629468D01*
X1271566Y630174D01*
X1268434Y630174D01*
X1265540Y628975D01*
X1263325Y626760D01*
X1262126Y623866D01*
X1262126Y620734D01*
X1263325Y617840D01*
X1264930Y616235D01*
X1265083Y616015D01*
X1265152Y615720D01*
X1265102Y615421D01*
X1264938Y615166D01*
X1264688Y614994D01*
X1264391Y614934D01*
X1034309Y614934D01*
X1034046Y614981D01*
X1033788Y615140D01*
X1033612Y615388D01*
X1033547Y615684D01*
X1033603Y615982D01*
X1033770Y616235D01*
X1035375Y617840D01*
X1036574Y620734D01*
X1036574Y623866D01*
X1035375Y626760D01*
X1033160Y628975D01*
X1030266Y630174D01*
X1027134Y630174D01*
X1024240Y628975D01*
X1022025Y626760D01*
X1020826Y623866D01*
X1020826Y620734D01*
X1022025Y617840D01*
X1023630Y616235D01*
X1023783Y616015D01*
X1023852Y615720D01*
X1023802Y615421D01*
X1023638Y615166D01*
X1023388Y614994D01*
X1023091Y614934D01*
X1008909Y614934D01*
X1008646Y614981D01*
X1008388Y615140D01*
X1008212Y615388D01*
X1008147Y615684D01*
X1008203Y615982D01*
X1008370Y616235D01*
X1009975Y617840D01*
X1011174Y620734D01*
X1011174Y623866D01*
X1009975Y626760D01*
X1007760Y628975D01*
X1004866Y630174D01*
X1001734Y630174D01*
X998840Y628975D01*
X996625Y626760D01*
X995426Y623866D01*
X995426Y620734D01*
X996625Y617840D01*
X998230Y616235D01*
X998383Y616015D01*
X998452Y615720D01*
X998402Y615421D01*
X998238Y615166D01*
X997988Y614994D01*
X997691Y614934D01*
X983509Y614934D01*
X983246Y614981D01*
X982988Y615140D01*
X982812Y615388D01*
X982747Y615684D01*
X982803Y615982D01*
X982970Y616235D01*
X984575Y617840D01*
X985774Y620734D01*
X985774Y623866D01*
X984575Y626760D01*
X982360Y628975D01*
X979466Y630174D01*
X976334Y630174D01*
X973440Y628975D01*
X971225Y626760D01*
X970026Y623866D01*
X970026Y620734D01*
X971225Y617840D01*
X972830Y616235D01*
X972983Y616015D01*
X973052Y615720D01*
X973002Y615421D01*
X972838Y615166D01*
X972588Y614994D01*
X972291Y614934D01*
X958109Y614934D01*
X957846Y614981D01*
X957588Y615140D01*
X957412Y615388D01*
X957347Y615684D01*
X957403Y615982D01*
X957570Y616235D01*
X959175Y617840D01*
X960374Y620734D01*
X960374Y623866D01*
X959175Y626760D01*
X956960Y628975D01*
X954066Y630174D01*
X950934Y630174D01*
X948040Y628975D01*
X945825Y626760D01*
X944626Y623866D01*
X944626Y622547D01*
X944579Y622283D01*
X944420Y622025D01*
X944172Y621850D01*
X943876Y621785D01*
X943578Y621840D01*
X943325Y622008D01*
X865055Y700278D01*
X467305Y700278D01*
X467019Y700334D01*
X466767Y700501D01*
X463970Y703298D01*
X459574Y703298D01*
X456466Y700190D01*
X456466Y695794D01*
X459574Y692686D01*
X463970Y692686D01*
X466767Y695483D01*
X467008Y695646D01*
X467305Y695706D01*
X862845Y695706D01*
X863131Y695650D01*
X863384Y695483D01*
X948505Y610362D01*
X1616387Y610362D01*
X1629125Y623100D01*
X1629345Y623253D01*
X1629640Y623323D01*
X1629939Y623272D01*
X1630194Y623109D01*
X1630366Y622859D01*
X1630426Y622561D01*
X1630426Y620734D01*
X1631625Y617840D01*
X1633840Y615625D01*
X1636734Y614426D01*
X1639866Y614426D01*
X1642760Y615625D01*
X1644975Y617840D01*
X1646102Y620560D01*
X1646259Y620798D01*
X1646509Y620970D01*
X1646806Y621030D01*
X1652963Y621030D01*
X1654525Y622592D01*
X1654745Y622745D01*
X1655040Y622815D01*
X1655339Y622764D01*
X1655594Y622601D01*
X1655766Y622351D01*
X1655826Y622053D01*
X1655826Y620734D01*
X1657025Y617840D01*
X1659240Y615625D01*
X1662134Y614426D01*
X1665266Y614426D01*
X1668160Y615625D01*
X1670375Y617840D01*
X1670575Y618322D01*
X1670723Y618552D01*
X1670971Y618727D01*
X1671267Y618792D01*
X1671565Y618737D01*
X1671818Y618569D01*
X1683073Y607314D01*
G37*
G36*
X256417Y712324D02*
X276983Y712324D01*
X277876Y713217D01*
X277876Y733783D01*
X276983Y734676D01*
X269748Y734676D01*
X269473Y734727D01*
X269218Y734891D01*
X269046Y735141D01*
X268986Y735438D01*
X268986Y758952D01*
X269037Y759227D01*
X269201Y759482D01*
X269451Y759654D01*
X269748Y759714D01*
X381947Y759714D01*
X383286Y761053D01*
X383286Y885444D01*
X383337Y885719D01*
X383501Y885974D01*
X383751Y886146D01*
X384048Y886206D01*
X589211Y886206D01*
X627088Y924083D01*
X627329Y924246D01*
X627627Y924306D01*
X634937Y924306D01*
X635211Y924255D01*
X635467Y924091D01*
X635638Y923841D01*
X635699Y923544D01*
X635699Y914235D01*
X637526Y909824D01*
X640902Y906448D01*
X645313Y904621D01*
X650087Y904621D01*
X654498Y906448D01*
X657874Y909824D01*
X659702Y914235D01*
X659702Y925068D01*
X659753Y925343D01*
X659916Y925598D01*
X660166Y925770D01*
X660464Y925830D01*
X785807Y925830D01*
X798482Y938505D01*
X798701Y938658D01*
X798996Y938728D01*
X799295Y938677D01*
X799551Y938513D01*
X799722Y938263D01*
X799783Y937966D01*
X799783Y927862D01*
X825818Y927862D01*
X825818Y940167D01*
X823836Y944951D01*
X821398Y947389D01*
X821245Y947609D01*
X821175Y947904D01*
X821226Y948203D01*
X821389Y948458D01*
X821639Y948630D01*
X821937Y948690D01*
X855900Y948690D01*
X856164Y948643D01*
X856422Y948484D01*
X856597Y948236D01*
X856662Y947940D01*
X856607Y947642D01*
X856439Y947389D01*
X853426Y944376D01*
X851599Y939965D01*
X851599Y914235D01*
X853426Y909824D01*
X856802Y906448D01*
X861213Y904621D01*
X865987Y904621D01*
X870398Y906448D01*
X873774Y909824D01*
X875602Y914235D01*
X875602Y939965D01*
X873774Y944376D01*
X870761Y947389D01*
X870608Y947609D01*
X870538Y947904D01*
X870589Y948203D01*
X870752Y948458D01*
X871003Y948630D01*
X871300Y948690D01*
X906700Y948690D01*
X906964Y948643D01*
X907222Y948484D01*
X907397Y948236D01*
X907462Y947940D01*
X907407Y947642D01*
X907239Y947389D01*
X904226Y944376D01*
X902399Y939965D01*
X902399Y914235D01*
X904226Y909824D01*
X907602Y906448D01*
X912013Y904621D01*
X916787Y904621D01*
X921198Y906448D01*
X924574Y909824D01*
X926402Y914235D01*
X926402Y939965D01*
X924574Y944376D01*
X921561Y947389D01*
X921408Y947609D01*
X921338Y947904D01*
X921389Y948203D01*
X921552Y948458D01*
X921803Y948630D01*
X922100Y948690D01*
X940569Y948690D01*
X940855Y948634D01*
X941108Y948467D01*
X952975Y936600D01*
X953138Y936358D01*
X953199Y936061D01*
X953199Y914235D01*
X955026Y909824D01*
X958402Y906448D01*
X962813Y904621D01*
X967587Y904621D01*
X971998Y906448D01*
X975374Y909824D01*
X977202Y914235D01*
X977202Y939965D01*
X975374Y944376D01*
X971998Y947752D01*
X967587Y949579D01*
X962813Y949579D01*
X958402Y947752D01*
X955026Y944376D01*
X954478Y943053D01*
X954330Y942823D01*
X954082Y942648D01*
X953786Y942583D01*
X953488Y942638D01*
X953235Y942806D01*
X942779Y953262D01*
X806773Y953262D01*
X784136Y930625D01*
X783895Y930462D01*
X783597Y930402D01*
X660464Y930402D01*
X660189Y930453D01*
X659933Y930617D01*
X659762Y930867D01*
X659702Y931164D01*
X659702Y939965D01*
X657874Y944376D01*
X654498Y947752D01*
X650087Y949579D01*
X645313Y949579D01*
X640902Y947752D01*
X637526Y944376D01*
X635699Y939965D01*
X635699Y929640D01*
X635647Y929365D01*
X635484Y929110D01*
X635234Y928938D01*
X634937Y928878D01*
X625417Y928878D01*
X610202Y913663D01*
X609983Y913510D01*
X609688Y913440D01*
X609389Y913491D01*
X609133Y913655D01*
X608962Y913905D01*
X608902Y914202D01*
X608902Y939965D01*
X607074Y944376D01*
X603698Y947752D01*
X599287Y949579D01*
X594513Y949579D01*
X590102Y947752D01*
X586726Y944376D01*
X584899Y939965D01*
X584899Y914235D01*
X586726Y909824D01*
X590102Y906448D01*
X594513Y904621D01*
X599320Y904621D01*
X599584Y904574D01*
X599842Y904415D01*
X600017Y904167D01*
X600082Y903871D01*
X600027Y903573D01*
X599859Y903320D01*
X587540Y891001D01*
X587299Y890838D01*
X587001Y890778D01*
X382263Y890778D01*
X381977Y890834D01*
X381724Y891001D01*
X355125Y917600D01*
X354962Y917842D01*
X354902Y918139D01*
X354902Y939965D01*
X353074Y944376D01*
X349698Y947752D01*
X345287Y949579D01*
X340513Y949579D01*
X336102Y947752D01*
X332726Y944376D01*
X330899Y939965D01*
X330899Y914235D01*
X332726Y909824D01*
X336102Y906448D01*
X340513Y904621D01*
X345287Y904621D01*
X349698Y906448D01*
X353074Y909824D01*
X353622Y911147D01*
X353771Y911377D01*
X354018Y911552D01*
X354314Y911617D01*
X354612Y911562D01*
X354865Y911394D01*
X378491Y887768D01*
X378654Y887527D01*
X378714Y887229D01*
X378714Y765048D01*
X378663Y764773D01*
X378499Y764518D01*
X378249Y764346D01*
X377952Y764286D01*
X99230Y764286D01*
X98950Y764339D01*
X98696Y764505D01*
X98526Y764756D01*
X96852Y768798D01*
X93476Y772174D01*
X89065Y774002D01*
X63335Y774002D01*
X58924Y772174D01*
X55548Y768798D01*
X53721Y764387D01*
X53721Y759613D01*
X55548Y755202D01*
X58924Y751826D01*
X63335Y749999D01*
X89065Y749999D01*
X93476Y751826D01*
X96852Y755202D01*
X98526Y759244D01*
X98683Y759482D01*
X98933Y759654D01*
X99230Y759714D01*
X263652Y759714D01*
X263927Y759663D01*
X264182Y759499D01*
X264354Y759249D01*
X264414Y758952D01*
X264414Y735438D01*
X264363Y735163D01*
X264199Y734908D01*
X263949Y734736D01*
X263652Y734676D01*
X256417Y734676D01*
X255524Y733783D01*
X255524Y713217D01*
X256417Y712324D01*
G37*
G36*
X482283Y927862D02*
X494538Y927862D01*
X494538Y950595D01*
X492711Y950595D01*
X487926Y948613D01*
X484264Y944951D01*
X482283Y940167D01*
X482283Y927862D01*
G37*
G36*
X1104583Y927862D02*
X1116838Y927862D01*
X1116838Y950595D01*
X1115011Y950595D01*
X1110226Y948613D01*
X1106564Y944951D01*
X1104583Y940167D01*
X1104583Y927862D01*
G37*
G36*
X1118362Y927862D02*
X1130618Y927862D01*
X1130618Y940167D01*
X1128636Y944951D01*
X1124974Y948613D01*
X1120189Y950595D01*
X1118362Y950595D01*
X1118362Y927862D01*
G37*
G36*
X496062Y927862D02*
X508318Y927862D01*
X508318Y940167D01*
X506336Y944951D01*
X502674Y948613D01*
X497889Y950595D01*
X496062Y950595D01*
X496062Y927862D01*
G37*
G36*
X2388362Y927862D02*
X2400618Y927862D01*
X2400618Y940167D01*
X2398636Y944951D01*
X2394974Y948613D01*
X2390189Y950595D01*
X2388362Y950595D01*
X2388362Y927862D01*
G37*
G36*
X1435862Y927862D02*
X1448118Y927862D01*
X1448118Y940167D01*
X1446136Y944951D01*
X1442474Y948613D01*
X1437689Y950595D01*
X1435862Y950595D01*
X1435862Y927862D01*
G37*
G36*
X191262Y927862D02*
X203518Y927862D01*
X203518Y940167D01*
X201536Y944951D01*
X197874Y948613D01*
X193089Y950595D01*
X191262Y950595D01*
X191262Y927862D01*
G37*
G36*
X177483Y927862D02*
X189738Y927862D01*
X189738Y950595D01*
X187911Y950595D01*
X183126Y948613D01*
X179464Y944951D01*
X177483Y940167D01*
X177483Y927862D01*
G37*
G36*
X2374583Y927862D02*
X2386838Y927862D01*
X2386838Y950595D01*
X2385011Y950595D01*
X2380226Y948613D01*
X2376564Y944951D01*
X2374583Y940167D01*
X2374583Y927862D01*
G37*
G36*
X1422083Y927862D02*
X1434338Y927862D01*
X1434338Y950595D01*
X1432511Y950595D01*
X1427726Y948613D01*
X1424064Y944951D01*
X1422083Y940167D01*
X1422083Y927862D01*
G37*
G36*
X2169313Y904621D02*
X2174087Y904621D01*
X2178498Y906448D01*
X2181874Y909824D01*
X2183702Y914235D01*
X2183702Y939965D01*
X2181874Y944376D01*
X2178498Y947752D01*
X2174087Y949579D01*
X2169313Y949579D01*
X2164902Y947752D01*
X2161526Y944376D01*
X2159699Y939965D01*
X2159699Y914235D01*
X2161526Y909824D01*
X2164902Y906448D01*
X2169313Y904621D01*
G37*
G36*
X1534313Y904621D02*
X1539087Y904621D01*
X1543498Y906448D01*
X1546874Y909824D01*
X1548702Y914235D01*
X1548702Y939965D01*
X1546874Y944376D01*
X1543498Y947752D01*
X1539087Y949579D01*
X1534313Y949579D01*
X1529902Y947752D01*
X1526526Y944376D01*
X1524699Y939965D01*
X1524699Y914235D01*
X1526526Y909824D01*
X1529902Y906448D01*
X1534313Y904621D01*
G37*
G36*
X289713Y904621D02*
X294487Y904621D01*
X298898Y906448D01*
X302274Y909824D01*
X304102Y914235D01*
X304102Y939965D01*
X302274Y944376D01*
X298898Y947752D01*
X294487Y949579D01*
X289713Y949579D01*
X285302Y947752D01*
X281926Y944376D01*
X280099Y939965D01*
X280099Y914235D01*
X281926Y909824D01*
X285302Y906448D01*
X289713Y904621D01*
G37*
G36*
X1267613Y904621D02*
X1272387Y904621D01*
X1276798Y906448D01*
X1280174Y909824D01*
X1282002Y914235D01*
X1282002Y939965D01*
X1280174Y944376D01*
X1276798Y947752D01*
X1272387Y949579D01*
X1267613Y949579D01*
X1263202Y947752D01*
X1259826Y944376D01*
X1257999Y939965D01*
X1257999Y914235D01*
X1259826Y909824D01*
X1263202Y906448D01*
X1267613Y904621D01*
G37*
G36*
X2486813Y904621D02*
X2491587Y904621D01*
X2495998Y906448D01*
X2499374Y909824D01*
X2501202Y914235D01*
X2501202Y939965D01*
X2499374Y944376D01*
X2495998Y947752D01*
X2491587Y949579D01*
X2486813Y949579D01*
X2482402Y947752D01*
X2479026Y944376D01*
X2477199Y939965D01*
X2477199Y914235D01*
X2479026Y909824D01*
X2482402Y906448D01*
X2486813Y904621D01*
G37*
G36*
X1483513Y904621D02*
X1488287Y904621D01*
X1492698Y906448D01*
X1496074Y909824D01*
X1497902Y914235D01*
X1497902Y939965D01*
X1496074Y944376D01*
X1492698Y947752D01*
X1488287Y949579D01*
X1483513Y949579D01*
X1479102Y947752D01*
X1475726Y944376D01*
X1473899Y939965D01*
X1473899Y914235D01*
X1475726Y909824D01*
X1479102Y906448D01*
X1483513Y904621D01*
G37*
G36*
X238913Y904621D02*
X243687Y904621D01*
X248098Y906448D01*
X251474Y909824D01*
X253302Y914235D01*
X253302Y939965D01*
X251474Y944376D01*
X248098Y947752D01*
X243687Y949579D01*
X238913Y949579D01*
X234502Y947752D01*
X231126Y944376D01*
X229299Y939965D01*
X229299Y914235D01*
X231126Y909824D01*
X234502Y906448D01*
X238913Y904621D01*
G37*
G36*
X543713Y904621D02*
X548487Y904621D01*
X552898Y906448D01*
X556274Y909824D01*
X558102Y914235D01*
X558102Y939965D01*
X556274Y944376D01*
X552898Y947752D01*
X548487Y949579D01*
X543713Y949579D01*
X539302Y947752D01*
X535926Y944376D01*
X534099Y939965D01*
X534099Y914235D01*
X535926Y909824D01*
X539302Y906448D01*
X543713Y904621D01*
G37*
G36*
X963634Y639826D02*
X966766Y639826D01*
X969660Y641025D01*
X971875Y643240D01*
X973074Y646134D01*
X973074Y649266D01*
X971875Y652160D01*
X969660Y654375D01*
X968972Y654660D01*
X968734Y654817D01*
X968562Y655067D01*
X968502Y655364D01*
X968502Y724161D01*
X968558Y724447D01*
X968725Y724700D01*
X1156137Y912112D01*
X1156362Y912268D01*
X1156658Y912335D01*
X1156957Y912282D01*
X1157211Y912117D01*
X1157380Y911865D01*
X1158226Y909824D01*
X1161602Y906448D01*
X1166013Y904621D01*
X1170787Y904621D01*
X1175198Y906448D01*
X1178574Y909824D01*
X1180402Y914235D01*
X1180402Y939965D01*
X1178574Y944376D01*
X1175198Y947752D01*
X1170787Y949579D01*
X1166013Y949579D01*
X1161602Y947752D01*
X1158226Y944376D01*
X1156399Y939965D01*
X1156399Y919155D01*
X1156343Y918869D01*
X1156175Y918616D01*
X963930Y726371D01*
X963930Y656206D01*
X963877Y655926D01*
X963711Y655671D01*
X963460Y655502D01*
X960740Y654375D01*
X958525Y652160D01*
X957326Y649266D01*
X957326Y646134D01*
X958525Y643240D01*
X960740Y641025D01*
X963634Y639826D01*
G37*
G36*
X989034Y639826D02*
X992166Y639826D01*
X995060Y641025D01*
X997275Y643240D01*
X998474Y646134D01*
X998474Y649266D01*
X997275Y652160D01*
X995060Y654375D01*
X993356Y655081D01*
X993118Y655238D01*
X992946Y655488D01*
X992886Y655785D01*
X992886Y696729D01*
X992942Y697015D01*
X993109Y697268D01*
X1207235Y911394D01*
X1207460Y911550D01*
X1207756Y911617D01*
X1208054Y911564D01*
X1208308Y911398D01*
X1208478Y911147D01*
X1209026Y909824D01*
X1212402Y906448D01*
X1216813Y904621D01*
X1221587Y904621D01*
X1225998Y906448D01*
X1229374Y909824D01*
X1231202Y914235D01*
X1231202Y939965D01*
X1229374Y944376D01*
X1225998Y947752D01*
X1221587Y949579D01*
X1216813Y949579D01*
X1212402Y947752D01*
X1209026Y944376D01*
X1207199Y939965D01*
X1207199Y918139D01*
X1207143Y917853D01*
X1206975Y917600D01*
X988314Y698939D01*
X988314Y655785D01*
X988261Y655505D01*
X988095Y655251D01*
X987844Y655081D01*
X986140Y654375D01*
X983925Y652160D01*
X982726Y649266D01*
X982726Y646134D01*
X983925Y643240D01*
X986140Y641025D01*
X989034Y639826D01*
G37*
G36*
X2436013Y904621D02*
X2440787Y904621D01*
X2445198Y906448D01*
X2448574Y909824D01*
X2450402Y914235D01*
X2450402Y939965D01*
X2448574Y944376D01*
X2445198Y947752D01*
X2440787Y949579D01*
X2436013Y949579D01*
X2431602Y947752D01*
X2428226Y944376D01*
X2426399Y939965D01*
X2426399Y914235D01*
X2428226Y909824D01*
X2431602Y906448D01*
X2436013Y904621D01*
G37*
G36*
X2388362Y903605D02*
X2390189Y903605D01*
X2394974Y905587D01*
X2398636Y909249D01*
X2400618Y914033D01*
X2400618Y926338D01*
X2388362Y926338D01*
X2388362Y903605D01*
G37*
G36*
X810211Y903605D02*
X812038Y903605D01*
X812038Y926338D01*
X799783Y926338D01*
X799783Y914033D01*
X801764Y909249D01*
X805426Y905587D01*
X810211Y903605D01*
G37*
G36*
X813562Y903605D02*
X815389Y903605D01*
X820174Y905587D01*
X823836Y909249D01*
X825818Y914033D01*
X825818Y926338D01*
X813562Y926338D01*
X813562Y903605D01*
G37*
G36*
X1115011Y903605D02*
X1116838Y903605D01*
X1116838Y926338D01*
X1104583Y926338D01*
X1104583Y914033D01*
X1106564Y909249D01*
X1110226Y905587D01*
X1115011Y903605D01*
G37*
G36*
X2689811Y903605D02*
X2691638Y903605D01*
X2691638Y926338D01*
X2679383Y926338D01*
X2679383Y914033D01*
X2681364Y909249D01*
X2685026Y905587D01*
X2689811Y903605D01*
G37*
G36*
X2067511Y903605D02*
X2069338Y903605D01*
X2069338Y926338D01*
X2057083Y926338D01*
X2057083Y914033D01*
X2059064Y909249D01*
X2062726Y905587D01*
X2067511Y903605D01*
G37*
G36*
X1118362Y903605D02*
X1120189Y903605D01*
X1124974Y905587D01*
X1128636Y909249D01*
X1130618Y914033D01*
X1130618Y926338D01*
X1118362Y926338D01*
X1118362Y903605D01*
G37*
G36*
X1432511Y903605D02*
X1434338Y903605D01*
X1434338Y926338D01*
X1422083Y926338D01*
X1422083Y914033D01*
X1424064Y909249D01*
X1427726Y905587D01*
X1432511Y903605D01*
G37*
G36*
X1435862Y903605D02*
X1437689Y903605D01*
X1442474Y905587D01*
X1446136Y909249D01*
X1448118Y914033D01*
X1448118Y926338D01*
X1435862Y926338D01*
X1435862Y903605D01*
G37*
G36*
X496062Y903605D02*
X497889Y903605D01*
X502674Y905587D01*
X506336Y909249D01*
X508318Y914033D01*
X508318Y926338D01*
X496062Y926338D01*
X496062Y903605D01*
G37*
G36*
X1762711Y903605D02*
X1764538Y903605D01*
X1764538Y926338D01*
X1752283Y926338D01*
X1752283Y914033D01*
X1754264Y909249D01*
X1757926Y905587D01*
X1762711Y903605D01*
G37*
G36*
X2693162Y903605D02*
X2694989Y903605D01*
X2699774Y905587D01*
X2703436Y909249D01*
X2705418Y914033D01*
X2705418Y926338D01*
X2693162Y926338D01*
X2693162Y903605D01*
G37*
G36*
X2070862Y903605D02*
X2072689Y903605D01*
X2077474Y905587D01*
X2081136Y909249D01*
X2083118Y914033D01*
X2083118Y926338D01*
X2070862Y926338D01*
X2070862Y903605D01*
G37*
G36*
X187911Y903605D02*
X189738Y903605D01*
X189738Y926338D01*
X177483Y926338D01*
X177483Y914033D01*
X179464Y909249D01*
X183126Y905587D01*
X187911Y903605D01*
G37*
G36*
X191262Y903605D02*
X193089Y903605D01*
X197874Y905587D01*
X201536Y909249D01*
X203518Y914033D01*
X203518Y926338D01*
X191262Y926338D01*
X191262Y903605D01*
G37*
G36*
X492711Y903605D02*
X494538Y903605D01*
X494538Y926338D01*
X482283Y926338D01*
X482283Y914033D01*
X484264Y909249D01*
X487926Y905587D01*
X492711Y903605D01*
G37*
G36*
X1766062Y903605D02*
X1767889Y903605D01*
X1772674Y905587D01*
X1776336Y909249D01*
X1778318Y914033D01*
X1778318Y926338D01*
X1766062Y926338D01*
X1766062Y903605D01*
G37*
G36*
X2385011Y903605D02*
X2386838Y903605D01*
X2386838Y926338D01*
X2374583Y926338D01*
X2374583Y914033D01*
X2376564Y909249D01*
X2380226Y905587D01*
X2385011Y903605D01*
G37*
G36*
X63335Y699199D02*
X89065Y699199D01*
X93476Y701026D01*
X96852Y704402D01*
X98679Y708813D01*
X98679Y713587D01*
X96852Y717998D01*
X93476Y721374D01*
X89065Y723202D01*
X63335Y723202D01*
X58924Y721374D01*
X55548Y717998D01*
X53721Y713587D01*
X53721Y708813D01*
X55548Y704402D01*
X58924Y701026D01*
X63335Y699199D01*
G37*
G36*
X254508Y674262D02*
X265938Y674262D01*
X265938Y685692D01*
X264275Y685692D01*
X259794Y683836D01*
X256364Y680406D01*
X254508Y675925D01*
X254508Y674262D01*
G37*
G36*
X267462Y674262D02*
X278892Y674262D01*
X278892Y675925D01*
X277036Y680406D01*
X273606Y683836D01*
X269125Y685692D01*
X267462Y685692D01*
X267462Y674262D01*
G37*
G36*
X52705Y661162D02*
X75438Y661162D01*
X75438Y673418D01*
X63133Y673418D01*
X58349Y671436D01*
X54687Y667774D01*
X52705Y662989D01*
X52705Y661162D01*
G37*
G36*
X76962Y661162D02*
X99695Y661162D01*
X99695Y662989D01*
X97713Y667774D01*
X94051Y671436D01*
X89267Y673418D01*
X76962Y673418D01*
X76962Y661162D01*
G37*
G36*
X267462Y661308D02*
X269125Y661308D01*
X273606Y663164D01*
X277036Y666594D01*
X278892Y671075D01*
X278892Y672738D01*
X267462Y672738D01*
X267462Y661308D01*
G37*
G36*
X264275Y661308D02*
X265938Y661308D01*
X265938Y672738D01*
X254508Y672738D01*
X254508Y671075D01*
X256364Y666594D01*
X259794Y663164D01*
X264275Y661308D01*
G37*
G36*
X76962Y647383D02*
X89267Y647383D01*
X94051Y649364D01*
X97713Y653026D01*
X99695Y657811D01*
X99695Y659638D01*
X76962Y659638D01*
X76962Y647383D01*
G37*
G36*
X63133Y647383D02*
X75438Y647383D01*
X75438Y659638D01*
X52705Y659638D01*
X52705Y657811D01*
X54687Y653026D01*
X58349Y649364D01*
X63133Y647383D01*
G37*
G36*
X1039834Y639826D02*
X1042966Y639826D01*
X1045860Y641025D01*
X1048075Y643240D01*
X1049274Y646134D01*
X1049274Y649266D01*
X1048075Y652160D01*
X1045860Y654375D01*
X1042966Y655574D01*
X1039834Y655574D01*
X1036940Y654375D01*
X1034725Y652160D01*
X1033526Y649266D01*
X1033526Y646134D01*
X1034725Y643240D01*
X1036940Y641025D01*
X1039834Y639826D01*
G37*
G36*
X1014434Y639826D02*
X1017566Y639826D01*
X1020460Y641025D01*
X1022675Y643240D01*
X1023874Y646134D01*
X1023874Y649266D01*
X1022675Y652160D01*
X1020460Y654375D01*
X1017566Y655574D01*
X1014434Y655574D01*
X1011540Y654375D01*
X1009325Y652160D01*
X1008126Y649266D01*
X1008126Y646134D01*
X1009325Y643240D01*
X1011540Y641025D01*
X1014434Y639826D01*
G37*
G36*
X1621002Y535686D02*
X1630198Y535686D01*
X1638693Y539205D01*
X1645195Y545707D01*
X1648714Y554202D01*
X1648714Y563398D01*
X1645195Y571893D01*
X1638693Y578395D01*
X1630198Y581914D01*
X1621002Y581914D01*
X1612507Y578395D01*
X1606005Y571893D01*
X1602486Y563398D01*
X1602486Y554202D01*
X1606005Y545707D01*
X1612507Y539205D01*
X1621002Y535686D01*
G37*
G36*
X1367002Y535686D02*
X1376198Y535686D01*
X1384693Y539205D01*
X1391195Y545707D01*
X1394714Y554202D01*
X1394714Y563398D01*
X1391195Y571893D01*
X1384693Y578395D01*
X1376198Y581914D01*
X1367002Y581914D01*
X1358507Y578395D01*
X1352005Y571893D01*
X1348486Y563398D01*
X1348486Y554202D01*
X1352005Y545707D01*
X1358507Y539205D01*
X1367002Y535686D01*
G37*
G36*
X1252702Y535686D02*
X1261898Y535686D01*
X1270393Y539205D01*
X1276895Y545707D01*
X1280414Y554202D01*
X1280414Y563398D01*
X1276895Y571893D01*
X1270393Y578395D01*
X1261898Y581914D01*
X1252702Y581914D01*
X1244207Y578395D01*
X1237705Y571893D01*
X1234186Y563398D01*
X1234186Y554202D01*
X1237705Y545707D01*
X1244207Y539205D01*
X1252702Y535686D01*
G37*
G36*
X1049502Y535686D02*
X1058698Y535686D01*
X1067193Y539205D01*
X1073695Y545707D01*
X1077214Y554202D01*
X1077214Y563398D01*
X1073695Y571893D01*
X1067193Y578395D01*
X1058698Y581914D01*
X1049502Y581914D01*
X1041007Y578395D01*
X1034505Y571893D01*
X1030986Y563398D01*
X1030986Y554202D01*
X1034505Y545707D01*
X1041007Y539205D01*
X1049502Y535686D01*
G37*
G36*
X1735302Y535686D02*
X1744498Y535686D01*
X1752993Y539205D01*
X1759495Y545707D01*
X1763014Y554202D01*
X1763014Y563398D01*
X1759495Y571893D01*
X1752993Y578395D01*
X1744498Y581914D01*
X1735302Y581914D01*
X1726807Y578395D01*
X1720305Y571893D01*
X1716786Y563398D01*
X1716786Y554202D01*
X1720305Y545707D01*
X1726807Y539205D01*
X1735302Y535686D01*
G37*
G36*
X935202Y535686D02*
X944398Y535686D01*
X952893Y539205D01*
X959395Y545707D01*
X962914Y554202D01*
X962914Y563398D01*
X959395Y571893D01*
X952893Y578395D01*
X944398Y581914D01*
X935202Y581914D01*
X926707Y578395D01*
X920205Y571893D01*
X916686Y563398D01*
X916686Y554202D01*
X920205Y545707D01*
X926707Y539205D01*
X935202Y535686D01*
G37*
%LPD*%
G36*
X2745283Y614994D02*
X2744985Y614934D01*
X1720109Y614934D01*
X1719846Y614981D01*
X1719588Y615140D01*
X1719412Y615388D01*
X1719347Y615684D01*
X1719403Y615982D01*
X1719570Y616235D01*
X1721175Y617840D01*
X1722302Y620560D01*
X1722459Y620798D01*
X1722709Y620970D01*
X1723006Y621030D01*
X2491163Y621030D01*
X2781886Y911753D01*
X2782111Y911909D01*
X2782407Y911976D01*
X2782705Y911923D01*
X2782959Y911758D01*
X2783129Y911506D01*
X2783826Y909824D01*
X2787202Y906448D01*
X2791613Y904621D01*
X2796387Y904621D01*
X2800798Y906448D01*
X2804174Y909824D01*
X2806002Y914235D01*
X2806002Y939965D01*
X2804174Y944376D01*
X2801161Y947389D01*
X2801008Y947609D01*
X2800938Y947904D01*
X2800989Y948203D01*
X2801152Y948458D01*
X2801403Y948630D01*
X2801700Y948690D01*
X2819661Y948690D01*
X2819947Y948634D01*
X2820200Y948467D01*
X2832575Y936092D01*
X2832738Y935850D01*
X2832799Y935553D01*
X2832799Y914235D01*
X2834626Y909824D01*
X2838002Y906448D01*
X2842413Y904621D01*
X2847187Y904621D01*
X2851598Y906448D01*
X2854974Y909824D01*
X2856802Y914235D01*
X2856802Y936061D01*
X2856857Y936347D01*
X2857025Y936600D01*
X2868892Y948467D01*
X2869133Y948630D01*
X2869431Y948690D01*
X3000763Y948690D01*
X3001027Y948643D01*
X3001285Y948484D01*
X3001460Y948236D01*
X3001525Y947940D01*
X3001470Y947642D01*
X3001302Y947389D01*
X2998864Y944951D01*
X2996883Y940167D01*
X2996883Y927862D01*
X3022918Y927862D01*
X3022918Y940167D01*
X3020936Y944951D01*
X3018498Y947389D01*
X3018345Y947609D01*
X3018275Y947904D01*
X3018326Y948203D01*
X3018489Y948458D01*
X3018739Y948630D01*
X3019037Y948690D01*
X3053000Y948690D01*
X3053264Y948643D01*
X3053522Y948484D01*
X3053697Y948236D01*
X3053762Y947940D01*
X3053707Y947642D01*
X3053539Y947389D01*
X3050526Y944376D01*
X3048699Y939965D01*
X3048699Y918647D01*
X3048643Y918361D01*
X3048475Y918108D01*
X2745524Y615157D01*
X2745283Y614994D01*
G37*
%LPC*%
G36*
X3007311Y903605D02*
X3009138Y903605D01*
X3009138Y926338D01*
X2996883Y926338D01*
X2996883Y914033D01*
X2998864Y909249D01*
X3002526Y905587D01*
X3007311Y903605D01*
G37*
G36*
X3010662Y903605D02*
X3012489Y903605D01*
X3017274Y905587D01*
X3020936Y909249D01*
X3022918Y914033D01*
X3022918Y926338D01*
X3010662Y926338D01*
X3010662Y903605D01*
G37*
%LPD*%
D10*
X342900Y937578D02*
X342900Y916623D01*
X292100Y916623D02*
X292100Y937578D01*
X241300Y937578D02*
X241300Y916623D01*
X190500Y916623D02*
X190500Y937578D01*
X3162300Y937578D02*
X3162300Y916623D01*
X3111500Y916623D02*
X3111500Y937578D01*
X3060700Y937578D02*
X3060700Y916623D01*
X3009900Y916623D02*
X3009900Y937578D01*
X647700Y937578D02*
X647700Y916623D01*
X596900Y916623D02*
X596900Y937578D01*
X546100Y937578D02*
X546100Y916623D01*
X495300Y916623D02*
X495300Y937578D01*
X965200Y937578D02*
X965200Y916623D01*
X914400Y916623D02*
X914400Y937578D01*
X863600Y937578D02*
X863600Y916623D01*
X812800Y916623D02*
X812800Y937578D01*
X1270000Y937578D02*
X1270000Y916623D01*
X1219200Y916623D02*
X1219200Y937578D01*
X1168400Y937578D02*
X1168400Y916623D01*
X1117600Y916623D02*
X1117600Y937578D01*
X1587500Y937578D02*
X1587500Y916623D01*
X1536700Y916623D02*
X1536700Y937578D01*
X1485900Y937578D02*
X1485900Y916623D01*
X1435100Y916623D02*
X1435100Y937578D01*
X1917700Y937578D02*
X1917700Y916623D01*
X1866900Y916623D02*
X1866900Y937578D01*
X1816100Y937578D02*
X1816100Y916623D01*
X1765300Y916623D02*
X1765300Y937578D01*
X2222500Y937578D02*
X2222500Y916623D01*
X2171700Y916623D02*
X2171700Y937578D01*
X2120900Y937578D02*
X2120900Y916623D01*
X2070100Y916623D02*
X2070100Y937578D01*
X2540000Y937578D02*
X2540000Y916623D01*
X2489200Y916623D02*
X2489200Y937578D01*
X2438400Y937578D02*
X2438400Y916623D01*
X2387600Y916623D02*
X2387600Y937578D01*
X2844800Y937578D02*
X2844800Y916623D01*
X2794000Y916623D02*
X2794000Y937578D01*
X2743200Y937578D02*
X2743200Y916623D01*
X2692400Y916623D02*
X2692400Y937578D01*
D11*
X965200Y647700D03*
X990600Y647700D03*
X1016000Y647700D03*
X1041400Y647700D03*
X952500Y622300D03*
X977900Y622300D03*
X1003300Y622300D03*
X1028700Y622300D03*
D12*
X939800Y558800D03*
X1054100Y558800D03*
D11*
X1282700Y647700D03*
X1308100Y647700D03*
X1333500Y647700D03*
X1358900Y647700D03*
X1270000Y622300D03*
X1295400Y622300D03*
X1320800Y622300D03*
X1346200Y622300D03*
D12*
X1257300Y558800D03*
X1371600Y558800D03*
D11*
X1651000Y647700D03*
X1676400Y647700D03*
X1701800Y647700D03*
X1727200Y647700D03*
X1638300Y622300D03*
X1663700Y622300D03*
X1689100Y622300D03*
X1714500Y622300D03*
D12*
X1625600Y558800D03*
X1739900Y558800D03*
D10*
X86678Y762000D02*
X65723Y762000D01*
X65723Y711200D02*
X86678Y711200D01*
X86678Y660400D02*
X65723Y660400D01*
D13*
X266700Y723500D03*
D14*
X266700Y673500D03*
D15*
X2388108Y926592D02*
X2409444Y926592D01*
X2432304Y903732D01*
X2668524Y903732D01*
X2691384Y926592D01*
X2388108Y926592D02*
X2387600Y927100D01*
X2691384Y926592D02*
X2692400Y927100D01*
X2386584Y926592D02*
X2250948Y926592D01*
X2228088Y903732D01*
X2093976Y903732D01*
X2071116Y926592D01*
X2386584Y926592D02*
X2387600Y927100D01*
X2071116Y926592D02*
X2070100Y927100D01*
X1434084Y928116D02*
X1298448Y928116D01*
X1275588Y950976D01*
X1141476Y950976D01*
X1117600Y927100D01*
X1434084Y928116D02*
X1435100Y927100D01*
X1616964Y926592D02*
X1764792Y926592D01*
X1616964Y926592D02*
X1594104Y903732D01*
X1458468Y903732D01*
X1435100Y927100D01*
X1764792Y926592D02*
X1765300Y927100D01*
X1918716Y928116D02*
X2037588Y928116D01*
X2063496Y954024D01*
X2196084Y954024D01*
X2221992Y928116D01*
X1918716Y928116D02*
X1917700Y927100D01*
X2221992Y928116D02*
X2222500Y927100D01*
X2540508Y928116D02*
X2663952Y928116D01*
X2686812Y950976D01*
X2820924Y950976D01*
X2844800Y927100D01*
X2540508Y928116D02*
X2540000Y927100D01*
X3139440Y928116D02*
X3162300Y928116D01*
X3139440Y928116D02*
X3116580Y950976D01*
X2868168Y950976D01*
X2845308Y928116D01*
X3162300Y928116D02*
X3162300Y927100D01*
X2845308Y928116D02*
X2844800Y927100D01*
X381000Y888492D02*
X381000Y762000D01*
X266700Y762000D02*
X266700Y723500D01*
X381000Y888492D02*
X342900Y926592D01*
X342900Y927100D01*
X381000Y762000D02*
X266700Y762000D01*
X76200Y762000D01*
X626364Y926592D02*
X647700Y926592D01*
X626364Y926592D02*
X588264Y888492D01*
X381000Y888492D01*
X647700Y926592D02*
X647700Y927100D01*
X647700Y928116D02*
X784860Y928116D01*
X807720Y950976D01*
X941832Y950976D01*
X964692Y928116D01*
X647700Y928116D02*
X647700Y927100D01*
X964692Y928116D02*
X965200Y927100D01*
X1895856Y928116D02*
X1917192Y928116D01*
X1895856Y928116D02*
X1872996Y950976D01*
X1610868Y950976D01*
X1588008Y928116D01*
X1917192Y928116D02*
X1917700Y927100D01*
X1588008Y928116D02*
X1587500Y927100D01*
X990600Y697992D02*
X990600Y647700D01*
X990600Y697992D02*
X1219200Y926592D01*
X1219200Y927100D01*
X966216Y725424D02*
X966216Y647700D01*
X966216Y725424D02*
X1167384Y926592D01*
X966216Y647700D02*
X965200Y647700D01*
X1167384Y926592D02*
X1168400Y927100D01*
X1295400Y623316D02*
X1309116Y623316D01*
X1324356Y638556D01*
X1578864Y638556D01*
X1866900Y926592D01*
X1295400Y623316D02*
X1295400Y622300D01*
X1866900Y926592D02*
X1866900Y927100D01*
X1539240Y891540D02*
X1270000Y622300D01*
X1539240Y891540D02*
X1780032Y891540D01*
X1815084Y926592D01*
X1816100Y927100D01*
X1671828Y621792D02*
X1664208Y621792D01*
X1671828Y621792D02*
X1684020Y609600D01*
X2793492Y609600D01*
X3110484Y926592D01*
X1664208Y621792D02*
X1663700Y622300D01*
X3110484Y926592D02*
X3111500Y927100D01*
X1652016Y623316D02*
X1638300Y623316D01*
X1652016Y623316D02*
X1659636Y630936D01*
X1668780Y630936D01*
X1679448Y620268D01*
X1679448Y618744D01*
X1685544Y612648D01*
X2746248Y612648D01*
X3060700Y927100D01*
X1638300Y623316D02*
X1638300Y622300D01*
X1714500Y623316D02*
X2490216Y623316D01*
X2794000Y927100D01*
X1714500Y623316D02*
X1714500Y622300D01*
X1702308Y623316D02*
X1690116Y623316D01*
X1702308Y623316D02*
X1714500Y635508D01*
X2452116Y635508D01*
X2743200Y926592D01*
X1690116Y623316D02*
X1689100Y622300D01*
X2743200Y926592D02*
X2743200Y927100D01*
X1578864Y647700D02*
X1358900Y647700D01*
X1578864Y647700D02*
X1834896Y903732D01*
D16*
X1834896Y903732D03*
D15*
X1623060Y632460D02*
X1339596Y632460D01*
X1623060Y632460D02*
X1894332Y903732D01*
X2017776Y903732D01*
X2065020Y950976D01*
X2097024Y950976D01*
X2120900Y927100D01*
D16*
X1339596Y632460D03*
D15*
X864108Y697992D02*
X461772Y697992D01*
X864108Y697992D02*
X949452Y612648D01*
X1615440Y612648D01*
X1641348Y638556D01*
X1717548Y638556D01*
X1726692Y647700D01*
X1727200Y647700D01*
D16*
X461772Y697992D03*
D17*
X0Y482600D02*
X3331010Y483870D01*
X3331010Y1001270D01*
X0Y1000000D01*
X0Y482600D01*
M02*
