G04 EAGLE Gerber RS-274X export*
G75*
%MOMM*%
%FSLAX34Y34*%
%LPD*%
%INSoldermask Bottom*%
%IPPOS*%
%AMOC8*
5,1,8,0,0,1.08239X$1,22.5*%
G01*
G04 Define Apertures*
%ADD10C,4.203200*%
%ADD11C,2.298700*%
%ADD12C,1.473200*%
%ADD13C,4.521200*%
%ADD14R,2.133600X2.133600*%
%ADD15C,2.133600*%
D10*
X38100Y965200D03*
X38100Y520700D03*
X3289300Y520700D03*
X3289300Y965200D03*
D11*
X342900Y937578D02*
X342900Y916623D01*
X292100Y916623D02*
X292100Y937578D01*
X241300Y937578D02*
X241300Y916623D01*
X190500Y916623D02*
X190500Y937578D01*
X3162300Y937578D02*
X3162300Y916623D01*
X3111500Y916623D02*
X3111500Y937578D01*
X3060700Y937578D02*
X3060700Y916623D01*
X3009900Y916623D02*
X3009900Y937578D01*
X647700Y937578D02*
X647700Y916623D01*
X596900Y916623D02*
X596900Y937578D01*
X546100Y937578D02*
X546100Y916623D01*
X495300Y916623D02*
X495300Y937578D01*
X965200Y937578D02*
X965200Y916623D01*
X914400Y916623D02*
X914400Y937578D01*
X863600Y937578D02*
X863600Y916623D01*
X812800Y916623D02*
X812800Y937578D01*
X1270000Y937578D02*
X1270000Y916623D01*
X1219200Y916623D02*
X1219200Y937578D01*
X1168400Y937578D02*
X1168400Y916623D01*
X1117600Y916623D02*
X1117600Y937578D01*
X1587500Y937578D02*
X1587500Y916623D01*
X1536700Y916623D02*
X1536700Y937578D01*
X1485900Y937578D02*
X1485900Y916623D01*
X1435100Y916623D02*
X1435100Y937578D01*
X1917700Y937578D02*
X1917700Y916623D01*
X1866900Y916623D02*
X1866900Y937578D01*
X1816100Y937578D02*
X1816100Y916623D01*
X1765300Y916623D02*
X1765300Y937578D01*
X2222500Y937578D02*
X2222500Y916623D01*
X2171700Y916623D02*
X2171700Y937578D01*
X2120900Y937578D02*
X2120900Y916623D01*
X2070100Y916623D02*
X2070100Y937578D01*
X2540000Y937578D02*
X2540000Y916623D01*
X2489200Y916623D02*
X2489200Y937578D01*
X2438400Y937578D02*
X2438400Y916623D01*
X2387600Y916623D02*
X2387600Y937578D01*
X2844800Y937578D02*
X2844800Y916623D01*
X2794000Y916623D02*
X2794000Y937578D01*
X2743200Y937578D02*
X2743200Y916623D01*
X2692400Y916623D02*
X2692400Y937578D01*
D12*
X965200Y647700D03*
X990600Y647700D03*
X1016000Y647700D03*
X1041400Y647700D03*
X952500Y622300D03*
X977900Y622300D03*
X1003300Y622300D03*
X1028700Y622300D03*
D13*
X939800Y558800D03*
X1054100Y558800D03*
D12*
X1282700Y647700D03*
X1308100Y647700D03*
X1333500Y647700D03*
X1358900Y647700D03*
X1270000Y622300D03*
X1295400Y622300D03*
X1320800Y622300D03*
X1346200Y622300D03*
D13*
X1257300Y558800D03*
X1371600Y558800D03*
D12*
X1651000Y647700D03*
X1676400Y647700D03*
X1701800Y647700D03*
X1727200Y647700D03*
X1638300Y622300D03*
X1663700Y622300D03*
X1689100Y622300D03*
X1714500Y622300D03*
D13*
X1625600Y558800D03*
X1739900Y558800D03*
D11*
X86678Y762000D02*
X65723Y762000D01*
X65723Y711200D02*
X86678Y711200D01*
X86678Y660400D02*
X65723Y660400D01*
D14*
X266700Y723500D03*
D15*
X266700Y673500D03*
M02*
