G04 EAGLE Gerber RS-274X export*
G75*
%MOMM*%
%FSLAX34Y34*%
%LPD*%
%INTop Copper*%
%IPPOS*%
%AMOC8*
5,1,8,0,0,1.08239X$1,22.5*%
G01*
G04 Define Apertures*
%ADD10C,2.095500*%
%ADD11C,1.270000*%
%ADD12C,4.318000*%
%ADD13R,0.800000X1.200000*%
%ADD14R,1.930400X1.930400*%
%ADD15C,1.930400*%
%ADD16C,0.152400*%
%ADD17C,0.756400*%
%ADD18C,0.254000*%
G36*
X3272369Y494008D02*
X52906Y492780D01*
X52743Y492798D01*
X52466Y492920D01*
X52258Y493140D01*
X52152Y493425D01*
X52166Y493728D01*
X52297Y494001D01*
X52524Y494202D01*
X56619Y496566D01*
X62234Y502181D01*
X66205Y509059D01*
X68260Y516729D01*
X68260Y524671D01*
X66205Y532341D01*
X62234Y539219D01*
X56619Y544834D01*
X49741Y548805D01*
X42071Y550860D01*
X34129Y550860D01*
X26459Y548805D01*
X19581Y544834D01*
X13966Y539219D01*
X11582Y535089D01*
X11486Y534958D01*
X11241Y534779D01*
X10946Y534709D01*
X10647Y534760D01*
X10392Y534923D01*
X10220Y535173D01*
X10160Y535470D01*
X10160Y950430D01*
X10177Y950592D01*
X10299Y950869D01*
X10520Y951077D01*
X10805Y951183D01*
X11107Y951169D01*
X11381Y951038D01*
X11582Y950811D01*
X13966Y946681D01*
X19581Y941066D01*
X26459Y937095D01*
X34129Y935040D01*
X42071Y935040D01*
X49741Y937095D01*
X56619Y941066D01*
X62234Y946681D01*
X66205Y953559D01*
X68260Y961229D01*
X68260Y969171D01*
X66205Y976841D01*
X62234Y983719D01*
X57391Y988561D01*
X57239Y988780D01*
X57169Y989076D01*
X57219Y989375D01*
X57383Y989630D01*
X57633Y989802D01*
X57930Y989862D01*
X3270974Y991087D01*
X3271136Y991070D01*
X3271413Y990948D01*
X3271621Y990727D01*
X3271727Y990443D01*
X3271713Y990140D01*
X3271582Y989866D01*
X3271355Y989665D01*
X3270781Y989334D01*
X3265166Y983719D01*
X3261195Y976841D01*
X3259140Y969171D01*
X3259140Y961229D01*
X3261195Y953559D01*
X3265166Y946681D01*
X3270781Y941066D01*
X3277659Y937095D01*
X3285329Y935040D01*
X3293271Y935040D01*
X3300941Y937095D01*
X3307819Y941066D01*
X3313434Y946681D01*
X3317405Y953559D01*
X3319352Y960826D01*
X3319524Y961141D01*
X3319769Y961321D01*
X3320064Y961391D01*
X3320363Y961340D01*
X3320618Y961176D01*
X3320790Y960926D01*
X3320850Y960629D01*
X3320850Y525271D01*
X3320765Y524922D01*
X3320576Y524686D01*
X3320309Y524542D01*
X3320007Y524513D01*
X3319718Y524605D01*
X3319487Y524802D01*
X3319352Y525074D01*
X3317405Y532341D01*
X3313434Y539219D01*
X3307819Y544834D01*
X3300941Y548805D01*
X3293271Y550860D01*
X3285329Y550860D01*
X3277659Y548805D01*
X3270781Y544834D01*
X3265166Y539219D01*
X3261195Y532341D01*
X3259140Y524671D01*
X3259140Y516729D01*
X3261195Y509059D01*
X3265166Y502181D01*
X3270781Y496566D01*
X3272750Y495430D01*
X3272881Y495334D01*
X3273060Y495089D01*
X3273130Y494794D01*
X3273080Y494495D01*
X3272916Y494240D01*
X3272666Y494068D01*
X3272369Y494008D01*
G37*
%LPC*%
G36*
X1297501Y604266D02*
X2169599Y604266D01*
X2477086Y911753D01*
X2477311Y911909D01*
X2477607Y911976D01*
X2477905Y911923D01*
X2478159Y911758D01*
X2478329Y911506D01*
X2479026Y909824D01*
X2482402Y906448D01*
X2486813Y904621D01*
X2491587Y904621D01*
X2495998Y906448D01*
X2499374Y909824D01*
X2501202Y914235D01*
X2501202Y939965D01*
X2499374Y944376D01*
X2496361Y947389D01*
X2496208Y947609D01*
X2496138Y947904D01*
X2496189Y948203D01*
X2496352Y948458D01*
X2496603Y948630D01*
X2496900Y948690D01*
X2514861Y948690D01*
X2515147Y948634D01*
X2515400Y948467D01*
X2527775Y936092D01*
X2527938Y935850D01*
X2527999Y935553D01*
X2527999Y914235D01*
X2529826Y909824D01*
X2533202Y906448D01*
X2537613Y904621D01*
X2542387Y904621D01*
X2546798Y906448D01*
X2550174Y909824D01*
X2552002Y914235D01*
X2552002Y939965D01*
X2550174Y944376D01*
X2546798Y947752D01*
X2542387Y949579D01*
X2537613Y949579D01*
X2533202Y947752D01*
X2529826Y944376D01*
X2529129Y942694D01*
X2528981Y942464D01*
X2528733Y942289D01*
X2528437Y942224D01*
X2528139Y942279D01*
X2527886Y942447D01*
X2517071Y953262D01*
X2381065Y953262D01*
X2358428Y930625D01*
X2358187Y930462D01*
X2357889Y930402D01*
X2235264Y930402D01*
X2234989Y930453D01*
X2234733Y930617D01*
X2234562Y930867D01*
X2234502Y931164D01*
X2234502Y939965D01*
X2232674Y944376D01*
X2229298Y947752D01*
X2224887Y949579D01*
X2220113Y949579D01*
X2215702Y947752D01*
X2212326Y944376D01*
X2210499Y939965D01*
X2210499Y914235D01*
X2212326Y909824D01*
X2214831Y907319D01*
X2214984Y907099D01*
X2215054Y906804D01*
X2215003Y906505D01*
X2214840Y906250D01*
X2214589Y906078D01*
X2214292Y906018D01*
X2179908Y906018D01*
X2179645Y906065D01*
X2179386Y906224D01*
X2179211Y906472D01*
X2179146Y906768D01*
X2179202Y907066D01*
X2179369Y907319D01*
X2181874Y909824D01*
X2183702Y914235D01*
X2183702Y939965D01*
X2181874Y944376D01*
X2178498Y947752D01*
X2174087Y949579D01*
X2169313Y949579D01*
X2164902Y947752D01*
X2161526Y944376D01*
X2159699Y939965D01*
X2159699Y918139D01*
X2159643Y917853D01*
X2159475Y917600D01*
X2148116Y906241D01*
X2147875Y906078D01*
X2147577Y906018D01*
X2129108Y906018D01*
X2128845Y906065D01*
X2128586Y906224D01*
X2128411Y906472D01*
X2128346Y906768D01*
X2128402Y907066D01*
X2128569Y907319D01*
X2131074Y909824D01*
X2132902Y914235D01*
X2132902Y939965D01*
X2131074Y944376D01*
X2127698Y947752D01*
X2123287Y949579D01*
X2118513Y949579D01*
X2114102Y947752D01*
X2110726Y944376D01*
X2108899Y939965D01*
X2108899Y914235D01*
X2110726Y909824D01*
X2113231Y907319D01*
X2113384Y907099D01*
X2113454Y906804D01*
X2113403Y906505D01*
X2113240Y906250D01*
X2112989Y906078D01*
X2112692Y906018D01*
X2079745Y906018D01*
X2079481Y906065D01*
X2079223Y906224D01*
X2079048Y906472D01*
X2078983Y906768D01*
X2079038Y907066D01*
X2079206Y907319D01*
X2081136Y909249D01*
X2083118Y914033D01*
X2083118Y926338D01*
X2057083Y926338D01*
X2057083Y914033D01*
X2059064Y909249D01*
X2060994Y907319D01*
X2061147Y907099D01*
X2061217Y906804D01*
X2061166Y906505D01*
X2061003Y906250D01*
X2060753Y906078D01*
X2060455Y906018D01*
X1925908Y906018D01*
X1925645Y906065D01*
X1925386Y906224D01*
X1925211Y906472D01*
X1925146Y906768D01*
X1925202Y907066D01*
X1925369Y907319D01*
X1927874Y909824D01*
X1929702Y914235D01*
X1929702Y939965D01*
X1927874Y944376D01*
X1924498Y947752D01*
X1920087Y949579D01*
X1915313Y949579D01*
X1910902Y947752D01*
X1907526Y944376D01*
X1905699Y939965D01*
X1905699Y914235D01*
X1907526Y909824D01*
X1910031Y907319D01*
X1910184Y907099D01*
X1910254Y906804D01*
X1910203Y906505D01*
X1910040Y906250D01*
X1909789Y906078D01*
X1909492Y906018D01*
X1875108Y906018D01*
X1874845Y906065D01*
X1874586Y906224D01*
X1874411Y906472D01*
X1874346Y906768D01*
X1874402Y907066D01*
X1874569Y907319D01*
X1877074Y909824D01*
X1878902Y914235D01*
X1878902Y939965D01*
X1877074Y944376D01*
X1873698Y947752D01*
X1869287Y949579D01*
X1864513Y949579D01*
X1860102Y947752D01*
X1856726Y944376D01*
X1854899Y939965D01*
X1854899Y914235D01*
X1856726Y909824D01*
X1859231Y907319D01*
X1859384Y907099D01*
X1859454Y906804D01*
X1859403Y906505D01*
X1859240Y906250D01*
X1858989Y906078D01*
X1858692Y906018D01*
X1840429Y906018D01*
X1840143Y906074D01*
X1839891Y906241D01*
X1837094Y909038D01*
X1832698Y909038D01*
X1829590Y905930D01*
X1829590Y901534D01*
X1832698Y898426D01*
X1837094Y898426D01*
X1839891Y901223D01*
X1840132Y901386D01*
X1840429Y901446D01*
X2146053Y901446D01*
X2146317Y901399D01*
X2146575Y901240D01*
X2146750Y900992D01*
X2146815Y900696D01*
X2146760Y900398D01*
X2146592Y900145D01*
X1858556Y612109D01*
X1858315Y611946D01*
X1858017Y611886D01*
X1316475Y611886D01*
X1316189Y611942D01*
X1315936Y612109D01*
X1311625Y616420D01*
X1311462Y616661D01*
X1311402Y616959D01*
X1311402Y620582D01*
X1311447Y620840D01*
X1311604Y621099D01*
X1311850Y621277D01*
X1312146Y621344D01*
X1312444Y621291D01*
X1312699Y621125D01*
X1312868Y620874D01*
X1314125Y617840D01*
X1316340Y615625D01*
X1319234Y614426D01*
X1322366Y614426D01*
X1325260Y615625D01*
X1327475Y617840D01*
X1328674Y620734D01*
X1328674Y623866D01*
X1327475Y626760D01*
X1325260Y628975D01*
X1324064Y629471D01*
X1323826Y629627D01*
X1323654Y629877D01*
X1323594Y630175D01*
X1323594Y760737D01*
X1323650Y761023D01*
X1323817Y761276D01*
X1473935Y911394D01*
X1474160Y911550D01*
X1474456Y911617D01*
X1474754Y911564D01*
X1475008Y911398D01*
X1475178Y911147D01*
X1475726Y909824D01*
X1479102Y906448D01*
X1483513Y904621D01*
X1488287Y904621D01*
X1492698Y906448D01*
X1496074Y909824D01*
X1497902Y914235D01*
X1497902Y939965D01*
X1496074Y944376D01*
X1493061Y947389D01*
X1492908Y947609D01*
X1492838Y947904D01*
X1492889Y948203D01*
X1493052Y948458D01*
X1493303Y948630D01*
X1493600Y948690D01*
X1529000Y948690D01*
X1529264Y948643D01*
X1529522Y948484D01*
X1529697Y948236D01*
X1529762Y947940D01*
X1529707Y947642D01*
X1529539Y947389D01*
X1526526Y944376D01*
X1524699Y939965D01*
X1524699Y918647D01*
X1524643Y918361D01*
X1524475Y918108D01*
X1344930Y738563D01*
X1344930Y636469D01*
X1344883Y636206D01*
X1344724Y635948D01*
X1344476Y635773D01*
X1344180Y635708D01*
X1343882Y635763D01*
X1343629Y635931D01*
X1341794Y637766D01*
X1337839Y637766D01*
X1337553Y637822D01*
X1337300Y637989D01*
X1336153Y639136D01*
X1335998Y639361D01*
X1335930Y639656D01*
X1335983Y639955D01*
X1336149Y640209D01*
X1336400Y640379D01*
X1337960Y641025D01*
X1340175Y643240D01*
X1341374Y646134D01*
X1341374Y649266D01*
X1340175Y652160D01*
X1337960Y654375D01*
X1335066Y655574D01*
X1331934Y655574D01*
X1329040Y654375D01*
X1326825Y652160D01*
X1325626Y649266D01*
X1325626Y646134D01*
X1326825Y643240D01*
X1329040Y641025D01*
X1330744Y640319D01*
X1330982Y640162D01*
X1331154Y639912D01*
X1331214Y639615D01*
X1331214Y637609D01*
X1334067Y634756D01*
X1334230Y634515D01*
X1334290Y634217D01*
X1334290Y630262D01*
X1337398Y627154D01*
X1338547Y627154D01*
X1338816Y627105D01*
X1339073Y626944D01*
X1339247Y626695D01*
X1339309Y626398D01*
X1339251Y626100D01*
X1338326Y623866D01*
X1338326Y620734D01*
X1339525Y617840D01*
X1341740Y615625D01*
X1344634Y614426D01*
X1347766Y614426D01*
X1350660Y615625D01*
X1352875Y617840D01*
X1354074Y620734D01*
X1354074Y623866D01*
X1352875Y626760D01*
X1350660Y628975D01*
X1349972Y629260D01*
X1349734Y629417D01*
X1349562Y629667D01*
X1349502Y629964D01*
X1349502Y645982D01*
X1349547Y646240D01*
X1349704Y646499D01*
X1349950Y646677D01*
X1350246Y646744D01*
X1350544Y646691D01*
X1350799Y646525D01*
X1350968Y646274D01*
X1352225Y643240D01*
X1354440Y641025D01*
X1357334Y639826D01*
X1360466Y639826D01*
X1363360Y641025D01*
X1365575Y643240D01*
X1366774Y646134D01*
X1366774Y649266D01*
X1365575Y652160D01*
X1363360Y654375D01*
X1360466Y655574D01*
X1357334Y655574D01*
X1354440Y654375D01*
X1352225Y652160D01*
X1350968Y649126D01*
X1350828Y648905D01*
X1350583Y648726D01*
X1350288Y648656D01*
X1349989Y648707D01*
X1349734Y648870D01*
X1349562Y649121D01*
X1349502Y649418D01*
X1349502Y736353D01*
X1349558Y736639D01*
X1349725Y736892D01*
X1524586Y911753D01*
X1524811Y911909D01*
X1525107Y911976D01*
X1525405Y911923D01*
X1525659Y911758D01*
X1525829Y911506D01*
X1526526Y909824D01*
X1529902Y906448D01*
X1534313Y904621D01*
X1539087Y904621D01*
X1543498Y906448D01*
X1546874Y909824D01*
X1548702Y914235D01*
X1548702Y939965D01*
X1546874Y944376D01*
X1543861Y947389D01*
X1543708Y947609D01*
X1543638Y947904D01*
X1543689Y948203D01*
X1543852Y948458D01*
X1544103Y948630D01*
X1544400Y948690D01*
X1562361Y948690D01*
X1562647Y948634D01*
X1562900Y948467D01*
X1575275Y936092D01*
X1575438Y935850D01*
X1575499Y935553D01*
X1575499Y914235D01*
X1577326Y909824D01*
X1580702Y906448D01*
X1585113Y904621D01*
X1589887Y904621D01*
X1594298Y906448D01*
X1597674Y909824D01*
X1598371Y911506D01*
X1598519Y911736D01*
X1598767Y911911D01*
X1599063Y911976D01*
X1599361Y911921D01*
X1599614Y911753D01*
X1673891Y837476D01*
X1674054Y837235D01*
X1674114Y836937D01*
X1674114Y655785D01*
X1674061Y655505D01*
X1673895Y655251D01*
X1673644Y655081D01*
X1671940Y654375D01*
X1669725Y652160D01*
X1668526Y649266D01*
X1668526Y646134D01*
X1669725Y643240D01*
X1671940Y641025D01*
X1674834Y639826D01*
X1677966Y639826D01*
X1680860Y641025D01*
X1683075Y643240D01*
X1683781Y644944D01*
X1683938Y645182D01*
X1684188Y645354D01*
X1684485Y645414D01*
X1693715Y645414D01*
X1693995Y645361D01*
X1694249Y645195D01*
X1694419Y644944D01*
X1695125Y643240D01*
X1697340Y641025D01*
X1700234Y639826D01*
X1703366Y639826D01*
X1706260Y641025D01*
X1708475Y643240D01*
X1709674Y646134D01*
X1709674Y649266D01*
X1708475Y652160D01*
X1706260Y654375D01*
X1703366Y655574D01*
X1700234Y655574D01*
X1697340Y654375D01*
X1695125Y652160D01*
X1694419Y650456D01*
X1694262Y650218D01*
X1694012Y650046D01*
X1693715Y649986D01*
X1684485Y649986D01*
X1684205Y650039D01*
X1683951Y650205D01*
X1683781Y650456D01*
X1683075Y652160D01*
X1680860Y654375D01*
X1679156Y655081D01*
X1678918Y655238D01*
X1678746Y655488D01*
X1678686Y655785D01*
X1678686Y839147D01*
X1599725Y918108D01*
X1599562Y918350D01*
X1599502Y918647D01*
X1599502Y939965D01*
X1597674Y944376D01*
X1594298Y947752D01*
X1589887Y949579D01*
X1585113Y949579D01*
X1580702Y947752D01*
X1577326Y944376D01*
X1576629Y942694D01*
X1576481Y942464D01*
X1576233Y942289D01*
X1575937Y942224D01*
X1575639Y942279D01*
X1575386Y942447D01*
X1564571Y953262D01*
X1428565Y953262D01*
X1405928Y930625D01*
X1405687Y930462D01*
X1405389Y930402D01*
X1282764Y930402D01*
X1282489Y930453D01*
X1282233Y930617D01*
X1282062Y930867D01*
X1282002Y931164D01*
X1282002Y939965D01*
X1280174Y944376D01*
X1276798Y947752D01*
X1272387Y949579D01*
X1267613Y949579D01*
X1263202Y947752D01*
X1259826Y944376D01*
X1257999Y939965D01*
X1257999Y918647D01*
X1257943Y918361D01*
X1257775Y918108D01*
X1245908Y906241D01*
X1245667Y906078D01*
X1245369Y906018D01*
X1227408Y906018D01*
X1227145Y906065D01*
X1226886Y906224D01*
X1226711Y906472D01*
X1226646Y906768D01*
X1226702Y907066D01*
X1226869Y907319D01*
X1229374Y909824D01*
X1231202Y914235D01*
X1231202Y939965D01*
X1229374Y944376D01*
X1225998Y947752D01*
X1221587Y949579D01*
X1216813Y949579D01*
X1212402Y947752D01*
X1209026Y944376D01*
X1207199Y939965D01*
X1207199Y914235D01*
X1209026Y909824D01*
X1211531Y907319D01*
X1211684Y907099D01*
X1211754Y906804D01*
X1211703Y906505D01*
X1211540Y906250D01*
X1211289Y906078D01*
X1210992Y906018D01*
X1176608Y906018D01*
X1176345Y906065D01*
X1176086Y906224D01*
X1175911Y906472D01*
X1175846Y906768D01*
X1175902Y907066D01*
X1176069Y907319D01*
X1178574Y909824D01*
X1180402Y914235D01*
X1180402Y939965D01*
X1178574Y944376D01*
X1175198Y947752D01*
X1170787Y949579D01*
X1166013Y949579D01*
X1161602Y947752D01*
X1158226Y944376D01*
X1156399Y939965D01*
X1156399Y914235D01*
X1158226Y909824D01*
X1160731Y907319D01*
X1160884Y907099D01*
X1160954Y906804D01*
X1160903Y906505D01*
X1160740Y906250D01*
X1160489Y906078D01*
X1160192Y906018D01*
X1127245Y906018D01*
X1126981Y906065D01*
X1126723Y906224D01*
X1126548Y906472D01*
X1126483Y906768D01*
X1126538Y907066D01*
X1126706Y907319D01*
X1128636Y909249D01*
X1130618Y914033D01*
X1130618Y926338D01*
X1104583Y926338D01*
X1104583Y915218D01*
X1104536Y914955D01*
X1104376Y914697D01*
X1104129Y914521D01*
X1103833Y914456D01*
X1103535Y914512D01*
X1103282Y914679D01*
X1089083Y928878D01*
X977964Y928878D01*
X977689Y928929D01*
X977433Y929093D01*
X977262Y929343D01*
X977202Y929640D01*
X977202Y939965D01*
X975374Y944376D01*
X971998Y947752D01*
X967587Y949579D01*
X962813Y949579D01*
X958402Y947752D01*
X955026Y944376D01*
X953199Y939965D01*
X953199Y914235D01*
X955026Y909824D01*
X958402Y906448D01*
X962813Y904621D01*
X967587Y904621D01*
X971998Y906448D01*
X975374Y909824D01*
X977202Y914235D01*
X977202Y923544D01*
X977253Y923819D01*
X977416Y924074D01*
X977666Y924246D01*
X977964Y924306D01*
X1086873Y924306D01*
X1087159Y924250D01*
X1087412Y924083D01*
X1110049Y901446D01*
X1247579Y901446D01*
X1257886Y911753D01*
X1258111Y911909D01*
X1258407Y911976D01*
X1258705Y911923D01*
X1258959Y911758D01*
X1259129Y911506D01*
X1259826Y909824D01*
X1263202Y906448D01*
X1267613Y904621D01*
X1272387Y904621D01*
X1276798Y906448D01*
X1280174Y909824D01*
X1282002Y914235D01*
X1282002Y925068D01*
X1282053Y925343D01*
X1282216Y925598D01*
X1282466Y925770D01*
X1282764Y925830D01*
X1407599Y925830D01*
X1420782Y939013D01*
X1421001Y939166D01*
X1421296Y939236D01*
X1421595Y939185D01*
X1421851Y939021D01*
X1422022Y938771D01*
X1422083Y938474D01*
X1422083Y927862D01*
X1448118Y927862D01*
X1448118Y940167D01*
X1446136Y944951D01*
X1443698Y947389D01*
X1443545Y947609D01*
X1443475Y947904D01*
X1443526Y948203D01*
X1443689Y948458D01*
X1443939Y948630D01*
X1444237Y948690D01*
X1478200Y948690D01*
X1478464Y948643D01*
X1478722Y948484D01*
X1478897Y948236D01*
X1478962Y947940D01*
X1478907Y947642D01*
X1478739Y947389D01*
X1475726Y944376D01*
X1473899Y939965D01*
X1473899Y918139D01*
X1473843Y917853D01*
X1473675Y917600D01*
X1319022Y762947D01*
X1319022Y630595D01*
X1318969Y630315D01*
X1318803Y630061D01*
X1318552Y629891D01*
X1316340Y628975D01*
X1314125Y626760D01*
X1312926Y623866D01*
X1312926Y623055D01*
X1312879Y622791D01*
X1312720Y622533D01*
X1312472Y622358D01*
X1312176Y622293D01*
X1311878Y622348D01*
X1311625Y622516D01*
X1290182Y643959D01*
X1290022Y644195D01*
X1289959Y644491D01*
X1290017Y644789D01*
X1290574Y646134D01*
X1290574Y647453D01*
X1290621Y647717D01*
X1290780Y647975D01*
X1291028Y648150D01*
X1291324Y648215D01*
X1291622Y648160D01*
X1291875Y647992D01*
X1294453Y645414D01*
X1300015Y645414D01*
X1300295Y645361D01*
X1300549Y645195D01*
X1300719Y644944D01*
X1301425Y643240D01*
X1303640Y641025D01*
X1306534Y639826D01*
X1309666Y639826D01*
X1312560Y641025D01*
X1314775Y643240D01*
X1315974Y646134D01*
X1315974Y649266D01*
X1314775Y652160D01*
X1312560Y654375D01*
X1309666Y655574D01*
X1306534Y655574D01*
X1303640Y654375D01*
X1301425Y652160D01*
X1300719Y650456D01*
X1300562Y650218D01*
X1300312Y650046D01*
X1300015Y649986D01*
X1296663Y649986D01*
X1296377Y650042D01*
X1296124Y650209D01*
X1287203Y659130D01*
X1277689Y659130D01*
X1271778Y653219D01*
X1271778Y630936D01*
X1271727Y630661D01*
X1271563Y630406D01*
X1271313Y630234D01*
X1271016Y630174D01*
X1268434Y630174D01*
X1265540Y628975D01*
X1263325Y626760D01*
X1262126Y623866D01*
X1262126Y620734D01*
X1263325Y617840D01*
X1265540Y615625D01*
X1268434Y614426D01*
X1271566Y614426D01*
X1274460Y615625D01*
X1276675Y617840D01*
X1277874Y620734D01*
X1277874Y622053D01*
X1277921Y622317D01*
X1278080Y622575D01*
X1278328Y622750D01*
X1278624Y622815D01*
X1278922Y622760D01*
X1279175Y622592D01*
X1297501Y604266D01*
G37*
G36*
X2070862Y927862D02*
X2083118Y927862D01*
X2083118Y940167D01*
X2081136Y944951D01*
X2077474Y948613D01*
X2072689Y950595D01*
X2070862Y950595D01*
X2070862Y927862D01*
G37*
G36*
X1104583Y927862D02*
X1116838Y927862D01*
X1116838Y950595D01*
X1115011Y950595D01*
X1110226Y948613D01*
X1106564Y944951D01*
X1104583Y940167D01*
X1104583Y927862D01*
G37*
G36*
X1118362Y927862D02*
X1130618Y927862D01*
X1130618Y940167D01*
X1128636Y944951D01*
X1124974Y948613D01*
X1120189Y950595D01*
X1118362Y950595D01*
X1118362Y927862D01*
G37*
G36*
X2693162Y927862D02*
X2705418Y927862D01*
X2705418Y940167D01*
X2703436Y944951D01*
X2699774Y948613D01*
X2694989Y950595D01*
X2693162Y950595D01*
X2693162Y927862D01*
G37*
G36*
X482283Y927862D02*
X494538Y927862D01*
X494538Y950595D01*
X492711Y950595D01*
X487926Y948613D01*
X484264Y944951D01*
X482283Y940167D01*
X482283Y927862D01*
G37*
G36*
X191262Y927862D02*
X203518Y927862D01*
X203518Y940167D01*
X201536Y944951D01*
X197874Y948613D01*
X193089Y950595D01*
X191262Y950595D01*
X191262Y927862D01*
G37*
G36*
X3010662Y927862D02*
X3022918Y927862D01*
X3022918Y940167D01*
X3020936Y944951D01*
X3017274Y948613D01*
X3012489Y950595D01*
X3010662Y950595D01*
X3010662Y927862D01*
G37*
G36*
X496062Y927862D02*
X508318Y927862D01*
X508318Y940167D01*
X506336Y944951D01*
X502674Y948613D01*
X497889Y950595D01*
X496062Y950595D01*
X496062Y927862D01*
G37*
G36*
X2996883Y927862D02*
X3009138Y927862D01*
X3009138Y950595D01*
X3007311Y950595D01*
X3002526Y948613D01*
X2998864Y944951D01*
X2996883Y940167D01*
X2996883Y927862D01*
G37*
G36*
X799783Y927862D02*
X812038Y927862D01*
X812038Y950595D01*
X810211Y950595D01*
X805426Y948613D01*
X801764Y944951D01*
X799783Y940167D01*
X799783Y927862D01*
G37*
G36*
X2679383Y927862D02*
X2691638Y927862D01*
X2691638Y950595D01*
X2689811Y950595D01*
X2685026Y948613D01*
X2681364Y944951D01*
X2679383Y940167D01*
X2679383Y927862D01*
G37*
G36*
X1766062Y927862D02*
X1778318Y927862D01*
X1778318Y940167D01*
X1776336Y944951D01*
X1772674Y948613D01*
X1767889Y950595D01*
X1766062Y950595D01*
X1766062Y927862D01*
G37*
G36*
X177483Y927862D02*
X189738Y927862D01*
X189738Y950595D01*
X187911Y950595D01*
X183126Y948613D01*
X179464Y944951D01*
X177483Y940167D01*
X177483Y927862D01*
G37*
G36*
X1752283Y927862D02*
X1764538Y927862D01*
X1764538Y950595D01*
X1762711Y950595D01*
X1757926Y948613D01*
X1754264Y944951D01*
X1752283Y940167D01*
X1752283Y927862D01*
G37*
G36*
X2057083Y927862D02*
X2069338Y927862D01*
X2069338Y950595D01*
X2067511Y950595D01*
X2062726Y948613D01*
X2059064Y944951D01*
X2057083Y940167D01*
X2057083Y927862D01*
G37*
G36*
X813562Y927862D02*
X825818Y927862D01*
X825818Y940167D01*
X823836Y944951D01*
X820174Y948613D01*
X815389Y950595D01*
X813562Y950595D01*
X813562Y927862D01*
G37*
G36*
X3159913Y904621D02*
X3164687Y904621D01*
X3169098Y906448D01*
X3172474Y909824D01*
X3174302Y914235D01*
X3174302Y939965D01*
X3172474Y944376D01*
X3169098Y947752D01*
X3164687Y949579D01*
X3159913Y949579D01*
X3155502Y947752D01*
X3152126Y944376D01*
X3150299Y939965D01*
X3150299Y914235D01*
X3152126Y909824D01*
X3155502Y906448D01*
X3159913Y904621D01*
G37*
G36*
X1014434Y639826D02*
X1017566Y639826D01*
X1020460Y641025D01*
X1022675Y643240D01*
X1023874Y646134D01*
X1023874Y649266D01*
X1022675Y652160D01*
X1020460Y654375D01*
X1017740Y655502D01*
X1017502Y655659D01*
X1017330Y655909D01*
X1017270Y656206D01*
X1017270Y776663D01*
X875825Y918108D01*
X875662Y918350D01*
X875602Y918647D01*
X875602Y939965D01*
X873774Y944376D01*
X870398Y947752D01*
X865987Y949579D01*
X861213Y949579D01*
X856802Y947752D01*
X853426Y944376D01*
X851599Y939965D01*
X851599Y914235D01*
X853426Y909824D01*
X856802Y906448D01*
X861213Y904621D01*
X865987Y904621D01*
X870398Y906448D01*
X873774Y909824D01*
X874471Y911506D01*
X874619Y911736D01*
X874867Y911911D01*
X875163Y911976D01*
X875461Y911921D01*
X875714Y911753D01*
X1012475Y774992D01*
X1012638Y774751D01*
X1012698Y774453D01*
X1012698Y655364D01*
X1012645Y655084D01*
X1012479Y654830D01*
X1012228Y654660D01*
X1011540Y654375D01*
X1009325Y652160D01*
X1008126Y649266D01*
X1008126Y646134D01*
X1009325Y643240D01*
X1011540Y641025D01*
X1014434Y639826D01*
G37*
G36*
X558361Y607314D02*
X983927Y607314D01*
X995182Y618569D01*
X995407Y618725D01*
X995703Y618792D01*
X996001Y618739D01*
X996255Y618574D01*
X996425Y618322D01*
X996625Y617840D01*
X998840Y615625D01*
X1001734Y614426D01*
X1004866Y614426D01*
X1007760Y615625D01*
X1009975Y617840D01*
X1011174Y620734D01*
X1011174Y622053D01*
X1011221Y622317D01*
X1011380Y622575D01*
X1011628Y622750D01*
X1011924Y622815D01*
X1012222Y622760D01*
X1012475Y622592D01*
X1014037Y621030D01*
X1020194Y621030D01*
X1020474Y620977D01*
X1020729Y620811D01*
X1020898Y620560D01*
X1022025Y617840D01*
X1024240Y615625D01*
X1027134Y614426D01*
X1030266Y614426D01*
X1033160Y615625D01*
X1035375Y617840D01*
X1036574Y620734D01*
X1036574Y623866D01*
X1035375Y626760D01*
X1033160Y628975D01*
X1030266Y630174D01*
X1027134Y630174D01*
X1024240Y628975D01*
X1022025Y626760D01*
X1021740Y626072D01*
X1021583Y625834D01*
X1021333Y625662D01*
X1021036Y625602D01*
X1016247Y625602D01*
X1015961Y625658D01*
X1015708Y625825D01*
X1008311Y633222D01*
X997273Y633222D01*
X987075Y623024D01*
X986855Y622871D01*
X986560Y622801D01*
X986261Y622852D01*
X986006Y623015D01*
X985834Y623265D01*
X985774Y623563D01*
X985774Y623866D01*
X984575Y626760D01*
X982360Y628975D01*
X979640Y630102D01*
X979402Y630259D01*
X979230Y630509D01*
X979170Y630806D01*
X979170Y712655D01*
X862045Y829780D01*
X861882Y830021D01*
X861822Y830319D01*
X861822Y848291D01*
X806598Y903514D01*
X806448Y903728D01*
X806376Y904023D01*
X806424Y904322D01*
X806586Y904579D01*
X806835Y904753D01*
X807131Y904815D01*
X807429Y904757D01*
X810211Y903605D01*
X812038Y903605D01*
X812038Y926338D01*
X799783Y926338D01*
X799783Y914033D01*
X800935Y911251D01*
X800992Y910996D01*
X800946Y910696D01*
X800786Y910438D01*
X800539Y910263D01*
X800243Y910198D01*
X799945Y910253D01*
X799692Y910421D01*
X784283Y925830D01*
X672661Y925830D01*
X661002Y914171D01*
X660783Y914018D01*
X660488Y913948D01*
X660189Y913999D01*
X659933Y914163D01*
X659762Y914413D01*
X659702Y914710D01*
X659702Y939965D01*
X657874Y944376D01*
X654498Y947752D01*
X650087Y949579D01*
X645313Y949579D01*
X640902Y947752D01*
X637526Y944376D01*
X635699Y939965D01*
X635699Y914235D01*
X637526Y909824D01*
X640031Y907319D01*
X640184Y907099D01*
X640254Y906804D01*
X640203Y906505D01*
X640040Y906250D01*
X639789Y906078D01*
X639492Y906018D01*
X621531Y906018D01*
X621245Y906074D01*
X620992Y906241D01*
X609125Y918108D01*
X608962Y918350D01*
X608902Y918647D01*
X608902Y939965D01*
X607074Y944376D01*
X603698Y947752D01*
X599287Y949579D01*
X594513Y949579D01*
X590102Y947752D01*
X586726Y944376D01*
X584899Y939965D01*
X584899Y914235D01*
X586726Y909824D01*
X590102Y906448D01*
X594513Y904621D01*
X599287Y904621D01*
X603698Y906448D01*
X607074Y909824D01*
X607771Y911506D01*
X607919Y911736D01*
X608167Y911911D01*
X608463Y911976D01*
X608761Y911921D01*
X609014Y911753D01*
X616496Y904271D01*
X616649Y904051D01*
X616719Y903756D01*
X616668Y903457D01*
X616505Y903202D01*
X616255Y903030D01*
X615957Y902970D01*
X574287Y902970D01*
X574001Y903026D01*
X573748Y903193D01*
X558325Y918616D01*
X558162Y918858D01*
X558102Y919155D01*
X558102Y939965D01*
X556274Y944376D01*
X552898Y947752D01*
X548487Y949579D01*
X543713Y949579D01*
X539302Y947752D01*
X535926Y944376D01*
X534099Y939965D01*
X534099Y914235D01*
X535926Y909824D01*
X539302Y906448D01*
X543713Y904621D01*
X548487Y904621D01*
X552898Y906448D01*
X556274Y909824D01*
X557120Y911865D01*
X557268Y912095D01*
X557515Y912270D01*
X557812Y912336D01*
X558110Y912280D01*
X558363Y912112D01*
X572077Y898398D01*
X693681Y898398D01*
X693967Y898342D01*
X694220Y898175D01*
X949991Y642404D01*
X950154Y642163D01*
X950214Y641865D01*
X950214Y630385D01*
X950161Y630105D01*
X949995Y629851D01*
X949744Y629681D01*
X948040Y628975D01*
X945825Y626760D01*
X944626Y623866D01*
X944626Y620734D01*
X945825Y617840D01*
X947430Y616235D01*
X947583Y616015D01*
X947652Y615720D01*
X947602Y615421D01*
X947438Y615166D01*
X947188Y614994D01*
X946891Y614934D01*
X607815Y614934D01*
X607529Y614990D01*
X607276Y615157D01*
X304325Y918108D01*
X304162Y918350D01*
X304102Y918647D01*
X304102Y939965D01*
X302274Y944376D01*
X298898Y947752D01*
X294487Y949579D01*
X289713Y949579D01*
X285302Y947752D01*
X281926Y944376D01*
X280099Y939965D01*
X280099Y914235D01*
X281926Y909824D01*
X285302Y906448D01*
X289713Y904621D01*
X294487Y904621D01*
X298898Y906448D01*
X302274Y909824D01*
X302971Y911506D01*
X303119Y911736D01*
X303367Y911911D01*
X303663Y911976D01*
X303961Y911921D01*
X304214Y911753D01*
X602780Y613187D01*
X602933Y612967D01*
X603003Y612672D01*
X602952Y612373D01*
X602789Y612118D01*
X602539Y611946D01*
X602241Y611886D01*
X560571Y611886D01*
X560285Y611942D01*
X560032Y612109D01*
X253525Y918616D01*
X253362Y918858D01*
X253302Y919155D01*
X253302Y939965D01*
X251474Y944376D01*
X248098Y947752D01*
X243687Y949579D01*
X238913Y949579D01*
X234502Y947752D01*
X231126Y944376D01*
X229299Y939965D01*
X229299Y914235D01*
X231126Y909824D01*
X234502Y906448D01*
X238913Y904621D01*
X243687Y904621D01*
X248098Y906448D01*
X251474Y909824D01*
X252320Y911865D01*
X252468Y912095D01*
X252715Y912270D01*
X253012Y912336D01*
X253310Y912280D01*
X253563Y912112D01*
X461076Y704599D01*
X461229Y704379D01*
X461299Y704084D01*
X461248Y703785D01*
X461085Y703530D01*
X460835Y703358D01*
X460537Y703298D01*
X459574Y703298D01*
X456466Y700190D01*
X456466Y696235D01*
X456410Y695949D01*
X456243Y695696D01*
X424472Y663925D01*
X424231Y663762D01*
X423933Y663702D01*
X275984Y663702D01*
X275720Y663749D01*
X275462Y663908D01*
X275287Y664156D01*
X275222Y664452D01*
X275277Y664750D01*
X275445Y665003D01*
X277036Y666594D01*
X278892Y671075D01*
X278892Y672738D01*
X254508Y672738D01*
X254508Y672585D01*
X254461Y672321D01*
X254302Y672063D01*
X254054Y671888D01*
X253758Y671823D01*
X253460Y671878D01*
X253207Y672046D01*
X224975Y700278D01*
X193086Y700278D01*
X192811Y700329D01*
X192556Y700493D01*
X192384Y700743D01*
X192324Y701040D01*
X192324Y705131D01*
X191431Y706024D01*
X182169Y706024D01*
X181276Y705131D01*
X181276Y691869D01*
X182169Y690976D01*
X191431Y690976D01*
X192324Y691869D01*
X192324Y694944D01*
X192375Y695219D01*
X192539Y695474D01*
X192789Y695646D01*
X193086Y695706D01*
X222765Y695706D01*
X223051Y695650D01*
X223304Y695483D01*
X259657Y659130D01*
X426143Y659130D01*
X459476Y692463D01*
X459717Y692626D01*
X460015Y692686D01*
X463970Y692686D01*
X467078Y695794D01*
X467078Y696757D01*
X467125Y697021D01*
X467284Y697279D01*
X467532Y697454D01*
X467828Y697519D01*
X468126Y697464D01*
X468379Y697296D01*
X558361Y607314D01*
G37*
G36*
X340513Y904621D02*
X345287Y904621D01*
X349698Y906448D01*
X353074Y909824D01*
X354902Y914235D01*
X354902Y939965D01*
X353074Y944376D01*
X349698Y947752D01*
X345287Y949579D01*
X340513Y949579D01*
X336102Y947752D01*
X332726Y944376D01*
X330899Y939965D01*
X330899Y914235D01*
X332726Y909824D01*
X336102Y906448D01*
X340513Y904621D01*
G37*
G36*
X1813713Y904621D02*
X1818487Y904621D01*
X1822898Y906448D01*
X1826274Y909824D01*
X1828102Y914235D01*
X1828102Y939965D01*
X1826274Y944376D01*
X1822898Y947752D01*
X1818487Y949579D01*
X1813713Y949579D01*
X1809302Y947752D01*
X1805926Y944376D01*
X1804099Y939965D01*
X1804099Y914235D01*
X1805926Y909824D01*
X1809302Y906448D01*
X1813713Y904621D01*
G37*
G36*
X2791613Y904621D02*
X2796387Y904621D01*
X2800798Y906448D01*
X2804174Y909824D01*
X2806002Y914235D01*
X2806002Y939965D01*
X2804174Y944376D01*
X2800798Y947752D01*
X2796387Y949579D01*
X2791613Y949579D01*
X2787202Y947752D01*
X2783826Y944376D01*
X2781999Y939965D01*
X2781999Y914235D01*
X2783826Y909824D01*
X2787202Y906448D01*
X2791613Y904621D01*
G37*
G36*
X1039834Y639826D02*
X1042966Y639826D01*
X1045860Y641025D01*
X1048075Y643240D01*
X1049274Y646134D01*
X1049274Y649266D01*
X1048075Y652160D01*
X1045860Y654375D01*
X1043648Y655291D01*
X1043410Y655448D01*
X1043238Y655698D01*
X1043178Y655995D01*
X1043178Y801047D01*
X926625Y917600D01*
X926462Y917842D01*
X926402Y918139D01*
X926402Y939965D01*
X924574Y944376D01*
X921198Y947752D01*
X916787Y949579D01*
X912013Y949579D01*
X907602Y947752D01*
X904226Y944376D01*
X902399Y939965D01*
X902399Y914235D01*
X904226Y909824D01*
X907602Y906448D01*
X912013Y904621D01*
X916787Y904621D01*
X921198Y906448D01*
X924574Y909824D01*
X925122Y911147D01*
X925271Y911377D01*
X925518Y911552D01*
X925814Y911617D01*
X926112Y911562D01*
X926365Y911394D01*
X1038383Y799376D01*
X1038546Y799135D01*
X1038606Y798837D01*
X1038606Y655575D01*
X1038553Y655294D01*
X1038387Y655040D01*
X1038136Y654871D01*
X1036940Y654375D01*
X1034725Y652160D01*
X1033526Y649266D01*
X1033526Y646134D01*
X1034725Y643240D01*
X1036940Y641025D01*
X1039834Y639826D01*
G37*
G36*
X3058313Y904621D02*
X3063087Y904621D01*
X3067498Y906448D01*
X3070874Y909824D01*
X3072702Y914235D01*
X3072702Y939965D01*
X3070874Y944376D01*
X3067498Y947752D01*
X3063087Y949579D01*
X3058313Y949579D01*
X3053902Y947752D01*
X3050526Y944376D01*
X3048699Y939965D01*
X3048699Y914235D01*
X3050526Y909824D01*
X3053902Y906448D01*
X3058313Y904621D01*
G37*
G36*
X3109113Y904621D02*
X3113887Y904621D01*
X3118298Y906448D01*
X3121674Y909824D01*
X3123502Y914235D01*
X3123502Y939965D01*
X3121674Y944376D01*
X3118298Y947752D01*
X3113887Y949579D01*
X3109113Y949579D01*
X3104702Y947752D01*
X3101326Y944376D01*
X3099499Y939965D01*
X3099499Y914235D01*
X3101326Y909824D01*
X3104702Y906448D01*
X3109113Y904621D01*
G37*
G36*
X2842413Y904621D02*
X2847187Y904621D01*
X2851598Y906448D01*
X2854974Y909824D01*
X2856802Y914235D01*
X2856802Y939965D01*
X2854974Y944376D01*
X2851598Y947752D01*
X2847187Y949579D01*
X2842413Y949579D01*
X2838002Y947752D01*
X2834626Y944376D01*
X2832799Y939965D01*
X2832799Y914235D01*
X2834626Y909824D01*
X2838002Y906448D01*
X2842413Y904621D01*
G37*
G36*
X2740813Y904621D02*
X2745587Y904621D01*
X2749998Y906448D01*
X2753374Y909824D01*
X2755202Y914235D01*
X2755202Y939965D01*
X2753374Y944376D01*
X2749998Y947752D01*
X2745587Y949579D01*
X2740813Y949579D01*
X2736402Y947752D01*
X2733026Y944376D01*
X2731199Y939965D01*
X2731199Y914235D01*
X2733026Y909824D01*
X2736402Y906448D01*
X2740813Y904621D01*
G37*
G36*
X813562Y903605D02*
X815389Y903605D01*
X820174Y905587D01*
X823836Y909249D01*
X825818Y914033D01*
X825818Y926338D01*
X813562Y926338D01*
X813562Y903605D01*
G37*
G36*
X3010662Y903605D02*
X3012489Y903605D01*
X3017274Y905587D01*
X3020936Y909249D01*
X3022918Y914033D01*
X3022918Y926338D01*
X3010662Y926338D01*
X3010662Y903605D01*
G37*
G36*
X1432511Y903605D02*
X1434338Y903605D01*
X1434338Y926338D01*
X1422083Y926338D01*
X1422083Y914033D01*
X1424064Y909249D01*
X1427726Y905587D01*
X1432511Y903605D01*
G37*
G36*
X1435862Y903605D02*
X1437689Y903605D01*
X1442474Y905587D01*
X1446136Y909249D01*
X1448118Y914033D01*
X1448118Y926338D01*
X1435862Y926338D01*
X1435862Y903605D01*
G37*
G36*
X1762711Y903605D02*
X1764538Y903605D01*
X1764538Y926338D01*
X1752283Y926338D01*
X1752283Y914033D01*
X1754264Y909249D01*
X1757926Y905587D01*
X1762711Y903605D01*
G37*
G36*
X1766062Y903605D02*
X1767889Y903605D01*
X1772674Y905587D01*
X1776336Y909249D01*
X1778318Y914033D01*
X1778318Y926338D01*
X1766062Y926338D01*
X1766062Y903605D01*
G37*
G36*
X2693162Y903605D02*
X2694989Y903605D01*
X2699774Y905587D01*
X2703436Y909249D01*
X2705418Y914033D01*
X2705418Y926338D01*
X2693162Y926338D01*
X2693162Y903605D01*
G37*
G36*
X2689811Y903605D02*
X2691638Y903605D01*
X2691638Y926338D01*
X2679383Y926338D01*
X2679383Y914033D01*
X2681364Y909249D01*
X2685026Y905587D01*
X2689811Y903605D01*
G37*
G36*
X3007311Y903605D02*
X3009138Y903605D01*
X3009138Y926338D01*
X2996883Y926338D01*
X2996883Y914033D01*
X2998864Y909249D01*
X3002526Y905587D01*
X3007311Y903605D01*
G37*
G36*
X496062Y903605D02*
X497889Y903605D01*
X502674Y905587D01*
X506336Y909249D01*
X508318Y914033D01*
X508318Y926338D01*
X496062Y926338D01*
X496062Y903605D01*
G37*
G36*
X492711Y903605D02*
X494538Y903605D01*
X494538Y926338D01*
X482283Y926338D01*
X482283Y914033D01*
X484264Y909249D01*
X487926Y905587D01*
X492711Y903605D01*
G37*
G36*
X191262Y903605D02*
X193089Y903605D01*
X197874Y905587D01*
X201536Y909249D01*
X203518Y914033D01*
X203518Y926338D01*
X191262Y926338D01*
X191262Y903605D01*
G37*
G36*
X187911Y903605D02*
X189738Y903605D01*
X189738Y926338D01*
X177483Y926338D01*
X177483Y914033D01*
X179464Y909249D01*
X183126Y905587D01*
X187911Y903605D01*
G37*
G36*
X63335Y749999D02*
X89065Y749999D01*
X93476Y751826D01*
X96852Y755202D01*
X98679Y759613D01*
X98679Y764387D01*
X96852Y768798D01*
X93476Y772174D01*
X89065Y774002D01*
X63335Y774002D01*
X58924Y772174D01*
X55548Y768798D01*
X53721Y764387D01*
X53721Y759613D01*
X55548Y755202D01*
X58924Y751826D01*
X63335Y749999D01*
G37*
G36*
X256417Y712324D02*
X276983Y712324D01*
X277876Y713217D01*
X277876Y733783D01*
X276983Y734676D01*
X256417Y734676D01*
X255524Y733783D01*
X255524Y713217D01*
X256417Y712324D01*
G37*
G36*
X164169Y690976D02*
X173431Y690976D01*
X174324Y691869D01*
X174324Y705131D01*
X173431Y706024D01*
X164169Y706024D01*
X163276Y705131D01*
X163276Y702564D01*
X163225Y702289D01*
X163061Y702034D01*
X162811Y701862D01*
X162514Y701802D01*
X96092Y701802D01*
X95829Y701849D01*
X95570Y702008D01*
X95395Y702256D01*
X95330Y702552D01*
X95386Y702850D01*
X95553Y703103D01*
X96852Y704402D01*
X98679Y708813D01*
X98679Y713587D01*
X96852Y717998D01*
X93476Y721374D01*
X89065Y723202D01*
X63335Y723202D01*
X58924Y721374D01*
X55548Y717998D01*
X53721Y713587D01*
X53721Y708813D01*
X55548Y704402D01*
X58924Y701026D01*
X63335Y699199D01*
X83637Y699199D01*
X83923Y699143D01*
X84176Y698975D01*
X85921Y697230D01*
X162514Y697230D01*
X162789Y697179D01*
X163044Y697015D01*
X163216Y696765D01*
X163276Y696468D01*
X163276Y691869D01*
X164169Y690976D01*
G37*
G36*
X254508Y674262D02*
X265938Y674262D01*
X265938Y685692D01*
X264275Y685692D01*
X259794Y683836D01*
X256364Y680406D01*
X254508Y675925D01*
X254508Y674262D01*
G37*
G36*
X267462Y674262D02*
X278892Y674262D01*
X278892Y675925D01*
X277036Y680406D01*
X273606Y683836D01*
X269125Y685692D01*
X267462Y685692D01*
X267462Y674262D01*
G37*
G36*
X52705Y661162D02*
X75438Y661162D01*
X75438Y673418D01*
X63133Y673418D01*
X58349Y671436D01*
X54687Y667774D01*
X52705Y662989D01*
X52705Y661162D01*
G37*
G36*
X76962Y661162D02*
X99695Y661162D01*
X99695Y662989D01*
X97713Y667774D01*
X94051Y671436D01*
X89267Y673418D01*
X76962Y673418D01*
X76962Y661162D01*
G37*
G36*
X76962Y647383D02*
X89267Y647383D01*
X94051Y649364D01*
X97713Y653026D01*
X99695Y657811D01*
X99695Y659638D01*
X76962Y659638D01*
X76962Y647383D01*
G37*
G36*
X63133Y647383D02*
X75438Y647383D01*
X75438Y659638D01*
X52705Y659638D01*
X52705Y657811D01*
X54687Y653026D01*
X58349Y649364D01*
X63133Y647383D01*
G37*
G36*
X1651762Y648462D02*
X1659890Y648462D01*
X1659890Y649468D01*
X1658537Y652736D01*
X1656036Y655237D01*
X1652768Y656590D01*
X1651762Y656590D01*
X1651762Y648462D01*
G37*
G36*
X1642110Y648462D02*
X1650238Y648462D01*
X1650238Y656590D01*
X1649232Y656590D01*
X1645964Y655237D01*
X1643463Y652736D01*
X1642110Y649468D01*
X1642110Y648462D01*
G37*
G36*
X1725634Y639826D02*
X1728766Y639826D01*
X1731660Y641025D01*
X1733875Y643240D01*
X1735074Y646134D01*
X1735074Y649266D01*
X1733875Y652160D01*
X1731660Y654375D01*
X1728766Y655574D01*
X1725634Y655574D01*
X1722740Y654375D01*
X1720525Y652160D01*
X1719326Y649266D01*
X1719326Y646134D01*
X1720525Y643240D01*
X1722740Y641025D01*
X1725634Y639826D01*
G37*
G36*
X989034Y639826D02*
X992166Y639826D01*
X995060Y641025D01*
X997275Y643240D01*
X998474Y646134D01*
X998474Y649266D01*
X997275Y652160D01*
X995060Y654375D01*
X992166Y655574D01*
X989034Y655574D01*
X986140Y654375D01*
X983925Y652160D01*
X982726Y649266D01*
X982726Y646134D01*
X983925Y643240D01*
X986140Y641025D01*
X989034Y639826D01*
G37*
G36*
X1651762Y638810D02*
X1652768Y638810D01*
X1656036Y640163D01*
X1658537Y642664D01*
X1659890Y645932D01*
X1659890Y646938D01*
X1651762Y646938D01*
X1651762Y638810D01*
G37*
G36*
X1649232Y638810D02*
X1650238Y638810D01*
X1650238Y646938D01*
X1642110Y646938D01*
X1642110Y645932D01*
X1643463Y642664D01*
X1645964Y640163D01*
X1649232Y638810D01*
G37*
G36*
X1712934Y614426D02*
X1716066Y614426D01*
X1718960Y615625D01*
X1721175Y617840D01*
X1722374Y620734D01*
X1722374Y623866D01*
X1721175Y626760D01*
X1718960Y628975D01*
X1716066Y630174D01*
X1712934Y630174D01*
X1710040Y628975D01*
X1707825Y626760D01*
X1706626Y623866D01*
X1706626Y620734D01*
X1707825Y617840D01*
X1710040Y615625D01*
X1712934Y614426D01*
G37*
G36*
X1687534Y614426D02*
X1690666Y614426D01*
X1693560Y615625D01*
X1695775Y617840D01*
X1696974Y620734D01*
X1696974Y623866D01*
X1695775Y626760D01*
X1693560Y628975D01*
X1690666Y630174D01*
X1687534Y630174D01*
X1684640Y628975D01*
X1682425Y626760D01*
X1681226Y623866D01*
X1681226Y620734D01*
X1682425Y617840D01*
X1684640Y615625D01*
X1687534Y614426D01*
G37*
G36*
X1662134Y614426D02*
X1665266Y614426D01*
X1668160Y615625D01*
X1670375Y617840D01*
X1671574Y620734D01*
X1671574Y623866D01*
X1670375Y626760D01*
X1668160Y628975D01*
X1665266Y630174D01*
X1662134Y630174D01*
X1659240Y628975D01*
X1657025Y626760D01*
X1655826Y623866D01*
X1655826Y620734D01*
X1657025Y617840D01*
X1659240Y615625D01*
X1662134Y614426D01*
G37*
G36*
X1636734Y614426D02*
X1639866Y614426D01*
X1642760Y615625D01*
X1644975Y617840D01*
X1646174Y620734D01*
X1646174Y623866D01*
X1644975Y626760D01*
X1642760Y628975D01*
X1639866Y630174D01*
X1636734Y630174D01*
X1633840Y628975D01*
X1631625Y626760D01*
X1630426Y623866D01*
X1630426Y620734D01*
X1631625Y617840D01*
X1633840Y615625D01*
X1636734Y614426D01*
G37*
G36*
X1621002Y535686D02*
X1630198Y535686D01*
X1638693Y539205D01*
X1645195Y545707D01*
X1648714Y554202D01*
X1648714Y563398D01*
X1645195Y571893D01*
X1638693Y578395D01*
X1630198Y581914D01*
X1621002Y581914D01*
X1612507Y578395D01*
X1606005Y571893D01*
X1602486Y563398D01*
X1602486Y554202D01*
X1606005Y545707D01*
X1612507Y539205D01*
X1621002Y535686D01*
G37*
G36*
X1367002Y535686D02*
X1376198Y535686D01*
X1384693Y539205D01*
X1391195Y545707D01*
X1394714Y554202D01*
X1394714Y563398D01*
X1391195Y571893D01*
X1384693Y578395D01*
X1376198Y581914D01*
X1367002Y581914D01*
X1358507Y578395D01*
X1352005Y571893D01*
X1348486Y563398D01*
X1348486Y554202D01*
X1352005Y545707D01*
X1358507Y539205D01*
X1367002Y535686D01*
G37*
G36*
X1252702Y535686D02*
X1261898Y535686D01*
X1270393Y539205D01*
X1276895Y545707D01*
X1280414Y554202D01*
X1280414Y563398D01*
X1276895Y571893D01*
X1270393Y578395D01*
X1261898Y581914D01*
X1252702Y581914D01*
X1244207Y578395D01*
X1237705Y571893D01*
X1234186Y563398D01*
X1234186Y554202D01*
X1237705Y545707D01*
X1244207Y539205D01*
X1252702Y535686D01*
G37*
G36*
X1049502Y535686D02*
X1058698Y535686D01*
X1067193Y539205D01*
X1073695Y545707D01*
X1077214Y554202D01*
X1077214Y563398D01*
X1073695Y571893D01*
X1067193Y578395D01*
X1058698Y581914D01*
X1049502Y581914D01*
X1041007Y578395D01*
X1034505Y571893D01*
X1030986Y563398D01*
X1030986Y554202D01*
X1034505Y545707D01*
X1041007Y539205D01*
X1049502Y535686D01*
G37*
G36*
X1735302Y535686D02*
X1744498Y535686D01*
X1752993Y539205D01*
X1759495Y545707D01*
X1763014Y554202D01*
X1763014Y563398D01*
X1759495Y571893D01*
X1752993Y578395D01*
X1744498Y581914D01*
X1735302Y581914D01*
X1726807Y578395D01*
X1720305Y571893D01*
X1716786Y563398D01*
X1716786Y554202D01*
X1720305Y545707D01*
X1726807Y539205D01*
X1735302Y535686D01*
G37*
G36*
X935202Y535686D02*
X944398Y535686D01*
X952893Y539205D01*
X959395Y545707D01*
X962914Y554202D01*
X962914Y563398D01*
X959395Y571893D01*
X952893Y578395D01*
X944398Y581914D01*
X935202Y581914D01*
X926707Y578395D01*
X920205Y571893D01*
X916686Y563398D01*
X916686Y554202D01*
X920205Y545707D01*
X926707Y539205D01*
X935202Y535686D01*
G37*
%LPD*%
G36*
X2378253Y906078D02*
X2377955Y906018D01*
X2230708Y906018D01*
X2230445Y906065D01*
X2230186Y906224D01*
X2230011Y906472D01*
X2229946Y906768D01*
X2230002Y907066D01*
X2230169Y907319D01*
X2232674Y909824D01*
X2234502Y914235D01*
X2234502Y925068D01*
X2234553Y925343D01*
X2234716Y925598D01*
X2234966Y925770D01*
X2235264Y925830D01*
X2360099Y925830D01*
X2373282Y939013D01*
X2373501Y939166D01*
X2373796Y939236D01*
X2374095Y939185D01*
X2374351Y939021D01*
X2374522Y938771D01*
X2374583Y938474D01*
X2374583Y927862D01*
X2400618Y927862D01*
X2400618Y940167D01*
X2398636Y944951D01*
X2396198Y947389D01*
X2396045Y947609D01*
X2395975Y947904D01*
X2396026Y948203D01*
X2396189Y948458D01*
X2396439Y948630D01*
X2396737Y948690D01*
X2430700Y948690D01*
X2430964Y948643D01*
X2431222Y948484D01*
X2431397Y948236D01*
X2431462Y947940D01*
X2431407Y947642D01*
X2431239Y947389D01*
X2428226Y944376D01*
X2426399Y939965D01*
X2426399Y918139D01*
X2426343Y917853D01*
X2426175Y917600D01*
X2414816Y906241D01*
X2414575Y906078D01*
X2414277Y906018D01*
X2397245Y906018D01*
X2396981Y906065D01*
X2396723Y906224D01*
X2396548Y906472D01*
X2396483Y906768D01*
X2396538Y907066D01*
X2396706Y907319D01*
X2398636Y909249D01*
X2400618Y914033D01*
X2400618Y926338D01*
X2374583Y926338D01*
X2374583Y914033D01*
X2376564Y909249D01*
X2378494Y907319D01*
X2378647Y907099D01*
X2378717Y906804D01*
X2378666Y906505D01*
X2378503Y906250D01*
X2378253Y906078D01*
G37*
D10*
X342900Y937578D02*
X342900Y916623D01*
X292100Y916623D02*
X292100Y937578D01*
X241300Y937578D02*
X241300Y916623D01*
X190500Y916623D02*
X190500Y937578D01*
X3162300Y937578D02*
X3162300Y916623D01*
X3111500Y916623D02*
X3111500Y937578D01*
X3060700Y937578D02*
X3060700Y916623D01*
X3009900Y916623D02*
X3009900Y937578D01*
X647700Y937578D02*
X647700Y916623D01*
X596900Y916623D02*
X596900Y937578D01*
X546100Y937578D02*
X546100Y916623D01*
X495300Y916623D02*
X495300Y937578D01*
X965200Y937578D02*
X965200Y916623D01*
X914400Y916623D02*
X914400Y937578D01*
X863600Y937578D02*
X863600Y916623D01*
X812800Y916623D02*
X812800Y937578D01*
X1270000Y937578D02*
X1270000Y916623D01*
X1219200Y916623D02*
X1219200Y937578D01*
X1168400Y937578D02*
X1168400Y916623D01*
X1117600Y916623D02*
X1117600Y937578D01*
X1587500Y937578D02*
X1587500Y916623D01*
X1536700Y916623D02*
X1536700Y937578D01*
X1485900Y937578D02*
X1485900Y916623D01*
X1435100Y916623D02*
X1435100Y937578D01*
X1917700Y937578D02*
X1917700Y916623D01*
X1866900Y916623D02*
X1866900Y937578D01*
X1816100Y937578D02*
X1816100Y916623D01*
X1765300Y916623D02*
X1765300Y937578D01*
X2222500Y937578D02*
X2222500Y916623D01*
X2171700Y916623D02*
X2171700Y937578D01*
X2120900Y937578D02*
X2120900Y916623D01*
X2070100Y916623D02*
X2070100Y937578D01*
X2540000Y937578D02*
X2540000Y916623D01*
X2489200Y916623D02*
X2489200Y937578D01*
X2438400Y937578D02*
X2438400Y916623D01*
X2387600Y916623D02*
X2387600Y937578D01*
X2844800Y937578D02*
X2844800Y916623D01*
X2794000Y916623D02*
X2794000Y937578D01*
X2743200Y937578D02*
X2743200Y916623D01*
X2692400Y916623D02*
X2692400Y937578D01*
D11*
X965200Y647700D03*
X990600Y647700D03*
X1016000Y647700D03*
X1041400Y647700D03*
X952500Y622300D03*
X977900Y622300D03*
X1003300Y622300D03*
X1028700Y622300D03*
D12*
X939800Y558800D03*
X1054100Y558800D03*
D11*
X1282700Y647700D03*
X1308100Y647700D03*
X1333500Y647700D03*
X1358900Y647700D03*
X1270000Y622300D03*
X1295400Y622300D03*
X1320800Y622300D03*
X1346200Y622300D03*
D12*
X1257300Y558800D03*
X1371600Y558800D03*
D11*
X1651000Y647700D03*
X1676400Y647700D03*
X1701800Y647700D03*
X1727200Y647700D03*
X1638300Y622300D03*
X1663700Y622300D03*
X1689100Y622300D03*
X1714500Y622300D03*
D12*
X1625600Y558800D03*
X1739900Y558800D03*
D10*
X86678Y762000D02*
X65723Y762000D01*
X65723Y711200D02*
X86678Y711200D01*
X86678Y660400D02*
X65723Y660400D01*
D13*
X168800Y698500D03*
X186800Y698500D03*
D14*
X266700Y723500D03*
D15*
X266700Y673500D03*
D16*
X2872740Y928116D02*
X3009900Y928116D01*
X2872740Y928116D02*
X2849880Y950976D01*
X2715768Y950976D01*
X2692908Y928116D01*
X3009900Y928116D02*
X3009900Y927100D01*
X2692908Y928116D02*
X2692400Y927100D01*
X1662684Y647700D02*
X1651000Y647700D01*
X1662684Y647700D02*
X1671828Y638556D01*
X1705356Y638556D01*
X1764792Y697992D01*
X1764792Y926592D01*
X1765300Y927100D01*
X1946148Y928116D02*
X2069592Y928116D01*
X1946148Y928116D02*
X1923288Y950976D01*
X1789176Y950976D01*
X1765300Y927100D01*
X2069592Y928116D02*
X2070100Y927100D01*
X835152Y928116D02*
X813816Y928116D01*
X835152Y928116D02*
X858012Y950976D01*
X1094232Y950976D01*
X1117092Y928116D01*
X813816Y928116D02*
X812800Y927100D01*
X1117092Y928116D02*
X1117600Y927100D01*
X86868Y672084D02*
X76200Y661416D01*
X266700Y672084D02*
X266700Y673500D01*
X76200Y661416D02*
X76200Y660400D01*
X190500Y766572D02*
X190500Y927100D01*
X371856Y928116D02*
X495300Y928116D01*
X371856Y928116D02*
X348996Y950976D01*
X213360Y950976D01*
X190500Y928116D01*
X190500Y927100D01*
X676656Y928116D02*
X812292Y928116D01*
X676656Y928116D02*
X653796Y950976D01*
X518160Y950976D01*
X495300Y928116D01*
X812292Y928116D02*
X812800Y927100D01*
X495300Y927100D02*
X495300Y928116D01*
X266700Y690372D02*
X266700Y673500D01*
X214884Y742188D02*
X190500Y766572D01*
X214884Y742188D02*
X266700Y690372D01*
X156972Y672084D02*
X86868Y672084D01*
X156972Y672084D02*
X179832Y694944D01*
X179832Y707136D01*
X214884Y742188D01*
X2223516Y928116D02*
X2359152Y928116D01*
X2382012Y950976D01*
X2516124Y950976D01*
X2540000Y927100D01*
X2223516Y928116D02*
X2222500Y927100D01*
X1088136Y926592D02*
X966216Y926592D01*
X1088136Y926592D02*
X1110996Y903732D01*
X1246632Y903732D01*
X1270000Y927100D01*
X966216Y926592D02*
X965200Y927100D01*
X1676400Y647700D02*
X1701800Y647700D01*
X1676400Y647700D02*
X1676400Y838200D01*
X1587500Y927100D01*
X1406652Y928116D02*
X1271016Y928116D01*
X1406652Y928116D02*
X1429512Y950976D01*
X1563624Y950976D01*
X1587500Y927100D01*
X1271016Y928116D02*
X1270000Y927100D01*
X1002792Y621792D02*
X995172Y621792D01*
X982980Y609600D01*
X559308Y609600D01*
X242316Y926592D01*
X1002792Y621792D02*
X1003300Y622300D01*
X242316Y926592D02*
X241300Y927100D01*
X1014984Y623316D02*
X1028700Y623316D01*
X1014984Y623316D02*
X1007364Y630936D01*
X998220Y630936D01*
X987552Y620268D01*
X987552Y618744D01*
X981456Y612648D01*
X606552Y612648D01*
X292100Y927100D01*
X1028700Y623316D02*
X1028700Y622300D01*
X952500Y622300D02*
X952500Y643128D01*
X694944Y900684D01*
X573024Y900684D01*
X547116Y926592D01*
X546100Y927100D01*
X1040892Y800100D02*
X1040892Y647700D01*
X1040892Y800100D02*
X914400Y926592D01*
X1040892Y647700D02*
X1041400Y647700D01*
X914400Y926592D02*
X914400Y927100D01*
X1014984Y775716D02*
X1014984Y647700D01*
X1014984Y775716D02*
X863600Y927100D01*
X1014984Y647700D02*
X1016000Y647700D01*
X1321308Y623316D02*
X1321308Y762000D01*
X1485900Y926592D01*
X1321308Y623316D02*
X1320800Y622300D01*
X1485900Y926592D02*
X1485900Y927100D01*
X1308100Y647700D02*
X1295400Y647700D01*
X1286256Y656844D01*
X1278636Y656844D01*
X1274064Y652272D01*
X1274064Y630936D01*
X1298448Y606552D01*
X2168652Y606552D01*
X2489200Y927100D01*
X1309116Y621792D02*
X1283208Y647700D01*
X1309116Y621792D02*
X1309116Y615696D01*
X1315212Y609600D01*
X1859280Y609600D01*
X2153412Y903732D01*
X2415540Y903732D01*
X2438400Y926592D01*
X1283208Y647700D02*
X1282700Y647700D01*
X2438400Y926592D02*
X2438400Y927100D01*
X2148840Y903732D02*
X1834896Y903732D01*
X2148840Y903732D02*
X2171700Y926592D01*
X2171700Y927100D01*
D17*
X1834896Y903732D03*
D16*
X1333500Y647700D02*
X1333500Y638556D01*
X1339596Y632460D01*
D17*
X1339596Y632460D03*
D16*
X976884Y623316D02*
X976884Y711708D01*
X859536Y829056D01*
X859536Y847344D01*
X783336Y923544D01*
X673608Y923544D01*
X653796Y903732D01*
X620268Y903732D01*
X596900Y927100D01*
X976884Y623316D02*
X977900Y622300D01*
X1347216Y623316D02*
X1347216Y737616D01*
X1536700Y927100D01*
X1347216Y623316D02*
X1346200Y622300D01*
X86868Y699516D02*
X76200Y710184D01*
X76200Y711200D01*
X86868Y699516D02*
X167640Y699516D01*
X168800Y698500D01*
D17*
X461772Y697992D03*
D16*
X224028Y697992D02*
X187452Y697992D01*
X224028Y697992D02*
X260604Y661416D01*
X425196Y661416D01*
X461772Y697992D01*
X187452Y697992D02*
X186800Y698500D01*
D18*
X0Y482600D02*
X3331010Y483870D01*
X3331010Y1001270D01*
X0Y1000000D01*
X0Y482600D01*
M02*
