M48
;GenerationSoftware,Autodesk,EAGLE,9.7.0*%
;CreationDate,2026-04-01T17:47:24Z*%
FMAT,2
ICI,OFF
METRIC,TZ,000.000
T6C0.350
T5C0.762
T4C0.900
T3C1.397
T2C3.302
T1C4.000
%
G90
M71
T1
X3810Y96520
X3810Y52070
X328930Y52070
X328930Y96520
T2
X93980Y55880
X125730Y55880
X105410Y55880
X137160Y55880
X162560Y55880
X173990Y55880
T3
X24130Y92710
X91440Y92710
X316230Y92710
X311150Y92710
X306070Y92710
X300990Y92710
X64770Y92710
X59690Y92710
X54610Y92710
X49530Y92710
X96520Y92710
X86360Y92710
X81280Y92710
X127000Y92710
X121920Y92710
X116840Y92710
X111760Y92710
X158750Y92710
X153670Y92710
X148590Y92710
X143510Y92710
X191770Y92710
X186690Y92710
X181610Y92710
X176530Y92710
X222250Y92710
X217170Y92710
X212090Y92710
X207010Y92710
X254000Y92710
X248920Y92710
X243840Y92710
X238760Y92710
X284480Y92710
X279400Y92710
X274320Y92710
X269240Y92710
X19050Y92710
X34290Y92710
X29210Y92710
X7620Y76200
X7620Y71120
X7620Y66040
T4
X26670Y67350
X26670Y72350
T5
X100330Y62230
X102870Y62230
X128270Y64770
X130810Y64770
X133350Y64770
X135890Y64770
X129540Y62230
X132080Y62230
X134620Y62230
X96520Y64770
X165100Y64770
X167640Y64770
X170180Y64770
X172720Y64770
X127000Y62230
X166370Y62230
X168910Y62230
X171450Y62230
X99060Y64770
X101600Y64770
X104140Y64770
X95250Y62230
X97790Y62230
X163830Y62230
T6
X183490Y90373
X46177Y69799
X133960Y63246
M30