G04 EAGLE Gerber RS-274X export*
G75*
%MOMM*%
%FSLAX34Y34*%
%LPD*%
%INBoard Outline*%
%IPPOS*%
%AMOC8*
5,1,8,0,0,1.08239X$1,22.5*%
G01*
G04 Define Apertures*
%ADD10C,0.000000*%
%ADD11C,0.254000*%
D10*
X0Y482600D02*
X3331010Y483870D01*
X3331010Y1001270D01*
X0Y1000000D01*
X0Y482600D01*
X18100Y965200D02*
X18106Y965691D01*
X18124Y966181D01*
X18154Y966671D01*
X18196Y967160D01*
X18250Y967648D01*
X18316Y968135D01*
X18394Y968619D01*
X18484Y969102D01*
X18586Y969582D01*
X18699Y970060D01*
X18824Y970534D01*
X18961Y971006D01*
X19109Y971474D01*
X19269Y971938D01*
X19440Y972398D01*
X19622Y972854D01*
X19816Y973305D01*
X20020Y973751D01*
X20236Y974192D01*
X20462Y974628D01*
X20698Y975058D01*
X20945Y975482D01*
X21203Y975900D01*
X21471Y976311D01*
X21748Y976716D01*
X22036Y977114D01*
X22333Y977505D01*
X22640Y977888D01*
X22956Y978263D01*
X23281Y978631D01*
X23615Y978991D01*
X23958Y979342D01*
X24309Y979685D01*
X24669Y980019D01*
X25037Y980344D01*
X25412Y980660D01*
X25795Y980967D01*
X26186Y981264D01*
X26584Y981552D01*
X26989Y981829D01*
X27400Y982097D01*
X27818Y982355D01*
X28242Y982602D01*
X28672Y982838D01*
X29108Y983064D01*
X29549Y983280D01*
X29995Y983484D01*
X30446Y983678D01*
X30902Y983860D01*
X31362Y984031D01*
X31826Y984191D01*
X32294Y984339D01*
X32766Y984476D01*
X33240Y984601D01*
X33718Y984714D01*
X34198Y984816D01*
X34681Y984906D01*
X35165Y984984D01*
X35652Y985050D01*
X36140Y985104D01*
X36629Y985146D01*
X37119Y985176D01*
X37609Y985194D01*
X38100Y985200D01*
X38591Y985194D01*
X39081Y985176D01*
X39571Y985146D01*
X40060Y985104D01*
X40548Y985050D01*
X41035Y984984D01*
X41519Y984906D01*
X42002Y984816D01*
X42482Y984714D01*
X42960Y984601D01*
X43434Y984476D01*
X43906Y984339D01*
X44374Y984191D01*
X44838Y984031D01*
X45298Y983860D01*
X45754Y983678D01*
X46205Y983484D01*
X46651Y983280D01*
X47092Y983064D01*
X47528Y982838D01*
X47958Y982602D01*
X48382Y982355D01*
X48800Y982097D01*
X49211Y981829D01*
X49616Y981552D01*
X50014Y981264D01*
X50405Y980967D01*
X50788Y980660D01*
X51163Y980344D01*
X51531Y980019D01*
X51891Y979685D01*
X52242Y979342D01*
X52585Y978991D01*
X52919Y978631D01*
X53244Y978263D01*
X53560Y977888D01*
X53867Y977505D01*
X54164Y977114D01*
X54452Y976716D01*
X54729Y976311D01*
X54997Y975900D01*
X55255Y975482D01*
X55502Y975058D01*
X55738Y974628D01*
X55964Y974192D01*
X56180Y973751D01*
X56384Y973305D01*
X56578Y972854D01*
X56760Y972398D01*
X56931Y971938D01*
X57091Y971474D01*
X57239Y971006D01*
X57376Y970534D01*
X57501Y970060D01*
X57614Y969582D01*
X57716Y969102D01*
X57806Y968619D01*
X57884Y968135D01*
X57950Y967648D01*
X58004Y967160D01*
X58046Y966671D01*
X58076Y966181D01*
X58094Y965691D01*
X58100Y965200D01*
X58094Y964709D01*
X58076Y964219D01*
X58046Y963729D01*
X58004Y963240D01*
X57950Y962752D01*
X57884Y962265D01*
X57806Y961781D01*
X57716Y961298D01*
X57614Y960818D01*
X57501Y960340D01*
X57376Y959866D01*
X57239Y959394D01*
X57091Y958926D01*
X56931Y958462D01*
X56760Y958002D01*
X56578Y957546D01*
X56384Y957095D01*
X56180Y956649D01*
X55964Y956208D01*
X55738Y955772D01*
X55502Y955342D01*
X55255Y954918D01*
X54997Y954500D01*
X54729Y954089D01*
X54452Y953684D01*
X54164Y953286D01*
X53867Y952895D01*
X53560Y952512D01*
X53244Y952137D01*
X52919Y951769D01*
X52585Y951409D01*
X52242Y951058D01*
X51891Y950715D01*
X51531Y950381D01*
X51163Y950056D01*
X50788Y949740D01*
X50405Y949433D01*
X50014Y949136D01*
X49616Y948848D01*
X49211Y948571D01*
X48800Y948303D01*
X48382Y948045D01*
X47958Y947798D01*
X47528Y947562D01*
X47092Y947336D01*
X46651Y947120D01*
X46205Y946916D01*
X45754Y946722D01*
X45298Y946540D01*
X44838Y946369D01*
X44374Y946209D01*
X43906Y946061D01*
X43434Y945924D01*
X42960Y945799D01*
X42482Y945686D01*
X42002Y945584D01*
X41519Y945494D01*
X41035Y945416D01*
X40548Y945350D01*
X40060Y945296D01*
X39571Y945254D01*
X39081Y945224D01*
X38591Y945206D01*
X38100Y945200D01*
X37609Y945206D01*
X37119Y945224D01*
X36629Y945254D01*
X36140Y945296D01*
X35652Y945350D01*
X35165Y945416D01*
X34681Y945494D01*
X34198Y945584D01*
X33718Y945686D01*
X33240Y945799D01*
X32766Y945924D01*
X32294Y946061D01*
X31826Y946209D01*
X31362Y946369D01*
X30902Y946540D01*
X30446Y946722D01*
X29995Y946916D01*
X29549Y947120D01*
X29108Y947336D01*
X28672Y947562D01*
X28242Y947798D01*
X27818Y948045D01*
X27400Y948303D01*
X26989Y948571D01*
X26584Y948848D01*
X26186Y949136D01*
X25795Y949433D01*
X25412Y949740D01*
X25037Y950056D01*
X24669Y950381D01*
X24309Y950715D01*
X23958Y951058D01*
X23615Y951409D01*
X23281Y951769D01*
X22956Y952137D01*
X22640Y952512D01*
X22333Y952895D01*
X22036Y953286D01*
X21748Y953684D01*
X21471Y954089D01*
X21203Y954500D01*
X20945Y954918D01*
X20698Y955342D01*
X20462Y955772D01*
X20236Y956208D01*
X20020Y956649D01*
X19816Y957095D01*
X19622Y957546D01*
X19440Y958002D01*
X19269Y958462D01*
X19109Y958926D01*
X18961Y959394D01*
X18824Y959866D01*
X18699Y960340D01*
X18586Y960818D01*
X18484Y961298D01*
X18394Y961781D01*
X18316Y962265D01*
X18250Y962752D01*
X18196Y963240D01*
X18154Y963729D01*
X18124Y964219D01*
X18106Y964709D01*
X18100Y965200D01*
X18100Y520700D02*
X18106Y521191D01*
X18124Y521681D01*
X18154Y522171D01*
X18196Y522660D01*
X18250Y523148D01*
X18316Y523635D01*
X18394Y524119D01*
X18484Y524602D01*
X18586Y525082D01*
X18699Y525560D01*
X18824Y526034D01*
X18961Y526506D01*
X19109Y526974D01*
X19269Y527438D01*
X19440Y527898D01*
X19622Y528354D01*
X19816Y528805D01*
X20020Y529251D01*
X20236Y529692D01*
X20462Y530128D01*
X20698Y530558D01*
X20945Y530982D01*
X21203Y531400D01*
X21471Y531811D01*
X21748Y532216D01*
X22036Y532614D01*
X22333Y533005D01*
X22640Y533388D01*
X22956Y533763D01*
X23281Y534131D01*
X23615Y534491D01*
X23958Y534842D01*
X24309Y535185D01*
X24669Y535519D01*
X25037Y535844D01*
X25412Y536160D01*
X25795Y536467D01*
X26186Y536764D01*
X26584Y537052D01*
X26989Y537329D01*
X27400Y537597D01*
X27818Y537855D01*
X28242Y538102D01*
X28672Y538338D01*
X29108Y538564D01*
X29549Y538780D01*
X29995Y538984D01*
X30446Y539178D01*
X30902Y539360D01*
X31362Y539531D01*
X31826Y539691D01*
X32294Y539839D01*
X32766Y539976D01*
X33240Y540101D01*
X33718Y540214D01*
X34198Y540316D01*
X34681Y540406D01*
X35165Y540484D01*
X35652Y540550D01*
X36140Y540604D01*
X36629Y540646D01*
X37119Y540676D01*
X37609Y540694D01*
X38100Y540700D01*
X38591Y540694D01*
X39081Y540676D01*
X39571Y540646D01*
X40060Y540604D01*
X40548Y540550D01*
X41035Y540484D01*
X41519Y540406D01*
X42002Y540316D01*
X42482Y540214D01*
X42960Y540101D01*
X43434Y539976D01*
X43906Y539839D01*
X44374Y539691D01*
X44838Y539531D01*
X45298Y539360D01*
X45754Y539178D01*
X46205Y538984D01*
X46651Y538780D01*
X47092Y538564D01*
X47528Y538338D01*
X47958Y538102D01*
X48382Y537855D01*
X48800Y537597D01*
X49211Y537329D01*
X49616Y537052D01*
X50014Y536764D01*
X50405Y536467D01*
X50788Y536160D01*
X51163Y535844D01*
X51531Y535519D01*
X51891Y535185D01*
X52242Y534842D01*
X52585Y534491D01*
X52919Y534131D01*
X53244Y533763D01*
X53560Y533388D01*
X53867Y533005D01*
X54164Y532614D01*
X54452Y532216D01*
X54729Y531811D01*
X54997Y531400D01*
X55255Y530982D01*
X55502Y530558D01*
X55738Y530128D01*
X55964Y529692D01*
X56180Y529251D01*
X56384Y528805D01*
X56578Y528354D01*
X56760Y527898D01*
X56931Y527438D01*
X57091Y526974D01*
X57239Y526506D01*
X57376Y526034D01*
X57501Y525560D01*
X57614Y525082D01*
X57716Y524602D01*
X57806Y524119D01*
X57884Y523635D01*
X57950Y523148D01*
X58004Y522660D01*
X58046Y522171D01*
X58076Y521681D01*
X58094Y521191D01*
X58100Y520700D01*
X58094Y520209D01*
X58076Y519719D01*
X58046Y519229D01*
X58004Y518740D01*
X57950Y518252D01*
X57884Y517765D01*
X57806Y517281D01*
X57716Y516798D01*
X57614Y516318D01*
X57501Y515840D01*
X57376Y515366D01*
X57239Y514894D01*
X57091Y514426D01*
X56931Y513962D01*
X56760Y513502D01*
X56578Y513046D01*
X56384Y512595D01*
X56180Y512149D01*
X55964Y511708D01*
X55738Y511272D01*
X55502Y510842D01*
X55255Y510418D01*
X54997Y510000D01*
X54729Y509589D01*
X54452Y509184D01*
X54164Y508786D01*
X53867Y508395D01*
X53560Y508012D01*
X53244Y507637D01*
X52919Y507269D01*
X52585Y506909D01*
X52242Y506558D01*
X51891Y506215D01*
X51531Y505881D01*
X51163Y505556D01*
X50788Y505240D01*
X50405Y504933D01*
X50014Y504636D01*
X49616Y504348D01*
X49211Y504071D01*
X48800Y503803D01*
X48382Y503545D01*
X47958Y503298D01*
X47528Y503062D01*
X47092Y502836D01*
X46651Y502620D01*
X46205Y502416D01*
X45754Y502222D01*
X45298Y502040D01*
X44838Y501869D01*
X44374Y501709D01*
X43906Y501561D01*
X43434Y501424D01*
X42960Y501299D01*
X42482Y501186D01*
X42002Y501084D01*
X41519Y500994D01*
X41035Y500916D01*
X40548Y500850D01*
X40060Y500796D01*
X39571Y500754D01*
X39081Y500724D01*
X38591Y500706D01*
X38100Y500700D01*
X37609Y500706D01*
X37119Y500724D01*
X36629Y500754D01*
X36140Y500796D01*
X35652Y500850D01*
X35165Y500916D01*
X34681Y500994D01*
X34198Y501084D01*
X33718Y501186D01*
X33240Y501299D01*
X32766Y501424D01*
X32294Y501561D01*
X31826Y501709D01*
X31362Y501869D01*
X30902Y502040D01*
X30446Y502222D01*
X29995Y502416D01*
X29549Y502620D01*
X29108Y502836D01*
X28672Y503062D01*
X28242Y503298D01*
X27818Y503545D01*
X27400Y503803D01*
X26989Y504071D01*
X26584Y504348D01*
X26186Y504636D01*
X25795Y504933D01*
X25412Y505240D01*
X25037Y505556D01*
X24669Y505881D01*
X24309Y506215D01*
X23958Y506558D01*
X23615Y506909D01*
X23281Y507269D01*
X22956Y507637D01*
X22640Y508012D01*
X22333Y508395D01*
X22036Y508786D01*
X21748Y509184D01*
X21471Y509589D01*
X21203Y510000D01*
X20945Y510418D01*
X20698Y510842D01*
X20462Y511272D01*
X20236Y511708D01*
X20020Y512149D01*
X19816Y512595D01*
X19622Y513046D01*
X19440Y513502D01*
X19269Y513962D01*
X19109Y514426D01*
X18961Y514894D01*
X18824Y515366D01*
X18699Y515840D01*
X18586Y516318D01*
X18484Y516798D01*
X18394Y517281D01*
X18316Y517765D01*
X18250Y518252D01*
X18196Y518740D01*
X18154Y519229D01*
X18124Y519719D01*
X18106Y520209D01*
X18100Y520700D01*
X3269300Y520700D02*
X3269306Y521191D01*
X3269324Y521681D01*
X3269354Y522171D01*
X3269396Y522660D01*
X3269450Y523148D01*
X3269516Y523635D01*
X3269594Y524119D01*
X3269684Y524602D01*
X3269786Y525082D01*
X3269899Y525560D01*
X3270024Y526034D01*
X3270161Y526506D01*
X3270309Y526974D01*
X3270469Y527438D01*
X3270640Y527898D01*
X3270822Y528354D01*
X3271016Y528805D01*
X3271220Y529251D01*
X3271436Y529692D01*
X3271662Y530128D01*
X3271898Y530558D01*
X3272145Y530982D01*
X3272403Y531400D01*
X3272671Y531811D01*
X3272948Y532216D01*
X3273236Y532614D01*
X3273533Y533005D01*
X3273840Y533388D01*
X3274156Y533763D01*
X3274481Y534131D01*
X3274815Y534491D01*
X3275158Y534842D01*
X3275509Y535185D01*
X3275869Y535519D01*
X3276237Y535844D01*
X3276612Y536160D01*
X3276995Y536467D01*
X3277386Y536764D01*
X3277784Y537052D01*
X3278189Y537329D01*
X3278600Y537597D01*
X3279018Y537855D01*
X3279442Y538102D01*
X3279872Y538338D01*
X3280308Y538564D01*
X3280749Y538780D01*
X3281195Y538984D01*
X3281646Y539178D01*
X3282102Y539360D01*
X3282562Y539531D01*
X3283026Y539691D01*
X3283494Y539839D01*
X3283966Y539976D01*
X3284440Y540101D01*
X3284918Y540214D01*
X3285398Y540316D01*
X3285881Y540406D01*
X3286365Y540484D01*
X3286852Y540550D01*
X3287340Y540604D01*
X3287829Y540646D01*
X3288319Y540676D01*
X3288809Y540694D01*
X3289300Y540700D01*
X3289791Y540694D01*
X3290281Y540676D01*
X3290771Y540646D01*
X3291260Y540604D01*
X3291748Y540550D01*
X3292235Y540484D01*
X3292719Y540406D01*
X3293202Y540316D01*
X3293682Y540214D01*
X3294160Y540101D01*
X3294634Y539976D01*
X3295106Y539839D01*
X3295574Y539691D01*
X3296038Y539531D01*
X3296498Y539360D01*
X3296954Y539178D01*
X3297405Y538984D01*
X3297851Y538780D01*
X3298292Y538564D01*
X3298728Y538338D01*
X3299158Y538102D01*
X3299582Y537855D01*
X3300000Y537597D01*
X3300411Y537329D01*
X3300816Y537052D01*
X3301214Y536764D01*
X3301605Y536467D01*
X3301988Y536160D01*
X3302363Y535844D01*
X3302731Y535519D01*
X3303091Y535185D01*
X3303442Y534842D01*
X3303785Y534491D01*
X3304119Y534131D01*
X3304444Y533763D01*
X3304760Y533388D01*
X3305067Y533005D01*
X3305364Y532614D01*
X3305652Y532216D01*
X3305929Y531811D01*
X3306197Y531400D01*
X3306455Y530982D01*
X3306702Y530558D01*
X3306938Y530128D01*
X3307164Y529692D01*
X3307380Y529251D01*
X3307584Y528805D01*
X3307778Y528354D01*
X3307960Y527898D01*
X3308131Y527438D01*
X3308291Y526974D01*
X3308439Y526506D01*
X3308576Y526034D01*
X3308701Y525560D01*
X3308814Y525082D01*
X3308916Y524602D01*
X3309006Y524119D01*
X3309084Y523635D01*
X3309150Y523148D01*
X3309204Y522660D01*
X3309246Y522171D01*
X3309276Y521681D01*
X3309294Y521191D01*
X3309300Y520700D01*
X3309294Y520209D01*
X3309276Y519719D01*
X3309246Y519229D01*
X3309204Y518740D01*
X3309150Y518252D01*
X3309084Y517765D01*
X3309006Y517281D01*
X3308916Y516798D01*
X3308814Y516318D01*
X3308701Y515840D01*
X3308576Y515366D01*
X3308439Y514894D01*
X3308291Y514426D01*
X3308131Y513962D01*
X3307960Y513502D01*
X3307778Y513046D01*
X3307584Y512595D01*
X3307380Y512149D01*
X3307164Y511708D01*
X3306938Y511272D01*
X3306702Y510842D01*
X3306455Y510418D01*
X3306197Y510000D01*
X3305929Y509589D01*
X3305652Y509184D01*
X3305364Y508786D01*
X3305067Y508395D01*
X3304760Y508012D01*
X3304444Y507637D01*
X3304119Y507269D01*
X3303785Y506909D01*
X3303442Y506558D01*
X3303091Y506215D01*
X3302731Y505881D01*
X3302363Y505556D01*
X3301988Y505240D01*
X3301605Y504933D01*
X3301214Y504636D01*
X3300816Y504348D01*
X3300411Y504071D01*
X3300000Y503803D01*
X3299582Y503545D01*
X3299158Y503298D01*
X3298728Y503062D01*
X3298292Y502836D01*
X3297851Y502620D01*
X3297405Y502416D01*
X3296954Y502222D01*
X3296498Y502040D01*
X3296038Y501869D01*
X3295574Y501709D01*
X3295106Y501561D01*
X3294634Y501424D01*
X3294160Y501299D01*
X3293682Y501186D01*
X3293202Y501084D01*
X3292719Y500994D01*
X3292235Y500916D01*
X3291748Y500850D01*
X3291260Y500796D01*
X3290771Y500754D01*
X3290281Y500724D01*
X3289791Y500706D01*
X3289300Y500700D01*
X3288809Y500706D01*
X3288319Y500724D01*
X3287829Y500754D01*
X3287340Y500796D01*
X3286852Y500850D01*
X3286365Y500916D01*
X3285881Y500994D01*
X3285398Y501084D01*
X3284918Y501186D01*
X3284440Y501299D01*
X3283966Y501424D01*
X3283494Y501561D01*
X3283026Y501709D01*
X3282562Y501869D01*
X3282102Y502040D01*
X3281646Y502222D01*
X3281195Y502416D01*
X3280749Y502620D01*
X3280308Y502836D01*
X3279872Y503062D01*
X3279442Y503298D01*
X3279018Y503545D01*
X3278600Y503803D01*
X3278189Y504071D01*
X3277784Y504348D01*
X3277386Y504636D01*
X3276995Y504933D01*
X3276612Y505240D01*
X3276237Y505556D01*
X3275869Y505881D01*
X3275509Y506215D01*
X3275158Y506558D01*
X3274815Y506909D01*
X3274481Y507269D01*
X3274156Y507637D01*
X3273840Y508012D01*
X3273533Y508395D01*
X3273236Y508786D01*
X3272948Y509184D01*
X3272671Y509589D01*
X3272403Y510000D01*
X3272145Y510418D01*
X3271898Y510842D01*
X3271662Y511272D01*
X3271436Y511708D01*
X3271220Y512149D01*
X3271016Y512595D01*
X3270822Y513046D01*
X3270640Y513502D01*
X3270469Y513962D01*
X3270309Y514426D01*
X3270161Y514894D01*
X3270024Y515366D01*
X3269899Y515840D01*
X3269786Y516318D01*
X3269684Y516798D01*
X3269594Y517281D01*
X3269516Y517765D01*
X3269450Y518252D01*
X3269396Y518740D01*
X3269354Y519229D01*
X3269324Y519719D01*
X3269306Y520209D01*
X3269300Y520700D01*
X3269300Y965200D02*
X3269306Y965691D01*
X3269324Y966181D01*
X3269354Y966671D01*
X3269396Y967160D01*
X3269450Y967648D01*
X3269516Y968135D01*
X3269594Y968619D01*
X3269684Y969102D01*
X3269786Y969582D01*
X3269899Y970060D01*
X3270024Y970534D01*
X3270161Y971006D01*
X3270309Y971474D01*
X3270469Y971938D01*
X3270640Y972398D01*
X3270822Y972854D01*
X3271016Y973305D01*
X3271220Y973751D01*
X3271436Y974192D01*
X3271662Y974628D01*
X3271898Y975058D01*
X3272145Y975482D01*
X3272403Y975900D01*
X3272671Y976311D01*
X3272948Y976716D01*
X3273236Y977114D01*
X3273533Y977505D01*
X3273840Y977888D01*
X3274156Y978263D01*
X3274481Y978631D01*
X3274815Y978991D01*
X3275158Y979342D01*
X3275509Y979685D01*
X3275869Y980019D01*
X3276237Y980344D01*
X3276612Y980660D01*
X3276995Y980967D01*
X3277386Y981264D01*
X3277784Y981552D01*
X3278189Y981829D01*
X3278600Y982097D01*
X3279018Y982355D01*
X3279442Y982602D01*
X3279872Y982838D01*
X3280308Y983064D01*
X3280749Y983280D01*
X3281195Y983484D01*
X3281646Y983678D01*
X3282102Y983860D01*
X3282562Y984031D01*
X3283026Y984191D01*
X3283494Y984339D01*
X3283966Y984476D01*
X3284440Y984601D01*
X3284918Y984714D01*
X3285398Y984816D01*
X3285881Y984906D01*
X3286365Y984984D01*
X3286852Y985050D01*
X3287340Y985104D01*
X3287829Y985146D01*
X3288319Y985176D01*
X3288809Y985194D01*
X3289300Y985200D01*
X3289791Y985194D01*
X3290281Y985176D01*
X3290771Y985146D01*
X3291260Y985104D01*
X3291748Y985050D01*
X3292235Y984984D01*
X3292719Y984906D01*
X3293202Y984816D01*
X3293682Y984714D01*
X3294160Y984601D01*
X3294634Y984476D01*
X3295106Y984339D01*
X3295574Y984191D01*
X3296038Y984031D01*
X3296498Y983860D01*
X3296954Y983678D01*
X3297405Y983484D01*
X3297851Y983280D01*
X3298292Y983064D01*
X3298728Y982838D01*
X3299158Y982602D01*
X3299582Y982355D01*
X3300000Y982097D01*
X3300411Y981829D01*
X3300816Y981552D01*
X3301214Y981264D01*
X3301605Y980967D01*
X3301988Y980660D01*
X3302363Y980344D01*
X3302731Y980019D01*
X3303091Y979685D01*
X3303442Y979342D01*
X3303785Y978991D01*
X3304119Y978631D01*
X3304444Y978263D01*
X3304760Y977888D01*
X3305067Y977505D01*
X3305364Y977114D01*
X3305652Y976716D01*
X3305929Y976311D01*
X3306197Y975900D01*
X3306455Y975482D01*
X3306702Y975058D01*
X3306938Y974628D01*
X3307164Y974192D01*
X3307380Y973751D01*
X3307584Y973305D01*
X3307778Y972854D01*
X3307960Y972398D01*
X3308131Y971938D01*
X3308291Y971474D01*
X3308439Y971006D01*
X3308576Y970534D01*
X3308701Y970060D01*
X3308814Y969582D01*
X3308916Y969102D01*
X3309006Y968619D01*
X3309084Y968135D01*
X3309150Y967648D01*
X3309204Y967160D01*
X3309246Y966671D01*
X3309276Y966181D01*
X3309294Y965691D01*
X3309300Y965200D01*
X3309294Y964709D01*
X3309276Y964219D01*
X3309246Y963729D01*
X3309204Y963240D01*
X3309150Y962752D01*
X3309084Y962265D01*
X3309006Y961781D01*
X3308916Y961298D01*
X3308814Y960818D01*
X3308701Y960340D01*
X3308576Y959866D01*
X3308439Y959394D01*
X3308291Y958926D01*
X3308131Y958462D01*
X3307960Y958002D01*
X3307778Y957546D01*
X3307584Y957095D01*
X3307380Y956649D01*
X3307164Y956208D01*
X3306938Y955772D01*
X3306702Y955342D01*
X3306455Y954918D01*
X3306197Y954500D01*
X3305929Y954089D01*
X3305652Y953684D01*
X3305364Y953286D01*
X3305067Y952895D01*
X3304760Y952512D01*
X3304444Y952137D01*
X3304119Y951769D01*
X3303785Y951409D01*
X3303442Y951058D01*
X3303091Y950715D01*
X3302731Y950381D01*
X3302363Y950056D01*
X3301988Y949740D01*
X3301605Y949433D01*
X3301214Y949136D01*
X3300816Y948848D01*
X3300411Y948571D01*
X3300000Y948303D01*
X3299582Y948045D01*
X3299158Y947798D01*
X3298728Y947562D01*
X3298292Y947336D01*
X3297851Y947120D01*
X3297405Y946916D01*
X3296954Y946722D01*
X3296498Y946540D01*
X3296038Y946369D01*
X3295574Y946209D01*
X3295106Y946061D01*
X3294634Y945924D01*
X3294160Y945799D01*
X3293682Y945686D01*
X3293202Y945584D01*
X3292719Y945494D01*
X3292235Y945416D01*
X3291748Y945350D01*
X3291260Y945296D01*
X3290771Y945254D01*
X3290281Y945224D01*
X3289791Y945206D01*
X3289300Y945200D01*
X3288809Y945206D01*
X3288319Y945224D01*
X3287829Y945254D01*
X3287340Y945296D01*
X3286852Y945350D01*
X3286365Y945416D01*
X3285881Y945494D01*
X3285398Y945584D01*
X3284918Y945686D01*
X3284440Y945799D01*
X3283966Y945924D01*
X3283494Y946061D01*
X3283026Y946209D01*
X3282562Y946369D01*
X3282102Y946540D01*
X3281646Y946722D01*
X3281195Y946916D01*
X3280749Y947120D01*
X3280308Y947336D01*
X3279872Y947562D01*
X3279442Y947798D01*
X3279018Y948045D01*
X3278600Y948303D01*
X3278189Y948571D01*
X3277784Y948848D01*
X3277386Y949136D01*
X3276995Y949433D01*
X3276612Y949740D01*
X3276237Y950056D01*
X3275869Y950381D01*
X3275509Y950715D01*
X3275158Y951058D01*
X3274815Y951409D01*
X3274481Y951769D01*
X3274156Y952137D01*
X3273840Y952512D01*
X3273533Y952895D01*
X3273236Y953286D01*
X3272948Y953684D01*
X3272671Y954089D01*
X3272403Y954500D01*
X3272145Y954918D01*
X3271898Y955342D01*
X3271662Y955772D01*
X3271436Y956208D01*
X3271220Y956649D01*
X3271016Y957095D01*
X3270822Y957546D01*
X3270640Y958002D01*
X3270469Y958462D01*
X3270309Y958926D01*
X3270161Y959394D01*
X3270024Y959866D01*
X3269899Y960340D01*
X3269786Y960818D01*
X3269684Y961298D01*
X3269594Y961781D01*
X3269516Y962265D01*
X3269450Y962752D01*
X3269396Y963240D01*
X3269354Y963729D01*
X3269324Y964219D01*
X3269306Y964709D01*
X3269300Y965200D01*
D11*
X0Y482600D02*
X3331010Y483870D01*
X3331010Y1001270D01*
X0Y1000000D01*
X0Y482600D01*
M02*
