G04 EAGLE Gerber X2 export*
%TF.Part,Single*%
%TF.FileFunction,Copper,L1,Top,Mixed*%
%TF.FilePolarity,Positive*%
%TF.GenerationSoftware,Autodesk,EAGLE,9.7.0*%
%TF.CreationDate,2026-04-01T18:16:39Z*%
G75*
%MOIN*%
%FSLAX36Y36*%
%LPD*%
%INTop Copper Layer*%
%AMOC8*
5,1,8,0,0,1.08239X$1,22.5*%
G01*
G04 Define Apertures*
%ADD10R,0.021000X0.078000*%
%ADD11R,0.055118X0.047244*%
%ADD12R,0.047244X0.031496*%
%ADD13C,0.082500*%
%ADD14P,0.0562843X8X22.5*%
%ADD15C,0.052000*%
%ADD16P,0.0562843X8X202.5*%
%ADD17R,0.118110X0.062992*%
%ADD18R,0.225000X0.190000*%
%ADD19R,0.076000X0.076000*%
%ADD20C,0.076000*%
%ADD21C,0.070500*%
%ADD22C,0.059370*%
%ADD23C,0.050000*%
%ADD24C,0.170000*%
%ADD25C,0.006000*%
%ADD26C,0.029780*%
G36*
X3905170Y43238D02*
X3904000Y43000D01*
X46000Y43000D01*
X44919Y43202D01*
X43913Y43845D01*
X43238Y44830D01*
X43000Y46000D01*
X43000Y3854000D01*
X43202Y3855081D01*
X43845Y3856087D01*
X44830Y3856762D01*
X46000Y3857000D01*
X3904000Y3857000D01*
X3905081Y3856798D01*
X3906087Y3856155D01*
X3906762Y3855170D01*
X3907000Y3854000D01*
X3907000Y46000D01*
X3906798Y44919D01*
X3906155Y43913D01*
X3905170Y43238D01*
G37*
%LPC*%
G36*
X3732098Y3610000D02*
X3767902Y3610000D01*
X3800981Y3623702D01*
X3826298Y3649019D01*
X3840000Y3682098D01*
X3840000Y3717902D01*
X3826298Y3750981D01*
X3800981Y3776298D01*
X3767902Y3790000D01*
X3732098Y3790000D01*
X3699019Y3776298D01*
X3673702Y3750981D01*
X3660000Y3717902D01*
X3660000Y3682098D01*
X3673702Y3649019D01*
X3699019Y3623702D01*
X3732098Y3610000D01*
G37*
G36*
X182098Y3610000D02*
X217902Y3610000D01*
X250981Y3623702D01*
X276298Y3649019D01*
X290000Y3682098D01*
X290000Y3717902D01*
X276298Y3750981D01*
X250981Y3776298D01*
X217902Y3790000D01*
X182098Y3790000D01*
X149019Y3776298D01*
X123702Y3750981D01*
X110000Y3717902D01*
X110000Y3682098D01*
X123702Y3649019D01*
X149019Y3623702D01*
X182098Y3610000D01*
G37*
G36*
X3231899Y3536992D02*
X3268101Y3536992D01*
X3301547Y3550846D01*
X3327146Y3576445D01*
X3341000Y3609891D01*
X3341000Y3646093D01*
X3327146Y3679539D01*
X3301547Y3705138D01*
X3268101Y3718992D01*
X3231899Y3718992D01*
X3198453Y3705138D01*
X3172854Y3679539D01*
X3159000Y3646093D01*
X3159000Y3609891D01*
X3172854Y3576445D01*
X3198453Y3550846D01*
X3231899Y3536992D01*
G37*
G36*
X2781899Y3536992D02*
X2818101Y3536992D01*
X2851547Y3550846D01*
X2877146Y3576445D01*
X2891000Y3609891D01*
X2891000Y3646093D01*
X2877146Y3679539D01*
X2851547Y3705138D01*
X2818101Y3718992D01*
X2781899Y3718992D01*
X2748453Y3705138D01*
X2722854Y3679539D01*
X2709000Y3646093D01*
X2709000Y3609891D01*
X2722854Y3576445D01*
X2748453Y3550846D01*
X2781899Y3536992D01*
G37*
G36*
X2131899Y3536992D02*
X2168101Y3536992D01*
X2201547Y3550846D01*
X2227146Y3576445D01*
X2241000Y3609891D01*
X2241000Y3646093D01*
X2227146Y3679539D01*
X2201547Y3705138D01*
X2168101Y3718992D01*
X2131899Y3718992D01*
X2098453Y3705138D01*
X2072854Y3679539D01*
X2059000Y3646093D01*
X2059000Y3609891D01*
X2072854Y3576445D01*
X2098453Y3550846D01*
X2131899Y3536992D01*
G37*
G36*
X1681899Y3536992D02*
X1718101Y3536992D01*
X1751547Y3550846D01*
X1777146Y3576445D01*
X1791000Y3609891D01*
X1791000Y3646093D01*
X1777146Y3679539D01*
X1751547Y3705138D01*
X1718101Y3718992D01*
X1681899Y3718992D01*
X1648453Y3705138D01*
X1622854Y3679539D01*
X1609000Y3646093D01*
X1609000Y3609891D01*
X1622854Y3576445D01*
X1648453Y3550846D01*
X1681899Y3536992D01*
G37*
G36*
X1081899Y3536992D02*
X1118101Y3536992D01*
X1151547Y3550846D01*
X1177146Y3576445D01*
X1191000Y3609891D01*
X1191000Y3646093D01*
X1177146Y3679539D01*
X1151547Y3705138D01*
X1118101Y3718992D01*
X1081899Y3718992D01*
X1048453Y3705138D01*
X1022854Y3679539D01*
X1009000Y3646093D01*
X1009000Y3609891D01*
X1022854Y3576445D01*
X1048453Y3550846D01*
X1081899Y3536992D01*
G37*
G36*
X631899Y3536992D02*
X668101Y3536992D01*
X701547Y3550846D01*
X727146Y3576445D01*
X741000Y3609891D01*
X741000Y3646093D01*
X727146Y3679539D01*
X701547Y3705138D01*
X668101Y3718992D01*
X631899Y3718992D01*
X598453Y3705138D01*
X572854Y3679539D01*
X559000Y3646093D01*
X559000Y3609891D01*
X572854Y3576445D01*
X598453Y3550846D01*
X631899Y3536992D01*
G37*
G36*
X312587Y1540630D02*
X326783Y1540630D01*
X339899Y1546063D01*
X349937Y1556101D01*
X355370Y1569217D01*
X355370Y1583413D01*
X349937Y1596529D01*
X339899Y1606567D01*
X326783Y1612000D01*
X312587Y1612000D01*
X303225Y1608122D01*
X302125Y1607894D01*
X300951Y1608113D01*
X299955Y1608773D01*
X285879Y1622849D01*
X285238Y1623800D01*
X285000Y1624971D01*
X285000Y2153291D01*
X285185Y2154328D01*
X285812Y2155344D01*
X286786Y2156034D01*
X287952Y2156291D01*
X289126Y2156072D01*
X290121Y2155412D01*
X299471Y2146063D01*
X312587Y2140630D01*
X326783Y2140630D01*
X339899Y2146063D01*
X349937Y2156101D01*
X355370Y2169217D01*
X355370Y2183413D01*
X349937Y2196529D01*
X339899Y2206567D01*
X326783Y2212000D01*
X312587Y2212000D01*
X299471Y2206567D01*
X289433Y2196529D01*
X285517Y2187077D01*
X284934Y2186172D01*
X283960Y2185481D01*
X282794Y2185225D01*
X281620Y2185444D01*
X280625Y2186103D01*
X213879Y2252849D01*
X213238Y2253800D01*
X213000Y2254971D01*
X213000Y2716029D01*
X213185Y2717066D01*
X213812Y2718082D01*
X214786Y2718772D01*
X215952Y2719029D01*
X217126Y2718810D01*
X218121Y2718150D01*
X229719Y2706552D01*
X248556Y2698750D01*
X297000Y2698750D01*
X297000Y2801250D01*
X248556Y2801250D01*
X229719Y2793448D01*
X218121Y2781850D01*
X217258Y2781247D01*
X216096Y2780973D01*
X214919Y2781173D01*
X213913Y2781816D01*
X213238Y2782801D01*
X213000Y2783971D01*
X213000Y2921898D01*
X213177Y2922912D01*
X213796Y2923933D01*
X214764Y2924632D01*
X215928Y2924897D01*
X217104Y2924688D01*
X218104Y2924036D01*
X218543Y2923386D01*
X231985Y2909943D01*
X249351Y2902750D01*
X350649Y2902750D01*
X368015Y2909943D01*
X381307Y2923235D01*
X386241Y2935148D01*
X386858Y2936087D01*
X387843Y2936762D01*
X389013Y2937000D01*
X685029Y2937000D01*
X686155Y2936781D01*
X687151Y2936121D01*
X720262Y2903010D01*
X720884Y2902102D01*
X721141Y2900936D01*
X720922Y2899763D01*
X720262Y2898767D01*
X718980Y2897485D01*
X718980Y2702515D01*
X722495Y2699000D01*
X952466Y2699000D01*
X955980Y2702515D01*
X955980Y2897485D01*
X952466Y2901000D01*
X748971Y2901000D01*
X747845Y2901219D01*
X746849Y2901879D01*
X693728Y2955000D01*
X391500Y2955000D01*
X390419Y2955202D01*
X389413Y2955845D01*
X388738Y2956830D01*
X388500Y2958000D01*
X388500Y2959399D01*
X381307Y2976765D01*
X368015Y2990057D01*
X350649Y2997250D01*
X251221Y2997250D01*
X250184Y2997435D01*
X249168Y2998062D01*
X248477Y2999036D01*
X248221Y3000202D01*
X248440Y3001376D01*
X249099Y3002371D01*
X548849Y3302121D01*
X549800Y3302762D01*
X550971Y3303000D01*
X673925Y3303000D01*
X674961Y3302815D01*
X675977Y3302188D01*
X676668Y3301214D01*
X676924Y3300048D01*
X676705Y3298874D01*
X676046Y3297879D01*
X673719Y3295552D01*
X669000Y3284158D01*
X669000Y3271826D01*
X673719Y3260432D01*
X682440Y3251712D01*
X693834Y3246992D01*
X706166Y3246992D01*
X717560Y3251712D01*
X726281Y3260432D01*
X728234Y3265148D01*
X728851Y3266087D01*
X729836Y3266762D01*
X731006Y3267000D01*
X745029Y3267000D01*
X746155Y3266781D01*
X747151Y3266121D01*
X1076272Y2937000D01*
X1171029Y2937000D01*
X1172155Y2936781D01*
X1173151Y2936121D01*
X1238121Y2871151D01*
X1238762Y2870200D01*
X1239000Y2869029D01*
X1239000Y2480768D01*
X1238815Y2479732D01*
X1238188Y2478716D01*
X1237214Y2478025D01*
X1236048Y2477769D01*
X1234874Y2477988D01*
X1233879Y2478647D01*
X1224360Y2488165D01*
X1212449Y2488165D01*
X1212449Y2416165D01*
X1224360Y2416165D01*
X1233879Y2425684D01*
X1234742Y2426286D01*
X1235904Y2426561D01*
X1237081Y2426361D01*
X1238087Y2425717D01*
X1238762Y2424732D01*
X1239000Y2423562D01*
X1239000Y2211430D01*
X1238807Y2210370D01*
X1238172Y2209359D01*
X1237192Y2208677D01*
X1236024Y2208430D01*
X1234852Y2208658D01*
X1226783Y2212000D01*
X1212587Y2212000D01*
X1199471Y2206567D01*
X1189433Y2196529D01*
X1184000Y2183413D01*
X1184000Y2169217D01*
X1189433Y2156101D01*
X1199471Y2146063D01*
X1212587Y2140630D01*
X1226783Y2140630D01*
X1239899Y2146063D01*
X1249937Y2156101D01*
X1255370Y2169217D01*
X1255370Y2183413D01*
X1252263Y2190916D01*
X1252035Y2192016D01*
X1252253Y2193189D01*
X1252913Y2194185D01*
X1257000Y2198272D01*
X1257000Y2432117D01*
X1257185Y2433153D01*
X1257812Y2434169D01*
X1258786Y2434860D01*
X1259952Y2435116D01*
X1261126Y2434898D01*
X1262121Y2434238D01*
X1271322Y2425037D01*
X1283084Y2420165D01*
X1295814Y2420165D01*
X1307575Y2425037D01*
X1316577Y2434039D01*
X1320350Y2443148D01*
X1320967Y2444087D01*
X1321952Y2444762D01*
X1323122Y2445000D01*
X1395728Y2445000D01*
X1708250Y2757522D01*
X1709157Y2758144D01*
X1710323Y2758400D01*
X1711497Y2758181D01*
X1711771Y2758000D01*
X1737985Y2758000D01*
X1741500Y2761515D01*
X1741500Y2796000D01*
X1741702Y2797081D01*
X1742345Y2798087D01*
X1743330Y2798762D01*
X1744500Y2799000D01*
X1755500Y2799000D01*
X1756581Y2798798D01*
X1757587Y2798155D01*
X1758262Y2797170D01*
X1758500Y2796000D01*
X1758500Y2761515D01*
X1762015Y2758000D01*
X1787985Y2758000D01*
X1791500Y2761515D01*
X1791500Y2844485D01*
X1787985Y2848000D01*
X1762015Y2848000D01*
X1758500Y2844485D01*
X1758500Y2820000D01*
X1758298Y2818919D01*
X1757655Y2817913D01*
X1756670Y2817238D01*
X1755500Y2817000D01*
X1744500Y2817000D01*
X1743419Y2817202D01*
X1742413Y2817845D01*
X1741738Y2818830D01*
X1741500Y2820000D01*
X1741500Y2844485D01*
X1737879Y2848107D01*
X1737238Y2849058D01*
X1737000Y2850228D01*
X1737000Y2949772D01*
X1737219Y2950898D01*
X1737879Y2951893D01*
X1741500Y2955515D01*
X1741500Y2988000D01*
X1741702Y2989081D01*
X1742345Y2990087D01*
X1743330Y2990762D01*
X1744500Y2991000D01*
X1755500Y2991000D01*
X1756581Y2990798D01*
X1757587Y2990155D01*
X1758262Y2989170D01*
X1758500Y2988000D01*
X1758500Y2955515D01*
X1762015Y2952000D01*
X1787985Y2952000D01*
X1791500Y2955515D01*
X1791500Y3038485D01*
X1787985Y3042000D01*
X1762015Y3042000D01*
X1758500Y3038485D01*
X1758500Y3012000D01*
X1758298Y3010919D01*
X1757655Y3009913D01*
X1756670Y3009238D01*
X1755500Y3009000D01*
X1744500Y3009000D01*
X1743419Y3009202D01*
X1742413Y3009845D01*
X1741738Y3010830D01*
X1741500Y3012000D01*
X1741500Y3038485D01*
X1737985Y3042000D01*
X1723971Y3042000D01*
X1722934Y3042185D01*
X1721918Y3042812D01*
X1721227Y3043786D01*
X1720971Y3044952D01*
X1721190Y3046126D01*
X1721849Y3047121D01*
X1797000Y3122272D01*
X1797000Y3265029D01*
X1797219Y3266155D01*
X1797879Y3267151D01*
X1813879Y3283151D01*
X1814742Y3283753D01*
X1815904Y3284028D01*
X1817081Y3283828D01*
X1818087Y3283184D01*
X1818762Y3282200D01*
X1819000Y3281029D01*
X1819000Y3271826D01*
X1823719Y3260432D01*
X1832440Y3251712D01*
X1843834Y3246992D01*
X1856166Y3246992D01*
X1867560Y3251712D01*
X1876281Y3260432D01*
X1881000Y3271826D01*
X1881000Y3284158D01*
X1876281Y3295552D01*
X1867560Y3304273D01*
X1856166Y3308992D01*
X1846963Y3308992D01*
X1845926Y3309177D01*
X1844910Y3309804D01*
X1844219Y3310778D01*
X1843963Y3311944D01*
X1844182Y3313118D01*
X1844841Y3314113D01*
X1845000Y3314272D01*
X1845000Y3361029D01*
X1845219Y3362155D01*
X1845879Y3363151D01*
X1863879Y3381151D01*
X1864742Y3381753D01*
X1865904Y3382028D01*
X1867081Y3381828D01*
X1868087Y3381184D01*
X1868762Y3380200D01*
X1869000Y3379029D01*
X1869000Y3371826D01*
X1873719Y3360432D01*
X1882440Y3351712D01*
X1893834Y3346992D01*
X1906166Y3346992D01*
X1917560Y3351712D01*
X1926281Y3360432D01*
X1931000Y3371826D01*
X1931000Y3384158D01*
X1926281Y3395552D01*
X1917560Y3404273D01*
X1906166Y3408992D01*
X1898963Y3408992D01*
X1897926Y3409177D01*
X1896910Y3409804D01*
X1896219Y3410778D01*
X1895963Y3411944D01*
X1896182Y3413118D01*
X1896841Y3414113D01*
X1898849Y3416121D01*
X1899800Y3416762D01*
X1900971Y3417000D01*
X2749029Y3417000D01*
X2750155Y3416781D01*
X2751151Y3416121D01*
X2853159Y3314113D01*
X2853761Y3313250D01*
X2854036Y3312088D01*
X2853836Y3310911D01*
X2853192Y3309905D01*
X2852207Y3309230D01*
X2851037Y3308992D01*
X2843834Y3308992D01*
X2832440Y3304273D01*
X2823719Y3295552D01*
X2819000Y3284158D01*
X2819000Y3271826D01*
X2823719Y3260432D01*
X2832440Y3251712D01*
X2843834Y3246992D01*
X2856166Y3246992D01*
X2867560Y3251712D01*
X2876281Y3260432D01*
X2881000Y3271826D01*
X2881000Y3279029D01*
X2881185Y3280066D01*
X2881812Y3281082D01*
X2882786Y3281773D01*
X2883952Y3282029D01*
X2885126Y3281810D01*
X2886121Y3281151D01*
X2894272Y3273000D01*
X2916509Y3273000D01*
X2917613Y3272790D01*
X2918613Y3272138D01*
X2919281Y3271148D01*
X2923719Y3260432D01*
X2932440Y3251712D01*
X2943834Y3246992D01*
X2956166Y3246992D01*
X2967560Y3251712D01*
X2976281Y3260432D01*
X2978234Y3265148D01*
X2978851Y3266087D01*
X2979836Y3266762D01*
X2981006Y3267000D01*
X3018994Y3267000D01*
X3020098Y3266790D01*
X3021099Y3266138D01*
X3021766Y3265148D01*
X3023719Y3260432D01*
X3032440Y3251712D01*
X3043834Y3246992D01*
X3056166Y3246992D01*
X3067560Y3251712D01*
X3076281Y3260432D01*
X3081000Y3271826D01*
X3081000Y3284158D01*
X3076281Y3295552D01*
X3067560Y3304273D01*
X3056166Y3308992D01*
X3043834Y3308992D01*
X3032440Y3304273D01*
X3023719Y3295552D01*
X3020116Y3286852D01*
X3019499Y3285913D01*
X3018514Y3285238D01*
X3017344Y3285000D01*
X2982656Y3285000D01*
X2981552Y3285210D01*
X2980552Y3285862D01*
X2979884Y3286852D01*
X2976281Y3295552D01*
X2967560Y3304273D01*
X2956166Y3308992D01*
X2943834Y3308992D01*
X2932440Y3304273D01*
X2923719Y3295552D01*
X2922601Y3292852D01*
X2921984Y3291913D01*
X2921000Y3291238D01*
X2919829Y3291000D01*
X2902971Y3291000D01*
X2901845Y3291219D01*
X2900849Y3291879D01*
X2757728Y3435000D01*
X1892272Y3435000D01*
X1836121Y3378849D01*
X1835258Y3378247D01*
X1834096Y3377972D01*
X1832919Y3378172D01*
X1831913Y3378816D01*
X1831238Y3379800D01*
X1831000Y3380971D01*
X1831000Y3384158D01*
X1826281Y3395552D01*
X1817560Y3404273D01*
X1806166Y3408992D01*
X1793834Y3408992D01*
X1782440Y3404273D01*
X1773719Y3395552D01*
X1769000Y3384158D01*
X1769000Y3371826D01*
X1773719Y3360432D01*
X1782440Y3351712D01*
X1793834Y3346992D01*
X1806166Y3346992D01*
X1817560Y3351712D01*
X1821879Y3356030D01*
X1822742Y3356633D01*
X1823904Y3356907D01*
X1825081Y3356707D01*
X1826087Y3356064D01*
X1826762Y3355079D01*
X1827000Y3353909D01*
X1827000Y3322971D01*
X1826781Y3321845D01*
X1826121Y3320849D01*
X1786121Y3280849D01*
X1785258Y3280247D01*
X1784096Y3279972D01*
X1782919Y3280172D01*
X1781913Y3280816D01*
X1781238Y3281800D01*
X1781000Y3282971D01*
X1781000Y3284158D01*
X1776281Y3295552D01*
X1767560Y3304273D01*
X1756166Y3308992D01*
X1743834Y3308992D01*
X1732440Y3304273D01*
X1723719Y3295552D01*
X1719000Y3284158D01*
X1719000Y3271826D01*
X1723719Y3260432D01*
X1732440Y3251712D01*
X1743834Y3246992D01*
X1756166Y3246992D01*
X1767560Y3251712D01*
X1773879Y3258030D01*
X1774742Y3258633D01*
X1775904Y3258907D01*
X1777081Y3258707D01*
X1778087Y3258064D01*
X1778762Y3257079D01*
X1779000Y3255909D01*
X1779000Y3130971D01*
X1778781Y3129845D01*
X1778121Y3128849D01*
X1691750Y3042478D01*
X1690843Y3041856D01*
X1689677Y3041600D01*
X1688503Y3041819D01*
X1688229Y3042000D01*
X1662015Y3042000D01*
X1658500Y3038485D01*
X1658500Y3000000D01*
X1658298Y2998919D01*
X1657655Y2997913D01*
X1656670Y2997238D01*
X1655500Y2997000D01*
X1432622Y2997000D01*
X1431541Y2997202D01*
X1430535Y2997845D01*
X1429860Y2998830D01*
X1429622Y3000000D01*
X1429622Y3003666D01*
X1426107Y3007181D01*
X1373893Y3007181D01*
X1370378Y3003666D01*
X1370378Y2967200D01*
X1373893Y2963685D01*
X1426107Y2963685D01*
X1429622Y2967200D01*
X1429622Y2976000D01*
X1429824Y2977081D01*
X1430467Y2978087D01*
X1431452Y2978762D01*
X1432622Y2979000D01*
X1655500Y2979000D01*
X1656581Y2978798D01*
X1657587Y2978155D01*
X1658262Y2977170D01*
X1658500Y2976000D01*
X1658500Y2955515D01*
X1662015Y2952000D01*
X1674110Y2952000D01*
X1675192Y2951798D01*
X1676197Y2951155D01*
X1676873Y2950170D01*
X1677110Y2949000D01*
X1677110Y2931347D01*
X1689347Y2919110D01*
X1706653Y2919110D01*
X1713879Y2926336D01*
X1714742Y2926938D01*
X1715904Y2927213D01*
X1717081Y2927013D01*
X1718087Y2926370D01*
X1718762Y2925385D01*
X1719000Y2924215D01*
X1719000Y2851000D01*
X1718798Y2849919D01*
X1718155Y2848913D01*
X1717170Y2848238D01*
X1716000Y2848000D01*
X1712015Y2848000D01*
X1708500Y2844485D01*
X1708500Y2784471D01*
X1708281Y2783345D01*
X1707621Y2782349D01*
X1696621Y2771349D01*
X1695758Y2770747D01*
X1694596Y2770472D01*
X1693419Y2770672D01*
X1692413Y2771316D01*
X1691738Y2772300D01*
X1691500Y2773471D01*
X1691500Y2844485D01*
X1687985Y2848000D01*
X1662015Y2848000D01*
X1658500Y2844485D01*
X1658500Y2761515D01*
X1662015Y2758000D01*
X1676029Y2758000D01*
X1677066Y2757815D01*
X1678082Y2757188D01*
X1678773Y2756214D01*
X1679029Y2755048D01*
X1678810Y2753874D01*
X1678151Y2752879D01*
X1389151Y2463879D01*
X1388200Y2463238D01*
X1387029Y2463000D01*
X1321602Y2463000D01*
X1320498Y2463210D01*
X1319498Y2463862D01*
X1318830Y2464852D01*
X1316577Y2470292D01*
X1307575Y2479294D01*
X1295814Y2484165D01*
X1283084Y2484165D01*
X1271322Y2479294D01*
X1262121Y2470093D01*
X1261258Y2469490D01*
X1260096Y2469215D01*
X1258919Y2469416D01*
X1257913Y2470059D01*
X1257238Y2471044D01*
X1257000Y2472214D01*
X1257000Y2877728D01*
X1179728Y2955000D01*
X1084971Y2955000D01*
X1083845Y2955219D01*
X1082849Y2955879D01*
X796857Y3241871D01*
X796255Y3242734D01*
X795980Y3243897D01*
X796180Y3245074D01*
X796824Y3246079D01*
X797808Y3246755D01*
X798978Y3246992D01*
X806166Y3246992D01*
X817560Y3251712D01*
X826281Y3260432D01*
X831000Y3271826D01*
X831000Y3284158D01*
X826281Y3295552D01*
X817560Y3304273D01*
X806166Y3308992D01*
X793834Y3308992D01*
X782440Y3304273D01*
X773719Y3295552D01*
X769000Y3284158D01*
X769000Y3276971D01*
X768815Y3275934D01*
X768188Y3274918D01*
X767214Y3274227D01*
X766048Y3273971D01*
X764874Y3274190D01*
X763879Y3274849D01*
X753728Y3285000D01*
X732656Y3285000D01*
X731552Y3285210D01*
X730552Y3285862D01*
X729884Y3286852D01*
X726281Y3295552D01*
X723954Y3297879D01*
X723352Y3298742D01*
X723077Y3299904D01*
X723277Y3301081D01*
X723921Y3302087D01*
X724905Y3302762D01*
X726075Y3303000D01*
X741728Y3303000D01*
X800849Y3362121D01*
X801800Y3362762D01*
X802971Y3363000D01*
X820651Y3363000D01*
X821755Y3362790D01*
X822756Y3362138D01*
X823423Y3361148D01*
X823719Y3360432D01*
X832440Y3351712D01*
X843834Y3346992D01*
X856166Y3346992D01*
X867560Y3351712D01*
X876281Y3360432D01*
X881000Y3371826D01*
X881000Y3384158D01*
X876281Y3395552D01*
X867560Y3404273D01*
X856166Y3408992D01*
X843834Y3408992D01*
X832440Y3404273D01*
X823719Y3395552D01*
X819000Y3384158D01*
X819000Y3384000D01*
X818798Y3382919D01*
X818155Y3381913D01*
X817170Y3381238D01*
X816000Y3381000D01*
X794272Y3381000D01*
X786121Y3372849D01*
X785258Y3372247D01*
X784096Y3371972D01*
X782919Y3372172D01*
X781913Y3372816D01*
X781238Y3373800D01*
X781000Y3374971D01*
X781000Y3384158D01*
X776281Y3395552D01*
X767560Y3404273D01*
X756166Y3408992D01*
X743834Y3408992D01*
X732440Y3404273D01*
X723719Y3395552D01*
X719000Y3384158D01*
X719000Y3371826D01*
X723719Y3360432D01*
X732440Y3351712D01*
X743834Y3346992D01*
X753022Y3346992D01*
X754058Y3346807D01*
X755074Y3346180D01*
X755765Y3345206D01*
X756021Y3344040D01*
X755802Y3342866D01*
X755143Y3341871D01*
X735151Y3321879D01*
X734200Y3321238D01*
X733029Y3321000D01*
X542272Y3321000D01*
X195000Y2973728D01*
X195000Y2246272D01*
X220151Y2221121D01*
X220753Y2220258D01*
X221028Y2219096D01*
X220828Y2217919D01*
X220560Y2217500D01*
X222685Y2217500D01*
X222685Y2179315D01*
X260870Y2179315D01*
X260870Y2177200D01*
X261156Y2177403D01*
X262322Y2177659D01*
X263496Y2177440D01*
X264491Y2176781D01*
X266121Y2175151D01*
X266762Y2174200D01*
X267000Y2173029D01*
X267000Y1616272D01*
X287227Y1596045D01*
X287859Y1595115D01*
X288106Y1593947D01*
X287878Y1592775D01*
X284000Y1583413D01*
X284000Y1569217D01*
X289433Y1556101D01*
X299471Y1546063D01*
X312587Y1540630D01*
G37*
G36*
X2893834Y3346992D02*
X2906166Y3346992D01*
X2917560Y3351712D01*
X2926281Y3360432D01*
X2931000Y3371826D01*
X2931000Y3384158D01*
X2926281Y3395552D01*
X2917560Y3404273D01*
X2906166Y3408992D01*
X2893834Y3408992D01*
X2882440Y3404273D01*
X2873719Y3395552D01*
X2869000Y3384158D01*
X2869000Y3371826D01*
X2873719Y3360432D01*
X2882440Y3351712D01*
X2893834Y3346992D01*
G37*
G36*
X2093834Y3346992D02*
X2106166Y3346992D01*
X2117560Y3351712D01*
X2126281Y3360432D01*
X2131000Y3371826D01*
X2131000Y3384158D01*
X2126281Y3395552D01*
X2117560Y3404273D01*
X2106166Y3408992D01*
X2093834Y3408992D01*
X2082440Y3404273D01*
X2073719Y3395552D01*
X2069000Y3384158D01*
X2069000Y3371826D01*
X2073719Y3360432D01*
X2082440Y3351712D01*
X2093834Y3346992D01*
G37*
G36*
X2993834Y3346992D02*
X3006166Y3346992D01*
X3017560Y3351712D01*
X3026281Y3360432D01*
X3031000Y3371826D01*
X3031000Y3384158D01*
X3026281Y3395552D01*
X3017560Y3404273D01*
X3006166Y3408992D01*
X2993834Y3408992D01*
X2982440Y3404273D01*
X2973719Y3395552D01*
X2969000Y3384158D01*
X2969000Y3371826D01*
X2973719Y3360432D01*
X2982440Y3351712D01*
X2993834Y3346992D01*
G37*
G36*
X943834Y3346992D02*
X956166Y3346992D01*
X967560Y3351712D01*
X976281Y3360432D01*
X981000Y3371826D01*
X981000Y3384158D01*
X976281Y3395552D01*
X967560Y3404273D01*
X956166Y3408992D01*
X943834Y3408992D01*
X932440Y3404273D01*
X923719Y3395552D01*
X919000Y3384158D01*
X919000Y3371826D01*
X923719Y3360432D01*
X932440Y3351712D01*
X943834Y3346992D01*
G37*
G36*
X1659347Y1443110D02*
X1676653Y1443110D01*
X1688890Y1455347D01*
X1688890Y1470919D01*
X1689109Y1472045D01*
X1689768Y1473040D01*
X1773000Y1556272D01*
X1773000Y1573029D01*
X1773219Y1574155D01*
X1773879Y1575151D01*
X1778879Y1580151D01*
X1779742Y1580753D01*
X1780904Y1581028D01*
X1782081Y1580828D01*
X1783087Y1580184D01*
X1783762Y1579200D01*
X1784000Y1578029D01*
X1784000Y1569217D01*
X1789433Y1556101D01*
X1799471Y1546063D01*
X1812587Y1540630D01*
X1826783Y1540630D01*
X1839899Y1546063D01*
X1849937Y1556101D01*
X1855370Y1569217D01*
X1855370Y1583413D01*
X1849937Y1596529D01*
X1839899Y1606567D01*
X1826783Y1612000D01*
X1817971Y1612000D01*
X1816934Y1612185D01*
X1815918Y1612812D01*
X1815227Y1613786D01*
X1814971Y1614952D01*
X1815190Y1616126D01*
X1815849Y1617121D01*
X2271000Y2072272D01*
X2271000Y2173029D01*
X2271219Y2174155D01*
X2271879Y2175151D01*
X2278879Y2182151D01*
X2279742Y2182753D01*
X2280904Y2183028D01*
X2282081Y2182828D01*
X2283087Y2182184D01*
X2283762Y2181200D01*
X2284000Y2180029D01*
X2284000Y2169217D01*
X2289433Y2156101D01*
X2299471Y2146063D01*
X2312587Y2140630D01*
X2326783Y2140630D01*
X2339899Y2146063D01*
X2349937Y2156101D01*
X2355370Y2169217D01*
X2355370Y2183413D01*
X2349937Y2196529D01*
X2339899Y2206567D01*
X2326783Y2212000D01*
X2315971Y2212000D01*
X2314934Y2212185D01*
X2313918Y2212812D01*
X2313227Y2213786D01*
X2312971Y2214952D01*
X2313190Y2216126D01*
X2313849Y2217121D01*
X3207000Y3110272D01*
X3207000Y3345333D01*
X3207210Y3346437D01*
X3207862Y3347437D01*
X3208852Y3348105D01*
X3217560Y3351712D01*
X3226281Y3360432D01*
X3231000Y3371826D01*
X3231000Y3384158D01*
X3226281Y3395552D01*
X3217560Y3404273D01*
X3206166Y3408992D01*
X3193834Y3408992D01*
X3182440Y3404273D01*
X3173719Y3395552D01*
X3169000Y3384158D01*
X3169000Y3371826D01*
X3173719Y3360432D01*
X3182440Y3351712D01*
X3187148Y3349761D01*
X3188087Y3349145D01*
X3188762Y3348160D01*
X3189000Y3346990D01*
X3189000Y3290379D01*
X3188823Y3289365D01*
X3188204Y3288344D01*
X3187236Y3287646D01*
X3186072Y3287380D01*
X3184896Y3287590D01*
X3183896Y3288241D01*
X3183228Y3289231D01*
X3179672Y3297818D01*
X3169826Y3307664D01*
X3156962Y3312992D01*
X3153000Y3312992D01*
X3153000Y3242992D01*
X3156962Y3242992D01*
X3169826Y3248321D01*
X3179672Y3258166D01*
X3183228Y3266753D01*
X3183780Y3267623D01*
X3184742Y3268329D01*
X3185904Y3268604D01*
X3187081Y3268403D01*
X3188087Y3267760D01*
X3188762Y3266775D01*
X3189000Y3265605D01*
X3189000Y3118971D01*
X3188781Y3117845D01*
X3188121Y3116849D01*
X2258344Y2187072D01*
X2257459Y2186460D01*
X2256295Y2186194D01*
X2255119Y2186404D01*
X2254119Y2187055D01*
X2253451Y2188046D01*
X2249937Y2196529D01*
X2239899Y2206567D01*
X2226783Y2212000D01*
X2212587Y2212000D01*
X2200396Y2206951D01*
X2199296Y2206723D01*
X2198123Y2206941D01*
X2197127Y2207601D01*
X2061879Y2342849D01*
X2061238Y2343800D01*
X2061000Y2344971D01*
X2061000Y3246990D01*
X2061210Y3248094D01*
X2061862Y3249094D01*
X2062852Y3249761D01*
X2067560Y3251712D01*
X2076281Y3260432D01*
X2081000Y3271826D01*
X2081000Y3284158D01*
X2076281Y3295552D01*
X2067560Y3304273D01*
X2056166Y3308992D01*
X2043834Y3308992D01*
X2032440Y3304273D01*
X2023719Y3295552D01*
X2019000Y3284158D01*
X2019000Y3271826D01*
X2023719Y3260432D01*
X2032440Y3251712D01*
X2041148Y3248105D01*
X2042087Y3247488D01*
X2042762Y3246503D01*
X2043000Y3245333D01*
X2043000Y2336272D01*
X2186056Y2193216D01*
X2186688Y2192287D01*
X2186935Y2191119D01*
X2186706Y2189947D01*
X2184000Y2183413D01*
X2184000Y2169217D01*
X2189433Y2156101D01*
X2199471Y2146063D01*
X2212587Y2140630D01*
X2226783Y2140630D01*
X2239899Y2146063D01*
X2247879Y2154042D01*
X2248742Y2154645D01*
X2249904Y2154920D01*
X2251081Y2154719D01*
X2252087Y2154076D01*
X2252762Y2153091D01*
X2253000Y2151921D01*
X2253000Y2080971D01*
X2252781Y2079845D01*
X2252121Y2078849D01*
X1758930Y1585658D01*
X1758045Y1585046D01*
X1756880Y1584780D01*
X1755705Y1584990D01*
X1754704Y1585641D01*
X1754037Y1586631D01*
X1751677Y1592330D01*
X1751449Y1593430D01*
X1751668Y1594604D01*
X1752327Y1595599D01*
X1773000Y1616272D01*
X1773000Y2173029D01*
X1773219Y2174155D01*
X1773879Y2175151D01*
X1778879Y2180151D01*
X1779742Y2180753D01*
X1780904Y2181028D01*
X1782081Y2180828D01*
X1783087Y2180184D01*
X1783762Y2179200D01*
X1784000Y2178029D01*
X1784000Y2169217D01*
X1789433Y2156101D01*
X1799471Y2146063D01*
X1812587Y2140630D01*
X1826783Y2140630D01*
X1839899Y2146063D01*
X1849937Y2156101D01*
X1855370Y2169217D01*
X1855370Y2183413D01*
X1849937Y2196529D01*
X1839899Y2206567D01*
X1826783Y2212000D01*
X1817971Y2212000D01*
X1816934Y2212185D01*
X1815918Y2212812D01*
X1815227Y2213786D01*
X1814971Y2214952D01*
X1815190Y2216126D01*
X1815849Y2217121D01*
X2007000Y2408272D01*
X2007000Y3345333D01*
X2007210Y3346437D01*
X2007862Y3347437D01*
X2008852Y3348105D01*
X2017560Y3351712D01*
X2026281Y3360432D01*
X2031000Y3371826D01*
X2031000Y3384158D01*
X2026281Y3395552D01*
X2017560Y3404273D01*
X2006166Y3408992D01*
X1993834Y3408992D01*
X1982440Y3404273D01*
X1973719Y3395552D01*
X1969000Y3384158D01*
X1969000Y3371826D01*
X1973719Y3360432D01*
X1982440Y3351712D01*
X1987148Y3349761D01*
X1988087Y3349145D01*
X1988762Y3348160D01*
X1989000Y3346990D01*
X1989000Y2416971D01*
X1988781Y2415845D01*
X1988121Y2414849D01*
X1758930Y2185658D01*
X1758045Y2185046D01*
X1756880Y2184780D01*
X1755705Y2184990D01*
X1754704Y2185641D01*
X1754037Y2186631D01*
X1749937Y2196529D01*
X1739899Y2206567D01*
X1726783Y2212000D01*
X1712587Y2212000D01*
X1699471Y2206567D01*
X1689433Y2196529D01*
X1684000Y2183413D01*
X1684000Y2169217D01*
X1689433Y2156101D01*
X1699471Y2146063D01*
X1712587Y2140630D01*
X1726783Y2140630D01*
X1739899Y2146063D01*
X1749879Y2156042D01*
X1750742Y2156645D01*
X1751904Y2156920D01*
X1753081Y2156719D01*
X1754087Y2156076D01*
X1754762Y2155091D01*
X1755000Y2153921D01*
X1755000Y1624971D01*
X1754781Y1623845D01*
X1754121Y1622849D01*
X1739860Y1608588D01*
X1738931Y1607956D01*
X1737763Y1607709D01*
X1736591Y1607938D01*
X1726783Y1612000D01*
X1712587Y1612000D01*
X1699471Y1606567D01*
X1689433Y1596529D01*
X1684000Y1583413D01*
X1684000Y1569217D01*
X1689433Y1556101D01*
X1699471Y1546063D01*
X1712587Y1540630D01*
X1724659Y1540630D01*
X1725696Y1540445D01*
X1726712Y1539818D01*
X1727403Y1538844D01*
X1727659Y1537678D01*
X1727440Y1536504D01*
X1726781Y1535509D01*
X1677040Y1485768D01*
X1676089Y1485127D01*
X1674919Y1484890D01*
X1659347Y1484890D01*
X1647110Y1472653D01*
X1647110Y1455347D01*
X1659347Y1443110D01*
G37*
G36*
X3093834Y3346992D02*
X3106166Y3346992D01*
X3117560Y3351712D01*
X3126281Y3360432D01*
X3131000Y3371826D01*
X3131000Y3384158D01*
X3126281Y3395552D01*
X3117560Y3404273D01*
X3106166Y3408992D01*
X3093834Y3408992D01*
X3082440Y3404273D01*
X3073719Y3395552D01*
X3069000Y3384158D01*
X3069000Y3371826D01*
X3073719Y3360432D01*
X3082440Y3351712D01*
X3093834Y3346992D01*
G37*
G36*
X1043834Y3346992D02*
X1056166Y3346992D01*
X1067560Y3351712D01*
X1076281Y3360432D01*
X1081000Y3371826D01*
X1081000Y3384158D01*
X1076281Y3395552D01*
X1067560Y3404273D01*
X1056166Y3408992D01*
X1043834Y3408992D01*
X1032440Y3404273D01*
X1023719Y3395552D01*
X1019000Y3384158D01*
X1019000Y3371826D01*
X1023719Y3360432D01*
X1032440Y3351712D01*
X1043834Y3346992D01*
G37*
G36*
X3115000Y3280992D02*
X3147000Y3280992D01*
X3147000Y3312992D01*
X3143038Y3312992D01*
X3130174Y3307664D01*
X3120328Y3297818D01*
X3115000Y3284954D01*
X3115000Y3280992D01*
G37*
G36*
X993834Y3246992D02*
X1006166Y3246992D01*
X1017560Y3251712D01*
X1026281Y3260432D01*
X1031000Y3271826D01*
X1031000Y3284158D01*
X1026281Y3295552D01*
X1017560Y3304273D01*
X1006166Y3308992D01*
X993834Y3308992D01*
X982440Y3304273D01*
X973719Y3295552D01*
X969000Y3284158D01*
X969000Y3271826D01*
X973719Y3260432D01*
X982440Y3251712D01*
X993834Y3246992D01*
G37*
G36*
X1943834Y3246992D02*
X1956166Y3246992D01*
X1967560Y3251712D01*
X1976281Y3260432D01*
X1981000Y3271826D01*
X1981000Y3284158D01*
X1976281Y3295552D01*
X1967560Y3304273D01*
X1956166Y3308992D01*
X1943834Y3308992D01*
X1932440Y3304273D01*
X1923719Y3295552D01*
X1919000Y3284158D01*
X1919000Y3271826D01*
X1923719Y3260432D01*
X1932440Y3251712D01*
X1943834Y3246992D01*
G37*
G36*
X893834Y3246992D02*
X906166Y3246992D01*
X917560Y3251712D01*
X926281Y3260432D01*
X931000Y3271826D01*
X931000Y3284158D01*
X926281Y3295552D01*
X917560Y3304273D01*
X906166Y3308992D01*
X893834Y3308992D01*
X882440Y3304273D01*
X873719Y3295552D01*
X869000Y3284158D01*
X869000Y3271826D01*
X873719Y3260432D01*
X882440Y3251712D01*
X893834Y3246992D01*
G37*
G36*
X3143038Y3242992D02*
X3147000Y3242992D01*
X3147000Y3274992D01*
X3115000Y3274992D01*
X3115000Y3271030D01*
X3120328Y3258166D01*
X3130174Y3248321D01*
X3143038Y3242992D01*
G37*
G36*
X1828000Y3000000D02*
X1845500Y3000000D01*
X1845500Y3040142D01*
X1839642Y3046000D01*
X1828000Y3046000D01*
X1828000Y3000000D01*
G37*
G36*
X1804500Y3000000D02*
X1822000Y3000000D01*
X1822000Y3046000D01*
X1810358Y3046000D01*
X1804500Y3040142D01*
X1804500Y3000000D01*
G37*
G36*
X1828000Y2948000D02*
X1839642Y2948000D01*
X1845500Y2953858D01*
X1845500Y2994000D01*
X1828000Y2994000D01*
X1828000Y2948000D01*
G37*
G36*
X1810358Y2948000D02*
X1822000Y2948000D01*
X1822000Y2994000D01*
X1804500Y2994000D01*
X1804500Y2953858D01*
X1810358Y2948000D01*
G37*
G36*
X1369956Y2729433D02*
X1430044Y2729433D01*
X1433559Y2732948D01*
X1433559Y2785163D01*
X1430044Y2788677D01*
X1416000Y2788677D01*
X1414919Y2788879D01*
X1413913Y2789522D01*
X1413238Y2790507D01*
X1413000Y2791677D01*
X1413000Y2889819D01*
X1413202Y2890900D01*
X1413845Y2891906D01*
X1414830Y2892581D01*
X1416000Y2892819D01*
X1426107Y2892819D01*
X1429622Y2896334D01*
X1429622Y2932800D01*
X1426107Y2936315D01*
X1373893Y2936315D01*
X1370378Y2932800D01*
X1370378Y2896334D01*
X1373893Y2892819D01*
X1392000Y2892819D01*
X1393081Y2892617D01*
X1394087Y2891974D01*
X1394762Y2890989D01*
X1395000Y2889819D01*
X1395000Y2791677D01*
X1394798Y2790596D01*
X1394155Y2789590D01*
X1393170Y2788915D01*
X1392000Y2788677D01*
X1369956Y2788677D01*
X1366441Y2785163D01*
X1366441Y2732948D01*
X1369956Y2729433D01*
G37*
G36*
X1790272Y249000D02*
X2127728Y249000D01*
X2168849Y290121D01*
X2169800Y290762D01*
X2170971Y291000D01*
X2657075Y291000D01*
X2658178Y290790D01*
X2659179Y290138D01*
X2659846Y289148D01*
X2665030Y276634D01*
X2676634Y265030D01*
X2691795Y258750D01*
X2708205Y258750D01*
X2723366Y265030D01*
X2734970Y276634D01*
X2741250Y291795D01*
X2741250Y308205D01*
X2734970Y323366D01*
X2723366Y334970D01*
X2708205Y341250D01*
X2691795Y341250D01*
X2676634Y334970D01*
X2665030Y323366D01*
X2659846Y310852D01*
X2659230Y309913D01*
X2658245Y309238D01*
X2657075Y309000D01*
X2162272Y309000D01*
X2156371Y303099D01*
X2155508Y302497D01*
X2154346Y302222D01*
X2153169Y302422D01*
X2152163Y303066D01*
X2151488Y304050D01*
X2151250Y305221D01*
X2151250Y347000D01*
X2048750Y347000D01*
X2048750Y298556D01*
X2056552Y279719D01*
X2064150Y272121D01*
X2064753Y271258D01*
X2065027Y270096D01*
X2064827Y268919D01*
X2064184Y267913D01*
X2063199Y267238D01*
X2062029Y267000D01*
X1932314Y267000D01*
X1931278Y267185D01*
X1930262Y267812D01*
X1929571Y268786D01*
X1929315Y269952D01*
X1929533Y271126D01*
X1930193Y272121D01*
X1940057Y281985D01*
X1947250Y299351D01*
X1947250Y400649D01*
X1940057Y418015D01*
X1926765Y431307D01*
X1912852Y437070D01*
X1911913Y437686D01*
X1911238Y438671D01*
X1911000Y439841D01*
X1911000Y739819D01*
X1911202Y740900D01*
X1911845Y741906D01*
X1912830Y742581D01*
X1914000Y742819D01*
X1926107Y742819D01*
X1929622Y746334D01*
X1929622Y782800D01*
X1926107Y786315D01*
X1873893Y786315D01*
X1870378Y782800D01*
X1870378Y746334D01*
X1873893Y742819D01*
X1890000Y742819D01*
X1891081Y742617D01*
X1892087Y741974D01*
X1892762Y740989D01*
X1893000Y739819D01*
X1893000Y441498D01*
X1892790Y440394D01*
X1892138Y439394D01*
X1891148Y438726D01*
X1873235Y431307D01*
X1859943Y418015D01*
X1852750Y400649D01*
X1852750Y299351D01*
X1859943Y281985D01*
X1869807Y272121D01*
X1870409Y271258D01*
X1870684Y270096D01*
X1870484Y268919D01*
X1869841Y267913D01*
X1868856Y267238D01*
X1867686Y267000D01*
X1798971Y267000D01*
X1797845Y267219D01*
X1796849Y267879D01*
X1748129Y316599D01*
X1747488Y317550D01*
X1747250Y318721D01*
X1747250Y400649D01*
X1740057Y418015D01*
X1726765Y431307D01*
X1709399Y438500D01*
X1690601Y438500D01*
X1673235Y431307D01*
X1659943Y418015D01*
X1657787Y412808D01*
X1657203Y411903D01*
X1656229Y411212D01*
X1655063Y410956D01*
X1653889Y411175D01*
X1652894Y411834D01*
X1563879Y500849D01*
X1563238Y501800D01*
X1563000Y502971D01*
X1563000Y903000D01*
X1563202Y904081D01*
X1563845Y905087D01*
X1564830Y905762D01*
X1566000Y906000D01*
X1592060Y906000D01*
X1595575Y909515D01*
X1595575Y990485D01*
X1592060Y994000D01*
X1511089Y994000D01*
X1507575Y990485D01*
X1507575Y909515D01*
X1511089Y906000D01*
X1542000Y906000D01*
X1543081Y905798D01*
X1544087Y905155D01*
X1544762Y904170D01*
X1545000Y903000D01*
X1545000Y756000D01*
X1544798Y754919D01*
X1544155Y753913D01*
X1543170Y753238D01*
X1542000Y753000D01*
X768000Y753000D01*
X766919Y753202D01*
X765913Y753845D01*
X765238Y754830D01*
X765000Y756000D01*
X765000Y903000D01*
X765202Y904081D01*
X765845Y905087D01*
X766830Y905762D01*
X768000Y906000D01*
X792060Y906000D01*
X795575Y909515D01*
X795575Y990485D01*
X792060Y994000D01*
X768000Y994000D01*
X766919Y994202D01*
X765913Y994845D01*
X765238Y995830D01*
X765000Y997000D01*
X765000Y1549029D01*
X765219Y1550155D01*
X765879Y1551151D01*
X780809Y1566081D01*
X781695Y1566693D01*
X782859Y1566959D01*
X784034Y1566749D01*
X785035Y1566098D01*
X785702Y1565108D01*
X789433Y1556101D01*
X799471Y1546063D01*
X812587Y1540630D01*
X826783Y1540630D01*
X839899Y1546063D01*
X849937Y1556101D01*
X855370Y1569217D01*
X855370Y1583413D01*
X851677Y1592330D01*
X851449Y1593430D01*
X851668Y1594604D01*
X852327Y1595599D01*
X866849Y1610121D01*
X867800Y1610762D01*
X868971Y1611000D01*
X896661Y1611000D01*
X897698Y1610815D01*
X898714Y1610188D01*
X899405Y1609214D01*
X899661Y1608048D01*
X899442Y1606874D01*
X898782Y1605879D01*
X889433Y1596529D01*
X884000Y1583413D01*
X884000Y1569217D01*
X889433Y1556101D01*
X899471Y1546063D01*
X912587Y1540630D01*
X926783Y1540630D01*
X939899Y1546063D01*
X949937Y1556101D01*
X955370Y1569217D01*
X955370Y1583413D01*
X949937Y1596529D01*
X940588Y1605879D01*
X939985Y1606742D01*
X939710Y1607904D01*
X939911Y1609081D01*
X940554Y1610087D01*
X941539Y1610762D01*
X942709Y1611000D01*
X996661Y1611000D01*
X997698Y1610815D01*
X998714Y1610188D01*
X999405Y1609214D01*
X999661Y1608048D01*
X999442Y1606874D01*
X998782Y1605879D01*
X989433Y1596529D01*
X984000Y1583413D01*
X984000Y1569217D01*
X989433Y1556101D01*
X999471Y1546063D01*
X1012587Y1540630D01*
X1026783Y1540630D01*
X1039899Y1546063D01*
X1049937Y1556101D01*
X1055370Y1569217D01*
X1055370Y1583413D01*
X1049937Y1596529D01*
X1040588Y1605879D01*
X1039985Y1606742D01*
X1039710Y1607904D01*
X1039911Y1609081D01*
X1040554Y1610087D01*
X1041539Y1610762D01*
X1042709Y1611000D01*
X1096661Y1611000D01*
X1097698Y1610815D01*
X1098714Y1610188D01*
X1099405Y1609214D01*
X1099661Y1608048D01*
X1099442Y1606874D01*
X1098782Y1605879D01*
X1089433Y1596529D01*
X1084000Y1583413D01*
X1084000Y1569217D01*
X1089433Y1556101D01*
X1099471Y1546063D01*
X1112587Y1540630D01*
X1126783Y1540630D01*
X1139899Y1546063D01*
X1149937Y1556101D01*
X1155370Y1569217D01*
X1155370Y1583413D01*
X1149937Y1596529D01*
X1140588Y1605879D01*
X1139985Y1606742D01*
X1139710Y1607904D01*
X1139911Y1609081D01*
X1140554Y1610087D01*
X1141539Y1610762D01*
X1142709Y1611000D01*
X1196661Y1611000D01*
X1197698Y1610815D01*
X1198714Y1610188D01*
X1199405Y1609214D01*
X1199661Y1608048D01*
X1199442Y1606874D01*
X1198782Y1605879D01*
X1189433Y1596529D01*
X1184000Y1583413D01*
X1184000Y1569217D01*
X1189433Y1556101D01*
X1199471Y1546063D01*
X1212587Y1540630D01*
X1226783Y1540630D01*
X1239899Y1546063D01*
X1249937Y1556101D01*
X1255370Y1569217D01*
X1255370Y1583413D01*
X1249937Y1596529D01*
X1240588Y1605879D01*
X1239985Y1606742D01*
X1239710Y1607904D01*
X1239911Y1609081D01*
X1240554Y1610087D01*
X1241539Y1610762D01*
X1242709Y1611000D01*
X1296661Y1611000D01*
X1297698Y1610815D01*
X1298714Y1610188D01*
X1299405Y1609214D01*
X1299661Y1608048D01*
X1299442Y1606874D01*
X1298782Y1605879D01*
X1289433Y1596529D01*
X1284000Y1583413D01*
X1284000Y1569217D01*
X1289433Y1556101D01*
X1299471Y1546063D01*
X1312587Y1540630D01*
X1326783Y1540630D01*
X1339899Y1546063D01*
X1349937Y1556101D01*
X1355370Y1569217D01*
X1355370Y1583413D01*
X1349937Y1596529D01*
X1340588Y1605879D01*
X1339985Y1606742D01*
X1339710Y1607904D01*
X1339911Y1609081D01*
X1340554Y1610087D01*
X1341539Y1610762D01*
X1342709Y1611000D01*
X1396661Y1611000D01*
X1397698Y1610815D01*
X1398714Y1610188D01*
X1399405Y1609214D01*
X1399661Y1608048D01*
X1399442Y1606874D01*
X1398782Y1605879D01*
X1389433Y1596529D01*
X1384000Y1583413D01*
X1384000Y1569217D01*
X1388062Y1559409D01*
X1388290Y1558309D01*
X1388071Y1557135D01*
X1387412Y1556140D01*
X1041000Y1209728D01*
X1041000Y810181D01*
X1040798Y809100D01*
X1040155Y808094D01*
X1039170Y807419D01*
X1038000Y807181D01*
X1023893Y807181D01*
X1020378Y803666D01*
X1020378Y767200D01*
X1023893Y763685D01*
X1076107Y763685D01*
X1079622Y767200D01*
X1079622Y803666D01*
X1076107Y807181D01*
X1062000Y807181D01*
X1060919Y807383D01*
X1059913Y808026D01*
X1059238Y809011D01*
X1059000Y810181D01*
X1059000Y1201029D01*
X1059219Y1202155D01*
X1059879Y1203151D01*
X1400401Y1543673D01*
X1401330Y1544305D01*
X1402498Y1544552D01*
X1403670Y1544323D01*
X1412587Y1540630D01*
X1426783Y1540630D01*
X1439899Y1546063D01*
X1449937Y1556101D01*
X1453267Y1564139D01*
X1453851Y1565044D01*
X1454824Y1565734D01*
X1455991Y1565991D01*
X1457164Y1565772D01*
X1458160Y1565112D01*
X1886121Y1137151D01*
X1886762Y1136200D01*
X1887000Y1135029D01*
X1887000Y860181D01*
X1886798Y859100D01*
X1886155Y858094D01*
X1885170Y857419D01*
X1884000Y857181D01*
X1873893Y857181D01*
X1870378Y853666D01*
X1870378Y817200D01*
X1873893Y813685D01*
X1926107Y813685D01*
X1929622Y817200D01*
X1929622Y853666D01*
X1926107Y857181D01*
X1908000Y857181D01*
X1906919Y857383D01*
X1905913Y858026D01*
X1905238Y859011D01*
X1905000Y860181D01*
X1905000Y1143728D01*
X1513219Y1535509D01*
X1512617Y1536372D01*
X1512342Y1537534D01*
X1512542Y1538711D01*
X1513186Y1539717D01*
X1514171Y1540392D01*
X1515341Y1540630D01*
X1526783Y1540630D01*
X1539899Y1546063D01*
X1549937Y1556101D01*
X1555370Y1569217D01*
X1555370Y1583413D01*
X1549937Y1596529D01*
X1539899Y1606567D01*
X1526783Y1612000D01*
X1512587Y1612000D01*
X1499471Y1606567D01*
X1489433Y1596529D01*
X1484000Y1583413D01*
X1484000Y1571971D01*
X1483815Y1570934D01*
X1483188Y1569918D01*
X1482214Y1569227D01*
X1481048Y1568971D01*
X1479874Y1569190D01*
X1478879Y1569849D01*
X1473879Y1574849D01*
X1473238Y1575800D01*
X1473000Y1576971D01*
X1473000Y1593728D01*
X1437728Y1629000D01*
X860272Y1629000D01*
X839860Y1608588D01*
X838931Y1607956D01*
X837763Y1607709D01*
X836591Y1607938D01*
X826783Y1612000D01*
X812587Y1612000D01*
X799471Y1606567D01*
X794121Y1601218D01*
X793258Y1600615D01*
X792096Y1600340D01*
X790919Y1600540D01*
X789913Y1601184D01*
X789238Y1602169D01*
X789000Y1603339D01*
X789000Y1705029D01*
X789219Y1706155D01*
X789879Y1707151D01*
X1196849Y2114121D01*
X1197800Y2114762D01*
X1198971Y2115000D01*
X1527728Y2115000D01*
X1580223Y2167495D01*
X1581109Y2168108D01*
X1582273Y2168373D01*
X1583448Y2168164D01*
X1584449Y2167512D01*
X1585116Y2166522D01*
X1589433Y2156101D01*
X1599471Y2146063D01*
X1612587Y2140630D01*
X1626783Y2140630D01*
X1639899Y2146063D01*
X1649937Y2156101D01*
X1655370Y2169217D01*
X1655370Y2183413D01*
X1649937Y2196529D01*
X1639899Y2206567D01*
X1626783Y2212000D01*
X1612587Y2212000D01*
X1599471Y2206567D01*
X1592121Y2199218D01*
X1591258Y2198615D01*
X1590096Y2198340D01*
X1588919Y2198540D01*
X1587913Y2199184D01*
X1587238Y2200169D01*
X1587000Y2201339D01*
X1587000Y2257029D01*
X1587219Y2258155D01*
X1587879Y2259151D01*
X1745964Y2417236D01*
X1746893Y2417867D01*
X1748061Y2418114D01*
X1749233Y2417886D01*
X1754186Y2415835D01*
X1766916Y2415835D01*
X1778678Y2420706D01*
X1787679Y2429708D01*
X1792551Y2441469D01*
X1792551Y2454200D01*
X1787679Y2465961D01*
X1778678Y2474963D01*
X1766916Y2479835D01*
X1754186Y2479835D01*
X1742425Y2474963D01*
X1733423Y2465961D01*
X1728551Y2454200D01*
X1728551Y2441469D01*
X1732526Y2431873D01*
X1732754Y2430773D01*
X1732535Y2429599D01*
X1731876Y2428604D01*
X1569000Y2265728D01*
X1569000Y2182971D01*
X1568781Y2181845D01*
X1568121Y2180849D01*
X1564491Y2177219D01*
X1563628Y2176617D01*
X1562466Y2176342D01*
X1561289Y2176542D01*
X1560283Y2177186D01*
X1559608Y2178171D01*
X1559370Y2179341D01*
X1559370Y2184209D01*
X1553328Y2198795D01*
X1542165Y2209958D01*
X1527579Y2216000D01*
X1522685Y2216000D01*
X1522685Y2173315D01*
X1480000Y2173315D01*
X1480000Y2168421D01*
X1486042Y2153835D01*
X1497205Y2142672D01*
X1506621Y2138772D01*
X1507490Y2138220D01*
X1508196Y2137258D01*
X1508471Y2136096D01*
X1508271Y2134919D01*
X1507627Y2133913D01*
X1506643Y2133238D01*
X1505473Y2133000D01*
X1198971Y2133000D01*
X1197845Y2133219D01*
X1196849Y2133879D01*
X1173879Y2156849D01*
X1173238Y2157800D01*
X1173000Y2158971D01*
X1173000Y2193728D01*
X1047879Y2318849D01*
X1047238Y2319800D01*
X1047000Y2320971D01*
X1047000Y2665740D01*
X1047202Y2666822D01*
X1047845Y2667827D01*
X1048830Y2668503D01*
X1050000Y2668740D01*
X1106055Y2668740D01*
X1106055Y2751732D01*
X1061703Y2751732D01*
X1060666Y2751917D01*
X1059650Y2752544D01*
X1058960Y2753518D01*
X1058703Y2754684D01*
X1058922Y2755858D01*
X1059582Y2756854D01*
X1113000Y2810272D01*
X1113000Y2849268D01*
X1113202Y2850349D01*
X1113845Y2851355D01*
X1114830Y2852030D01*
X1116000Y2852268D01*
X1170596Y2852268D01*
X1174110Y2855782D01*
X1174110Y2923745D01*
X1170596Y2927260D01*
X1047515Y2927260D01*
X1044000Y2923745D01*
X1044000Y2855782D01*
X1047515Y2852268D01*
X1092000Y2852268D01*
X1093081Y2852066D01*
X1094087Y2851423D01*
X1094762Y2850438D01*
X1095000Y2849268D01*
X1095000Y2818971D01*
X1094781Y2817845D01*
X1094121Y2816849D01*
X1029000Y2751728D01*
X1029000Y2312272D01*
X1124151Y2217121D01*
X1124753Y2216258D01*
X1125028Y2215096D01*
X1124828Y2213919D01*
X1124184Y2212913D01*
X1123200Y2212238D01*
X1122029Y2212000D01*
X1112587Y2212000D01*
X1099471Y2206567D01*
X1089433Y2196529D01*
X1084000Y2183413D01*
X1084000Y2169217D01*
X1089433Y2156101D01*
X1099471Y2146063D01*
X1112587Y2140630D01*
X1126783Y2140630D01*
X1139899Y2146063D01*
X1149879Y2156042D01*
X1150742Y2156645D01*
X1151904Y2156920D01*
X1153081Y2156719D01*
X1154087Y2156076D01*
X1154762Y2155091D01*
X1155000Y2153921D01*
X1155000Y2150272D01*
X1179151Y2126121D01*
X1179773Y2125214D01*
X1180029Y2124048D01*
X1179810Y2122874D01*
X1179151Y2121879D01*
X771000Y1713728D01*
X771000Y1582971D01*
X770781Y1581845D01*
X770121Y1580849D01*
X760491Y1571219D01*
X759628Y1570617D01*
X758466Y1570342D01*
X757289Y1570542D01*
X756283Y1571186D01*
X755608Y1572171D01*
X755370Y1573341D01*
X755370Y1583413D01*
X749937Y1596529D01*
X739899Y1606567D01*
X726783Y1612000D01*
X712587Y1612000D01*
X699471Y1606567D01*
X689433Y1596529D01*
X684000Y1583413D01*
X684000Y1569217D01*
X689433Y1556101D01*
X699471Y1546063D01*
X712587Y1540630D01*
X726783Y1540630D01*
X739899Y1546063D01*
X741879Y1548042D01*
X742742Y1548645D01*
X743904Y1548920D01*
X745081Y1548719D01*
X746087Y1548076D01*
X746762Y1547091D01*
X747000Y1545921D01*
X747000Y997000D01*
X746798Y995919D01*
X746155Y994913D01*
X745170Y994238D01*
X744000Y994000D01*
X711089Y994000D01*
X707575Y990485D01*
X707575Y909515D01*
X711089Y906000D01*
X744000Y906000D01*
X745081Y905798D01*
X746087Y905155D01*
X746762Y904170D01*
X747000Y903000D01*
X747000Y440272D01*
X801871Y385401D01*
X802512Y384450D01*
X802750Y383279D01*
X802750Y299351D01*
X809943Y281985D01*
X823235Y268693D01*
X840601Y261500D01*
X859399Y261500D01*
X876765Y268693D01*
X890057Y281985D01*
X897250Y299351D01*
X897250Y400649D01*
X890057Y418015D01*
X876765Y431307D01*
X859399Y438500D01*
X840601Y438500D01*
X823235Y431307D01*
X809943Y418015D01*
X807201Y411394D01*
X806617Y410489D01*
X805643Y409798D01*
X804477Y409542D01*
X803303Y409761D01*
X802308Y410420D01*
X765879Y446849D01*
X765238Y447800D01*
X765000Y448971D01*
X765000Y732000D01*
X765202Y733081D01*
X765845Y734087D01*
X766830Y734762D01*
X768000Y735000D01*
X1017378Y735000D01*
X1018459Y734798D01*
X1019465Y734155D01*
X1020140Y733170D01*
X1020378Y732000D01*
X1020378Y696334D01*
X1023893Y692819D01*
X1038000Y692819D01*
X1039081Y692617D01*
X1040087Y691974D01*
X1040762Y690989D01*
X1041000Y689819D01*
X1041000Y440670D01*
X1040790Y439566D01*
X1040138Y438565D01*
X1039148Y437898D01*
X1023235Y431307D01*
X1009943Y418015D01*
X1002750Y400649D01*
X1002750Y299351D01*
X1009943Y281985D01*
X1023235Y268693D01*
X1040601Y261500D01*
X1059399Y261500D01*
X1076765Y268693D01*
X1090057Y281985D01*
X1097250Y299351D01*
X1097250Y400649D01*
X1090057Y418015D01*
X1076765Y431307D01*
X1060852Y437898D01*
X1059913Y438515D01*
X1059238Y439500D01*
X1059000Y440670D01*
X1059000Y689819D01*
X1059202Y690900D01*
X1059845Y691906D01*
X1060830Y692581D01*
X1062000Y692819D01*
X1076107Y692819D01*
X1079622Y696334D01*
X1079622Y732000D01*
X1079824Y733081D01*
X1080467Y734087D01*
X1081452Y734762D01*
X1082622Y735000D01*
X1542000Y735000D01*
X1543081Y734798D01*
X1544087Y734155D01*
X1544762Y733170D01*
X1545000Y732000D01*
X1545000Y494272D01*
X1651871Y387401D01*
X1652512Y386450D01*
X1652750Y385279D01*
X1652750Y299351D01*
X1659943Y281985D01*
X1673235Y268693D01*
X1690601Y261500D01*
X1709399Y261500D01*
X1726765Y268693D01*
X1740057Y281985D01*
X1743385Y290021D01*
X1743969Y290925D01*
X1744943Y291616D01*
X1746109Y291872D01*
X1747283Y291653D01*
X1748278Y290994D01*
X1790272Y249000D01*
G37*
G36*
X1812015Y2758000D02*
X1837985Y2758000D01*
X1841500Y2761515D01*
X1841500Y2844485D01*
X1837985Y2848000D01*
X1812015Y2848000D01*
X1808500Y2844485D01*
X1808500Y2761515D01*
X1812015Y2758000D01*
G37*
G36*
X303000Y2753000D02*
X392500Y2753000D01*
X392500Y2760194D01*
X384698Y2779031D01*
X370281Y2793448D01*
X351444Y2801250D01*
X303000Y2801250D01*
X303000Y2753000D01*
G37*
G36*
X1112055Y2713236D02*
X1178110Y2713236D01*
X1178110Y2745874D01*
X1172252Y2751732D01*
X1112055Y2751732D01*
X1112055Y2713236D01*
G37*
G36*
X303000Y2698750D02*
X351444Y2698750D01*
X370281Y2706552D01*
X384698Y2720969D01*
X392500Y2739806D01*
X392500Y2747000D01*
X303000Y2747000D01*
X303000Y2698750D01*
G37*
G36*
X1112055Y2668740D02*
X1172252Y2668740D01*
X1178110Y2674598D01*
X1178110Y2707236D01*
X1112055Y2707236D01*
X1112055Y2668740D01*
G37*
G36*
X1362441Y2643945D02*
X1397000Y2643945D01*
X1397000Y2674567D01*
X1368299Y2674567D01*
X1362441Y2668709D01*
X1362441Y2643945D01*
G37*
G36*
X1403000Y2643945D02*
X1437559Y2643945D01*
X1437559Y2668709D01*
X1431701Y2674567D01*
X1403000Y2674567D01*
X1403000Y2643945D01*
G37*
G36*
X1368299Y2607323D02*
X1397000Y2607323D01*
X1397000Y2637945D01*
X1362441Y2637945D01*
X1362441Y2613181D01*
X1368299Y2607323D01*
G37*
G36*
X1403000Y2607323D02*
X1431701Y2607323D01*
X1437559Y2613181D01*
X1437559Y2637945D01*
X1403000Y2637945D01*
X1403000Y2607323D01*
G37*
G36*
X1173449Y2455165D02*
X1206449Y2455165D01*
X1206449Y2488165D01*
X1194537Y2488165D01*
X1173449Y2467077D01*
X1173449Y2455165D01*
G37*
G36*
X1843551Y2450835D02*
X1876551Y2450835D01*
X1876551Y2462746D01*
X1855463Y2483835D01*
X1843551Y2483835D01*
X1843551Y2450835D01*
G37*
G36*
X1804551Y2450835D02*
X1837551Y2450835D01*
X1837551Y2483835D01*
X1825640Y2483835D01*
X1804551Y2462746D01*
X1804551Y2450835D01*
G37*
G36*
X1194537Y2416165D02*
X1206449Y2416165D01*
X1206449Y2449165D01*
X1173449Y2449165D01*
X1173449Y2437254D01*
X1194537Y2416165D01*
G37*
G36*
X1843551Y2411835D02*
X1855463Y2411835D01*
X1876551Y2432923D01*
X1876551Y2444835D01*
X1843551Y2444835D01*
X1843551Y2411835D01*
G37*
G36*
X1825640Y2411835D02*
X1837551Y2411835D01*
X1837551Y2444835D01*
X1804551Y2444835D01*
X1804551Y2432923D01*
X1825640Y2411835D01*
G37*
G36*
X1480000Y2179315D02*
X1516685Y2179315D01*
X1516685Y2216000D01*
X1511791Y2216000D01*
X1497205Y2209958D01*
X1486042Y2198795D01*
X1480000Y2184209D01*
X1480000Y2179315D01*
G37*
G36*
X180000Y2179315D02*
X216685Y2179315D01*
X216685Y2216000D01*
X211791Y2216000D01*
X197205Y2209958D01*
X186042Y2198795D01*
X180000Y2184209D01*
X180000Y2179315D01*
G37*
G36*
X1912587Y2140630D02*
X1926783Y2140630D01*
X1939899Y2146063D01*
X1949937Y2156101D01*
X1955370Y2169217D01*
X1955370Y2183413D01*
X1949937Y2196529D01*
X1939899Y2206567D01*
X1926783Y2212000D01*
X1912587Y2212000D01*
X1899471Y2206567D01*
X1889433Y2196529D01*
X1884000Y2183413D01*
X1884000Y2169217D01*
X1889433Y2156101D01*
X1899471Y2146063D01*
X1912587Y2140630D01*
G37*
G36*
X1012587Y2140630D02*
X1026783Y2140630D01*
X1039899Y2146063D01*
X1049937Y2156101D01*
X1055370Y2169217D01*
X1055370Y2183413D01*
X1049937Y2196529D01*
X1039899Y2206567D01*
X1026783Y2212000D01*
X1012587Y2212000D01*
X999471Y2206567D01*
X989433Y2196529D01*
X984000Y2183413D01*
X984000Y2169217D01*
X989433Y2156101D01*
X999471Y2146063D01*
X1012587Y2140630D01*
G37*
G36*
X1412587Y2140630D02*
X1426783Y2140630D01*
X1439899Y2146063D01*
X1449937Y2156101D01*
X1455370Y2169217D01*
X1455370Y2183413D01*
X1449937Y2196529D01*
X1439899Y2206567D01*
X1426783Y2212000D01*
X1412587Y2212000D01*
X1399471Y2206567D01*
X1389433Y2196529D01*
X1384000Y2183413D01*
X1384000Y2169217D01*
X1389433Y2156101D01*
X1399471Y2146063D01*
X1412587Y2140630D01*
G37*
G36*
X712587Y2140630D02*
X726783Y2140630D01*
X739899Y2146063D01*
X749937Y2156101D01*
X755370Y2169217D01*
X755370Y2183413D01*
X749937Y2196529D01*
X739899Y2206567D01*
X726783Y2212000D01*
X712587Y2212000D01*
X699471Y2206567D01*
X689433Y2196529D01*
X684000Y2183413D01*
X684000Y2169217D01*
X689433Y2156101D01*
X699471Y2146063D01*
X712587Y2140630D01*
G37*
G36*
X2012587Y2140630D02*
X2026783Y2140630D01*
X2039899Y2146063D01*
X2049937Y2156101D01*
X2055370Y2169217D01*
X2055370Y2183413D01*
X2049937Y2196529D01*
X2039899Y2206567D01*
X2026783Y2212000D01*
X2012587Y2212000D01*
X1999471Y2206567D01*
X1989433Y2196529D01*
X1984000Y2183413D01*
X1984000Y2169217D01*
X1989433Y2156101D01*
X1999471Y2146063D01*
X2012587Y2140630D01*
G37*
G36*
X2412587Y2140630D02*
X2426783Y2140630D01*
X2439899Y2146063D01*
X2449937Y2156101D01*
X2455370Y2169217D01*
X2455370Y2183413D01*
X2449937Y2196529D01*
X2439899Y2206567D01*
X2426783Y2212000D01*
X2412587Y2212000D01*
X2399471Y2206567D01*
X2389433Y2196529D01*
X2384000Y2183413D01*
X2384000Y2169217D01*
X2389433Y2156101D01*
X2399471Y2146063D01*
X2412587Y2140630D01*
G37*
G36*
X112587Y2140630D02*
X126783Y2140630D01*
X139899Y2146063D01*
X149937Y2156101D01*
X155370Y2169217D01*
X155370Y2183413D01*
X149937Y2196529D01*
X139899Y2206567D01*
X126783Y2212000D01*
X112587Y2212000D01*
X99471Y2206567D01*
X89433Y2196529D01*
X84000Y2183413D01*
X84000Y2169217D01*
X89433Y2156101D01*
X99471Y2146063D01*
X112587Y2140630D01*
G37*
G36*
X1312587Y2140630D02*
X1326783Y2140630D01*
X1339899Y2146063D01*
X1349937Y2156101D01*
X1355370Y2169217D01*
X1355370Y2183413D01*
X1349937Y2196529D01*
X1339899Y2206567D01*
X1326783Y2212000D01*
X1312587Y2212000D01*
X1299471Y2206567D01*
X1289433Y2196529D01*
X1284000Y2183413D01*
X1284000Y2169217D01*
X1289433Y2156101D01*
X1299471Y2146063D01*
X1312587Y2140630D01*
G37*
G36*
X412587Y2140630D02*
X426783Y2140630D01*
X439899Y2146063D01*
X449937Y2156101D01*
X455370Y2169217D01*
X455370Y2183413D01*
X449937Y2196529D01*
X439899Y2206567D01*
X426783Y2212000D01*
X412587Y2212000D01*
X399471Y2206567D01*
X389433Y2196529D01*
X384000Y2183413D01*
X384000Y2169217D01*
X389433Y2156101D01*
X399471Y2146063D01*
X412587Y2140630D01*
G37*
G36*
X512587Y2140630D02*
X526783Y2140630D01*
X539899Y2146063D01*
X549937Y2156101D01*
X555370Y2169217D01*
X555370Y2183413D01*
X549937Y2196529D01*
X539899Y2206567D01*
X526783Y2212000D01*
X512587Y2212000D01*
X499471Y2206567D01*
X489433Y2196529D01*
X484000Y2183413D01*
X484000Y2169217D01*
X489433Y2156101D01*
X499471Y2146063D01*
X512587Y2140630D01*
G37*
G36*
X612587Y2140630D02*
X626783Y2140630D01*
X639899Y2146063D01*
X649937Y2156101D01*
X655370Y2169217D01*
X655370Y2183413D01*
X649937Y2196529D01*
X639899Y2206567D01*
X626783Y2212000D01*
X612587Y2212000D01*
X599471Y2206567D01*
X589433Y2196529D01*
X584000Y2183413D01*
X584000Y2169217D01*
X589433Y2156101D01*
X599471Y2146063D01*
X612587Y2140630D01*
G37*
G36*
X2112587Y2140630D02*
X2126783Y2140630D01*
X2139899Y2146063D01*
X2149937Y2156101D01*
X2155370Y2169217D01*
X2155370Y2183413D01*
X2149937Y2196529D01*
X2139899Y2206567D01*
X2126783Y2212000D01*
X2112587Y2212000D01*
X2099471Y2206567D01*
X2089433Y2196529D01*
X2084000Y2183413D01*
X2084000Y2169217D01*
X2089433Y2156101D01*
X2099471Y2146063D01*
X2112587Y2140630D01*
G37*
G36*
X812587Y2140630D02*
X826783Y2140630D01*
X839899Y2146063D01*
X849937Y2156101D01*
X855370Y2169217D01*
X855370Y2183413D01*
X849937Y2196529D01*
X839899Y2206567D01*
X826783Y2212000D01*
X812587Y2212000D01*
X799471Y2206567D01*
X789433Y2196529D01*
X784000Y2183413D01*
X784000Y2169217D01*
X789433Y2156101D01*
X799471Y2146063D01*
X812587Y2140630D01*
G37*
G36*
X912587Y2140630D02*
X926783Y2140630D01*
X939899Y2146063D01*
X949937Y2156101D01*
X955370Y2169217D01*
X955370Y2183413D01*
X949937Y2196529D01*
X939899Y2206567D01*
X926783Y2212000D01*
X912587Y2212000D01*
X899471Y2206567D01*
X889433Y2196529D01*
X884000Y2183413D01*
X884000Y2169217D01*
X889433Y2156101D01*
X899471Y2146063D01*
X912587Y2140630D01*
G37*
G36*
X211791Y2136630D02*
X216685Y2136630D01*
X216685Y2173315D01*
X180000Y2173315D01*
X180000Y2168421D01*
X186042Y2153835D01*
X197205Y2142672D01*
X211791Y2136630D01*
G37*
G36*
X222685Y2136630D02*
X227579Y2136630D01*
X242165Y2142672D01*
X253328Y2153835D01*
X259370Y2168421D01*
X259370Y2173315D01*
X222685Y2173315D01*
X222685Y2136630D01*
G37*
G36*
X122685Y1579315D02*
X159370Y1579315D01*
X159370Y1584209D01*
X153328Y1598795D01*
X142165Y1609958D01*
X127579Y1616000D01*
X122685Y1616000D01*
X122685Y1579315D01*
G37*
G36*
X80000Y1579315D02*
X116685Y1579315D01*
X116685Y1616000D01*
X111791Y1616000D01*
X97205Y1609958D01*
X86042Y1598795D01*
X80000Y1584209D01*
X80000Y1579315D01*
G37*
G36*
X2412587Y1540630D02*
X2426783Y1540630D01*
X2439899Y1546063D01*
X2449937Y1556101D01*
X2455370Y1569217D01*
X2455370Y1583413D01*
X2449937Y1596529D01*
X2439899Y1606567D01*
X2426783Y1612000D01*
X2412587Y1612000D01*
X2399471Y1606567D01*
X2389433Y1596529D01*
X2384000Y1583413D01*
X2384000Y1569217D01*
X2389433Y1556101D01*
X2399471Y1546063D01*
X2412587Y1540630D01*
G37*
G36*
X212587Y1540630D02*
X226783Y1540630D01*
X239899Y1546063D01*
X249937Y1556101D01*
X255370Y1569217D01*
X255370Y1583413D01*
X249937Y1596529D01*
X239899Y1606567D01*
X226783Y1612000D01*
X212587Y1612000D01*
X199471Y1606567D01*
X189433Y1596529D01*
X184000Y1583413D01*
X184000Y1569217D01*
X189433Y1556101D01*
X199471Y1546063D01*
X212587Y1540630D01*
G37*
G36*
X412587Y1540630D02*
X426783Y1540630D01*
X439899Y1546063D01*
X449937Y1556101D01*
X455370Y1569217D01*
X455370Y1583413D01*
X449937Y1596529D01*
X439899Y1606567D01*
X426783Y1612000D01*
X412587Y1612000D01*
X399471Y1606567D01*
X389433Y1596529D01*
X384000Y1583413D01*
X384000Y1569217D01*
X389433Y1556101D01*
X399471Y1546063D01*
X412587Y1540630D01*
G37*
G36*
X512587Y1540630D02*
X526783Y1540630D01*
X539899Y1546063D01*
X549937Y1556101D01*
X555370Y1569217D01*
X555370Y1583413D01*
X549937Y1596529D01*
X539899Y1606567D01*
X526783Y1612000D01*
X512587Y1612000D01*
X499471Y1606567D01*
X489433Y1596529D01*
X484000Y1583413D01*
X484000Y1569217D01*
X489433Y1556101D01*
X499471Y1546063D01*
X512587Y1540630D01*
G37*
G36*
X612587Y1540630D02*
X626783Y1540630D01*
X639899Y1546063D01*
X649937Y1556101D01*
X655370Y1569217D01*
X655370Y1583413D01*
X649937Y1596529D01*
X639899Y1606567D01*
X626783Y1612000D01*
X612587Y1612000D01*
X599471Y1606567D01*
X589433Y1596529D01*
X584000Y1583413D01*
X584000Y1569217D01*
X589433Y1556101D01*
X599471Y1546063D01*
X612587Y1540630D01*
G37*
G36*
X1612587Y1540630D02*
X1626783Y1540630D01*
X1639899Y1546063D01*
X1649937Y1556101D01*
X1655370Y1569217D01*
X1655370Y1583413D01*
X1649937Y1596529D01*
X1639899Y1606567D01*
X1626783Y1612000D01*
X1612587Y1612000D01*
X1599471Y1606567D01*
X1589433Y1596529D01*
X1584000Y1583413D01*
X1584000Y1569217D01*
X1589433Y1556101D01*
X1599471Y1546063D01*
X1612587Y1540630D01*
G37*
G36*
X2212587Y1540630D02*
X2226783Y1540630D01*
X2239899Y1546063D01*
X2249937Y1556101D01*
X2255370Y1569217D01*
X2255370Y1583413D01*
X2249937Y1596529D01*
X2239899Y1606567D01*
X2226783Y1612000D01*
X2212587Y1612000D01*
X2199471Y1606567D01*
X2189433Y1596529D01*
X2184000Y1583413D01*
X2184000Y1569217D01*
X2189433Y1556101D01*
X2199471Y1546063D01*
X2212587Y1540630D01*
G37*
G36*
X2012587Y1540630D02*
X2026783Y1540630D01*
X2039899Y1546063D01*
X2049937Y1556101D01*
X2055370Y1569217D01*
X2055370Y1583413D01*
X2049937Y1596529D01*
X2039899Y1606567D01*
X2026783Y1612000D01*
X2012587Y1612000D01*
X1999471Y1606567D01*
X1989433Y1596529D01*
X1984000Y1583413D01*
X1984000Y1569217D01*
X1989433Y1556101D01*
X1999471Y1546063D01*
X2012587Y1540630D01*
G37*
G36*
X1912587Y1540630D02*
X1926783Y1540630D01*
X1939899Y1546063D01*
X1949937Y1556101D01*
X1955370Y1569217D01*
X1955370Y1583413D01*
X1949937Y1596529D01*
X1939899Y1606567D01*
X1926783Y1612000D01*
X1912587Y1612000D01*
X1899471Y1606567D01*
X1889433Y1596529D01*
X1884000Y1583413D01*
X1884000Y1569217D01*
X1889433Y1556101D01*
X1899471Y1546063D01*
X1912587Y1540630D01*
G37*
G36*
X2112587Y1540630D02*
X2126783Y1540630D01*
X2139899Y1546063D01*
X2149937Y1556101D01*
X2155370Y1569217D01*
X2155370Y1583413D01*
X2149937Y1596529D01*
X2139899Y1606567D01*
X2126783Y1612000D01*
X2112587Y1612000D01*
X2099471Y1606567D01*
X2089433Y1596529D01*
X2084000Y1583413D01*
X2084000Y1569217D01*
X2089433Y1556101D01*
X2099471Y1546063D01*
X2112587Y1540630D01*
G37*
G36*
X2312587Y1540630D02*
X2326783Y1540630D01*
X2339899Y1546063D01*
X2349937Y1556101D01*
X2355370Y1569217D01*
X2355370Y1583413D01*
X2349937Y1596529D01*
X2339899Y1606567D01*
X2326783Y1612000D01*
X2312587Y1612000D01*
X2299471Y1606567D01*
X2289433Y1596529D01*
X2284000Y1583413D01*
X2284000Y1569217D01*
X2289433Y1556101D01*
X2299471Y1546063D01*
X2312587Y1540630D01*
G37*
G36*
X122685Y1536630D02*
X127579Y1536630D01*
X142165Y1542672D01*
X153328Y1553835D01*
X159370Y1568421D01*
X159370Y1573315D01*
X122685Y1573315D01*
X122685Y1536630D01*
G37*
G36*
X111791Y1536630D02*
X116685Y1536630D01*
X116685Y1573315D01*
X80000Y1573315D01*
X80000Y1568421D01*
X86042Y1553835D01*
X97205Y1542672D01*
X111791Y1536630D01*
G37*
G36*
X207500Y1203000D02*
X297000Y1203000D01*
X297000Y1251250D01*
X248556Y1251250D01*
X229719Y1243448D01*
X215302Y1229031D01*
X207500Y1210194D01*
X207500Y1203000D01*
G37*
G36*
X303000Y1203000D02*
X392500Y1203000D01*
X392500Y1210194D01*
X384698Y1229031D01*
X370281Y1243448D01*
X351444Y1251250D01*
X303000Y1251250D01*
X303000Y1203000D01*
G37*
G36*
X303000Y1148750D02*
X351444Y1148750D01*
X370281Y1156552D01*
X384698Y1170969D01*
X392500Y1189806D01*
X392500Y1197000D01*
X303000Y1197000D01*
X303000Y1148750D01*
G37*
G36*
X248556Y1148750D02*
X297000Y1148750D01*
X297000Y1197000D01*
X207500Y1197000D01*
X207500Y1189806D01*
X215302Y1170969D01*
X229719Y1156552D01*
X248556Y1148750D01*
G37*
G36*
X207500Y1003000D02*
X297000Y1003000D01*
X297000Y1051250D01*
X248556Y1051250D01*
X229719Y1043448D01*
X215302Y1029031D01*
X207500Y1010194D01*
X207500Y1003000D01*
G37*
G36*
X303000Y1003000D02*
X392500Y1003000D01*
X392500Y1010194D01*
X384698Y1029031D01*
X370281Y1043448D01*
X351444Y1051250D01*
X303000Y1051250D01*
X303000Y1003000D01*
G37*
G36*
X1700425Y953000D02*
X1745425Y953000D01*
X1745425Y998000D01*
X1738877Y998000D01*
X1721235Y990692D01*
X1707733Y977190D01*
X1700425Y959548D01*
X1700425Y953000D01*
G37*
G36*
X900425Y953000D02*
X945425Y953000D01*
X945425Y998000D01*
X938877Y998000D01*
X921235Y990692D01*
X907733Y977190D01*
X900425Y959548D01*
X900425Y953000D01*
G37*
G36*
X951425Y953000D02*
X996425Y953000D01*
X996425Y959548D01*
X989118Y977190D01*
X975615Y990692D01*
X957973Y998000D01*
X951425Y998000D01*
X951425Y953000D01*
G37*
G36*
X1751425Y953000D02*
X1796425Y953000D01*
X1796425Y959548D01*
X1789118Y977190D01*
X1775615Y990692D01*
X1757973Y998000D01*
X1751425Y998000D01*
X1751425Y953000D01*
G37*
G36*
X303000Y948750D02*
X351444Y948750D01*
X370281Y956552D01*
X384698Y970969D01*
X392500Y989806D01*
X392500Y997000D01*
X303000Y997000D01*
X303000Y948750D01*
G37*
G36*
X248556Y948750D02*
X297000Y948750D01*
X297000Y997000D01*
X207500Y997000D01*
X207500Y989806D01*
X215302Y970969D01*
X229719Y956552D01*
X248556Y948750D01*
G37*
G36*
X938877Y902000D02*
X945425Y902000D01*
X945425Y947000D01*
X900425Y947000D01*
X900425Y940452D01*
X907733Y922810D01*
X921235Y909308D01*
X938877Y902000D01*
G37*
G36*
X1738877Y902000D02*
X1745425Y902000D01*
X1745425Y947000D01*
X1700425Y947000D01*
X1700425Y940452D01*
X1707733Y922810D01*
X1721235Y909308D01*
X1738877Y902000D01*
G37*
G36*
X951425Y902000D02*
X957973Y902000D01*
X975615Y909308D01*
X989118Y922810D01*
X996425Y940452D01*
X996425Y947000D01*
X951425Y947000D01*
X951425Y902000D01*
G37*
G36*
X1751425Y902000D02*
X1757973Y902000D01*
X1775615Y909308D01*
X1789118Y922810D01*
X1796425Y940452D01*
X1796425Y947000D01*
X1751425Y947000D01*
X1751425Y902000D01*
G37*
G36*
X207500Y803000D02*
X297000Y803000D01*
X297000Y851250D01*
X248556Y851250D01*
X229719Y843448D01*
X215302Y829031D01*
X207500Y810194D01*
X207500Y803000D01*
G37*
G36*
X303000Y803000D02*
X392500Y803000D01*
X392500Y810194D01*
X384698Y829031D01*
X370281Y843448D01*
X351444Y851250D01*
X303000Y851250D01*
X303000Y803000D01*
G37*
G36*
X303000Y748750D02*
X351444Y748750D01*
X370281Y756552D01*
X384698Y770969D01*
X392500Y789806D01*
X392500Y797000D01*
X303000Y797000D01*
X303000Y748750D01*
G37*
G36*
X248556Y748750D02*
X297000Y748750D01*
X297000Y797000D01*
X207500Y797000D01*
X207500Y789806D01*
X215302Y770969D01*
X229719Y756552D01*
X248556Y748750D01*
G37*
G36*
X1198750Y353000D02*
X1247000Y353000D01*
X1247000Y442500D01*
X1239806Y442500D01*
X1220969Y434698D01*
X1206552Y420281D01*
X1198750Y401444D01*
X1198750Y353000D01*
G37*
G36*
X2048750Y353000D02*
X2097000Y353000D01*
X2097000Y442500D01*
X2089806Y442500D01*
X2070969Y434698D01*
X2056552Y420281D01*
X2048750Y401444D01*
X2048750Y353000D01*
G37*
G36*
X2103000Y353000D02*
X2151250Y353000D01*
X2151250Y401444D01*
X2143448Y420281D01*
X2129031Y434698D01*
X2110194Y442500D01*
X2103000Y442500D01*
X2103000Y353000D01*
G37*
G36*
X1253000Y353000D02*
X1301250Y353000D01*
X1301250Y401444D01*
X1293448Y420281D01*
X1279031Y434698D01*
X1260194Y442500D01*
X1253000Y442500D01*
X1253000Y353000D01*
G37*
G36*
X1253000Y257500D02*
X1260194Y257500D01*
X1279031Y265302D01*
X1293448Y279719D01*
X1301250Y298556D01*
X1301250Y347000D01*
X1253000Y347000D01*
X1253000Y257500D01*
G37*
G36*
X1239806Y257500D02*
X1247000Y257500D01*
X1247000Y347000D01*
X1198750Y347000D01*
X1198750Y298556D01*
X1206552Y279719D01*
X1220969Y265302D01*
X1239806Y257500D01*
G37*
G36*
X3068136Y303000D02*
X3110386Y303000D01*
X3110386Y345250D01*
X3104385Y345250D01*
X3087754Y338361D01*
X3075025Y325632D01*
X3068136Y309001D01*
X3068136Y303000D01*
G37*
G36*
X3116386Y303000D02*
X3158636Y303000D01*
X3158636Y309001D01*
X3151747Y325632D01*
X3139018Y338361D01*
X3122387Y345250D01*
X3116386Y345250D01*
X3116386Y303000D01*
G37*
G36*
X2967385Y258750D02*
X2983796Y258750D01*
X2998957Y265030D01*
X3010561Y276634D01*
X3016841Y291795D01*
X3016841Y308205D01*
X3010561Y323366D01*
X2998957Y334970D01*
X2983796Y341250D01*
X2967385Y341250D01*
X2952224Y334970D01*
X2940621Y323366D01*
X2934341Y308205D01*
X2934341Y291795D01*
X2940621Y276634D01*
X2952224Y265030D01*
X2967385Y258750D01*
G37*
G36*
X2829590Y258750D02*
X2846000Y258750D01*
X2861162Y265030D01*
X2872765Y276634D01*
X2879045Y291795D01*
X2879045Y308205D01*
X2872765Y323366D01*
X2861162Y334970D01*
X2846000Y341250D01*
X2829590Y341250D01*
X2814429Y334970D01*
X2802825Y323366D01*
X2796545Y308205D01*
X2796545Y291795D01*
X2802825Y276634D01*
X2814429Y265030D01*
X2829590Y258750D01*
G37*
G36*
X3116386Y254750D02*
X3122387Y254750D01*
X3139018Y261639D01*
X3151747Y274368D01*
X3158636Y290999D01*
X3158636Y297000D01*
X3116386Y297000D01*
X3116386Y254750D01*
G37*
G36*
X3104385Y254750D02*
X3110386Y254750D01*
X3110386Y297000D01*
X3068136Y297000D01*
X3068136Y290999D01*
X3075025Y274368D01*
X3087754Y261639D01*
X3104385Y254750D01*
G37*
G36*
X182098Y110000D02*
X217902Y110000D01*
X250981Y123702D01*
X276298Y149019D01*
X290000Y182098D01*
X290000Y217902D01*
X276298Y250981D01*
X250981Y276298D01*
X217902Y290000D01*
X182098Y290000D01*
X149019Y276298D01*
X123702Y250981D01*
X110000Y217902D01*
X110000Y182098D01*
X123702Y149019D01*
X149019Y123702D01*
X182098Y110000D01*
G37*
G36*
X3732098Y110000D02*
X3767902Y110000D01*
X3800981Y123702D01*
X3826298Y149019D01*
X3840000Y182098D01*
X3840000Y217902D01*
X3826298Y250981D01*
X3800981Y276298D01*
X3767902Y290000D01*
X3732098Y290000D01*
X3699019Y276298D01*
X3673702Y250981D01*
X3660000Y217902D01*
X3660000Y182098D01*
X3673702Y149019D01*
X3699019Y123702D01*
X3732098Y110000D01*
G37*
%LPD*%
D10*
X1825000Y2997000D03*
X1775000Y2997000D03*
X1725000Y2997000D03*
X1675000Y2997000D03*
X1675000Y2803000D03*
X1725000Y2803000D03*
X1775000Y2803000D03*
X1825000Y2803000D03*
D11*
X1400000Y2759055D03*
X1400000Y2640945D03*
D12*
X1400000Y2985433D03*
X1400000Y2914567D03*
D13*
X341250Y2950000D02*
X258750Y2950000D01*
X258750Y2750000D02*
X341250Y2750000D01*
D14*
X1840551Y2447835D03*
D15*
X1760551Y2447835D03*
D16*
X1209449Y2452165D03*
D15*
X1289449Y2452165D03*
D17*
X1109055Y2710236D03*
X1109055Y2889764D03*
D18*
X837480Y2800000D03*
D13*
X1700000Y391250D02*
X1700000Y308750D01*
X1900000Y308750D02*
X1900000Y391250D01*
X2100000Y391250D02*
X2100000Y308750D01*
D12*
X1900000Y764567D03*
X1900000Y835433D03*
D19*
X1551575Y950000D03*
D20*
X1748425Y950000D03*
D21*
X2700000Y300000D03*
X2837795Y300000D03*
X2975591Y300000D03*
X3113386Y300000D03*
D22*
X119685Y1576315D03*
X119685Y2176315D03*
X219685Y1576315D03*
X219685Y2176315D03*
X319685Y1576315D03*
X319685Y2176315D03*
X419685Y1576315D03*
X419685Y2176315D03*
X519685Y1576315D03*
X519685Y2176315D03*
X619685Y1576315D03*
X619685Y2176315D03*
X719685Y1576315D03*
X719685Y2176315D03*
X819685Y1576315D03*
X819685Y2176315D03*
X919685Y1576315D03*
X919685Y2176315D03*
X1019685Y1576315D03*
X1019685Y2176315D03*
X1119685Y1576315D03*
X1119685Y2176315D03*
X1219685Y1576315D03*
X1219685Y2176315D03*
X1319685Y1576315D03*
X1319685Y2176315D03*
X1419685Y1576315D03*
X1419685Y2176315D03*
X1519685Y1576315D03*
X1519685Y2176315D03*
X1619685Y1576315D03*
X1619685Y2176315D03*
X1719685Y1576315D03*
X1719685Y2176315D03*
X1819685Y1576315D03*
X1819685Y2176315D03*
X1919685Y1576315D03*
X1919685Y2176315D03*
X2019685Y1576315D03*
X2019685Y2176315D03*
X2119685Y1576315D03*
X2119685Y2176315D03*
X2219685Y1576315D03*
X2219685Y2176315D03*
X2319685Y1576315D03*
X2319685Y2176315D03*
X2419685Y1576315D03*
X2419685Y2176315D03*
D13*
X850000Y391250D02*
X850000Y308750D01*
X1050000Y308750D02*
X1050000Y391250D01*
X1250000Y391250D02*
X1250000Y308750D01*
D12*
X1050000Y714567D03*
X1050000Y785433D03*
D19*
X751575Y950000D03*
D20*
X948425Y950000D03*
D13*
X341250Y1200000D02*
X258750Y1200000D01*
X258750Y1000000D02*
X341250Y1000000D01*
X341250Y800000D02*
X258750Y800000D01*
D23*
X1000000Y3277992D03*
X900000Y3277992D03*
X800000Y3277992D03*
X700000Y3277992D03*
X1050000Y3377992D03*
X950000Y3377992D03*
X850000Y3377992D03*
X750000Y3377992D03*
D24*
X1100000Y3627992D03*
X650000Y3627992D03*
D23*
X2050000Y3277992D03*
X1950000Y3277992D03*
X1850000Y3277992D03*
X1750000Y3277992D03*
X2100000Y3377992D03*
X2000000Y3377992D03*
X1900000Y3377992D03*
X1800000Y3377992D03*
D24*
X2150000Y3627992D03*
X1700000Y3627992D03*
D23*
X3150000Y3277992D03*
X3050000Y3277992D03*
X2950000Y3277992D03*
X2850000Y3277992D03*
X3200000Y3377992D03*
X3100000Y3377992D03*
X3000000Y3377992D03*
X2900000Y3377992D03*
D24*
X3250000Y3627992D03*
X2800000Y3627992D03*
D25*
X1398000Y2640000D02*
X1272000Y2514000D01*
X1398000Y2640000D02*
X1400000Y2640945D01*
X1110000Y2706000D02*
X1110000Y2550000D01*
X1206000Y2454000D01*
X1110000Y2706000D02*
X1109055Y2710236D01*
X1206000Y2454000D02*
X1209449Y2452165D01*
X1830000Y2862000D02*
X1830000Y2994000D01*
X1830000Y2862000D02*
X1848000Y2844000D01*
X1848000Y2484000D02*
X1848000Y2454000D01*
X1848000Y2484000D02*
X1848000Y2844000D01*
X1848000Y2454000D02*
X1842000Y2448000D01*
X1830000Y2994000D02*
X1825000Y2997000D01*
X1842000Y2448000D02*
X1840551Y2447835D01*
X3102000Y3276000D02*
X3150000Y3276000D01*
X3102000Y3276000D02*
X3066000Y3240000D01*
X2292000Y3240000D01*
X2118000Y3414000D01*
X1986000Y3414000D01*
X1884000Y3312000D01*
X1884000Y3054000D01*
X1830000Y3000000D01*
X3150000Y3276000D02*
X3150000Y3277992D01*
X1830000Y3000000D02*
X1825000Y2997000D01*
X1524000Y2262000D02*
X1524000Y2178000D01*
X1524000Y2262000D02*
X1746000Y2484000D01*
X1848000Y2484000D01*
X1524000Y2178000D02*
X1519685Y2176315D01*
X1206000Y2220000D02*
X1206000Y2448000D01*
X1206000Y2220000D02*
X1176000Y2190000D01*
X1176000Y2160000D01*
X1200000Y2136000D01*
X1482000Y2136000D01*
X1518000Y2172000D01*
X1206000Y2448000D02*
X1209449Y2452165D01*
X1519685Y2176315D02*
X1518000Y2172000D01*
X3042000Y300000D02*
X3113386Y300000D01*
X3042000Y300000D02*
X2994000Y348000D01*
X2100000Y348000D01*
X2100000Y350000D01*
X120000Y1380000D02*
X120000Y1572000D01*
X120000Y1380000D02*
X300000Y1200000D01*
X120000Y1572000D02*
X119685Y1576315D01*
X300000Y1000000D02*
X300000Y800000D01*
X300000Y1000000D02*
X300000Y1200000D01*
X216000Y1674000D02*
X216000Y2172000D01*
X216000Y1674000D02*
X120000Y1578000D01*
X216000Y2172000D02*
X219685Y2176315D01*
X120000Y1578000D02*
X119685Y1576315D01*
X1110000Y2712000D02*
X1110000Y2784000D01*
X1182000Y2856000D01*
X1182000Y2922000D01*
X1170000Y2934000D01*
X1050000Y2934000D01*
X960000Y2844000D01*
X960000Y2700000D01*
X954000Y2694000D01*
X354000Y2694000D01*
X300000Y2748000D01*
X1109055Y2710236D02*
X1110000Y2712000D01*
X300000Y2748000D02*
X300000Y2750000D01*
D26*
X1272000Y2514000D03*
D25*
X756000Y744000D02*
X756000Y444000D01*
X756000Y744000D02*
X756000Y948000D01*
X756000Y444000D02*
X850000Y350000D01*
X756000Y948000D02*
X751575Y950000D01*
X2166000Y300000D02*
X2700000Y300000D01*
X2166000Y300000D02*
X2124000Y258000D01*
X1794000Y258000D01*
X1704000Y348000D01*
X1700000Y350000D01*
X1554000Y498000D02*
X1554000Y744000D01*
X1554000Y948000D01*
X1554000Y498000D02*
X1698000Y354000D01*
X1554000Y948000D02*
X1551575Y950000D01*
X1698000Y354000D02*
X1700000Y350000D01*
X1554000Y744000D02*
X756000Y744000D01*
X2952000Y3276000D02*
X3048000Y3276000D01*
X2952000Y3276000D02*
X2950000Y3277992D01*
X3048000Y3276000D02*
X3050000Y3277992D01*
X1668000Y2988000D02*
X1404000Y2988000D01*
X1668000Y2988000D02*
X1674000Y2994000D01*
X1404000Y2988000D02*
X1400000Y2985433D01*
X1674000Y2994000D02*
X1675000Y2997000D01*
X1698000Y2976000D02*
X1698000Y2940000D01*
X1698000Y2976000D02*
X1680000Y2994000D01*
X1675000Y2997000D01*
X1104000Y2886000D02*
X1104000Y2814000D01*
X1038000Y2748000D01*
X1038000Y2316000D01*
X1164000Y2190000D01*
X1164000Y2154000D01*
X1194000Y2124000D01*
X1524000Y2124000D01*
X1578000Y2178000D01*
X1578000Y2262000D01*
X1758000Y2442000D01*
X1109055Y2889764D02*
X1104000Y2886000D01*
X1760551Y2447835D02*
X1758000Y2442000D01*
X2898000Y3282000D02*
X2946000Y3282000D01*
X2898000Y3282000D02*
X2754000Y3426000D01*
X1896000Y3426000D01*
X1836000Y3366000D01*
X1836000Y3318000D01*
X1788000Y3270000D01*
X1788000Y3126000D01*
X1680000Y3018000D01*
X1680000Y3000000D01*
X2946000Y3282000D02*
X2950000Y3277992D01*
X1680000Y3000000D02*
X1675000Y2997000D01*
X756000Y1554000D02*
X756000Y954000D01*
X756000Y1554000D02*
X780000Y1578000D01*
X780000Y1710000D01*
X1194000Y2124000D01*
X756000Y954000D02*
X751575Y950000D01*
D26*
X1698000Y2940000D03*
D25*
X1728000Y2808000D02*
X1770000Y2808000D01*
X1775000Y2803000D01*
X1770000Y3000000D02*
X1728000Y3000000D01*
X1725000Y2997000D01*
X1770000Y3000000D02*
X1775000Y2997000D01*
X1728000Y2994000D02*
X1728000Y2808000D01*
X1725000Y2803000D01*
X1728000Y2994000D02*
X1725000Y2997000D01*
X1392000Y2454000D02*
X1290000Y2454000D01*
X1392000Y2454000D02*
X1722000Y2784000D01*
X1722000Y2802000D01*
X1290000Y2454000D02*
X1289449Y2452165D01*
X1722000Y2802000D02*
X1725000Y2803000D01*
X1404000Y2760000D02*
X1404000Y2910000D01*
X1400000Y2914567D01*
X1404000Y2760000D02*
X1400000Y2759055D01*
X690000Y2946000D02*
X300000Y2946000D01*
X690000Y2946000D02*
X834000Y2802000D01*
X300000Y2946000D02*
X300000Y2950000D01*
X834000Y2802000D02*
X837480Y2800000D01*
X1902000Y762000D02*
X1902000Y354000D01*
X1902000Y762000D02*
X1900000Y764567D01*
X1902000Y354000D02*
X1900000Y350000D01*
X1896000Y840000D02*
X1896000Y1140000D01*
X1464000Y1572000D01*
X1464000Y1590000D01*
X1434000Y1620000D01*
X864000Y1620000D01*
X822000Y1578000D01*
X1896000Y840000D02*
X1900000Y835433D01*
X822000Y1578000D02*
X819685Y1576315D01*
X1050000Y1206000D02*
X1050000Y785433D01*
X1050000Y1206000D02*
X1416000Y1572000D01*
X1419685Y1576315D01*
X1050000Y714567D02*
X1050000Y350000D01*
X846000Y3372000D02*
X798000Y3372000D01*
X738000Y3312000D01*
X546000Y3312000D01*
X204000Y2970000D01*
X204000Y2250000D01*
X276000Y2178000D01*
X276000Y1620000D01*
X319685Y1576315D01*
X846000Y3372000D02*
X850000Y3377992D01*
X750000Y3276000D02*
X702000Y3276000D01*
X750000Y3276000D02*
X1080000Y2946000D01*
X1176000Y2946000D01*
X1248000Y2874000D01*
X1248000Y2202000D01*
X1224000Y2178000D01*
X702000Y3276000D02*
X700000Y3277992D01*
X1219685Y2176315D02*
X1224000Y2178000D01*
X1998000Y2412000D02*
X1998000Y3372000D01*
X1998000Y2412000D02*
X1764000Y2178000D01*
X1764000Y1620000D01*
X1722000Y1578000D01*
X1998000Y3372000D02*
X2000000Y3377992D01*
X1722000Y1578000D02*
X1719685Y1576315D01*
X3198000Y3114000D02*
X3198000Y3372000D01*
X3198000Y3114000D02*
X2262000Y2178000D01*
X2262000Y2076000D01*
X1764000Y1578000D01*
X1764000Y1560000D01*
X1668000Y1464000D01*
X3198000Y3372000D02*
X3200000Y3377992D01*
D26*
X1668000Y1464000D03*
D25*
X2052000Y2340000D02*
X2052000Y3276000D01*
X2052000Y2340000D02*
X2214000Y2178000D01*
X2052000Y3276000D02*
X2050000Y3277992D01*
X2214000Y2178000D02*
X2219685Y2176315D01*
M02*
