M48
;GenerationSoftware,Autodesk,EAGLE,9.7.0*%
;CreationDate,2026-04-01T18:16:39Z*%
FMAT,2
ICI,OFF
INCH,TZ,00.0000
T8C0.0138
T7C0.0300
T6C0.0320
T5C0.0354
T4C0.0394
T3C0.0470
T2C0.0550
T1C0.1300
%
G90
M72
T1
X32500Y36280
X28000Y36280
X11000Y36280
X6500Y36280
X21500Y36280
X17000Y36280
T2
X19000Y3500
X21000Y3500
X3000Y29500
X3000Y27500
X3000Y12000
X17000Y3500
X8500Y3500
X10500Y3500
X12500Y3500
X3000Y10000
X3000Y8000
T3
X29756Y3000
X28378Y3000
X31134Y3000
X27000Y3000
T4
X2197Y21763
X3197Y15763
X3197Y21763
X4197Y15763
X4197Y21763
X18197Y21763
X5197Y21763
X6197Y15763
X6197Y21763
X7197Y15763
X7197Y21763
X8197Y15763
X8197Y21763
X5197Y15763
X9197Y21763
X10197Y15763
X10197Y21763
X11197Y15763
X11197Y21763
X12197Y15763
X12197Y21763
X13197Y15763
X13197Y21763
X14197Y15763
X14197Y21763
X15197Y15763
X15197Y21763
X16197Y15763
X16197Y21763
X17197Y15763
X22197Y15763
X21197Y21763
X23197Y15763
X23197Y21763
X24197Y15763
X24197Y21763
X21197Y15763
X20197Y21763
X20197Y15763
X9197Y15763
X19197Y21763
X17197Y21763
X18197Y15763
X19197Y15763
X1197Y15763
X1197Y21763
X2197Y15763
X22197Y21763
T5
X15516Y9500
X7516Y9500
X9484Y9500
X17484Y9500
T6
X12894Y24522
X12094Y24522
X17606Y24478
X18406Y24478
T7
X10000Y32780
X9000Y32780
X8000Y32780
X10500Y33780
X9500Y33780
X8500Y33780
X7500Y33780
X20500Y32780
X19500Y32780
X18500Y32780
X17500Y32780
X21000Y33780
X20000Y33780
X7000Y32780
X18000Y33780
X31500Y32780
X30500Y32780
X29500Y32780
X28500Y32780
X32000Y33780
X31000Y33780
X30000Y33780
X29000Y33780
X19000Y33780
T8
X16980Y29400
X12720Y25140
X16680Y14640
M30